M48
; DRILL file {KiCad 8.0.6-8.0.6-0~ubuntu22.04.1} date 2024-11-03T00:35:36+0100
; FORMAT={-:-/ absolute / inch / decimal}
; #@! TF.CreationDate,2024-11-03T00:35:36+01:00
; #@! TF.GenerationSoftware,Kicad,Pcbnew,8.0.6-8.0.6-0~ubuntu22.04.1
; #@! TF.FileFunction,Plated,1,4,PTH
FMAT,2
INCH
; #@! TA.AperFunction,Plated,PTH,ViaDrill
T1C0.0118
; #@! TA.AperFunction,Plated,PTH,ViaDrill
T2C0.0138
; #@! TA.AperFunction,Plated,PTH,ComponentDrill
T3C0.0236
; #@! TA.AperFunction,Plated,PTH,ComponentDrill
T4C0.0390
; #@! TA.AperFunction,Plated,PTH,ComponentDrill
T5C0.0394
; #@! TA.AperFunction,Plated,PTH,ComponentDrill
T6C0.0512
; #@! TA.AperFunction,Plated,PTH,ComponentDrill
T7C0.1102
; #@! TA.AperFunction,Plated,PTH,ComponentDrill
T8C0.1220
%
G90
G05
T1
X5.6575Y-2.626
X6.3917Y-2.5
X6.4213Y-2.7559
X6.4213Y-2.7835
X6.4587Y-2.4134
T2
X3.6978Y-2.8081
X3.7008Y-3.9764
X3.7008Y-4.0059
X3.7402Y-3.9764
X3.7402Y-4.0059
X3.7598Y-2.7756
X3.7992Y-2.4563
X3.8012Y-3.0
X3.8484Y-3.0177
X3.8543Y-3.0591
X3.876Y-2.7972
X3.9165Y-3.1776
X3.9272Y-2.9016
X3.937Y-3.2972
X3.9567Y-3.3268
X3.9803Y-2.5382
X3.9823Y-3.0906
X3.9862Y-3.2972
X4.0008Y-2.7106
X4.0059Y-3.3268
X4.0079Y-2.748
X4.0256Y-3.2972
X4.0315Y-3.2362
X4.0354Y-3.9075
X4.0472Y-2.6528
X4.0484Y-2.9409
X4.0551Y-3.4941
X4.0551Y-3.5236
X4.0551Y-3.5531
X4.065Y-3.9075
X4.0693Y-3.0343
X4.0713Y-3.0642
X4.0846Y-3.4921
X4.0846Y-3.5236
X4.0865Y-3.5531
X4.0945Y-3.9075
X4.1024Y-3.9665
X4.1024Y-4.0354
X4.1142Y-3.4941
X4.1142Y-3.5236
X4.1142Y-3.5531
X4.1146Y-2.6543
X4.1193Y-2.737
X4.1228Y-3.2795
X4.124Y-3.9075
X4.1437Y-3.4941
X4.1437Y-3.5236
X4.1437Y-3.5531
X4.1634Y-3.9469
X4.1634Y-3.9764
X4.1634Y-4.0059
X4.1732Y-3.4941
X4.1732Y-3.5236
X4.1732Y-3.5531
X4.1811Y-3.3268
X4.1902Y-2.928
X4.1929Y-3.9469
X4.1929Y-3.9764
X4.1929Y-4.0059
X4.2138Y-2.9043
X4.2248Y-3.4035
X4.2496Y-3.4035
X4.2504Y-3.3244
X4.2559Y-3.0315
X4.2792Y-3.4082
X4.2835Y-2.6496
X4.2993Y-3.4282
X4.3179Y-3.4504
X4.3179Y-3.4843
X4.3179Y-3.5331
X4.3179Y-3.5736
X4.3179Y-3.6185
X4.3733Y-2.469
X4.4024Y-2.4685
X4.4303Y-2.9768
X4.4327Y-2.4697
X4.4764Y-2.6171
X4.5354Y-2.6171
X4.5906Y-2.6815
X4.6063Y-2.6319
X4.622Y-2.6815
X4.6535Y-2.6815
X4.689Y-2.6363
X4.689Y-2.6815
X4.6919Y-2.7333
X4.697Y-2.7624
X4.7994Y-2.8463
X4.8425Y-2.5354
X4.8798Y-2.8383
X4.9055Y-2.5906
X4.9075Y-2.5512
X4.9291Y-2.6142
X4.9638Y-2.9449
X4.9764Y-2.6142
X4.992Y-2.8583
X5.0Y-2.6929
X5.0591Y-2.9646
X5.063Y-2.3991
X5.0787Y-2.4278
X5.0945Y-2.3991
X5.126Y-2.3991
X5.1654Y-2.4331
X5.1654Y-2.9449
X5.2441Y-2.6457
X5.2835Y-2.8346
X5.2835Y-2.8346
X5.3543Y-2.9764
X5.3661Y-2.5354
X5.4173Y-2.8346
X5.5866Y-2.437
X5.7205Y-2.8661
X5.7559Y-2.5433
X5.7677Y-2.9016
X5.7992Y-2.7289
X5.8228Y-2.6815
X5.8268Y-2.4016
X5.8583Y-2.7569
X5.9291Y-2.7717
X5.9449Y-2.5591
X5.9528Y-2.4252
X6.0079Y-2.8701
X6.0354Y-2.8701
X6.0669Y-2.8701
X6.0984Y-2.8701
X6.126Y-2.8701
X6.1811Y-2.5433
X6.1811Y-2.6339
X6.1811Y-2.6654
X6.1811Y-2.7008
X6.1831Y-2.5118
X6.2303Y-2.6476
X6.4833Y-2.7047
X6.4862Y-2.7736
X6.5453Y-2.5925
X6.5945Y-2.6949
X6.687Y-2.498
X6.7087Y-2.4667
X6.7106Y-2.3957
X6.7264Y-2.5787
X6.7264Y-2.6261
X6.7264Y-2.6892
X6.7343Y-2.7264
T4
X3.2917Y-2.4988
X3.2917Y-2.676
T5
X3.5433Y-3.4764
X3.5433Y-3.5843
X3.5433Y-3.6921
X3.6654Y-3.5189
X3.6654Y-3.6382
X4.4969Y-2.4409
X4.5969Y-2.4409
X4.6969Y-2.4409
X4.7969Y-2.4409
X4.8969Y-2.4409
X6.5709Y-3.5303
X6.5709Y-3.6496
X6.6929Y-3.4764
X6.6929Y-3.5843
X6.6929Y-3.6921
T6
X3.3898Y-2.4492
X3.3898Y-2.7252
T7
X3.6043Y-3.3142
X3.6043Y-3.8543
X6.6319Y-3.3142
X6.6319Y-3.8543
T8
X3.6043Y-2.9283
X3.6043Y-4.2402
X6.6319Y-2.9283
X6.6319Y-4.2402
T3
G00X6.7825Y-2.4224
M15
G01X6.8258Y-2.4224
M16
G05
G00X6.7825Y-2.7626
M15
G01X6.8258Y-2.7626
M16
G05
G00X6.9537Y-2.4224
M15
G01X6.9852Y-2.4224
M16
G05
G00X6.9537Y-2.7626
M15
G01X6.9852Y-2.7626
M16
G05
M30
