%TF.GenerationSoftware,KiCad,Pcbnew,8.0.6-8.0.6-0~ubuntu22.04.1*%
%TF.CreationDate,2024-11-11T02:09:08+01:00*%
%TF.ProjectId,mini_module_template,6d696e69-5f6d-46f6-9475-6c655f74656d,rev?*%
%TF.SameCoordinates,Original*%
%TF.FileFunction,Paste,Top*%
%TF.FilePolarity,Positive*%
%FSLAX46Y46*%
G04 Gerber Fmt 4.6, Leading zero omitted, Abs format (unit mm)*
G04 Created by KiCad (PCBNEW 8.0.6-8.0.6-0~ubuntu22.04.1) date 2024-11-11 02:09:08*
%MOMM*%
%LPD*%
G01*
G04 APERTURE LIST*
G04 Aperture macros list*
%AMRoundRect*
0 Rectangle with rounded corners*
0 $1 Rounding radius*
0 $2 $3 $4 $5 $6 $7 $8 $9 X,Y pos of 4 corners*
0 Add a 4 corners polygon primitive as box body*
4,1,4,$2,$3,$4,$5,$6,$7,$8,$9,$2,$3,0*
0 Add four circle primitives for the rounded corners*
1,1,$1+$1,$2,$3*
1,1,$1+$1,$4,$5*
1,1,$1+$1,$6,$7*
1,1,$1+$1,$8,$9*
0 Add four rect primitives between the rounded corners*
20,1,$1+$1,$2,$3,$4,$5,0*
20,1,$1+$1,$4,$5,$6,$7,0*
20,1,$1+$1,$6,$7,$8,$9,0*
20,1,$1+$1,$8,$9,$2,$3,0*%
G04 Aperture macros list end*
%ADD10RoundRect,0.135000X0.185000X-0.135000X0.185000X0.135000X-0.185000X0.135000X-0.185000X-0.135000X0*%
%ADD11RoundRect,0.150000X-0.587500X-0.150000X0.587500X-0.150000X0.587500X0.150000X-0.587500X0.150000X0*%
%ADD12RoundRect,0.135000X-0.135000X-0.185000X0.135000X-0.185000X0.135000X0.185000X-0.135000X0.185000X0*%
%ADD13RoundRect,0.140000X0.140000X0.170000X-0.140000X0.170000X-0.140000X-0.170000X0.140000X-0.170000X0*%
%ADD14RoundRect,0.250000X-1.000000X-0.650000X1.000000X-0.650000X1.000000X0.650000X-1.000000X0.650000X0*%
%ADD15R,1.200000X1.400000*%
%ADD16RoundRect,0.218750X-0.256250X0.218750X-0.256250X-0.218750X0.256250X-0.218750X0.256250X0.218750X0*%
%ADD17RoundRect,0.225000X0.225000X0.250000X-0.225000X0.250000X-0.225000X-0.250000X0.225000X-0.250000X0*%
%ADD18RoundRect,0.135000X0.135000X0.185000X-0.135000X0.185000X-0.135000X-0.185000X0.135000X-0.185000X0*%
%ADD19RoundRect,0.135000X-0.185000X0.135000X-0.185000X-0.135000X0.185000X-0.135000X0.185000X0.135000X0*%
%ADD20RoundRect,0.250000X-0.250000X-0.475000X0.250000X-0.475000X0.250000X0.475000X-0.250000X0.475000X0*%
%ADD21RoundRect,0.218750X0.256250X-0.218750X0.256250X0.218750X-0.256250X0.218750X-0.256250X-0.218750X0*%
%ADD22RoundRect,0.140000X0.170000X-0.140000X0.170000X0.140000X-0.170000X0.140000X-0.170000X-0.140000X0*%
%ADD23RoundRect,0.140000X0.219203X0.021213X0.021213X0.219203X-0.219203X-0.021213X-0.021213X-0.219203X0*%
%ADD24RoundRect,0.225000X-0.225000X-0.250000X0.225000X-0.250000X0.225000X0.250000X-0.225000X0.250000X0*%
%ADD25RoundRect,0.200000X-0.200000X-0.275000X0.200000X-0.275000X0.200000X0.275000X-0.200000X0.275000X0*%
%ADD26RoundRect,0.140000X-0.170000X0.140000X-0.170000X-0.140000X0.170000X-0.140000X0.170000X0.140000X0*%
%ADD27RoundRect,0.150000X-0.150000X0.825000X-0.150000X-0.825000X0.150000X-0.825000X0.150000X0.825000X0*%
%ADD28RoundRect,0.075000X-0.415425X-0.521491X0.521491X0.415425X0.415425X0.521491X-0.521491X-0.415425X0*%
%ADD29RoundRect,0.075000X0.415425X-0.521491X0.521491X-0.415425X-0.415425X0.521491X-0.521491X0.415425X0*%
%ADD30RoundRect,0.250000X-0.475000X0.250000X-0.475000X-0.250000X0.475000X-0.250000X0.475000X0.250000X0*%
%ADD31RoundRect,0.218750X-0.381250X0.218750X-0.381250X-0.218750X0.381250X-0.218750X0.381250X0.218750X0*%
%ADD32RoundRect,0.140000X-0.140000X-0.170000X0.140000X-0.170000X0.140000X0.170000X-0.140000X0.170000X0*%
%ADD33RoundRect,0.150000X0.150000X-0.587500X0.150000X0.587500X-0.150000X0.587500X-0.150000X-0.587500X0*%
%ADD34RoundRect,0.225000X0.250000X-0.225000X0.250000X0.225000X-0.250000X0.225000X-0.250000X-0.225000X0*%
%ADD35RoundRect,0.075000X-0.662500X-0.075000X0.662500X-0.075000X0.662500X0.075000X-0.662500X0.075000X0*%
%ADD36RoundRect,0.075000X-0.075000X-0.662500X0.075000X-0.662500X0.075000X0.662500X-0.075000X0.662500X0*%
%ADD37RoundRect,0.150000X-0.512500X-0.150000X0.512500X-0.150000X0.512500X0.150000X-0.512500X0.150000X0*%
%ADD38RoundRect,0.200000X-0.275000X0.200000X-0.275000X-0.200000X0.275000X-0.200000X0.275000X0.200000X0*%
%ADD39RoundRect,0.225000X-0.250000X0.225000X-0.250000X-0.225000X0.250000X-0.225000X0.250000X0.225000X0*%
%ADD40R,1.120000X2.160000*%
%ADD41RoundRect,0.375000X-0.375000X0.625000X-0.375000X-0.625000X0.375000X-0.625000X0.375000X0.625000X0*%
%ADD42RoundRect,0.500000X-1.400000X0.500000X-1.400000X-0.500000X1.400000X-0.500000X1.400000X0.500000X0*%
%ADD43RoundRect,0.150000X-0.850000X-0.150000X0.850000X-0.150000X0.850000X0.150000X-0.850000X0.150000X0*%
%ADD44RoundRect,0.075000X0.650000X0.075000X-0.650000X0.075000X-0.650000X-0.075000X0.650000X-0.075000X0*%
%ADD45RoundRect,0.140000X-0.219203X-0.021213X-0.021213X-0.219203X0.219203X0.021213X0.021213X0.219203X0*%
%ADD46R,1.100000X3.700000*%
%ADD47R,0.350000X0.850000*%
%ADD48R,2.450000X1.650000*%
%ADD49R,1.240000X0.600000*%
%ADD50R,1.240000X0.300000*%
%ADD51RoundRect,0.140000X0.021213X-0.219203X0.219203X-0.021213X-0.021213X0.219203X-0.219203X0.021213X0*%
%ADD52RoundRect,0.140000X-0.021213X0.219203X-0.219203X0.021213X0.021213X-0.219203X0.219203X-0.021213X0*%
%ADD53RoundRect,0.200000X0.200000X0.275000X-0.200000X0.275000X-0.200000X-0.275000X0.200000X-0.275000X0*%
%ADD54RoundRect,0.250000X0.250000X0.475000X-0.250000X0.475000X-0.250000X-0.475000X0.250000X-0.475000X0*%
%ADD55RoundRect,0.250000X0.475000X-0.250000X0.475000X0.250000X-0.475000X0.250000X-0.475000X-0.250000X0*%
%ADD56RoundRect,0.200000X0.275000X-0.200000X0.275000X0.200000X-0.275000X0.200000X-0.275000X-0.200000X0*%
G04 APERTURE END LIST*
D10*
%TO.C,R29*%
X109600000Y-66509998D03*
X109600000Y-65490000D03*
%TD*%
D11*
%TO.C,Q1*%
X142954999Y-64310000D03*
X142954999Y-66210000D03*
X144830000Y-65260000D03*
%TD*%
D10*
%TO.C,R2*%
X103606449Y-82569949D03*
X103606449Y-81549951D03*
%TD*%
D12*
%TO.C,R47*%
X151360000Y-71520000D03*
X152380000Y-71520000D03*
%TD*%
D13*
%TO.C,C17*%
X127760000Y-73600000D03*
X126800000Y-73600000D03*
%TD*%
%TO.C,C35*%
X152250000Y-61820000D03*
X151290000Y-61820000D03*
%TD*%
D14*
%TO.C,D1*%
X150270000Y-74320000D03*
X154270000Y-74320000D03*
%TD*%
D10*
%TO.C,R22*%
X142520000Y-68559999D03*
X142520000Y-67540001D03*
%TD*%
D15*
%TO.C,Y4*%
X164050000Y-63500000D03*
X164050000Y-61300000D03*
X162350000Y-61300000D03*
X162350000Y-63500000D03*
%TD*%
D16*
%TO.C,D3*%
X102800000Y-62724998D03*
X102800000Y-64300000D03*
%TD*%
D17*
%TO.C,C21*%
X98445000Y-88020000D03*
X96895000Y-88020000D03*
%TD*%
D18*
%TO.C,R34*%
X165180000Y-66220000D03*
X164160000Y-66220000D03*
%TD*%
D19*
%TO.C,R31*%
X168850000Y-62540001D03*
X168850000Y-63559999D03*
%TD*%
D13*
%TO.C,C36*%
X95190000Y-68590000D03*
X94230000Y-68590000D03*
%TD*%
D16*
%TO.C,D8*%
X106200000Y-62724998D03*
X106200000Y-64300000D03*
%TD*%
D20*
%TO.C,C28*%
X99671200Y-97400400D03*
X101571200Y-97400400D03*
%TD*%
D21*
%TO.C,D5*%
X147570000Y-65807501D03*
X147570000Y-64232499D03*
%TD*%
D22*
%TO.C,C40*%
X157280002Y-75610001D03*
X157280002Y-74650001D03*
%TD*%
D19*
%TO.C,R21*%
X144660000Y-62030001D03*
X144660000Y-63049999D03*
%TD*%
D12*
%TO.C,R32*%
X168760001Y-68120000D03*
X169779999Y-68120000D03*
%TD*%
D23*
%TO.C,C3*%
X106139411Y-80939411D03*
X105460589Y-80260589D03*
%TD*%
D24*
%TO.C,C22*%
X108125000Y-92950000D03*
X109675000Y-92950000D03*
%TD*%
D18*
%TO.C,R12*%
X134909999Y-63600000D03*
X133890001Y-63600000D03*
%TD*%
D22*
%TO.C,C5*%
X101430000Y-74100000D03*
X101430000Y-73140000D03*
%TD*%
D10*
%TO.C,R9*%
X104500000Y-66609999D03*
X104500000Y-65590001D03*
%TD*%
D22*
%TO.C,C16*%
X128400000Y-72680000D03*
X128400000Y-71720000D03*
%TD*%
D18*
%TO.C,R35*%
X167280000Y-68320000D03*
X166260000Y-68320000D03*
%TD*%
D25*
%TO.C,R17*%
X140550000Y-74120000D03*
X142200000Y-74120000D03*
%TD*%
D18*
%TO.C,R11*%
X127779998Y-74700000D03*
X126760000Y-74700000D03*
%TD*%
D19*
%TO.C,R25*%
X109170000Y-100810001D03*
X109170000Y-101829999D03*
%TD*%
D26*
%TO.C,C41*%
X157280002Y-72750001D03*
X157280002Y-73710001D03*
%TD*%
D27*
%TO.C,U2*%
X101105000Y-61925000D03*
X99835000Y-61925000D03*
X98565000Y-61925000D03*
X97295000Y-61925000D03*
X97295000Y-66875000D03*
X98565000Y-66875000D03*
X99835000Y-66875000D03*
X101105000Y-66875000D03*
%TD*%
D28*
%TO.C,U1*%
X104412124Y-75998788D03*
X104765678Y-76352342D03*
X105119231Y-76705895D03*
X105472785Y-77059449D03*
X105826338Y-77413002D03*
X106179891Y-77766555D03*
X106533445Y-78120109D03*
X106886998Y-78473662D03*
X107240551Y-78827215D03*
X107594105Y-79180769D03*
X107947658Y-79534322D03*
X108301212Y-79887876D03*
D29*
X110298788Y-79887876D03*
X110652342Y-79534322D03*
X111005895Y-79180769D03*
X111359449Y-78827215D03*
X111713002Y-78473662D03*
X112066555Y-78120109D03*
X112420109Y-77766555D03*
X112773662Y-77413002D03*
X113127215Y-77059449D03*
X113480769Y-76705895D03*
X113834322Y-76352342D03*
X114187876Y-75998788D03*
D28*
X114187876Y-74001212D03*
X113834322Y-73647658D03*
X113480769Y-73294105D03*
X113127215Y-72940551D03*
X112773662Y-72586998D03*
X112420109Y-72233445D03*
X112066555Y-71879891D03*
X111713002Y-71526338D03*
X111359449Y-71172785D03*
X111005895Y-70819231D03*
X110652342Y-70465678D03*
X110298788Y-70112124D03*
D29*
X108301212Y-70112124D03*
X107947658Y-70465678D03*
X107594105Y-70819231D03*
X107240551Y-71172785D03*
X106886998Y-71526338D03*
X106533445Y-71879891D03*
X106179891Y-72233445D03*
X105826338Y-72586998D03*
X105472785Y-72940551D03*
X105119231Y-73294105D03*
X104765678Y-73647658D03*
X104412124Y-74001212D03*
%TD*%
D19*
%TO.C,R20*%
X143580000Y-62030001D03*
X143580000Y-63049999D03*
%TD*%
D30*
%TO.C,C8*%
X117000000Y-64950001D03*
X117000000Y-66849999D03*
%TD*%
D31*
%TO.C,FB1*%
X119100000Y-64837500D03*
X119100000Y-66962500D03*
%TD*%
D32*
%TO.C,C18*%
X124317000Y-68393000D03*
X125277000Y-68393000D03*
%TD*%
D18*
%TO.C,R38*%
X95149999Y-70730000D03*
X94130001Y-70730000D03*
%TD*%
D16*
%TO.C,D2*%
X104500000Y-62724998D03*
X104500000Y-64300000D03*
%TD*%
D10*
%TO.C,R10*%
X102800000Y-66609999D03*
X102800000Y-65590001D03*
%TD*%
D12*
%TO.C,R45*%
X158170002Y-76630001D03*
X159190002Y-76630001D03*
%TD*%
D18*
%TO.C,R40*%
X152879999Y-64720000D03*
X151860001Y-64720000D03*
%TD*%
D32*
%TO.C,C32*%
X106790000Y-99120000D03*
X107750000Y-99120000D03*
%TD*%
D18*
%TO.C,R46*%
X152479999Y-70320000D03*
X151460001Y-70320000D03*
%TD*%
D32*
%TO.C,C13*%
X131320000Y-63800000D03*
X132280000Y-63800000D03*
%TD*%
D26*
%TO.C,C9*%
X104700000Y-81540000D03*
X104700000Y-82500000D03*
%TD*%
D19*
%TO.C,R15*%
X122000000Y-65200000D03*
X122000000Y-66219998D03*
%TD*%
D18*
%TO.C,R7*%
X111864400Y-61258000D03*
X110844402Y-61258000D03*
%TD*%
D19*
%TO.C,R14*%
X123000000Y-65200000D03*
X123000000Y-66219998D03*
%TD*%
D18*
%TO.C,R33*%
X165180000Y-65220000D03*
X164160000Y-65220000D03*
%TD*%
D33*
%TO.C,Q2*%
X96020000Y-96057500D03*
X97920000Y-96057500D03*
X96970000Y-94182499D03*
%TD*%
D13*
%TO.C,C14*%
X130530000Y-65630000D03*
X129570000Y-65630000D03*
%TD*%
D10*
%TO.C,R16*%
X130300000Y-74900000D03*
X130300000Y-73880002D03*
%TD*%
D34*
%TO.C,C39*%
X161870000Y-69295000D03*
X161870000Y-67745000D03*
%TD*%
D35*
%TO.C,U3*%
X130787500Y-67212500D03*
X130787500Y-67712500D03*
X130787500Y-68212500D03*
X130787500Y-68712500D03*
X130787500Y-69212500D03*
X130787500Y-69712500D03*
X130787500Y-70212500D03*
X130787500Y-70712500D03*
X130787500Y-71212500D03*
X130787500Y-71712500D03*
X130787500Y-72212500D03*
X130787500Y-72712500D03*
D36*
X132200000Y-74125000D03*
X132700000Y-74125000D03*
X133200000Y-74125000D03*
X133700000Y-74125000D03*
X134200000Y-74125000D03*
X134700000Y-74125000D03*
X135200000Y-74125000D03*
X135700000Y-74125000D03*
X136200000Y-74125000D03*
X136700000Y-74125000D03*
X137200000Y-74125000D03*
X137700000Y-74125000D03*
D35*
X139112500Y-72712500D03*
X139112500Y-72212500D03*
X139112500Y-71712500D03*
X139112500Y-71212500D03*
X139112500Y-70712500D03*
X139112500Y-70212500D03*
X139112500Y-69712500D03*
X139112500Y-69212500D03*
X139112500Y-68712500D03*
X139112500Y-68212500D03*
X139112500Y-67712500D03*
X139112500Y-67212500D03*
D36*
X137700000Y-65800000D03*
X137200000Y-65800000D03*
X136700000Y-65800000D03*
X136200000Y-65800000D03*
X135700000Y-65800000D03*
X135200000Y-65800000D03*
X134700000Y-65800000D03*
X134200000Y-65800000D03*
X133700000Y-65800000D03*
X133200000Y-65800000D03*
X132700000Y-65800000D03*
X132200000Y-65800000D03*
%TD*%
D21*
%TO.C,D4*%
X147570000Y-62807501D03*
X147570000Y-61232499D03*
%TD*%
D37*
%TO.C,U6*%
X166632500Y-64900000D03*
X166632500Y-65850000D03*
X166632500Y-66800000D03*
X168907500Y-66800000D03*
X168907500Y-65850000D03*
X168907500Y-64900000D03*
%TD*%
D12*
%TO.C,R28*%
X95660001Y-92620000D03*
X96679999Y-92620000D03*
%TD*%
D13*
%TO.C,C34*%
X152250000Y-62820000D03*
X151290000Y-62820000D03*
%TD*%
D12*
%TO.C,R42*%
X151460000Y-67820000D03*
X152480000Y-67820000D03*
%TD*%
D26*
%TO.C,C37*%
X140900000Y-66320000D03*
X140900000Y-67280000D03*
%TD*%
D19*
%TO.C,R13*%
X129200000Y-73890001D03*
X129200000Y-74909999D03*
%TD*%
D38*
%TO.C,R30*%
X107950000Y-82775000D03*
X107950000Y-84425000D03*
%TD*%
D20*
%TO.C,C23*%
X108100000Y-90800000D03*
X109999998Y-90800000D03*
%TD*%
D19*
%TO.C,R26*%
X109170000Y-102710001D03*
X109170000Y-103729999D03*
%TD*%
D12*
%TO.C,R41*%
X151860000Y-65920000D03*
X152880000Y-65920000D03*
%TD*%
D39*
%TO.C,C30*%
X106170000Y-95145000D03*
X106170000Y-96695000D03*
%TD*%
D40*
%TO.C,SW4*%
X90400000Y-62215000D03*
X90400000Y-68945000D03*
%TD*%
D10*
%TO.C,R19*%
X149370000Y-62229999D03*
X149370000Y-61210001D03*
%TD*%
D41*
%TO.C,U4*%
X105700000Y-86450000D03*
X103400000Y-86450001D03*
D42*
X103400000Y-92749999D03*
D41*
X101100000Y-86450000D03*
%TD*%
D12*
%TO.C,R5*%
X97190001Y-68850000D03*
X98209999Y-68850000D03*
%TD*%
%TO.C,R43*%
X151460000Y-68920000D03*
X152480000Y-68920000D03*
%TD*%
D43*
%TO.C,U7*%
X154700000Y-62210000D03*
X154700000Y-63480000D03*
X154700000Y-64750000D03*
X154700000Y-66020000D03*
X154700000Y-67290000D03*
X154700000Y-68560000D03*
X154700000Y-69830000D03*
X154700000Y-71100000D03*
X159700000Y-71100000D03*
X159700000Y-69830000D03*
X159700000Y-68560000D03*
X159700000Y-67290000D03*
X159700000Y-66020000D03*
X159700000Y-64750000D03*
X159700000Y-63480000D03*
X159700000Y-62210000D03*
%TD*%
D44*
%TO.C,U8*%
X163180002Y-75330001D03*
X163180002Y-74830000D03*
X163180002Y-74330001D03*
X163180002Y-73830002D03*
X163180002Y-73330001D03*
X158780002Y-73330001D03*
X158780002Y-73830002D03*
X158780002Y-74330001D03*
X158780002Y-74830000D03*
X158780002Y-75330001D03*
%TD*%
D15*
%TO.C,Y2*%
X123947000Y-69893000D03*
X123947000Y-72093000D03*
X125647000Y-72093000D03*
X125647000Y-69893000D03*
%TD*%
D45*
%TO.C,C2*%
X111070589Y-68450589D03*
X111749411Y-69129411D03*
%TD*%
D13*
%TO.C,C15*%
X137880000Y-75800000D03*
X136920000Y-75800000D03*
%TD*%
D46*
%TO.C,L1*%
X102706200Y-102740400D03*
X99706200Y-102740400D03*
%TD*%
D47*
%TO.C,IC1*%
X93680000Y-66920000D03*
X94330000Y-66920000D03*
X94980000Y-66920000D03*
X95630000Y-66920000D03*
X95630000Y-64020000D03*
X94980000Y-64020000D03*
X94330000Y-64020000D03*
X93680000Y-64020000D03*
D48*
X94655000Y-65470000D03*
%TD*%
D20*
%TO.C,C24*%
X108100000Y-88600000D03*
X109999998Y-88600000D03*
%TD*%
%TO.C,C29*%
X99671200Y-99440400D03*
X101571200Y-99440400D03*
%TD*%
D16*
%TO.C,D9*%
X107900000Y-62724998D03*
X107900000Y-64300000D03*
%TD*%
D34*
%TO.C,C38*%
X163470000Y-69270000D03*
X163470000Y-67720000D03*
%TD*%
D49*
%TO.C,J4*%
X172225000Y-69050000D03*
X172225000Y-68250000D03*
D50*
X172225000Y-67100000D03*
X172225000Y-66100000D03*
X172225000Y-65600000D03*
X172225000Y-64600000D03*
D49*
X172225000Y-63450000D03*
X172225000Y-62650000D03*
X172225000Y-62650000D03*
X172225000Y-63450000D03*
D50*
X172225000Y-64100000D03*
X172225000Y-65100000D03*
X172225000Y-66600000D03*
X172225000Y-67600000D03*
D49*
X172225000Y-68250000D03*
X172225000Y-69050000D03*
%TD*%
D51*
%TO.C,C4*%
X102720589Y-75909411D03*
X103399411Y-75230589D03*
%TD*%
D13*
%TO.C,C19*%
X125257000Y-73643000D03*
X124297000Y-73643000D03*
%TD*%
%TO.C,C33*%
X168250000Y-70120000D03*
X167290000Y-70120000D03*
%TD*%
D39*
%TO.C,C31*%
X104570000Y-95145000D03*
X104570000Y-96695000D03*
%TD*%
%TO.C,C7*%
X115200000Y-64925000D03*
X115200000Y-66475000D03*
%TD*%
D52*
%TO.C,C1*%
X116339411Y-76660589D03*
X115660589Y-77339411D03*
%TD*%
D19*
%TO.C,R23*%
X148970000Y-63310001D03*
X148970000Y-64329999D03*
%TD*%
D53*
%TO.C,R39*%
X95355000Y-61460000D03*
X93705000Y-61460000D03*
%TD*%
D10*
%TO.C,R36*%
X106200000Y-66609999D03*
X106200000Y-65590001D03*
%TD*%
%TO.C,R24*%
X109170000Y-99829999D03*
X109170000Y-98810001D03*
%TD*%
D37*
%TO.C,U5*%
X105068700Y-100345399D03*
X105068700Y-101295399D03*
X105068700Y-102245399D03*
X107343700Y-102245399D03*
X107343700Y-101295399D03*
X107343700Y-100345399D03*
%TD*%
D18*
%TO.C,R4*%
X103699999Y-69540000D03*
X102680001Y-69540000D03*
%TD*%
D54*
%TO.C,C20*%
X98849999Y-86200000D03*
X96950001Y-86200000D03*
%TD*%
D13*
%TO.C,C11*%
X100780000Y-76900000D03*
X99820000Y-76900000D03*
%TD*%
D10*
%TO.C,R18*%
X145720000Y-63049999D03*
X145720000Y-62030001D03*
%TD*%
D15*
%TO.C,Y1*%
X101150000Y-80700000D03*
X101150000Y-78500000D03*
X99450000Y-78500000D03*
X99450000Y-80700000D03*
%TD*%
D20*
%TO.C,C26*%
X105020001Y-104120000D03*
X106919999Y-104120000D03*
%TD*%
D16*
%TO.C,D7*%
X109599999Y-62712499D03*
X109599999Y-64287501D03*
%TD*%
D32*
%TO.C,C12*%
X99820000Y-82300000D03*
X100780000Y-82300000D03*
%TD*%
D55*
%TO.C,C27*%
X127980000Y-65979999D03*
X127980000Y-64080001D03*
%TD*%
D20*
%TO.C,C25*%
X105020001Y-106120000D03*
X106919999Y-106120000D03*
%TD*%
D13*
%TO.C,C10*%
X103670000Y-68440000D03*
X102710000Y-68440000D03*
%TD*%
D10*
%TO.C,R37*%
X107900000Y-66609999D03*
X107900000Y-65590001D03*
%TD*%
D18*
%TO.C,R3*%
X105670000Y-68430000D03*
X104650002Y-68430000D03*
%TD*%
D19*
%TO.C,R44*%
X95970000Y-97500002D03*
X95970000Y-98520000D03*
%TD*%
D39*
%TO.C,C6*%
X113700000Y-64925000D03*
X113700000Y-66475000D03*
%TD*%
D18*
%TO.C,R6*%
X100459999Y-68850000D03*
X99440001Y-68850000D03*
%TD*%
D56*
%TO.C,R27*%
X106200000Y-84425000D03*
X106200000Y-82775000D03*
%TD*%
M02*
