M48
; DRILL file {KiCad 8.0.6-8.0.6-0~ubuntu22.04.1} date 2024-11-11T02:09:08+0100
; FORMAT={-:-/ absolute / inch / decimal}
; #@! TF.CreationDate,2024-11-11T02:09:08+01:00
; #@! TF.GenerationSoftware,Kicad,Pcbnew,8.0.6-8.0.6-0~ubuntu22.04.1
; #@! TF.FileFunction,Plated,1,4,PTH
FMAT,2
INCH
; #@! TA.AperFunction,Plated,PTH,ViaDrill
T1C0.0118
; #@! TA.AperFunction,Plated,PTH,ViaDrill
T2C0.0138
; #@! TA.AperFunction,Plated,PTH,ComponentDrill
T3C0.0236
; #@! TA.AperFunction,Plated,PTH,ComponentDrill
T4C0.0390
; #@! TA.AperFunction,Plated,PTH,ComponentDrill
T5C0.0394
; #@! TA.AperFunction,Plated,PTH,ComponentDrill
T6C0.0512
; #@! TA.AperFunction,Plated,PTH,ComponentDrill
T7C0.1102
; #@! TA.AperFunction,Plated,PTH,ComponentDrill
T8C0.1220
%
G90
G05
T1
X3.8268Y-2.7366
X4.298Y-3.8551
X4.3531Y-4.0126
X4.3531Y-4.052
X4.3571Y-3.9772
X4.3886Y-3.9772
X4.3886Y-4.052
X4.3925Y-4.0126
X4.4252Y-2.689
X4.6641Y-2.7697
X4.6647Y-2.7338
X4.7201Y-2.7774
X4.7736Y-2.5453
X5.2087Y-2.7327
X5.4094Y-2.685
X5.6499Y-2.7333
X5.6541Y-2.6877
X5.6921Y-2.6737
X5.6996Y-2.5344
X5.7469Y-2.7646
X5.7587Y-2.679
X5.7626Y-2.6268
X5.7705Y-2.9811
X5.7783Y-2.9102
X5.7902Y-2.6661
X5.7902Y-2.7595
X5.7946Y-2.635
X5.8138Y-2.737
X5.8374Y-2.7094
X6.0224Y-2.4996
X6.1969Y-3.0138
X6.3917Y-2.5
X6.4043Y-2.5756
X6.4083Y-2.6071
X6.4218Y-2.5494
X6.4319Y-2.6279
X6.4587Y-2.4134
T2
X3.5413Y-2.5295
X3.5643Y-2.5596
X3.5643Y-2.5911
X3.5841Y-2.6237
X3.5984Y-2.5142
X3.6Y-2.4654
X3.6299Y-2.5142
X3.7008Y-3.9764
X3.7008Y-4.0059
X3.7157Y-2.7354
X3.739Y-3.8866
X3.7402Y-3.9764
X3.7402Y-4.0059
X3.7492Y-2.7331
X3.8154Y-2.5488
X3.8476Y-2.5201
X3.8516Y-2.8783
X3.9165Y-3.1776
X3.9201Y-3.2972
X3.9567Y-3.3268
X3.9803Y-2.5382
X3.9862Y-3.2972
X4.0008Y-2.7106
X4.0059Y-3.3268
X4.0079Y-2.748
X4.0256Y-3.2972
X4.0315Y-3.2362
X4.0358Y-3.0783
X4.0436Y-3.8059
X4.0437Y-3.924
X4.0453Y-3.8386
X4.0453Y-3.8949
X4.0461Y-3.8677
X4.0472Y-2.6528
X4.0484Y-2.9409
X4.0547Y-3.5807
X4.0551Y-3.4941
X4.0551Y-3.5236
X4.0551Y-3.5531
X4.0693Y-3.0343
X4.0713Y-3.0642
X4.0733Y-3.924
X4.0752Y-3.8382
X4.0752Y-3.8949
X4.076Y-3.8681
X4.0764Y-3.8071
X4.0846Y-3.4921
X4.0846Y-3.5236
X4.0861Y-3.5807
X4.0865Y-3.5531
X4.1124Y-3.8453
X4.1124Y-3.8748
X4.1124Y-3.9043
X4.1138Y-3.5807
X4.1142Y-3.4941
X4.1142Y-3.5236
X4.1142Y-3.5531
X4.1146Y-2.6543
X4.1193Y-2.737
X4.1228Y-3.2795
X4.142Y-3.8453
X4.142Y-3.8748
X4.142Y-3.9043
X4.1433Y-3.5807
X4.1437Y-3.4941
X4.1437Y-3.5236
X4.1437Y-3.5531
X4.1728Y-3.5807
X4.1732Y-3.4941
X4.1732Y-3.5236
X4.1732Y-3.5531
X4.1811Y-3.3268
X4.1874Y-2.9961
X4.1902Y-2.928
X4.2138Y-2.9043
X4.2248Y-3.4035
X4.2496Y-3.4035
X4.2504Y-3.3244
X4.2587Y-3.0522
X4.2792Y-3.4082
X4.2835Y-2.6496
X4.2993Y-3.4282
X4.3179Y-3.4504
X4.3179Y-3.4843
X4.3179Y-3.5331
X4.3179Y-3.5736
X4.3179Y-3.6185
X4.3733Y-2.469
X4.4024Y-2.4685
X4.4303Y-2.9768
X4.4327Y-2.4697
X4.4764Y-2.6171
X4.5354Y-2.6171
X4.5906Y-2.6815
X4.6063Y-2.6319
X4.622Y-2.6815
X4.6535Y-2.6815
X4.689Y-2.6363
X4.689Y-2.6815
X4.8425Y-2.5354
X4.8798Y-2.8383
X4.9638Y-2.9449
X4.992Y-2.8583
X5.0Y-2.6929
X5.0374Y-2.5984
X5.0386Y-2.4614
X5.0591Y-2.9646
X5.0685Y-2.4614
X5.1008Y-2.5469
X5.1654Y-2.9654
X5.1681Y-2.4417
X5.2059Y-2.6843
X5.2094Y-2.828
X5.2173Y-2.6488
X5.2535Y-2.6488
X5.2649Y-2.8191
X5.3543Y-2.9764
X5.3661Y-2.5354
X5.3815Y-2.8453
X5.4083Y-2.65
X5.411Y-2.8248
X5.5681Y-2.4417
X5.6957Y-2.4075
X5.735Y-2.9535
X5.7378Y-2.4083
X5.7469Y-2.9237
X5.9201Y-2.4535
X5.9563Y-2.4339
X6.1606Y-2.9224
X6.1811Y-2.5433
X6.1811Y-2.6339
X6.1811Y-2.6654
X6.1811Y-2.7008
X6.1831Y-2.5118
X6.1921Y-2.9224
X6.2165Y-2.6189
X6.2787Y-2.8594
X6.3188Y-2.9079
X6.326Y-2.9658
X6.3378Y-2.9382
X6.3496Y-2.9067
X6.3555Y-2.9657
X6.3787Y-2.863
X6.4063Y-3.4315
X6.4091Y-3.5098
X6.4333Y-3.4583
X6.4343Y-3.4878
X6.4799Y-2.887
X6.487Y-2.7409
X6.5146Y-2.6898
X6.55Y-2.7646
X6.5603Y-2.5925
X6.6091Y-2.5953
X6.6602Y-2.7144
X6.687Y-2.498
X6.7106Y-2.3957
X6.7264Y-2.5787
X6.7264Y-2.6261
X6.7343Y-2.7264
X6.735Y-2.4999
T4
X3.2854Y-2.498
X3.2854Y-2.6752
T5
X3.5433Y-3.4764
X3.5433Y-3.5843
X3.5433Y-3.6921
X3.6654Y-3.5189
X3.6654Y-3.6382
X4.4969Y-2.4409
X4.5969Y-2.4409
X4.6969Y-2.4409
X4.7969Y-2.4409
X4.8969Y-2.4409
X5.0075Y-4.1504
X5.0823Y-3.9496
X5.1075Y-4.1504
X5.1823Y-3.9496
X5.2075Y-4.1504
X5.2823Y-3.9496
X5.3075Y-4.1504
X5.3823Y-3.9496
X5.4075Y-4.1504
X5.4823Y-3.9496
X5.5075Y-4.1504
X5.5823Y-3.9496
X5.6075Y-4.1504
X5.6823Y-3.9496
X5.7075Y-4.1504
X5.7823Y-3.9496
X6.572Y-3.5303
X6.572Y-3.6496
X6.6941Y-3.4764
X6.6941Y-3.5843
X6.6941Y-3.6921
T6
X3.3835Y-2.4484
X3.3835Y-2.7244
T7
X3.6043Y-3.3142
X3.6043Y-3.8543
X6.6331Y-3.3142
X6.6331Y-3.8543
T8
X3.6043Y-2.9283
X3.6043Y-4.2402
X6.6331Y-2.9283
X6.6331Y-4.2402
T3
G00X6.7825Y-2.4224
M15
G01X6.8258Y-2.4224
M16
G05
G00X6.7825Y-2.7626
M15
G01X6.8258Y-2.7626
M16
G05
G00X6.9537Y-2.4224
M15
G01X6.9852Y-2.4224
M16
G05
G00X6.9537Y-2.7626
M15
G01X6.9852Y-2.7626
M16
G05
M30
