%TF.GenerationSoftware,KiCad,Pcbnew,8.0.6-8.0.6-0~ubuntu22.04.1*%
%TF.CreationDate,2024-11-11T02:09:08+01:00*%
%TF.ProjectId,mini_module_template,6d696e69-5f6d-46f6-9475-6c655f74656d,rev?*%
%TF.SameCoordinates,Original*%
%TF.FileFunction,Copper,L2,Inr*%
%TF.FilePolarity,Positive*%
%FSLAX46Y46*%
G04 Gerber Fmt 4.6, Leading zero omitted, Abs format (unit mm)*
G04 Created by KiCad (PCBNEW 8.0.6-8.0.6-0~ubuntu22.04.1) date 2024-11-11 02:09:08*
%MOMM*%
%LPD*%
G01*
G04 APERTURE LIST*
%TA.AperFunction,ComponentPad*%
%ADD10C,2.100000*%
%TD*%
%TA.AperFunction,ComponentPad*%
%ADD11C,1.750000*%
%TD*%
%TA.AperFunction,ComponentPad*%
%ADD12R,1.700000X1.700000*%
%TD*%
%TA.AperFunction,ComponentPad*%
%ADD13O,1.700000X1.700000*%
%TD*%
%TA.AperFunction,ComponentPad*%
%ADD14C,3.600000*%
%TD*%
%TA.AperFunction,ComponentPad*%
%ADD15C,5.000000*%
%TD*%
%TA.AperFunction,ComponentPad*%
%ADD16C,1.400000*%
%TD*%
%TA.AperFunction,ComponentPad*%
%ADD17O,2.100000X1.000000*%
%TD*%
%TA.AperFunction,ComponentPad*%
%ADD18O,1.800000X1.000000*%
%TD*%
%TA.AperFunction,ViaPad*%
%ADD19C,0.550000*%
%TD*%
%TA.AperFunction,ViaPad*%
%ADD20C,0.600000*%
%TD*%
%TA.AperFunction,ViaPad*%
%ADD21C,0.650000*%
%TD*%
G04 APERTURE END LIST*
D10*
%TO.N,*%
%TO.C,SW2*%
X85940000Y-69200000D03*
X85940000Y-62190000D03*
D11*
%TO.N,GND*%
X83450000Y-67950000D03*
%TO.N,/MCU/NRST*%
X83450000Y-63450000D03*
%TD*%
D12*
%TO.N,PB15*%
%TO.C,J6*%
X144970000Y-105420000D03*
D13*
%TO.N,unconnected-(J6-Pin_2-Pad2)*%
X142430000Y-105420000D03*
%TO.N,unconnected-(J6-Pin_3-Pad3)*%
X139890001Y-105420000D03*
%TO.N,unconnected-(J6-Pin_4-Pad4)*%
X137350000Y-105420000D03*
%TO.N,unconnected-(J6-Pin_5-Pad5)*%
X134810000Y-105420000D03*
%TO.N,unconnected-(J6-Pin_6-Pad6)*%
X132270000Y-105420000D03*
%TO.N,unconnected-(J6-Pin_7-Pad7)*%
X129730000Y-105420000D03*
%TO.N,unconnected-(J6-Pin_8-Pad8)*%
X127189999Y-105420000D03*
%TD*%
D14*
%TO.N,*%
%TO.C,J3*%
X91550000Y-74380000D03*
X91550000Y-107700000D03*
D15*
%TO.N,VCC*%
X91550000Y-84180000D03*
D16*
%TO.N,+12V*%
X90000000Y-88300000D03*
%TO.N,/POWER/USB_DOWNSTREAM_D+*%
X90000000Y-91040000D03*
%TO.N,/POWER/USB_DOWNSTREAM_D-*%
X90000000Y-93780000D03*
%TO.N,/CAN/CAN+*%
X93100000Y-89380000D03*
%TO.N,/CAN/CAN-*%
X93100000Y-92410000D03*
D15*
%TO.N,GND*%
X91550000Y-97900000D03*
%TD*%
D12*
%TO.N,PB0*%
%TO.C,J5*%
X146870000Y-100320000D03*
D13*
%TO.N,PB1*%
X144330000Y-100320000D03*
%TO.N,PB11*%
X141790001Y-100320000D03*
%TO.N,PB2*%
X139250000Y-100320000D03*
%TO.N,PB10*%
X136710000Y-100320000D03*
%TO.N,PB13*%
X134170000Y-100320000D03*
%TO.N,PB14*%
X131630000Y-100320000D03*
%TO.N,PB12*%
X129089999Y-100320000D03*
%TD*%
D17*
%TO.N,Net-(J4-SHIELD)*%
%TO.C,J4*%
X172825000Y-70170000D03*
D18*
X177025000Y-70170000D03*
D17*
X172825000Y-61530000D03*
D18*
X177025000Y-61530000D03*
%TD*%
D14*
%TO.N,*%
%TO.C,J2*%
X168480000Y-107700000D03*
X168480000Y-74380000D03*
D15*
%TO.N,VCC*%
X168480000Y-97900000D03*
D16*
%TO.N,+12V*%
X170030000Y-93780000D03*
%TO.N,/POWER/USB_UPSTREAM_D+*%
X170030000Y-91040000D03*
%TO.N,/POWER/USB_UPSTREAM_D-*%
X170030000Y-88300000D03*
%TO.N,/CAN/CAN+*%
X166930000Y-92700000D03*
%TO.N,/CAN/CAN-*%
X166930000Y-89670000D03*
D15*
%TO.N,GND*%
X168480000Y-84180000D03*
%TD*%
D12*
%TO.N,+3V3*%
%TO.C,J1*%
X124379999Y-62000000D03*
D13*
%TO.N,/MCU/NRST*%
X121839999Y-62000000D03*
%TO.N,/MCU/SWDIO*%
X119300000Y-62000000D03*
%TO.N,/MCU/SWCLK*%
X116759999Y-62000000D03*
%TO.N,GND*%
X114219999Y-62000000D03*
%TD*%
D19*
%TO.N,/MCU/BOOT0*%
X104630000Y-69520000D03*
X107030000Y-73770000D03*
%TO.N,GND*%
X159480002Y-72630001D03*
X164770000Y-69620000D03*
X102706200Y-96670398D03*
X115200000Y-66475000D03*
D20*
X111470000Y-102920000D03*
D19*
X100500000Y-84500000D03*
X91036400Y-66642800D03*
X108692499Y-86567501D03*
X129560000Y-64690000D03*
D20*
X110570000Y-102920000D03*
D19*
X109675000Y-87640000D03*
X101800000Y-69800000D03*
X107310000Y-86450000D03*
X162790000Y-89150000D03*
D20*
X163370000Y-66749149D03*
X162350000Y-63500000D03*
D19*
X136300000Y-64400000D03*
X102250000Y-83750000D03*
X109675000Y-88500000D03*
D20*
X163113761Y-64754358D03*
D19*
X89950000Y-64250000D03*
X126798000Y-72600000D03*
X123947000Y-72093000D03*
X169850000Y-63448000D03*
D20*
X157400000Y-76550000D03*
D19*
X133440000Y-67280000D03*
X109675000Y-91910000D03*
D21*
X166632500Y-65850000D03*
D19*
X141430000Y-62020000D03*
X123000000Y-64400000D03*
X105206200Y-98420398D03*
X104456200Y-98420398D03*
D20*
X110570000Y-101920000D03*
D19*
X162020000Y-72720000D03*
D21*
X165470000Y-68320000D03*
D19*
X94380000Y-69480000D03*
X131200000Y-75320000D03*
X128740000Y-62520000D03*
X169170000Y-68945686D03*
X94970000Y-98720000D03*
X127980000Y-62520000D03*
D20*
X164050000Y-61300000D03*
D19*
X106430000Y-74370000D03*
X113700000Y-66475000D03*
D20*
X146270000Y-68047800D03*
D19*
X91440000Y-62620000D03*
X162720000Y-87160000D03*
X117000000Y-66849999D03*
D20*
X148270000Y-68820000D03*
D19*
X102751200Y-97500400D03*
D20*
X111570000Y-101920000D03*
D19*
X151290000Y-61820000D03*
X103531200Y-98250400D03*
X99480000Y-80710000D03*
D20*
X109170000Y-97920000D03*
D19*
X104720000Y-83300000D03*
X104456200Y-99170398D03*
X160980002Y-74630001D03*
D20*
X145970000Y-70220000D03*
X112400000Y-68300000D03*
X144579600Y-67912800D03*
X132300000Y-69410000D03*
D19*
X108170000Y-77525687D03*
X97830000Y-73110000D03*
D21*
X171050000Y-69250000D03*
D19*
X107940000Y-86450000D03*
X102711200Y-99670400D03*
D20*
X137400000Y-68200000D03*
X146570000Y-75720000D03*
D19*
X136000000Y-75600000D03*
X127000000Y-68400000D03*
X107960000Y-84440000D03*
X157280002Y-74230001D03*
X109675000Y-90770000D03*
D21*
X170450000Y-60850000D03*
X166370000Y-70220000D03*
D19*
X102830000Y-74700000D03*
X164590000Y-73330001D03*
D21*
X157900000Y-66520000D03*
D19*
X101750000Y-84500000D03*
X112530000Y-75610000D03*
X104456200Y-97670398D03*
X103511200Y-97490400D03*
X109675000Y-89740000D03*
X101250000Y-83750000D03*
X103461200Y-99670400D03*
X97730000Y-64010000D03*
D20*
X111470000Y-101020000D03*
X119890800Y-70545000D03*
D19*
X103541200Y-96700400D03*
D20*
X146370000Y-66720000D03*
X146770000Y-73920000D03*
D19*
X105206200Y-99170398D03*
X144670000Y-61150000D03*
X111082499Y-62712499D03*
X99569925Y-83750000D03*
X102751200Y-98930400D03*
X105206200Y-97670398D03*
X102510000Y-78190000D03*
D20*
X110670000Y-101020000D03*
D19*
X102771200Y-98240400D03*
X103511200Y-98930400D03*
X112590000Y-62730000D03*
X111820000Y-62700000D03*
X109202499Y-87077501D03*
D20*
%TO.N,/MCU/NRST*%
X121250000Y-64650000D03*
D19*
X106360000Y-76100000D03*
D21*
%TO.N,+5V*%
X95000000Y-101000000D03*
D19*
X157050000Y-63800000D03*
D20*
X152970000Y-63490000D03*
D19*
X157000000Y-68600000D03*
X157000000Y-67700000D03*
X95230000Y-69420000D03*
D21*
X94000000Y-101000000D03*
X94000000Y-101750000D03*
D19*
X145740000Y-61170000D03*
X157000000Y-64600000D03*
X157000000Y-66900000D03*
D21*
X95000000Y-101750000D03*
D19*
%TO.N,+3V3*%
X119100000Y-66962500D03*
X137370000Y-67310000D03*
X101620000Y-68850000D03*
X131270000Y-62020000D03*
X103000000Y-89500000D03*
X132230000Y-68180000D03*
X106000000Y-88750000D03*
X105250000Y-90250000D03*
X132520000Y-67280000D03*
X127950000Y-66000000D03*
X103750000Y-88700000D03*
X105240000Y-90950000D03*
X104500000Y-90250000D03*
X156480002Y-74230001D03*
X105990000Y-90950000D03*
X96910000Y-64740000D03*
X103000000Y-90250000D03*
X132320000Y-71830000D03*
D21*
X150370000Y-62320000D03*
D20*
X97200000Y-69510000D03*
D19*
X105250000Y-88750000D03*
X128500000Y-75300000D03*
X103750000Y-89500000D03*
X105250000Y-89500000D03*
X102400000Y-82200000D03*
X103795997Y-90250000D03*
X126080000Y-74800000D03*
X106000000Y-89500000D03*
X101100000Y-64470000D03*
X102990000Y-90950000D03*
X106000000Y-90250000D03*
X116600000Y-68110000D03*
D20*
X144770000Y-64375000D03*
D19*
X118200000Y-68110000D03*
X104500000Y-89500000D03*
X136690000Y-72270000D03*
X103000000Y-88750000D03*
X103785997Y-90950000D03*
X104490000Y-90950000D03*
X108800000Y-67300000D03*
X117400000Y-68110000D03*
X104500000Y-88750000D03*
X119100000Y-68110000D03*
%TO.N,/USB/USB_CONN_D-*%
X170850000Y-65498000D03*
X170850000Y-66702000D03*
%TO.N,/MCU/USR_LED1*%
X103360000Y-77072000D03*
X104510000Y-67420000D03*
%TO.N,/MCU/USR_LED2*%
X103410000Y-77830000D03*
X102800000Y-67380000D03*
D20*
%TO.N,/USB/USB_PROT_D-*%
X162670000Y-65420000D03*
D19*
X160497027Y-73860199D03*
%TO.N,/USB/USB_PROT_D+*%
X161280002Y-73830001D03*
D20*
X162770000Y-66220000D03*
D19*
%TO.N,VCC*%
X106200000Y-84500000D03*
D20*
%TO.N,/STLINK/USB_D+*%
X147070000Y-67720000D03*
X143614400Y-68268400D03*
%TO.N,/MCU/USB_D+*%
X118483372Y-69439000D03*
X147070000Y-70091764D03*
%TO.N,/MCU/USB_D-*%
X147670000Y-69520000D03*
X118468400Y-70351200D03*
%TO.N,/STLINK/USB_D-*%
X147183137Y-66928038D03*
X143507705Y-69425872D03*
D19*
%TO.N,/CAN/CAN-*%
X91400000Y-63860000D03*
X163406913Y-87840309D03*
X90532364Y-65013474D03*
%TO.N,/STLINK/SWCLK*%
X137440000Y-71750000D03*
X133729417Y-71604000D03*
%TO.N,/CAN/CAN+*%
X90532364Y-65813474D03*
X92200000Y-63860000D03*
X163430332Y-88589946D03*
%TO.N,/USB/VBUS*%
X167870000Y-65920000D03*
X171070000Y-63498000D03*
%TO.N,/POWER/USB_UPSTREAM_D+*%
X161429735Y-75329934D03*
%TO.N,/POWER/USB_UPSTREAM_D-*%
X160679733Y-75330270D03*
%TO.N,/POWER/USB_DOWNSTREAM_D+*%
X145670000Y-75020000D03*
%TO.N,/POWER/USB_DOWNSTREAM_D-*%
X145970000Y-74260875D03*
%TD*%
%TA.AperFunction,Conductor*%
%TO.N,GND*%
G36*
X113749026Y-60520185D02*
G01*
X113794781Y-60572989D01*
X113804725Y-60642147D01*
X113775700Y-60705703D01*
X113734392Y-60736882D01*
X113542421Y-60826399D01*
X113542419Y-60826400D01*
X113348925Y-60961886D01*
X113348919Y-60961891D01*
X113181890Y-61128920D01*
X113181885Y-61128926D01*
X113046399Y-61322420D01*
X113046398Y-61322422D01*
X112946569Y-61536507D01*
X112946566Y-61536513D01*
X112889363Y-61749999D01*
X112889363Y-61750000D01*
X113786987Y-61750000D01*
X113754074Y-61807007D01*
X113719999Y-61934174D01*
X113719999Y-62065826D01*
X113754074Y-62192993D01*
X113786987Y-62250000D01*
X112889363Y-62250000D01*
X112946566Y-62463486D01*
X112946569Y-62463492D01*
X113046398Y-62677578D01*
X113181893Y-62871082D01*
X113348916Y-63038105D01*
X113542420Y-63173600D01*
X113756506Y-63273429D01*
X113756515Y-63273433D01*
X113969999Y-63330634D01*
X113969999Y-62433012D01*
X114027006Y-62465925D01*
X114154173Y-62500000D01*
X114285825Y-62500000D01*
X114412992Y-62465925D01*
X114469999Y-62433012D01*
X114469999Y-63330633D01*
X114683482Y-63273433D01*
X114683491Y-63273429D01*
X114897577Y-63173600D01*
X115091081Y-63038105D01*
X115258104Y-62871082D01*
X115393599Y-62677578D01*
X115493428Y-62463492D01*
X115493432Y-62463483D01*
X115526157Y-62341350D01*
X115562521Y-62281690D01*
X115625368Y-62251160D01*
X115694744Y-62259454D01*
X115748622Y-62303939D01*
X115764592Y-62337447D01*
X115784767Y-62403954D01*
X115882314Y-62586450D01*
X115883632Y-62588056D01*
X116013588Y-62746410D01*
X116100381Y-62817638D01*
X116173549Y-62877685D01*
X116356045Y-62975232D01*
X116554065Y-63035300D01*
X116554064Y-63035300D01*
X116564147Y-63036293D01*
X116759999Y-63055583D01*
X116965933Y-63035300D01*
X117163953Y-62975232D01*
X117346449Y-62877685D01*
X117506409Y-62746410D01*
X117637684Y-62586450D01*
X117735231Y-62403954D01*
X117795299Y-62205934D01*
X117815582Y-62000000D01*
X118244417Y-62000000D01*
X118264699Y-62205932D01*
X118278067Y-62250000D01*
X118324768Y-62403954D01*
X118422315Y-62586450D01*
X118423633Y-62588056D01*
X118553589Y-62746410D01*
X118640382Y-62817638D01*
X118713550Y-62877685D01*
X118896046Y-62975232D01*
X119094066Y-63035300D01*
X119094065Y-63035300D01*
X119104148Y-63036293D01*
X119300000Y-63055583D01*
X119505934Y-63035300D01*
X119703954Y-62975232D01*
X119886450Y-62877685D01*
X120046410Y-62746410D01*
X120177685Y-62586450D01*
X120275232Y-62403954D01*
X120335300Y-62205934D01*
X120355583Y-62000000D01*
X120784416Y-62000000D01*
X120804698Y-62205932D01*
X120818066Y-62250000D01*
X120864767Y-62403954D01*
X120962314Y-62586450D01*
X120963632Y-62588056D01*
X121093588Y-62746410D01*
X121180381Y-62817638D01*
X121253549Y-62877685D01*
X121436045Y-62975232D01*
X121634065Y-63035300D01*
X121634064Y-63035300D01*
X121644147Y-63036293D01*
X121839999Y-63055583D01*
X122045933Y-63035300D01*
X122243953Y-62975232D01*
X122426449Y-62877685D01*
X122586409Y-62746410D01*
X122717684Y-62586450D01*
X122815231Y-62403954D01*
X122875299Y-62205934D01*
X122895582Y-62000000D01*
X122875299Y-61794066D01*
X122815231Y-61596046D01*
X122717684Y-61413550D01*
X122628881Y-61305342D01*
X122586409Y-61253589D01*
X122436120Y-61130252D01*
X122436114Y-61130247D01*
X123329499Y-61130247D01*
X123329499Y-62869752D01*
X123341130Y-62928229D01*
X123341131Y-62928230D01*
X123385446Y-62994552D01*
X123451768Y-63038867D01*
X123451769Y-63038868D01*
X123510246Y-63050499D01*
X123510249Y-63050500D01*
X123510251Y-63050500D01*
X125249749Y-63050500D01*
X125249750Y-63050499D01*
X125264567Y-63047552D01*
X125308228Y-63038868D01*
X125308228Y-63038867D01*
X125308230Y-63038867D01*
X125374551Y-62994552D01*
X125418866Y-62928231D01*
X125418866Y-62928229D01*
X125418867Y-62928229D01*
X125428921Y-62877682D01*
X125430499Y-62869748D01*
X125430499Y-62020000D01*
X130789610Y-62020000D01*
X130809068Y-62155337D01*
X130809070Y-62155345D01*
X130865867Y-62279714D01*
X130865872Y-62279721D01*
X130955409Y-62383053D01*
X130955413Y-62383057D01*
X130994191Y-62407977D01*
X131070439Y-62456978D01*
X131092624Y-62463492D01*
X131201632Y-62495500D01*
X131201633Y-62495500D01*
X131338367Y-62495500D01*
X131469561Y-62456978D01*
X131584589Y-62383055D01*
X131639226Y-62320000D01*
X149839965Y-62320000D01*
X149851547Y-62407975D01*
X149858026Y-62457181D01*
X149858027Y-62457186D01*
X149910974Y-62585015D01*
X149910975Y-62585017D01*
X149910976Y-62585018D01*
X149995209Y-62694791D01*
X150104982Y-62779024D01*
X150232817Y-62831974D01*
X150355702Y-62848152D01*
X150369999Y-62850035D01*
X150370000Y-62850035D01*
X150370001Y-62850035D01*
X150382947Y-62848330D01*
X150507183Y-62831974D01*
X150635018Y-62779024D01*
X150744791Y-62694791D01*
X150829024Y-62585018D01*
X150881974Y-62457183D01*
X150900035Y-62320000D01*
X150881974Y-62182817D01*
X150829024Y-62054983D01*
X150744791Y-61945209D01*
X150744789Y-61945208D01*
X150744789Y-61945207D01*
X150665886Y-61884662D01*
X150635018Y-61860976D01*
X150635017Y-61860975D01*
X150635015Y-61860974D01*
X150507186Y-61808027D01*
X150507184Y-61808026D01*
X150507183Y-61808026D01*
X150401157Y-61794067D01*
X150370001Y-61789965D01*
X150369999Y-61789965D01*
X150301408Y-61798995D01*
X150232817Y-61808026D01*
X150232816Y-61808026D01*
X150232813Y-61808027D01*
X150104985Y-61860974D01*
X149995209Y-61945209D01*
X149910974Y-62054985D01*
X149858027Y-62182813D01*
X149858026Y-62182816D01*
X149858026Y-62182817D01*
X149855292Y-62203581D01*
X149842080Y-62303939D01*
X149839965Y-62320000D01*
X131639226Y-62320000D01*
X131674130Y-62279718D01*
X131730931Y-62155342D01*
X131750390Y-62020000D01*
X131730931Y-61884658D01*
X131690188Y-61795443D01*
X131674132Y-61760285D01*
X131674127Y-61760278D01*
X131584590Y-61656946D01*
X131584586Y-61656942D01*
X131489822Y-61596043D01*
X131469561Y-61583022D01*
X131469560Y-61583021D01*
X131469559Y-61583021D01*
X131338368Y-61544500D01*
X131338367Y-61544500D01*
X131201633Y-61544500D01*
X131201632Y-61544500D01*
X131070440Y-61583021D01*
X130955413Y-61656942D01*
X130955409Y-61656946D01*
X130865872Y-61760278D01*
X130865867Y-61760285D01*
X130809070Y-61884654D01*
X130809068Y-61884662D01*
X130789610Y-62020000D01*
X125430499Y-62020000D01*
X125430499Y-61130252D01*
X125430499Y-61130249D01*
X125430498Y-61130247D01*
X125418867Y-61071770D01*
X125418866Y-61071769D01*
X125374551Y-61005447D01*
X125308229Y-60961132D01*
X125308228Y-60961131D01*
X125249751Y-60949500D01*
X125249747Y-60949500D01*
X123510251Y-60949500D01*
X123510246Y-60949500D01*
X123451769Y-60961131D01*
X123451768Y-60961132D01*
X123385446Y-61005447D01*
X123341131Y-61071769D01*
X123341130Y-61071770D01*
X123329499Y-61130247D01*
X122436114Y-61130247D01*
X122426449Y-61122315D01*
X122243953Y-61024768D01*
X122045933Y-60964700D01*
X122045931Y-60964699D01*
X122045933Y-60964699D01*
X121839999Y-60944417D01*
X121634066Y-60964699D01*
X121436042Y-61024769D01*
X121348113Y-61071769D01*
X121253549Y-61122315D01*
X121253547Y-61122316D01*
X121253546Y-61122317D01*
X121093588Y-61253589D01*
X120962316Y-61413547D01*
X120962314Y-61413550D01*
X120923642Y-61485898D01*
X120864768Y-61596043D01*
X120864767Y-61596045D01*
X120864767Y-61596046D01*
X120863598Y-61599901D01*
X120804698Y-61794067D01*
X120784416Y-62000000D01*
X120355583Y-62000000D01*
X120335300Y-61794066D01*
X120275232Y-61596046D01*
X120177685Y-61413550D01*
X120088882Y-61305342D01*
X120046410Y-61253589D01*
X119896121Y-61130252D01*
X119886450Y-61122315D01*
X119703954Y-61024768D01*
X119505934Y-60964700D01*
X119505932Y-60964699D01*
X119505934Y-60964699D01*
X119300000Y-60944417D01*
X119094067Y-60964699D01*
X118896043Y-61024769D01*
X118808114Y-61071769D01*
X118713550Y-61122315D01*
X118713548Y-61122316D01*
X118713547Y-61122317D01*
X118553589Y-61253589D01*
X118422317Y-61413547D01*
X118422315Y-61413550D01*
X118383643Y-61485898D01*
X118324769Y-61596043D01*
X118324768Y-61596045D01*
X118324768Y-61596046D01*
X118323599Y-61599901D01*
X118264699Y-61794067D01*
X118244417Y-62000000D01*
X117815582Y-62000000D01*
X117795299Y-61794066D01*
X117735231Y-61596046D01*
X117637684Y-61413550D01*
X117548881Y-61305342D01*
X117506409Y-61253589D01*
X117356120Y-61130252D01*
X117346449Y-61122315D01*
X117163953Y-61024768D01*
X116965933Y-60964700D01*
X116965931Y-60964699D01*
X116965933Y-60964699D01*
X116759999Y-60944417D01*
X116554066Y-60964699D01*
X116356042Y-61024769D01*
X116268113Y-61071769D01*
X116173549Y-61122315D01*
X116173547Y-61122316D01*
X116173546Y-61122317D01*
X116013588Y-61253589D01*
X115882316Y-61413547D01*
X115882314Y-61413550D01*
X115854621Y-61465358D01*
X115784766Y-61596046D01*
X115764592Y-61662552D01*
X115726295Y-61720990D01*
X115662482Y-61749447D01*
X115593415Y-61738886D01*
X115541022Y-61692661D01*
X115526157Y-61658649D01*
X115493432Y-61536516D01*
X115493428Y-61536507D01*
X115393599Y-61322422D01*
X115393598Y-61322420D01*
X115258112Y-61128926D01*
X115258107Y-61128920D01*
X115091081Y-60961894D01*
X114897577Y-60826399D01*
X114705606Y-60736882D01*
X114653167Y-60690710D01*
X114634015Y-60623516D01*
X114654231Y-60556635D01*
X114707396Y-60511300D01*
X114758011Y-60500500D01*
X145479946Y-60500500D01*
X145546985Y-60520185D01*
X145592740Y-60572989D01*
X145602684Y-60642147D01*
X145573659Y-60705703D01*
X145546984Y-60728816D01*
X145425413Y-60806942D01*
X145425409Y-60806946D01*
X145335872Y-60910278D01*
X145335867Y-60910285D01*
X145279070Y-61034654D01*
X145279068Y-61034662D01*
X145259610Y-61170000D01*
X145279068Y-61305337D01*
X145279070Y-61305345D01*
X145335867Y-61429714D01*
X145335872Y-61429721D01*
X145425409Y-61533053D01*
X145425413Y-61533057D01*
X145485979Y-61571979D01*
X145540439Y-61606978D01*
X145606036Y-61626239D01*
X145671632Y-61645500D01*
X145671633Y-61645500D01*
X145808367Y-61645500D01*
X145939561Y-61606978D01*
X145951983Y-61598995D01*
X171574499Y-61598995D01*
X171601418Y-61734322D01*
X171601421Y-61734332D01*
X171654221Y-61861804D01*
X171654228Y-61861817D01*
X171730885Y-61976541D01*
X171730888Y-61976545D01*
X171828454Y-62074111D01*
X171828458Y-62074114D01*
X171943182Y-62150771D01*
X171943195Y-62150778D01*
X172070667Y-62203578D01*
X172070672Y-62203580D01*
X172070676Y-62203580D01*
X172070677Y-62203581D01*
X172206004Y-62230500D01*
X172986757Y-62230500D01*
X173053796Y-62250185D01*
X173099551Y-62302989D01*
X173109495Y-62372147D01*
X173080470Y-62435703D01*
X173048758Y-62461887D01*
X172989179Y-62496285D01*
X172989176Y-62496287D01*
X172881287Y-62604176D01*
X172881282Y-62604182D01*
X172804993Y-62736318D01*
X172804992Y-62736322D01*
X172765500Y-62883707D01*
X172765500Y-63036293D01*
X172796395Y-63151593D01*
X172804993Y-63183681D01*
X172881282Y-63315817D01*
X172881284Y-63315819D01*
X172881285Y-63315821D01*
X172989179Y-63423715D01*
X172989180Y-63423716D01*
X172989182Y-63423717D01*
X173121318Y-63500006D01*
X173121319Y-63500006D01*
X173121322Y-63500008D01*
X173268707Y-63539500D01*
X173268710Y-63539500D01*
X173421290Y-63539500D01*
X173421293Y-63539500D01*
X173568678Y-63500008D01*
X173700821Y-63423715D01*
X173808715Y-63315821D01*
X173885008Y-63183678D01*
X173924500Y-63036293D01*
X173924500Y-62883707D01*
X173885008Y-62736322D01*
X173876931Y-62722333D01*
X173808717Y-62604182D01*
X173808712Y-62604176D01*
X173700823Y-62496287D01*
X173700821Y-62496285D01*
X173633091Y-62457181D01*
X173572633Y-62422275D01*
X173524417Y-62371708D01*
X173511195Y-62303101D01*
X173537163Y-62238236D01*
X173587181Y-62200327D01*
X173706804Y-62150778D01*
X173706804Y-62150777D01*
X173706811Y-62150775D01*
X173821542Y-62074114D01*
X173919114Y-61976542D01*
X173995775Y-61861811D01*
X174048580Y-61734328D01*
X174073912Y-61606978D01*
X174075500Y-61598995D01*
X175924499Y-61598995D01*
X175951418Y-61734322D01*
X175951421Y-61734332D01*
X176004221Y-61861804D01*
X176004228Y-61861817D01*
X176080885Y-61976541D01*
X176080888Y-61976545D01*
X176178454Y-62074111D01*
X176178458Y-62074114D01*
X176293182Y-62150771D01*
X176293195Y-62150778D01*
X176420667Y-62203578D01*
X176420672Y-62203580D01*
X176420676Y-62203580D01*
X176420677Y-62203581D01*
X176556004Y-62230500D01*
X176556007Y-62230500D01*
X177493995Y-62230500D01*
X177585041Y-62212389D01*
X177629328Y-62203580D01*
X177756811Y-62150775D01*
X177871542Y-62074114D01*
X177969114Y-61976542D01*
X178045775Y-61861811D01*
X178098580Y-61734328D01*
X178123912Y-61606978D01*
X178125500Y-61598995D01*
X178125500Y-61461004D01*
X178098581Y-61325677D01*
X178098580Y-61325676D01*
X178098580Y-61325672D01*
X178068723Y-61253590D01*
X178045778Y-61198195D01*
X178045771Y-61198182D01*
X177969114Y-61083458D01*
X177969111Y-61083454D01*
X177871545Y-60985888D01*
X177871541Y-60985885D01*
X177756817Y-60909228D01*
X177756804Y-60909221D01*
X177629332Y-60856421D01*
X177629322Y-60856418D01*
X177493995Y-60829500D01*
X177493993Y-60829500D01*
X176556007Y-60829500D01*
X176556005Y-60829500D01*
X176420677Y-60856418D01*
X176420667Y-60856421D01*
X176293195Y-60909221D01*
X176293182Y-60909228D01*
X176178458Y-60985885D01*
X176178454Y-60985888D01*
X176080888Y-61083454D01*
X176080885Y-61083458D01*
X176004228Y-61198182D01*
X176004221Y-61198195D01*
X175951421Y-61325667D01*
X175951418Y-61325677D01*
X175924500Y-61461004D01*
X175924500Y-61461007D01*
X175924500Y-61598993D01*
X175924500Y-61598995D01*
X175924499Y-61598995D01*
X174075500Y-61598995D01*
X174075500Y-61461004D01*
X174048581Y-61325677D01*
X174048580Y-61325676D01*
X174048580Y-61325672D01*
X174018723Y-61253590D01*
X173995778Y-61198195D01*
X173995771Y-61198182D01*
X173919114Y-61083458D01*
X173919111Y-61083454D01*
X173821545Y-60985888D01*
X173821541Y-60985885D01*
X173706817Y-60909228D01*
X173706804Y-60909221D01*
X173579332Y-60856421D01*
X173579322Y-60856418D01*
X173443995Y-60829500D01*
X173443993Y-60829500D01*
X172206007Y-60829500D01*
X172206005Y-60829500D01*
X172070677Y-60856418D01*
X172070667Y-60856421D01*
X171943195Y-60909221D01*
X171943182Y-60909228D01*
X171828458Y-60985885D01*
X171828454Y-60985888D01*
X171730888Y-61083454D01*
X171730885Y-61083458D01*
X171654228Y-61198182D01*
X171654221Y-61198195D01*
X171601421Y-61325667D01*
X171601418Y-61325677D01*
X171574500Y-61461004D01*
X171574500Y-61461007D01*
X171574500Y-61598993D01*
X171574500Y-61598995D01*
X171574499Y-61598995D01*
X145951983Y-61598995D01*
X146054589Y-61533055D01*
X146144130Y-61429718D01*
X146200931Y-61305342D01*
X146220390Y-61170000D01*
X146200931Y-61034658D01*
X146178658Y-60985888D01*
X146144132Y-60910285D01*
X146144127Y-60910278D01*
X146054590Y-60806946D01*
X146054586Y-60806942D01*
X145933016Y-60728816D01*
X145887260Y-60676013D01*
X145877316Y-60606854D01*
X145906340Y-60543298D01*
X145965118Y-60505523D01*
X146000054Y-60500500D01*
X177934108Y-60500500D01*
X177995572Y-60500500D01*
X178004418Y-60500816D01*
X178204561Y-60515130D01*
X178222063Y-60517647D01*
X178413797Y-60559355D01*
X178430755Y-60564334D01*
X178589426Y-60623516D01*
X178614609Y-60632909D01*
X178630701Y-60640259D01*
X178802904Y-60734288D01*
X178817784Y-60743849D01*
X178968161Y-60856421D01*
X178974867Y-60861441D01*
X178988237Y-60873027D01*
X179126972Y-61011762D01*
X179138558Y-61025132D01*
X179247005Y-61170000D01*
X179256146Y-61182210D01*
X179265711Y-61197095D01*
X179359740Y-61369298D01*
X179367090Y-61385390D01*
X179435662Y-61569236D01*
X179440646Y-61586212D01*
X179482351Y-61777931D01*
X179484869Y-61795442D01*
X179489616Y-61861804D01*
X179497822Y-61976545D01*
X179499184Y-61995580D01*
X179499500Y-62004427D01*
X179499500Y-112376000D01*
X179479815Y-112443039D01*
X179427011Y-112488794D01*
X179375500Y-112500000D01*
X80624500Y-112500000D01*
X80557461Y-112480315D01*
X80511706Y-112427511D01*
X80500500Y-112376000D01*
X80500500Y-107699998D01*
X89544390Y-107699998D01*
X89544390Y-107700001D01*
X89564804Y-107985433D01*
X89625628Y-108265037D01*
X89725635Y-108533166D01*
X89862770Y-108784309D01*
X89862775Y-108784317D01*
X90034254Y-109013387D01*
X90034270Y-109013405D01*
X90236594Y-109215729D01*
X90236612Y-109215745D01*
X90465682Y-109387224D01*
X90465690Y-109387229D01*
X90716833Y-109524364D01*
X90716832Y-109524364D01*
X90716836Y-109524365D01*
X90716839Y-109524367D01*
X90984954Y-109624369D01*
X90984960Y-109624370D01*
X90984962Y-109624371D01*
X91264566Y-109685195D01*
X91264568Y-109685195D01*
X91264572Y-109685196D01*
X91518220Y-109703337D01*
X91549999Y-109705610D01*
X91550000Y-109705610D01*
X91550001Y-109705610D01*
X91578595Y-109703564D01*
X91835428Y-109685196D01*
X92115046Y-109624369D01*
X92383161Y-109524367D01*
X92634315Y-109387226D01*
X92863395Y-109215739D01*
X93065739Y-109013395D01*
X93237226Y-108784315D01*
X93374367Y-108533161D01*
X93474369Y-108265046D01*
X93535196Y-107985428D01*
X93555610Y-107700000D01*
X93555610Y-107699998D01*
X166474390Y-107699998D01*
X166474390Y-107700001D01*
X166494804Y-107985433D01*
X166555628Y-108265037D01*
X166655635Y-108533166D01*
X166792770Y-108784309D01*
X166792775Y-108784317D01*
X166964254Y-109013387D01*
X166964270Y-109013405D01*
X167166594Y-109215729D01*
X167166612Y-109215745D01*
X167395682Y-109387224D01*
X167395690Y-109387229D01*
X167646833Y-109524364D01*
X167646832Y-109524364D01*
X167646836Y-109524365D01*
X167646839Y-109524367D01*
X167914954Y-109624369D01*
X167914960Y-109624370D01*
X167914962Y-109624371D01*
X168194566Y-109685195D01*
X168194568Y-109685195D01*
X168194572Y-109685196D01*
X168448220Y-109703337D01*
X168479999Y-109705610D01*
X168480000Y-109705610D01*
X168480001Y-109705610D01*
X168508595Y-109703564D01*
X168765428Y-109685196D01*
X169045046Y-109624369D01*
X169313161Y-109524367D01*
X169564315Y-109387226D01*
X169793395Y-109215739D01*
X169995739Y-109013395D01*
X170167226Y-108784315D01*
X170304367Y-108533161D01*
X170404369Y-108265046D01*
X170465196Y-107985428D01*
X170485610Y-107700000D01*
X170465196Y-107414572D01*
X170404369Y-107134954D01*
X170304367Y-106866839D01*
X170167226Y-106615685D01*
X170167224Y-106615682D01*
X169995745Y-106386612D01*
X169995729Y-106386594D01*
X169793405Y-106184270D01*
X169793387Y-106184254D01*
X169564317Y-106012775D01*
X169564309Y-106012770D01*
X169313166Y-105875635D01*
X169313167Y-105875635D01*
X169174610Y-105823956D01*
X169045046Y-105775631D01*
X169045043Y-105775630D01*
X169045037Y-105775628D01*
X168765433Y-105714804D01*
X168480001Y-105694390D01*
X168479999Y-105694390D01*
X168194566Y-105714804D01*
X167914962Y-105775628D01*
X167646833Y-105875635D01*
X167395690Y-106012770D01*
X167395682Y-106012775D01*
X167166612Y-106184254D01*
X167166594Y-106184270D01*
X166964270Y-106386594D01*
X166964254Y-106386612D01*
X166792775Y-106615682D01*
X166792770Y-106615690D01*
X166655635Y-106866833D01*
X166555628Y-107134962D01*
X166494804Y-107414566D01*
X166474390Y-107699998D01*
X93555610Y-107699998D01*
X93535196Y-107414572D01*
X93474369Y-107134954D01*
X93374367Y-106866839D01*
X93237226Y-106615685D01*
X93237224Y-106615682D01*
X93065745Y-106386612D01*
X93065729Y-106386594D01*
X92863405Y-106184270D01*
X92863387Y-106184254D01*
X92634317Y-106012775D01*
X92634309Y-106012770D01*
X92383166Y-105875635D01*
X92383167Y-105875635D01*
X92244610Y-105823956D01*
X92115046Y-105775631D01*
X92115043Y-105775630D01*
X92115037Y-105775628D01*
X91835433Y-105714804D01*
X91550001Y-105694390D01*
X91549999Y-105694390D01*
X91264566Y-105714804D01*
X90984962Y-105775628D01*
X90716833Y-105875635D01*
X90465690Y-106012770D01*
X90465682Y-106012775D01*
X90236612Y-106184254D01*
X90236594Y-106184270D01*
X90034270Y-106386594D01*
X90034254Y-106386612D01*
X89862775Y-106615682D01*
X89862770Y-106615690D01*
X89725635Y-106866833D01*
X89625628Y-107134962D01*
X89564804Y-107414566D01*
X89544390Y-107699998D01*
X80500500Y-107699998D01*
X80500500Y-105420000D01*
X126134416Y-105420000D01*
X126154698Y-105625932D01*
X126154699Y-105625934D01*
X126214767Y-105823954D01*
X126312314Y-106006450D01*
X126312316Y-106006452D01*
X126443588Y-106166410D01*
X126540208Y-106245702D01*
X126603549Y-106297685D01*
X126786045Y-106395232D01*
X126984065Y-106455300D01*
X126984064Y-106455300D01*
X127002528Y-106457118D01*
X127189999Y-106475583D01*
X127395933Y-106455300D01*
X127593953Y-106395232D01*
X127776449Y-106297685D01*
X127936409Y-106166410D01*
X128067684Y-106006450D01*
X128165231Y-105823954D01*
X128225299Y-105625934D01*
X128245582Y-105420000D01*
X128674417Y-105420000D01*
X128694699Y-105625932D01*
X128694700Y-105625934D01*
X128754768Y-105823954D01*
X128852315Y-106006450D01*
X128852317Y-106006452D01*
X128983589Y-106166410D01*
X129080209Y-106245702D01*
X129143550Y-106297685D01*
X129326046Y-106395232D01*
X129524066Y-106455300D01*
X129524065Y-106455300D01*
X129542529Y-106457118D01*
X129730000Y-106475583D01*
X129935934Y-106455300D01*
X130133954Y-106395232D01*
X130316450Y-106297685D01*
X130476410Y-106166410D01*
X130607685Y-106006450D01*
X130705232Y-105823954D01*
X130765300Y-105625934D01*
X130785583Y-105420000D01*
X131214417Y-105420000D01*
X131234699Y-105625932D01*
X131234700Y-105625934D01*
X131294768Y-105823954D01*
X131392315Y-106006450D01*
X131392317Y-106006452D01*
X131523589Y-106166410D01*
X131620209Y-106245702D01*
X131683550Y-106297685D01*
X131866046Y-106395232D01*
X132064066Y-106455300D01*
X132064065Y-106455300D01*
X132082529Y-106457118D01*
X132270000Y-106475583D01*
X132475934Y-106455300D01*
X132673954Y-106395232D01*
X132856450Y-106297685D01*
X133016410Y-106166410D01*
X133147685Y-106006450D01*
X133245232Y-105823954D01*
X133305300Y-105625934D01*
X133325583Y-105420000D01*
X133754417Y-105420000D01*
X133774699Y-105625932D01*
X133774700Y-105625934D01*
X133834768Y-105823954D01*
X133932315Y-106006450D01*
X133932317Y-106006452D01*
X134063589Y-106166410D01*
X134160209Y-106245702D01*
X134223550Y-106297685D01*
X134406046Y-106395232D01*
X134604066Y-106455300D01*
X134604065Y-106455300D01*
X134622529Y-106457118D01*
X134810000Y-106475583D01*
X135015934Y-106455300D01*
X135213954Y-106395232D01*
X135396450Y-106297685D01*
X135556410Y-106166410D01*
X135687685Y-106006450D01*
X135785232Y-105823954D01*
X135845300Y-105625934D01*
X135865583Y-105420000D01*
X136294417Y-105420000D01*
X136314699Y-105625932D01*
X136314700Y-105625934D01*
X136374768Y-105823954D01*
X136472315Y-106006450D01*
X136472317Y-106006452D01*
X136603589Y-106166410D01*
X136700209Y-106245702D01*
X136763550Y-106297685D01*
X136946046Y-106395232D01*
X137144066Y-106455300D01*
X137144065Y-106455300D01*
X137162529Y-106457118D01*
X137350000Y-106475583D01*
X137555934Y-106455300D01*
X137753954Y-106395232D01*
X137936450Y-106297685D01*
X138096410Y-106166410D01*
X138227685Y-106006450D01*
X138325232Y-105823954D01*
X138385300Y-105625934D01*
X138405583Y-105420000D01*
X138834418Y-105420000D01*
X138854700Y-105625932D01*
X138854701Y-105625934D01*
X138914769Y-105823954D01*
X139012316Y-106006450D01*
X139012318Y-106006452D01*
X139143590Y-106166410D01*
X139240210Y-106245702D01*
X139303551Y-106297685D01*
X139486047Y-106395232D01*
X139684067Y-106455300D01*
X139684066Y-106455300D01*
X139702530Y-106457118D01*
X139890001Y-106475583D01*
X140095935Y-106455300D01*
X140293955Y-106395232D01*
X140476451Y-106297685D01*
X140636411Y-106166410D01*
X140767686Y-106006450D01*
X140865233Y-105823954D01*
X140925301Y-105625934D01*
X140945584Y-105420000D01*
X141374417Y-105420000D01*
X141394699Y-105625932D01*
X141394700Y-105625934D01*
X141454768Y-105823954D01*
X141552315Y-106006450D01*
X141552317Y-106006452D01*
X141683589Y-106166410D01*
X141780209Y-106245702D01*
X141843550Y-106297685D01*
X142026046Y-106395232D01*
X142224066Y-106455300D01*
X142224065Y-106455300D01*
X142242529Y-106457118D01*
X142430000Y-106475583D01*
X142635934Y-106455300D01*
X142833954Y-106395232D01*
X143016450Y-106297685D01*
X143176410Y-106166410D01*
X143307685Y-106006450D01*
X143405232Y-105823954D01*
X143465300Y-105625934D01*
X143485583Y-105420000D01*
X143465300Y-105214066D01*
X143405232Y-105016046D01*
X143307685Y-104833550D01*
X143255702Y-104770209D01*
X143176410Y-104673589D01*
X143026121Y-104550252D01*
X143026115Y-104550247D01*
X143919500Y-104550247D01*
X143919500Y-106289752D01*
X143931131Y-106348229D01*
X143931132Y-106348230D01*
X143975447Y-106414552D01*
X144041769Y-106458867D01*
X144041770Y-106458868D01*
X144100247Y-106470499D01*
X144100250Y-106470500D01*
X144100252Y-106470500D01*
X145839750Y-106470500D01*
X145839751Y-106470499D01*
X145854568Y-106467552D01*
X145898229Y-106458868D01*
X145898229Y-106458867D01*
X145898231Y-106458867D01*
X145964552Y-106414552D01*
X146008867Y-106348231D01*
X146008867Y-106348229D01*
X146008868Y-106348229D01*
X146020499Y-106289752D01*
X146020500Y-106289750D01*
X146020500Y-104550249D01*
X146020499Y-104550247D01*
X146008868Y-104491770D01*
X146008867Y-104491769D01*
X145964552Y-104425447D01*
X145898230Y-104381132D01*
X145898229Y-104381131D01*
X145839752Y-104369500D01*
X145839748Y-104369500D01*
X144100252Y-104369500D01*
X144100247Y-104369500D01*
X144041770Y-104381131D01*
X144041769Y-104381132D01*
X143975447Y-104425447D01*
X143931132Y-104491769D01*
X143931131Y-104491770D01*
X143919500Y-104550247D01*
X143026115Y-104550247D01*
X143016450Y-104542315D01*
X142833954Y-104444768D01*
X142635934Y-104384700D01*
X142635932Y-104384699D01*
X142635934Y-104384699D01*
X142430000Y-104364417D01*
X142224067Y-104384699D01*
X142026043Y-104444769D01*
X141938114Y-104491769D01*
X141843550Y-104542315D01*
X141843548Y-104542316D01*
X141843547Y-104542317D01*
X141683589Y-104673589D01*
X141552317Y-104833547D01*
X141454769Y-105016043D01*
X141394699Y-105214067D01*
X141374417Y-105420000D01*
X140945584Y-105420000D01*
X140925301Y-105214066D01*
X140865233Y-105016046D01*
X140767686Y-104833550D01*
X140715703Y-104770209D01*
X140636411Y-104673589D01*
X140486122Y-104550252D01*
X140476451Y-104542315D01*
X140293955Y-104444768D01*
X140095935Y-104384700D01*
X140095933Y-104384699D01*
X140095935Y-104384699D01*
X139890001Y-104364417D01*
X139684068Y-104384699D01*
X139486044Y-104444769D01*
X139398115Y-104491769D01*
X139303551Y-104542315D01*
X139303549Y-104542316D01*
X139303548Y-104542317D01*
X139143590Y-104673589D01*
X139012318Y-104833547D01*
X138914770Y-105016043D01*
X138854700Y-105214067D01*
X138834418Y-105420000D01*
X138405583Y-105420000D01*
X138385300Y-105214066D01*
X138325232Y-105016046D01*
X138227685Y-104833550D01*
X138175702Y-104770209D01*
X138096410Y-104673589D01*
X137946121Y-104550252D01*
X137936450Y-104542315D01*
X137753954Y-104444768D01*
X137555934Y-104384700D01*
X137555932Y-104384699D01*
X137555934Y-104384699D01*
X137350000Y-104364417D01*
X137144067Y-104384699D01*
X136946043Y-104444769D01*
X136858114Y-104491769D01*
X136763550Y-104542315D01*
X136763548Y-104542316D01*
X136763547Y-104542317D01*
X136603589Y-104673589D01*
X136472317Y-104833547D01*
X136374769Y-105016043D01*
X136314699Y-105214067D01*
X136294417Y-105420000D01*
X135865583Y-105420000D01*
X135845300Y-105214066D01*
X135785232Y-105016046D01*
X135687685Y-104833550D01*
X135635702Y-104770209D01*
X135556410Y-104673589D01*
X135406121Y-104550252D01*
X135396450Y-104542315D01*
X135213954Y-104444768D01*
X135015934Y-104384700D01*
X135015932Y-104384699D01*
X135015934Y-104384699D01*
X134810000Y-104364417D01*
X134604067Y-104384699D01*
X134406043Y-104444769D01*
X134318114Y-104491769D01*
X134223550Y-104542315D01*
X134223548Y-104542316D01*
X134223547Y-104542317D01*
X134063589Y-104673589D01*
X133932317Y-104833547D01*
X133834769Y-105016043D01*
X133774699Y-105214067D01*
X133754417Y-105420000D01*
X133325583Y-105420000D01*
X133305300Y-105214066D01*
X133245232Y-105016046D01*
X133147685Y-104833550D01*
X133095702Y-104770209D01*
X133016410Y-104673589D01*
X132866121Y-104550252D01*
X132856450Y-104542315D01*
X132673954Y-104444768D01*
X132475934Y-104384700D01*
X132475932Y-104384699D01*
X132475934Y-104384699D01*
X132270000Y-104364417D01*
X132064067Y-104384699D01*
X131866043Y-104444769D01*
X131778114Y-104491769D01*
X131683550Y-104542315D01*
X131683548Y-104542316D01*
X131683547Y-104542317D01*
X131523589Y-104673589D01*
X131392317Y-104833547D01*
X131294769Y-105016043D01*
X131234699Y-105214067D01*
X131214417Y-105420000D01*
X130785583Y-105420000D01*
X130765300Y-105214066D01*
X130705232Y-105016046D01*
X130607685Y-104833550D01*
X130555702Y-104770209D01*
X130476410Y-104673589D01*
X130326121Y-104550252D01*
X130316450Y-104542315D01*
X130133954Y-104444768D01*
X129935934Y-104384700D01*
X129935932Y-104384699D01*
X129935934Y-104384699D01*
X129730000Y-104364417D01*
X129524067Y-104384699D01*
X129326043Y-104444769D01*
X129238114Y-104491769D01*
X129143550Y-104542315D01*
X129143548Y-104542316D01*
X129143547Y-104542317D01*
X128983589Y-104673589D01*
X128852317Y-104833547D01*
X128754769Y-105016043D01*
X128694699Y-105214067D01*
X128674417Y-105420000D01*
X128245582Y-105420000D01*
X128225299Y-105214066D01*
X128165231Y-105016046D01*
X128067684Y-104833550D01*
X128015701Y-104770209D01*
X127936409Y-104673589D01*
X127786120Y-104550252D01*
X127776449Y-104542315D01*
X127593953Y-104444768D01*
X127395933Y-104384700D01*
X127395931Y-104384699D01*
X127395933Y-104384699D01*
X127189999Y-104364417D01*
X126984066Y-104384699D01*
X126786042Y-104444769D01*
X126698113Y-104491769D01*
X126603549Y-104542315D01*
X126603547Y-104542316D01*
X126603546Y-104542317D01*
X126443588Y-104673589D01*
X126312316Y-104833547D01*
X126214768Y-105016043D01*
X126154698Y-105214067D01*
X126134416Y-105420000D01*
X80500500Y-105420000D01*
X80500500Y-100999999D01*
X93469965Y-100999999D01*
X93469965Y-101000000D01*
X93488026Y-101137181D01*
X93488027Y-101137186D01*
X93540975Y-101265016D01*
X93540976Y-101265019D01*
X93567445Y-101299513D01*
X93592640Y-101364682D01*
X93578602Y-101433127D01*
X93567446Y-101450486D01*
X93540976Y-101484982D01*
X93540974Y-101484984D01*
X93488027Y-101612813D01*
X93488026Y-101612818D01*
X93469965Y-101749999D01*
X93469965Y-101750000D01*
X93488026Y-101887181D01*
X93488027Y-101887186D01*
X93540974Y-102015015D01*
X93540975Y-102015017D01*
X93540976Y-102015018D01*
X93625209Y-102124791D01*
X93734982Y-102209024D01*
X93862817Y-102261974D01*
X93985702Y-102278152D01*
X93999999Y-102280035D01*
X94000000Y-102280035D01*
X94000001Y-102280035D01*
X94012947Y-102278330D01*
X94137183Y-102261974D01*
X94265018Y-102209024D01*
X94374791Y-102124791D01*
X94401624Y-102089821D01*
X94458052Y-102048619D01*
X94527798Y-102044464D01*
X94588718Y-102078676D01*
X94598375Y-102089821D01*
X94625209Y-102124791D01*
X94734982Y-102209024D01*
X94862817Y-102261974D01*
X94985702Y-102278152D01*
X94999999Y-102280035D01*
X95000000Y-102280035D01*
X95000001Y-102280035D01*
X95012947Y-102278330D01*
X95137183Y-102261974D01*
X95265018Y-102209024D01*
X95374791Y-102124791D01*
X95459024Y-102015018D01*
X95511974Y-101887183D01*
X95530035Y-101750000D01*
X95511974Y-101612817D01*
X95492412Y-101565591D01*
X95459025Y-101484984D01*
X95459023Y-101484982D01*
X95432554Y-101450487D01*
X95407359Y-101385318D01*
X95421397Y-101316873D01*
X95432552Y-101299515D01*
X95459024Y-101265018D01*
X95511974Y-101137183D01*
X95530035Y-101000000D01*
X95511974Y-100862817D01*
X95459024Y-100734983D01*
X95374791Y-100625209D01*
X95374789Y-100625208D01*
X95374789Y-100625207D01*
X95265015Y-100540974D01*
X95137186Y-100488027D01*
X95137184Y-100488026D01*
X95137183Y-100488026D01*
X95045727Y-100475985D01*
X95000001Y-100469965D01*
X94999999Y-100469965D01*
X94931408Y-100478995D01*
X94862817Y-100488026D01*
X94862816Y-100488026D01*
X94862813Y-100488027D01*
X94734985Y-100540974D01*
X94625206Y-100625211D01*
X94598375Y-100660179D01*
X94541947Y-100701382D01*
X94472201Y-100705536D01*
X94411281Y-100671323D01*
X94401625Y-100660179D01*
X94374791Y-100625209D01*
X94349021Y-100605435D01*
X94265018Y-100540976D01*
X94265017Y-100540975D01*
X94265015Y-100540974D01*
X94137186Y-100488027D01*
X94137184Y-100488026D01*
X94137183Y-100488026D01*
X94045727Y-100475985D01*
X94000001Y-100469965D01*
X93999999Y-100469965D01*
X93931408Y-100478995D01*
X93862817Y-100488026D01*
X93862816Y-100488026D01*
X93862813Y-100488027D01*
X93734985Y-100540974D01*
X93625209Y-100625209D01*
X93540974Y-100734985D01*
X93488027Y-100862813D01*
X93488026Y-100862818D01*
X93469965Y-100999999D01*
X80500500Y-100999999D01*
X80500500Y-97899996D01*
X88544916Y-97899996D01*
X88544916Y-97900003D01*
X88565235Y-98248869D01*
X88565236Y-98248880D01*
X88625914Y-98593002D01*
X88625916Y-98593011D01*
X88726145Y-98927800D01*
X88864555Y-99248670D01*
X88864561Y-99248683D01*
X89039289Y-99551322D01*
X89247967Y-99831625D01*
X89256148Y-99840296D01*
X90398932Y-98697513D01*
X90482140Y-98812039D01*
X90637961Y-98967860D01*
X90752485Y-99051066D01*
X89612818Y-100190733D01*
X89612819Y-100190734D01*
X89755484Y-100310445D01*
X90047461Y-100502480D01*
X90359739Y-100659314D01*
X90359745Y-100659316D01*
X90688130Y-100778838D01*
X90688133Y-100778839D01*
X91028171Y-100859429D01*
X91375276Y-100899999D01*
X91375277Y-100900000D01*
X91724723Y-100900000D01*
X91724723Y-100899999D01*
X92071827Y-100859429D01*
X92071829Y-100859429D01*
X92411866Y-100778839D01*
X92411869Y-100778838D01*
X92740254Y-100659316D01*
X92740260Y-100659314D01*
X93052538Y-100502480D01*
X93329987Y-100320000D01*
X128034416Y-100320000D01*
X128054698Y-100525932D01*
X128078815Y-100605435D01*
X128114767Y-100723954D01*
X128212314Y-100906450D01*
X128212316Y-100906452D01*
X128343588Y-101066410D01*
X128429824Y-101137181D01*
X128503549Y-101197685D01*
X128686045Y-101295232D01*
X128884065Y-101355300D01*
X128884064Y-101355300D01*
X128902528Y-101357118D01*
X129089999Y-101375583D01*
X129295933Y-101355300D01*
X129493953Y-101295232D01*
X129676449Y-101197685D01*
X129836409Y-101066410D01*
X129967684Y-100906450D01*
X130065231Y-100723954D01*
X130125299Y-100525934D01*
X130145582Y-100320000D01*
X130574417Y-100320000D01*
X130594699Y-100525932D01*
X130618816Y-100605435D01*
X130654768Y-100723954D01*
X130752315Y-100906450D01*
X130752317Y-100906452D01*
X130883589Y-101066410D01*
X130969825Y-101137181D01*
X131043550Y-101197685D01*
X131226046Y-101295232D01*
X131424066Y-101355300D01*
X131424065Y-101355300D01*
X131442529Y-101357118D01*
X131630000Y-101375583D01*
X131835934Y-101355300D01*
X132033954Y-101295232D01*
X132216450Y-101197685D01*
X132376410Y-101066410D01*
X132507685Y-100906450D01*
X132605232Y-100723954D01*
X132665300Y-100525934D01*
X132685583Y-100320000D01*
X133114417Y-100320000D01*
X133134699Y-100525932D01*
X133158816Y-100605435D01*
X133194768Y-100723954D01*
X133292315Y-100906450D01*
X133292317Y-100906452D01*
X133423589Y-101066410D01*
X133509825Y-101137181D01*
X133583550Y-101197685D01*
X133766046Y-101295232D01*
X133964066Y-101355300D01*
X133964065Y-101355300D01*
X133982529Y-101357118D01*
X134170000Y-101375583D01*
X134375934Y-101355300D01*
X134573954Y-101295232D01*
X134756450Y-101197685D01*
X134916410Y-101066410D01*
X135047685Y-100906450D01*
X135145232Y-100723954D01*
X135205300Y-100525934D01*
X135225583Y-100320000D01*
X135654417Y-100320000D01*
X135674699Y-100525932D01*
X135698816Y-100605435D01*
X135734768Y-100723954D01*
X135832315Y-100906450D01*
X135832317Y-100906452D01*
X135963589Y-101066410D01*
X136049825Y-101137181D01*
X136123550Y-101197685D01*
X136306046Y-101295232D01*
X136504066Y-101355300D01*
X136504065Y-101355300D01*
X136522529Y-101357118D01*
X136710000Y-101375583D01*
X136915934Y-101355300D01*
X137113954Y-101295232D01*
X137296450Y-101197685D01*
X137456410Y-101066410D01*
X137587685Y-100906450D01*
X137685232Y-100723954D01*
X137745300Y-100525934D01*
X137765583Y-100320000D01*
X138194417Y-100320000D01*
X138214699Y-100525932D01*
X138238816Y-100605435D01*
X138274768Y-100723954D01*
X138372315Y-100906450D01*
X138372317Y-100906452D01*
X138503589Y-101066410D01*
X138589825Y-101137181D01*
X138663550Y-101197685D01*
X138846046Y-101295232D01*
X139044066Y-101355300D01*
X139044065Y-101355300D01*
X139062529Y-101357118D01*
X139250000Y-101375583D01*
X139455934Y-101355300D01*
X139653954Y-101295232D01*
X139836450Y-101197685D01*
X139996410Y-101066410D01*
X140127685Y-100906450D01*
X140225232Y-100723954D01*
X140285300Y-100525934D01*
X140305583Y-100320000D01*
X140734418Y-100320000D01*
X140754700Y-100525932D01*
X140778817Y-100605435D01*
X140814769Y-100723954D01*
X140912316Y-100906450D01*
X140912318Y-100906452D01*
X141043590Y-101066410D01*
X141129826Y-101137181D01*
X141203551Y-101197685D01*
X141386047Y-101295232D01*
X141584067Y-101355300D01*
X141584066Y-101355300D01*
X141602530Y-101357118D01*
X141790001Y-101375583D01*
X141995935Y-101355300D01*
X142193955Y-101295232D01*
X142376451Y-101197685D01*
X142536411Y-101066410D01*
X142667686Y-100906450D01*
X142765233Y-100723954D01*
X142825301Y-100525934D01*
X142845584Y-100320000D01*
X143274417Y-100320000D01*
X143294699Y-100525932D01*
X143318816Y-100605435D01*
X143354768Y-100723954D01*
X143452315Y-100906450D01*
X143452317Y-100906452D01*
X143583589Y-101066410D01*
X143669825Y-101137181D01*
X143743550Y-101197685D01*
X143926046Y-101295232D01*
X144124066Y-101355300D01*
X144124065Y-101355300D01*
X144142529Y-101357118D01*
X144330000Y-101375583D01*
X144535934Y-101355300D01*
X144733954Y-101295232D01*
X144916450Y-101197685D01*
X145076410Y-101066410D01*
X145207685Y-100906450D01*
X145305232Y-100723954D01*
X145365300Y-100525934D01*
X145385583Y-100320000D01*
X145365300Y-100114066D01*
X145305232Y-99916046D01*
X145207685Y-99733550D01*
X145155702Y-99670209D01*
X145076410Y-99573589D01*
X144926121Y-99450252D01*
X144926115Y-99450247D01*
X145819500Y-99450247D01*
X145819500Y-101189752D01*
X145831131Y-101248229D01*
X145831132Y-101248230D01*
X145875447Y-101314552D01*
X145941769Y-101358867D01*
X145941770Y-101358868D01*
X146000247Y-101370499D01*
X146000250Y-101370500D01*
X146000252Y-101370500D01*
X147739750Y-101370500D01*
X147739751Y-101370499D01*
X147754568Y-101367552D01*
X147798229Y-101358868D01*
X147798229Y-101358867D01*
X147798231Y-101358867D01*
X147864552Y-101314552D01*
X147908867Y-101248231D01*
X147908867Y-101248229D01*
X147908868Y-101248229D01*
X147920499Y-101189752D01*
X147920500Y-101189750D01*
X147920500Y-99450249D01*
X147920499Y-99450247D01*
X147908868Y-99391770D01*
X147908867Y-99391769D01*
X147864552Y-99325447D01*
X147798230Y-99281132D01*
X147798229Y-99281131D01*
X147739752Y-99269500D01*
X147739748Y-99269500D01*
X146000252Y-99269500D01*
X146000247Y-99269500D01*
X145941770Y-99281131D01*
X145941769Y-99281132D01*
X145875447Y-99325447D01*
X145831132Y-99391769D01*
X145831131Y-99391770D01*
X145819500Y-99450247D01*
X144926115Y-99450247D01*
X144916450Y-99442315D01*
X144733954Y-99344768D01*
X144535934Y-99284700D01*
X144535932Y-99284699D01*
X144535934Y-99284699D01*
X144330000Y-99264417D01*
X144124067Y-99284699D01*
X143926043Y-99344769D01*
X143838114Y-99391769D01*
X143743550Y-99442315D01*
X143743548Y-99442316D01*
X143743547Y-99442317D01*
X143583589Y-99573589D01*
X143452317Y-99733547D01*
X143354769Y-99916043D01*
X143294699Y-100114067D01*
X143274417Y-100320000D01*
X142845584Y-100320000D01*
X142825301Y-100114066D01*
X142765233Y-99916046D01*
X142667686Y-99733550D01*
X142615703Y-99670209D01*
X142536411Y-99573589D01*
X142386122Y-99450252D01*
X142376451Y-99442315D01*
X142193955Y-99344768D01*
X141995935Y-99284700D01*
X141995933Y-99284699D01*
X141995935Y-99284699D01*
X141790001Y-99264417D01*
X141584068Y-99284699D01*
X141386044Y-99344769D01*
X141298115Y-99391769D01*
X141203551Y-99442315D01*
X141203549Y-99442316D01*
X141203548Y-99442317D01*
X141043590Y-99573589D01*
X140912318Y-99733547D01*
X140814770Y-99916043D01*
X140754700Y-100114067D01*
X140734418Y-100320000D01*
X140305583Y-100320000D01*
X140285300Y-100114066D01*
X140225232Y-99916046D01*
X140127685Y-99733550D01*
X140075702Y-99670209D01*
X139996410Y-99573589D01*
X139846121Y-99450252D01*
X139836450Y-99442315D01*
X139653954Y-99344768D01*
X139455934Y-99284700D01*
X139455932Y-99284699D01*
X139455934Y-99284699D01*
X139250000Y-99264417D01*
X139044067Y-99284699D01*
X138846043Y-99344769D01*
X138758114Y-99391769D01*
X138663550Y-99442315D01*
X138663548Y-99442316D01*
X138663547Y-99442317D01*
X138503589Y-99573589D01*
X138372317Y-99733547D01*
X138274769Y-99916043D01*
X138214699Y-100114067D01*
X138194417Y-100320000D01*
X137765583Y-100320000D01*
X137745300Y-100114066D01*
X137685232Y-99916046D01*
X137587685Y-99733550D01*
X137535702Y-99670209D01*
X137456410Y-99573589D01*
X137306121Y-99450252D01*
X137296450Y-99442315D01*
X137113954Y-99344768D01*
X136915934Y-99284700D01*
X136915932Y-99284699D01*
X136915934Y-99284699D01*
X136710000Y-99264417D01*
X136504067Y-99284699D01*
X136306043Y-99344769D01*
X136218114Y-99391769D01*
X136123550Y-99442315D01*
X136123548Y-99442316D01*
X136123547Y-99442317D01*
X135963589Y-99573589D01*
X135832317Y-99733547D01*
X135734769Y-99916043D01*
X135674699Y-100114067D01*
X135654417Y-100320000D01*
X135225583Y-100320000D01*
X135205300Y-100114066D01*
X135145232Y-99916046D01*
X135047685Y-99733550D01*
X134995702Y-99670209D01*
X134916410Y-99573589D01*
X134766121Y-99450252D01*
X134756450Y-99442315D01*
X134573954Y-99344768D01*
X134375934Y-99284700D01*
X134375932Y-99284699D01*
X134375934Y-99284699D01*
X134170000Y-99264417D01*
X133964067Y-99284699D01*
X133766043Y-99344769D01*
X133678114Y-99391769D01*
X133583550Y-99442315D01*
X133583548Y-99442316D01*
X133583547Y-99442317D01*
X133423589Y-99573589D01*
X133292317Y-99733547D01*
X133194769Y-99916043D01*
X133134699Y-100114067D01*
X133114417Y-100320000D01*
X132685583Y-100320000D01*
X132665300Y-100114066D01*
X132605232Y-99916046D01*
X132507685Y-99733550D01*
X132455702Y-99670209D01*
X132376410Y-99573589D01*
X132226121Y-99450252D01*
X132216450Y-99442315D01*
X132033954Y-99344768D01*
X131835934Y-99284700D01*
X131835932Y-99284699D01*
X131835934Y-99284699D01*
X131630000Y-99264417D01*
X131424067Y-99284699D01*
X131226043Y-99344769D01*
X131138114Y-99391769D01*
X131043550Y-99442315D01*
X131043548Y-99442316D01*
X131043547Y-99442317D01*
X130883589Y-99573589D01*
X130752317Y-99733547D01*
X130654769Y-99916043D01*
X130594699Y-100114067D01*
X130574417Y-100320000D01*
X130145582Y-100320000D01*
X130125299Y-100114066D01*
X130065231Y-99916046D01*
X129967684Y-99733550D01*
X129915701Y-99670209D01*
X129836409Y-99573589D01*
X129686120Y-99450252D01*
X129676449Y-99442315D01*
X129493953Y-99344768D01*
X129295933Y-99284700D01*
X129295931Y-99284699D01*
X129295933Y-99284699D01*
X129089999Y-99264417D01*
X128884066Y-99284699D01*
X128686042Y-99344769D01*
X128598113Y-99391769D01*
X128503549Y-99442315D01*
X128503547Y-99442316D01*
X128503546Y-99442317D01*
X128343588Y-99573589D01*
X128212316Y-99733547D01*
X128114768Y-99916043D01*
X128054698Y-100114067D01*
X128034416Y-100320000D01*
X93329987Y-100320000D01*
X93344509Y-100310449D01*
X93344510Y-100310448D01*
X93487179Y-100190734D01*
X93487180Y-100190733D01*
X92347514Y-99051066D01*
X92462039Y-98967860D01*
X92617860Y-98812039D01*
X92701066Y-98697514D01*
X93843849Y-99840297D01*
X93843851Y-99840296D01*
X93852022Y-99831636D01*
X93852033Y-99831623D01*
X94060710Y-99551322D01*
X94235438Y-99248683D01*
X94235444Y-99248670D01*
X94373854Y-98927800D01*
X94474083Y-98593011D01*
X94474085Y-98593002D01*
X94534763Y-98248880D01*
X94534764Y-98248869D01*
X94555084Y-97900003D01*
X94555084Y-97900000D01*
X165774564Y-97900000D01*
X165794289Y-98226099D01*
X165853178Y-98547452D01*
X165950366Y-98859342D01*
X165950370Y-98859354D01*
X165950373Y-98859361D01*
X166084455Y-99157279D01*
X166197797Y-99344769D01*
X166253473Y-99436868D01*
X166454954Y-99694039D01*
X166685960Y-99925045D01*
X166943131Y-100126526D01*
X166943134Y-100126528D01*
X166943137Y-100126530D01*
X167222721Y-100295545D01*
X167520639Y-100429627D01*
X167520652Y-100429631D01*
X167520657Y-100429633D01*
X167832547Y-100526821D01*
X168153896Y-100585710D01*
X168480000Y-100605436D01*
X168806104Y-100585710D01*
X169127453Y-100526821D01*
X169439361Y-100429627D01*
X169737279Y-100295545D01*
X170016863Y-100126530D01*
X170274036Y-99925048D01*
X170505048Y-99694036D01*
X170706530Y-99436863D01*
X170875545Y-99157279D01*
X171009627Y-98859361D01*
X171106821Y-98547453D01*
X171165710Y-98226104D01*
X171185436Y-97900000D01*
X171165710Y-97573896D01*
X171106821Y-97252547D01*
X171009627Y-96940639D01*
X170875545Y-96642721D01*
X170706530Y-96363137D01*
X170706528Y-96363134D01*
X170706526Y-96363131D01*
X170505045Y-96105960D01*
X170274039Y-95874954D01*
X170016868Y-95673473D01*
X169910655Y-95609265D01*
X169737279Y-95504455D01*
X169439361Y-95370373D01*
X169439354Y-95370370D01*
X169439342Y-95370366D01*
X169127452Y-95273178D01*
X168806099Y-95214289D01*
X168480000Y-95194564D01*
X168153900Y-95214289D01*
X167832547Y-95273178D01*
X167520657Y-95370366D01*
X167520641Y-95370372D01*
X167520639Y-95370373D01*
X167330933Y-95455752D01*
X167222725Y-95504453D01*
X167222723Y-95504454D01*
X166943131Y-95673473D01*
X166685960Y-95874954D01*
X166454954Y-96105960D01*
X166253473Y-96363131D01*
X166170733Y-96500000D01*
X166084455Y-96642721D01*
X165981176Y-96872199D01*
X165950372Y-96940642D01*
X165950366Y-96940657D01*
X165853178Y-97252547D01*
X165794289Y-97573900D01*
X165774564Y-97900000D01*
X94555084Y-97900000D01*
X94555084Y-97899996D01*
X94534764Y-97551130D01*
X94534763Y-97551119D01*
X94474085Y-97206997D01*
X94474083Y-97206988D01*
X94373854Y-96872199D01*
X94235444Y-96551329D01*
X94235438Y-96551316D01*
X94060710Y-96248677D01*
X93852032Y-95968374D01*
X93843850Y-95959702D01*
X92701066Y-97102485D01*
X92617860Y-96987961D01*
X92462039Y-96832140D01*
X92347513Y-96748932D01*
X93487180Y-95609265D01*
X93487179Y-95609264D01*
X93344519Y-95489557D01*
X93052538Y-95297519D01*
X92740260Y-95140685D01*
X92740254Y-95140683D01*
X92411869Y-95021161D01*
X92411866Y-95021160D01*
X92071828Y-94940570D01*
X91724723Y-94900000D01*
X91375277Y-94900000D01*
X91028172Y-94940570D01*
X91028170Y-94940570D01*
X90688133Y-95021160D01*
X90688130Y-95021161D01*
X90359745Y-95140683D01*
X90359739Y-95140685D01*
X90047461Y-95297519D01*
X89755480Y-95489557D01*
X89612819Y-95609264D01*
X89612818Y-95609265D01*
X90752486Y-96748932D01*
X90637961Y-96832140D01*
X90482140Y-96987961D01*
X90398932Y-97102485D01*
X89256148Y-95959701D01*
X89256147Y-95959702D01*
X89247976Y-95968363D01*
X89247972Y-95968368D01*
X89039289Y-96248677D01*
X88864561Y-96551316D01*
X88864555Y-96551329D01*
X88726145Y-96872199D01*
X88625916Y-97206988D01*
X88625914Y-97206997D01*
X88565236Y-97551119D01*
X88565235Y-97551130D01*
X88544916Y-97899996D01*
X80500500Y-97899996D01*
X80500500Y-93780000D01*
X89094540Y-93780000D01*
X89114326Y-93968256D01*
X89114327Y-93968259D01*
X89172818Y-94148277D01*
X89172821Y-94148284D01*
X89267467Y-94312216D01*
X89394129Y-94452888D01*
X89547265Y-94564148D01*
X89547270Y-94564151D01*
X89720192Y-94641142D01*
X89720197Y-94641144D01*
X89905354Y-94680500D01*
X89905355Y-94680500D01*
X90094644Y-94680500D01*
X90094646Y-94680500D01*
X90279803Y-94641144D01*
X90452730Y-94564151D01*
X90605871Y-94452888D01*
X90732533Y-94312216D01*
X90827179Y-94148284D01*
X90885674Y-93968256D01*
X90905460Y-93780000D01*
X169124540Y-93780000D01*
X169144326Y-93968256D01*
X169144327Y-93968259D01*
X169202818Y-94148277D01*
X169202821Y-94148284D01*
X169297467Y-94312216D01*
X169424129Y-94452888D01*
X169577265Y-94564148D01*
X169577270Y-94564151D01*
X169750192Y-94641142D01*
X169750197Y-94641144D01*
X169935354Y-94680500D01*
X169935355Y-94680500D01*
X170124644Y-94680500D01*
X170124646Y-94680500D01*
X170309803Y-94641144D01*
X170482730Y-94564151D01*
X170635871Y-94452888D01*
X170762533Y-94312216D01*
X170857179Y-94148284D01*
X170915674Y-93968256D01*
X170935460Y-93780000D01*
X170915674Y-93591744D01*
X170857179Y-93411716D01*
X170762533Y-93247784D01*
X170635871Y-93107112D01*
X170635870Y-93107111D01*
X170482734Y-92995851D01*
X170482729Y-92995848D01*
X170309807Y-92918857D01*
X170309802Y-92918855D01*
X170164001Y-92887865D01*
X170124646Y-92879500D01*
X169935354Y-92879500D01*
X169902897Y-92886398D01*
X169750197Y-92918855D01*
X169750192Y-92918857D01*
X169577270Y-92995848D01*
X169577265Y-92995851D01*
X169424129Y-93107111D01*
X169297466Y-93247785D01*
X169202821Y-93411715D01*
X169202818Y-93411722D01*
X169144327Y-93591740D01*
X169144326Y-93591744D01*
X169124540Y-93780000D01*
X90905460Y-93780000D01*
X90885674Y-93591744D01*
X90827179Y-93411716D01*
X90732533Y-93247784D01*
X90605871Y-93107112D01*
X90605870Y-93107111D01*
X90452734Y-92995851D01*
X90452729Y-92995848D01*
X90279807Y-92918857D01*
X90279802Y-92918855D01*
X90134001Y-92887865D01*
X90094646Y-92879500D01*
X89905354Y-92879500D01*
X89872897Y-92886398D01*
X89720197Y-92918855D01*
X89720192Y-92918857D01*
X89547270Y-92995848D01*
X89547265Y-92995851D01*
X89394129Y-93107111D01*
X89267466Y-93247785D01*
X89172821Y-93411715D01*
X89172818Y-93411722D01*
X89114327Y-93591740D01*
X89114326Y-93591744D01*
X89094540Y-93780000D01*
X80500500Y-93780000D01*
X80500500Y-92410000D01*
X92194540Y-92410000D01*
X92214326Y-92598256D01*
X92214327Y-92598259D01*
X92272818Y-92778277D01*
X92272821Y-92778284D01*
X92367467Y-92942216D01*
X92494129Y-93082888D01*
X92647265Y-93194148D01*
X92647270Y-93194151D01*
X92820192Y-93271142D01*
X92820197Y-93271144D01*
X93005354Y-93310500D01*
X93005355Y-93310500D01*
X93194644Y-93310500D01*
X93194646Y-93310500D01*
X93379803Y-93271144D01*
X93552730Y-93194151D01*
X93705871Y-93082888D01*
X93832533Y-92942216D01*
X93927179Y-92778284D01*
X93952615Y-92700000D01*
X166024540Y-92700000D01*
X166044326Y-92888256D01*
X166044327Y-92888259D01*
X166102818Y-93068277D01*
X166102821Y-93068284D01*
X166197467Y-93232216D01*
X166324129Y-93372888D01*
X166477265Y-93484148D01*
X166477270Y-93484151D01*
X166650192Y-93561142D01*
X166650197Y-93561144D01*
X166835354Y-93600500D01*
X166835355Y-93600500D01*
X167024644Y-93600500D01*
X167024646Y-93600500D01*
X167209803Y-93561144D01*
X167382730Y-93484151D01*
X167535871Y-93372888D01*
X167662533Y-93232216D01*
X167757179Y-93068284D01*
X167815674Y-92888256D01*
X167835460Y-92700000D01*
X167815674Y-92511744D01*
X167757179Y-92331716D01*
X167662533Y-92167784D01*
X167535871Y-92027112D01*
X167535870Y-92027111D01*
X167382734Y-91915851D01*
X167382729Y-91915848D01*
X167209807Y-91838857D01*
X167209802Y-91838855D01*
X167064001Y-91807865D01*
X167024646Y-91799500D01*
X166835354Y-91799500D01*
X166802897Y-91806398D01*
X166650197Y-91838855D01*
X166650192Y-91838857D01*
X166477270Y-91915848D01*
X166477265Y-91915851D01*
X166324129Y-92027111D01*
X166197466Y-92167785D01*
X166102821Y-92331715D01*
X166102818Y-92331722D01*
X166044327Y-92511740D01*
X166044326Y-92511744D01*
X166024540Y-92700000D01*
X93952615Y-92700000D01*
X93985674Y-92598256D01*
X94005460Y-92410000D01*
X93985674Y-92221744D01*
X93927179Y-92041716D01*
X93832533Y-91877784D01*
X93705871Y-91737112D01*
X93705870Y-91737111D01*
X93552734Y-91625851D01*
X93552729Y-91625848D01*
X93379807Y-91548857D01*
X93379802Y-91548855D01*
X93234001Y-91517865D01*
X93194646Y-91509500D01*
X93005354Y-91509500D01*
X92972897Y-91516398D01*
X92820197Y-91548855D01*
X92820192Y-91548857D01*
X92647270Y-91625848D01*
X92647265Y-91625851D01*
X92494129Y-91737111D01*
X92367466Y-91877785D01*
X92272821Y-92041715D01*
X92272818Y-92041722D01*
X92231858Y-92167785D01*
X92214326Y-92221744D01*
X92194540Y-92410000D01*
X80500500Y-92410000D01*
X80500500Y-91040000D01*
X89094540Y-91040000D01*
X89114326Y-91228256D01*
X89114327Y-91228259D01*
X89172818Y-91408277D01*
X89172821Y-91408284D01*
X89267467Y-91572216D01*
X89394129Y-91712888D01*
X89547265Y-91824148D01*
X89547270Y-91824151D01*
X89720192Y-91901142D01*
X89720197Y-91901144D01*
X89905354Y-91940500D01*
X89905355Y-91940500D01*
X90094644Y-91940500D01*
X90094646Y-91940500D01*
X90279803Y-91901144D01*
X90452730Y-91824151D01*
X90605871Y-91712888D01*
X90732533Y-91572216D01*
X90827179Y-91408284D01*
X90885674Y-91228256D01*
X90905460Y-91040000D01*
X90896001Y-90950000D01*
X102509610Y-90950000D01*
X102529068Y-91085337D01*
X102529070Y-91085345D01*
X102585867Y-91209714D01*
X102585872Y-91209721D01*
X102675409Y-91313053D01*
X102675413Y-91313057D01*
X102735979Y-91351979D01*
X102790439Y-91386978D01*
X102856036Y-91406239D01*
X102921632Y-91425500D01*
X102921633Y-91425500D01*
X103058367Y-91425500D01*
X103189561Y-91386978D01*
X103304589Y-91313055D01*
X103304596Y-91313046D01*
X103306787Y-91311149D01*
X103309444Y-91309935D01*
X103312051Y-91308260D01*
X103312291Y-91308634D01*
X103370341Y-91282119D01*
X103439500Y-91292056D01*
X103469203Y-91311144D01*
X103471405Y-91313052D01*
X103471408Y-91313055D01*
X103586436Y-91386978D01*
X103652033Y-91406239D01*
X103717629Y-91425500D01*
X103717630Y-91425500D01*
X103854364Y-91425500D01*
X103985558Y-91386978D01*
X104070961Y-91332093D01*
X104137999Y-91312410D01*
X104205036Y-91332094D01*
X104239170Y-91354030D01*
X104290439Y-91386978D01*
X104356036Y-91406239D01*
X104421632Y-91425500D01*
X104421633Y-91425500D01*
X104558367Y-91425500D01*
X104689561Y-91386978D01*
X104797962Y-91317313D01*
X104865001Y-91297630D01*
X104932037Y-91317313D01*
X105040439Y-91386978D01*
X105040441Y-91386978D01*
X105040442Y-91386979D01*
X105171632Y-91425500D01*
X105171633Y-91425500D01*
X105308367Y-91425500D01*
X105439561Y-91386978D01*
X105547962Y-91317313D01*
X105615001Y-91297630D01*
X105682037Y-91317313D01*
X105790439Y-91386978D01*
X105790441Y-91386978D01*
X105790442Y-91386979D01*
X105921632Y-91425500D01*
X105921633Y-91425500D01*
X106058367Y-91425500D01*
X106189561Y-91386978D01*
X106304589Y-91313055D01*
X106394130Y-91209718D01*
X106450931Y-91085342D01*
X106457450Y-91040000D01*
X169124540Y-91040000D01*
X169144326Y-91228256D01*
X169144327Y-91228259D01*
X169202818Y-91408277D01*
X169202821Y-91408284D01*
X169297467Y-91572216D01*
X169424129Y-91712888D01*
X169577265Y-91824148D01*
X169577270Y-91824151D01*
X169750192Y-91901142D01*
X169750197Y-91901144D01*
X169935354Y-91940500D01*
X169935355Y-91940500D01*
X170124644Y-91940500D01*
X170124646Y-91940500D01*
X170309803Y-91901144D01*
X170482730Y-91824151D01*
X170635871Y-91712888D01*
X170762533Y-91572216D01*
X170857179Y-91408284D01*
X170915674Y-91228256D01*
X170935460Y-91040000D01*
X170915674Y-90851744D01*
X170857179Y-90671716D01*
X170762533Y-90507784D01*
X170635871Y-90367112D01*
X170635870Y-90367111D01*
X170482734Y-90255851D01*
X170482729Y-90255848D01*
X170309807Y-90178857D01*
X170309802Y-90178855D01*
X170164001Y-90147865D01*
X170124646Y-90139500D01*
X169935354Y-90139500D01*
X169902897Y-90146398D01*
X169750197Y-90178855D01*
X169750192Y-90178857D01*
X169577270Y-90255848D01*
X169577265Y-90255851D01*
X169424129Y-90367111D01*
X169297466Y-90507785D01*
X169202821Y-90671715D01*
X169202818Y-90671722D01*
X169144327Y-90851740D01*
X169144326Y-90851744D01*
X169124540Y-91040000D01*
X106457450Y-91040000D01*
X106470390Y-90950000D01*
X106450931Y-90814658D01*
X106438677Y-90787827D01*
X106394132Y-90690285D01*
X106394129Y-90690281D01*
X106391264Y-90686975D01*
X106389446Y-90682994D01*
X106389335Y-90682821D01*
X106389359Y-90682804D01*
X106362238Y-90623421D01*
X106372179Y-90554262D01*
X106391260Y-90524569D01*
X106404130Y-90509718D01*
X106460931Y-90385342D01*
X106480390Y-90250000D01*
X106460931Y-90114658D01*
X106448677Y-90087827D01*
X106404132Y-89990285D01*
X106404130Y-89990283D01*
X106404130Y-89990282D01*
X106374599Y-89956201D01*
X106345575Y-89892647D01*
X106355518Y-89823489D01*
X106374597Y-89793800D01*
X106404130Y-89759718D01*
X106445103Y-89670000D01*
X166024540Y-89670000D01*
X166044326Y-89858256D01*
X166044327Y-89858259D01*
X166102818Y-90038277D01*
X166102821Y-90038284D01*
X166197467Y-90202216D01*
X166324129Y-90342888D01*
X166477265Y-90454148D01*
X166477270Y-90454151D01*
X166650192Y-90531142D01*
X166650197Y-90531144D01*
X166835354Y-90570500D01*
X166835355Y-90570500D01*
X167024644Y-90570500D01*
X167024646Y-90570500D01*
X167209803Y-90531144D01*
X167382730Y-90454151D01*
X167535871Y-90342888D01*
X167662533Y-90202216D01*
X167757179Y-90038284D01*
X167815674Y-89858256D01*
X167835460Y-89670000D01*
X167815674Y-89481744D01*
X167757179Y-89301716D01*
X167662533Y-89137784D01*
X167535871Y-88997112D01*
X167535870Y-88997111D01*
X167382734Y-88885851D01*
X167382729Y-88885848D01*
X167209807Y-88808857D01*
X167209802Y-88808855D01*
X167064001Y-88777865D01*
X167024646Y-88769500D01*
X166835354Y-88769500D01*
X166802897Y-88776398D01*
X166650197Y-88808855D01*
X166650192Y-88808857D01*
X166477270Y-88885848D01*
X166477265Y-88885851D01*
X166324129Y-88997111D01*
X166197466Y-89137785D01*
X166102821Y-89301715D01*
X166102818Y-89301722D01*
X166044327Y-89481740D01*
X166044326Y-89481744D01*
X166024540Y-89670000D01*
X106445103Y-89670000D01*
X106460931Y-89635342D01*
X106480390Y-89500000D01*
X106460931Y-89364658D01*
X106432186Y-89301715D01*
X106404132Y-89240285D01*
X106404130Y-89240283D01*
X106404130Y-89240282D01*
X106374599Y-89206201D01*
X106345575Y-89142647D01*
X106355518Y-89073489D01*
X106374597Y-89043800D01*
X106404130Y-89009718D01*
X106409888Y-88997111D01*
X106430033Y-88952999D01*
X106460931Y-88885342D01*
X106480390Y-88750000D01*
X106460931Y-88614658D01*
X106417180Y-88518857D01*
X106404132Y-88490285D01*
X106404127Y-88490278D01*
X106314590Y-88386946D01*
X106314586Y-88386942D01*
X106199559Y-88313021D01*
X106068368Y-88274500D01*
X106068367Y-88274500D01*
X105931633Y-88274500D01*
X105931632Y-88274500D01*
X105800440Y-88313021D01*
X105692038Y-88382685D01*
X105624998Y-88402369D01*
X105557962Y-88382685D01*
X105449559Y-88313021D01*
X105318368Y-88274500D01*
X105318367Y-88274500D01*
X105181633Y-88274500D01*
X105181632Y-88274500D01*
X105050440Y-88313021D01*
X104942038Y-88382685D01*
X104874998Y-88402369D01*
X104807962Y-88382685D01*
X104699559Y-88313021D01*
X104568368Y-88274500D01*
X104568367Y-88274500D01*
X104431633Y-88274500D01*
X104431632Y-88274500D01*
X104300443Y-88313020D01*
X104300440Y-88313021D01*
X104300439Y-88313022D01*
X104248728Y-88346253D01*
X104226022Y-88360846D01*
X104158982Y-88380529D01*
X104091943Y-88360843D01*
X104065276Y-88337737D01*
X104064592Y-88336947D01*
X104064586Y-88336942D01*
X103949559Y-88263021D01*
X103818368Y-88224500D01*
X103818367Y-88224500D01*
X103681633Y-88224500D01*
X103681632Y-88224500D01*
X103550440Y-88263021D01*
X103435413Y-88336942D01*
X103435407Y-88336948D01*
X103434723Y-88337738D01*
X103433844Y-88338302D01*
X103428707Y-88342754D01*
X103428066Y-88342015D01*
X103375942Y-88375508D01*
X103306072Y-88375504D01*
X103273977Y-88360845D01*
X103199559Y-88313021D01*
X103068368Y-88274500D01*
X103068367Y-88274500D01*
X102931633Y-88274500D01*
X102931632Y-88274500D01*
X102800440Y-88313021D01*
X102685413Y-88386942D01*
X102685409Y-88386946D01*
X102595872Y-88490278D01*
X102595867Y-88490285D01*
X102539070Y-88614654D01*
X102539068Y-88614662D01*
X102519610Y-88750000D01*
X102539068Y-88885337D01*
X102539070Y-88885345D01*
X102595867Y-89009714D01*
X102595869Y-89009716D01*
X102595870Y-89009718D01*
X102610779Y-89026924D01*
X102625400Y-89043798D01*
X102654424Y-89107354D01*
X102644480Y-89176513D01*
X102625400Y-89206202D01*
X102595870Y-89240282D01*
X102595867Y-89240285D01*
X102539070Y-89364654D01*
X102539068Y-89364662D01*
X102519610Y-89500000D01*
X102539068Y-89635337D01*
X102539070Y-89635345D01*
X102595867Y-89759714D01*
X102595869Y-89759716D01*
X102595870Y-89759718D01*
X102621001Y-89788722D01*
X102625400Y-89793798D01*
X102654424Y-89857354D01*
X102644480Y-89926513D01*
X102625400Y-89956202D01*
X102595870Y-89990282D01*
X102595867Y-89990285D01*
X102539070Y-90114654D01*
X102539068Y-90114662D01*
X102519610Y-90250000D01*
X102539068Y-90385337D01*
X102539070Y-90385345D01*
X102595867Y-90509714D01*
X102595869Y-90509716D01*
X102595870Y-90509718D01*
X102598735Y-90513024D01*
X102600553Y-90517004D01*
X102600665Y-90517179D01*
X102600639Y-90517195D01*
X102627761Y-90576579D01*
X102617820Y-90645738D01*
X102598740Y-90675428D01*
X102585872Y-90690278D01*
X102585869Y-90690284D01*
X102529069Y-90814657D01*
X102529068Y-90814662D01*
X102509610Y-90950000D01*
X90896001Y-90950000D01*
X90885674Y-90851744D01*
X90827179Y-90671716D01*
X90732533Y-90507784D01*
X90605871Y-90367112D01*
X90605870Y-90367111D01*
X90452734Y-90255851D01*
X90452729Y-90255848D01*
X90279807Y-90178857D01*
X90279802Y-90178855D01*
X90134001Y-90147865D01*
X90094646Y-90139500D01*
X89905354Y-90139500D01*
X89872897Y-90146398D01*
X89720197Y-90178855D01*
X89720192Y-90178857D01*
X89547270Y-90255848D01*
X89547265Y-90255851D01*
X89394129Y-90367111D01*
X89267466Y-90507785D01*
X89172821Y-90671715D01*
X89172818Y-90671722D01*
X89114327Y-90851740D01*
X89114326Y-90851744D01*
X89094540Y-91040000D01*
X80500500Y-91040000D01*
X80500500Y-89380000D01*
X92194540Y-89380000D01*
X92214326Y-89568256D01*
X92214327Y-89568259D01*
X92272818Y-89748277D01*
X92272821Y-89748284D01*
X92367467Y-89912216D01*
X92494129Y-90052888D01*
X92647265Y-90164148D01*
X92647270Y-90164151D01*
X92820192Y-90241142D01*
X92820197Y-90241144D01*
X93005354Y-90280500D01*
X93005355Y-90280500D01*
X93194644Y-90280500D01*
X93194646Y-90280500D01*
X93379803Y-90241144D01*
X93552730Y-90164151D01*
X93705871Y-90052888D01*
X93832533Y-89912216D01*
X93927179Y-89748284D01*
X93985674Y-89568256D01*
X94005460Y-89380000D01*
X93985674Y-89191744D01*
X93927179Y-89011716D01*
X93832533Y-88847784D01*
X93705871Y-88707112D01*
X93652429Y-88668284D01*
X93552734Y-88595851D01*
X93552729Y-88595848D01*
X93379807Y-88518857D01*
X93379802Y-88518855D01*
X93234001Y-88487865D01*
X93194646Y-88479500D01*
X93005354Y-88479500D01*
X92972897Y-88486398D01*
X92820197Y-88518855D01*
X92820192Y-88518857D01*
X92647270Y-88595848D01*
X92647265Y-88595851D01*
X92494129Y-88707111D01*
X92367466Y-88847785D01*
X92272821Y-89011715D01*
X92272818Y-89011722D01*
X92219275Y-89176513D01*
X92214326Y-89191744D01*
X92194540Y-89380000D01*
X80500500Y-89380000D01*
X80500500Y-88300000D01*
X89094540Y-88300000D01*
X89114326Y-88488256D01*
X89114327Y-88488259D01*
X89172818Y-88668277D01*
X89172821Y-88668284D01*
X89267467Y-88832216D01*
X89394129Y-88972888D01*
X89547265Y-89084148D01*
X89547270Y-89084151D01*
X89720192Y-89161142D01*
X89720197Y-89161144D01*
X89905354Y-89200500D01*
X89905355Y-89200500D01*
X90094644Y-89200500D01*
X90094646Y-89200500D01*
X90279803Y-89161144D01*
X90452730Y-89084151D01*
X90605871Y-88972888D01*
X90732533Y-88832216D01*
X90827179Y-88668284D01*
X90885674Y-88488256D01*
X90905460Y-88300000D01*
X90885674Y-88111744D01*
X90827179Y-87931716D01*
X90774405Y-87840309D01*
X162926523Y-87840309D01*
X162945981Y-87975646D01*
X162945983Y-87975654D01*
X163002780Y-88100023D01*
X163002782Y-88100025D01*
X163002783Y-88100027D01*
X163012936Y-88111744D01*
X163043865Y-88147439D01*
X163072889Y-88210995D01*
X163062945Y-88280154D01*
X163043866Y-88309842D01*
X163026202Y-88330228D01*
X163026199Y-88330231D01*
X162969402Y-88454600D01*
X162969400Y-88454608D01*
X162949942Y-88589946D01*
X162969400Y-88725283D01*
X162969402Y-88725291D01*
X163026199Y-88849660D01*
X163026204Y-88849667D01*
X163115741Y-88952999D01*
X163115745Y-88953003D01*
X163146688Y-88972888D01*
X163230771Y-89026924D01*
X163286665Y-89043336D01*
X163361964Y-89065446D01*
X163361965Y-89065446D01*
X163498699Y-89065446D01*
X163629893Y-89026924D01*
X163744921Y-88953001D01*
X163834462Y-88849664D01*
X163891263Y-88725288D01*
X163910722Y-88589946D01*
X163891263Y-88454604D01*
X163867408Y-88402369D01*
X163834464Y-88330231D01*
X163834462Y-88330229D01*
X163834462Y-88330228D01*
X163808270Y-88300000D01*
X169124540Y-88300000D01*
X169144326Y-88488256D01*
X169144327Y-88488259D01*
X169202818Y-88668277D01*
X169202821Y-88668284D01*
X169297467Y-88832216D01*
X169424129Y-88972888D01*
X169577265Y-89084148D01*
X169577270Y-89084151D01*
X169750192Y-89161142D01*
X169750197Y-89161144D01*
X169935354Y-89200500D01*
X169935355Y-89200500D01*
X170124644Y-89200500D01*
X170124646Y-89200500D01*
X170309803Y-89161144D01*
X170482730Y-89084151D01*
X170635871Y-88972888D01*
X170762533Y-88832216D01*
X170857179Y-88668284D01*
X170915674Y-88488256D01*
X170935460Y-88300000D01*
X170915674Y-88111744D01*
X170857179Y-87931716D01*
X170762533Y-87767784D01*
X170635871Y-87627112D01*
X170635870Y-87627111D01*
X170482734Y-87515851D01*
X170482729Y-87515848D01*
X170309807Y-87438857D01*
X170309802Y-87438855D01*
X170164001Y-87407865D01*
X170124646Y-87399500D01*
X169935354Y-87399500D01*
X169902897Y-87406398D01*
X169750197Y-87438855D01*
X169750192Y-87438857D01*
X169577270Y-87515848D01*
X169577265Y-87515851D01*
X169424129Y-87627111D01*
X169297466Y-87767785D01*
X169202821Y-87931715D01*
X169202818Y-87931722D01*
X169144327Y-88111740D01*
X169144326Y-88111744D01*
X169124540Y-88300000D01*
X163808270Y-88300000D01*
X163793379Y-88282815D01*
X163764355Y-88219259D01*
X163774299Y-88150100D01*
X163793382Y-88120409D01*
X163811040Y-88100031D01*
X163811041Y-88100029D01*
X163811043Y-88100027D01*
X163867844Y-87975651D01*
X163887303Y-87840309D01*
X163867844Y-87704967D01*
X163832288Y-87627111D01*
X163811045Y-87580594D01*
X163811040Y-87580587D01*
X163721503Y-87477255D01*
X163721499Y-87477251D01*
X163606472Y-87403330D01*
X163475281Y-87364809D01*
X163475280Y-87364809D01*
X163338546Y-87364809D01*
X163338545Y-87364809D01*
X163207353Y-87403330D01*
X163092326Y-87477251D01*
X163092322Y-87477255D01*
X163002785Y-87580587D01*
X163002780Y-87580594D01*
X162945983Y-87704963D01*
X162945981Y-87704971D01*
X162926523Y-87840309D01*
X90774405Y-87840309D01*
X90732533Y-87767784D01*
X90605871Y-87627112D01*
X90605870Y-87627111D01*
X90452734Y-87515851D01*
X90452729Y-87515848D01*
X90279807Y-87438857D01*
X90279802Y-87438855D01*
X90134001Y-87407865D01*
X90094646Y-87399500D01*
X89905354Y-87399500D01*
X89872897Y-87406398D01*
X89720197Y-87438855D01*
X89720192Y-87438857D01*
X89547270Y-87515848D01*
X89547265Y-87515851D01*
X89394129Y-87627111D01*
X89267466Y-87767785D01*
X89172821Y-87931715D01*
X89172818Y-87931722D01*
X89114327Y-88111740D01*
X89114326Y-88111744D01*
X89094540Y-88300000D01*
X80500500Y-88300000D01*
X80500500Y-84180000D01*
X88844564Y-84180000D01*
X88864289Y-84506099D01*
X88923178Y-84827452D01*
X89020366Y-85139342D01*
X89020370Y-85139354D01*
X89020373Y-85139361D01*
X89154455Y-85437279D01*
X89318901Y-85709306D01*
X89323473Y-85716868D01*
X89524954Y-85974039D01*
X89755960Y-86205045D01*
X90013131Y-86406526D01*
X90013134Y-86406528D01*
X90013137Y-86406530D01*
X90292721Y-86575545D01*
X90590639Y-86709627D01*
X90590652Y-86709631D01*
X90590657Y-86709633D01*
X90902547Y-86806821D01*
X91223896Y-86865710D01*
X91550000Y-86885436D01*
X91876104Y-86865710D01*
X92197453Y-86806821D01*
X92509361Y-86709627D01*
X92807279Y-86575545D01*
X93086863Y-86406530D01*
X93344036Y-86205048D01*
X93575048Y-85974036D01*
X93776530Y-85716863D01*
X93945545Y-85437279D01*
X94079627Y-85139361D01*
X94176821Y-84827453D01*
X94235710Y-84506104D01*
X94236079Y-84500000D01*
X105719610Y-84500000D01*
X105739068Y-84635337D01*
X105739070Y-84635345D01*
X105795867Y-84759714D01*
X105795872Y-84759721D01*
X105885409Y-84863053D01*
X105885413Y-84863057D01*
X105945979Y-84901979D01*
X106000439Y-84936978D01*
X106066036Y-84956239D01*
X106131632Y-84975500D01*
X106131633Y-84975500D01*
X106268367Y-84975500D01*
X106399561Y-84936978D01*
X106514589Y-84863055D01*
X106604130Y-84759718D01*
X106660931Y-84635342D01*
X106680390Y-84500000D01*
X106660931Y-84364658D01*
X106626919Y-84290182D01*
X106604132Y-84240285D01*
X106604127Y-84240278D01*
X106551893Y-84179996D01*
X165474916Y-84179996D01*
X165474916Y-84180003D01*
X165495235Y-84528869D01*
X165495236Y-84528880D01*
X165555914Y-84873002D01*
X165555916Y-84873011D01*
X165656145Y-85207800D01*
X165794555Y-85528670D01*
X165794561Y-85528683D01*
X165969289Y-85831322D01*
X166177967Y-86111625D01*
X166186148Y-86120296D01*
X167328932Y-84977513D01*
X167412140Y-85092039D01*
X167567961Y-85247860D01*
X167682485Y-85331066D01*
X166542818Y-86470733D01*
X166542819Y-86470734D01*
X166685484Y-86590445D01*
X166977461Y-86782480D01*
X167289739Y-86939314D01*
X167289745Y-86939316D01*
X167618130Y-87058838D01*
X167618133Y-87058839D01*
X167958171Y-87139429D01*
X168305276Y-87179999D01*
X168305277Y-87180000D01*
X168654723Y-87180000D01*
X168654723Y-87179999D01*
X169001827Y-87139429D01*
X169001829Y-87139429D01*
X169341866Y-87058839D01*
X169341869Y-87058838D01*
X169670254Y-86939316D01*
X169670260Y-86939314D01*
X169982538Y-86782480D01*
X170274509Y-86590449D01*
X170274510Y-86590448D01*
X170417179Y-86470734D01*
X170417180Y-86470733D01*
X169277514Y-85331066D01*
X169392039Y-85247860D01*
X169547860Y-85092039D01*
X169631066Y-84977514D01*
X170773849Y-86120297D01*
X170773851Y-86120296D01*
X170782022Y-86111636D01*
X170782033Y-86111623D01*
X170990710Y-85831322D01*
X171165438Y-85528683D01*
X171165444Y-85528670D01*
X171303854Y-85207800D01*
X171404083Y-84873011D01*
X171404085Y-84873002D01*
X171464763Y-84528880D01*
X171464764Y-84528869D01*
X171485084Y-84180003D01*
X171485084Y-84179996D01*
X171464764Y-83831130D01*
X171464763Y-83831119D01*
X171404085Y-83486997D01*
X171404083Y-83486988D01*
X171303854Y-83152199D01*
X171165444Y-82831329D01*
X171165438Y-82831316D01*
X170990710Y-82528677D01*
X170782032Y-82248374D01*
X170773850Y-82239702D01*
X169631066Y-83382485D01*
X169547860Y-83267961D01*
X169392039Y-83112140D01*
X169277513Y-83028932D01*
X170417180Y-81889265D01*
X170417179Y-81889264D01*
X170274519Y-81769557D01*
X169982538Y-81577519D01*
X169670260Y-81420685D01*
X169670254Y-81420683D01*
X169341869Y-81301161D01*
X169341866Y-81301160D01*
X169001828Y-81220570D01*
X168654723Y-81180000D01*
X168305277Y-81180000D01*
X167958172Y-81220570D01*
X167958170Y-81220570D01*
X167618133Y-81301160D01*
X167618130Y-81301161D01*
X167289745Y-81420683D01*
X167289739Y-81420685D01*
X166977461Y-81577519D01*
X166685480Y-81769557D01*
X166542819Y-81889264D01*
X166542818Y-81889265D01*
X167682486Y-83028932D01*
X167567961Y-83112140D01*
X167412140Y-83267961D01*
X167328932Y-83382485D01*
X166186148Y-82239701D01*
X166186147Y-82239702D01*
X166177976Y-82248363D01*
X166177972Y-82248368D01*
X165969289Y-82528677D01*
X165794561Y-82831316D01*
X165794555Y-82831329D01*
X165656145Y-83152199D01*
X165555916Y-83486988D01*
X165555914Y-83486997D01*
X165495236Y-83831119D01*
X165495235Y-83831130D01*
X165474916Y-84179996D01*
X106551893Y-84179996D01*
X106514590Y-84136946D01*
X106514586Y-84136942D01*
X106399559Y-84063021D01*
X106268368Y-84024500D01*
X106268367Y-84024500D01*
X106131633Y-84024500D01*
X106131632Y-84024500D01*
X106000440Y-84063021D01*
X105885413Y-84136942D01*
X105885409Y-84136946D01*
X105795872Y-84240278D01*
X105795867Y-84240285D01*
X105739070Y-84364654D01*
X105739068Y-84364662D01*
X105719610Y-84500000D01*
X94236079Y-84500000D01*
X94255436Y-84180000D01*
X94235710Y-83853896D01*
X94176821Y-83532547D01*
X94079627Y-83220639D01*
X93945545Y-82922721D01*
X93776530Y-82643137D01*
X93776528Y-82643134D01*
X93776526Y-82643131D01*
X93575045Y-82385960D01*
X93389085Y-82200000D01*
X101919610Y-82200000D01*
X101939068Y-82335337D01*
X101939070Y-82335345D01*
X101995867Y-82459714D01*
X101995872Y-82459721D01*
X102085409Y-82563053D01*
X102085413Y-82563057D01*
X102145979Y-82601979D01*
X102200439Y-82636978D01*
X102221415Y-82643137D01*
X102331632Y-82675500D01*
X102331633Y-82675500D01*
X102468367Y-82675500D01*
X102599561Y-82636978D01*
X102714589Y-82563055D01*
X102804130Y-82459718D01*
X102860931Y-82335342D01*
X102880390Y-82200000D01*
X102860931Y-82064658D01*
X102848677Y-82037827D01*
X102804132Y-81940285D01*
X102804127Y-81940278D01*
X102714590Y-81836946D01*
X102714586Y-81836942D01*
X102599559Y-81763021D01*
X102468368Y-81724500D01*
X102468367Y-81724500D01*
X102331633Y-81724500D01*
X102331632Y-81724500D01*
X102200440Y-81763021D01*
X102085413Y-81836942D01*
X102085409Y-81836946D01*
X101995872Y-81940278D01*
X101995867Y-81940285D01*
X101939070Y-82064654D01*
X101939068Y-82064662D01*
X101919610Y-82200000D01*
X93389085Y-82200000D01*
X93344039Y-82154954D01*
X93086868Y-81953473D01*
X92980655Y-81889265D01*
X92807279Y-81784455D01*
X92509361Y-81650373D01*
X92509354Y-81650370D01*
X92509342Y-81650366D01*
X92197452Y-81553178D01*
X91876099Y-81494289D01*
X91550000Y-81474564D01*
X91223900Y-81494289D01*
X90902547Y-81553178D01*
X90590657Y-81650366D01*
X90590641Y-81650372D01*
X90590639Y-81650373D01*
X90425936Y-81724500D01*
X90292725Y-81784453D01*
X90292723Y-81784454D01*
X90013131Y-81953473D01*
X89755960Y-82154954D01*
X89524954Y-82385960D01*
X89323473Y-82643131D01*
X89240733Y-82780000D01*
X89154455Y-82922721D01*
X89051176Y-83152199D01*
X89020372Y-83220642D01*
X89020366Y-83220657D01*
X88923178Y-83532547D01*
X88864289Y-83853900D01*
X88844564Y-84180000D01*
X80500500Y-84180000D01*
X80500500Y-77072000D01*
X102879610Y-77072000D01*
X102899068Y-77207337D01*
X102899070Y-77207345D01*
X102955867Y-77331714D01*
X102955872Y-77331721D01*
X103013865Y-77398649D01*
X103042890Y-77462204D01*
X103032946Y-77531363D01*
X103013871Y-77561046D01*
X103005875Y-77570274D01*
X103005869Y-77570284D01*
X102949069Y-77694657D01*
X102949068Y-77694662D01*
X102929610Y-77830000D01*
X102949068Y-77965337D01*
X102949070Y-77965345D01*
X103005867Y-78089714D01*
X103005872Y-78089721D01*
X103095409Y-78193053D01*
X103095413Y-78193057D01*
X103155979Y-78231979D01*
X103210439Y-78266978D01*
X103276036Y-78286239D01*
X103341632Y-78305500D01*
X103341633Y-78305500D01*
X103478367Y-78305500D01*
X103609561Y-78266978D01*
X103724589Y-78193055D01*
X103814130Y-78089718D01*
X103870931Y-77965342D01*
X103890390Y-77830000D01*
X103870931Y-77694658D01*
X103858677Y-77667827D01*
X103814132Y-77570285D01*
X103814130Y-77570283D01*
X103814130Y-77570282D01*
X103756133Y-77503349D01*
X103727109Y-77439793D01*
X103737053Y-77370635D01*
X103756132Y-77340948D01*
X103764130Y-77331718D01*
X103820931Y-77207342D01*
X103840390Y-77072000D01*
X103820931Y-76936658D01*
X103808677Y-76909827D01*
X103764132Y-76812285D01*
X103764127Y-76812278D01*
X103674590Y-76708946D01*
X103674586Y-76708942D01*
X103559559Y-76635021D01*
X103428368Y-76596500D01*
X103428367Y-76596500D01*
X103291633Y-76596500D01*
X103291632Y-76596500D01*
X103160440Y-76635021D01*
X103045413Y-76708942D01*
X103045409Y-76708946D01*
X102955872Y-76812278D01*
X102955867Y-76812285D01*
X102899070Y-76936654D01*
X102899068Y-76936662D01*
X102879610Y-77072000D01*
X80500500Y-77072000D01*
X80500500Y-74379998D01*
X89544390Y-74379998D01*
X89544390Y-74380001D01*
X89564804Y-74665433D01*
X89625628Y-74945037D01*
X89625630Y-74945043D01*
X89625631Y-74945046D01*
X89718834Y-75194932D01*
X89725635Y-75213166D01*
X89862770Y-75464309D01*
X89862775Y-75464317D01*
X90034254Y-75693387D01*
X90034270Y-75693405D01*
X90236594Y-75895729D01*
X90236612Y-75895745D01*
X90465682Y-76067224D01*
X90465690Y-76067229D01*
X90716833Y-76204364D01*
X90716832Y-76204364D01*
X90716836Y-76204365D01*
X90716839Y-76204367D01*
X90984954Y-76304369D01*
X90984960Y-76304370D01*
X90984962Y-76304371D01*
X91264566Y-76365195D01*
X91264568Y-76365195D01*
X91264572Y-76365196D01*
X91518220Y-76383337D01*
X91549999Y-76385610D01*
X91550000Y-76385610D01*
X91550001Y-76385610D01*
X91578595Y-76383564D01*
X91835428Y-76365196D01*
X91860597Y-76359721D01*
X92115037Y-76304371D01*
X92115037Y-76304370D01*
X92115046Y-76304369D01*
X92383161Y-76204367D01*
X92574294Y-76100000D01*
X105879610Y-76100000D01*
X105899068Y-76235337D01*
X105899070Y-76235345D01*
X105955867Y-76359714D01*
X105955872Y-76359721D01*
X106045409Y-76463053D01*
X106045413Y-76463057D01*
X106105979Y-76501979D01*
X106160439Y-76536978D01*
X106226036Y-76556239D01*
X106291632Y-76575500D01*
X106291633Y-76575500D01*
X106428367Y-76575500D01*
X106559561Y-76536978D01*
X106674589Y-76463055D01*
X106764130Y-76359718D01*
X106820931Y-76235342D01*
X106840390Y-76100000D01*
X106820931Y-75964658D01*
X106808677Y-75937827D01*
X106764132Y-75840285D01*
X106764127Y-75840278D01*
X106674590Y-75736946D01*
X106674586Y-75736942D01*
X106559559Y-75663021D01*
X106428368Y-75624500D01*
X106428367Y-75624500D01*
X106291633Y-75624500D01*
X106291632Y-75624500D01*
X106160440Y-75663021D01*
X106045413Y-75736942D01*
X106045409Y-75736946D01*
X105955872Y-75840278D01*
X105955867Y-75840285D01*
X105899070Y-75964654D01*
X105899068Y-75964662D01*
X105879610Y-76100000D01*
X92574294Y-76100000D01*
X92634315Y-76067226D01*
X92863395Y-75895739D01*
X93065739Y-75693395D01*
X93237226Y-75464315D01*
X93326949Y-75300000D01*
X128019610Y-75300000D01*
X128039068Y-75435337D01*
X128039070Y-75435345D01*
X128095867Y-75559714D01*
X128095872Y-75559721D01*
X128185409Y-75663053D01*
X128185413Y-75663057D01*
X128232637Y-75693405D01*
X128300439Y-75736978D01*
X128366036Y-75756239D01*
X128431632Y-75775500D01*
X128431633Y-75775500D01*
X128568367Y-75775500D01*
X128699561Y-75736978D01*
X128814589Y-75663055D01*
X128904130Y-75559718D01*
X128960931Y-75435342D01*
X128980390Y-75300000D01*
X128960931Y-75164658D01*
X128948677Y-75137827D01*
X128904132Y-75040285D01*
X128904127Y-75040278D01*
X128886556Y-75020000D01*
X145189610Y-75020000D01*
X145209068Y-75155337D01*
X145209070Y-75155345D01*
X145265867Y-75279714D01*
X145265872Y-75279721D01*
X145355409Y-75383053D01*
X145355413Y-75383057D01*
X145415979Y-75421979D01*
X145470439Y-75456978D01*
X145498710Y-75465279D01*
X145601632Y-75495500D01*
X145601633Y-75495500D01*
X145738367Y-75495500D01*
X145869561Y-75456978D01*
X145984589Y-75383055D01*
X146030327Y-75330270D01*
X160199343Y-75330270D01*
X160218801Y-75465607D01*
X160218803Y-75465615D01*
X160275600Y-75589984D01*
X160275605Y-75589991D01*
X160365142Y-75693323D01*
X160365146Y-75693327D01*
X160425712Y-75732249D01*
X160480172Y-75767248D01*
X160508276Y-75775500D01*
X160611365Y-75805770D01*
X160611366Y-75805770D01*
X160748100Y-75805770D01*
X160879294Y-75767248D01*
X160987959Y-75697414D01*
X161054996Y-75677731D01*
X161122032Y-75697414D01*
X161230174Y-75766912D01*
X161230176Y-75766912D01*
X161230177Y-75766913D01*
X161361367Y-75805434D01*
X161361368Y-75805434D01*
X161498102Y-75805434D01*
X161629296Y-75766912D01*
X161744324Y-75692989D01*
X161833865Y-75589652D01*
X161890666Y-75465276D01*
X161910125Y-75329934D01*
X161890666Y-75194592D01*
X161834020Y-75070555D01*
X161833867Y-75070219D01*
X161833862Y-75070212D01*
X161744325Y-74966880D01*
X161744321Y-74966876D01*
X161653471Y-74908492D01*
X161629296Y-74892956D01*
X161629295Y-74892955D01*
X161629294Y-74892955D01*
X161498103Y-74854434D01*
X161498102Y-74854434D01*
X161361368Y-74854434D01*
X161361367Y-74854434D01*
X161230175Y-74892955D01*
X161121510Y-74962788D01*
X161054470Y-74982472D01*
X160987434Y-74962788D01*
X160879292Y-74893291D01*
X160748101Y-74854770D01*
X160748100Y-74854770D01*
X160611366Y-74854770D01*
X160611365Y-74854770D01*
X160480173Y-74893291D01*
X160365146Y-74967212D01*
X160365142Y-74967216D01*
X160275605Y-75070548D01*
X160275600Y-75070555D01*
X160218803Y-75194924D01*
X160218801Y-75194932D01*
X160199343Y-75330270D01*
X146030327Y-75330270D01*
X146074130Y-75279718D01*
X146130931Y-75155342D01*
X146150390Y-75020000D01*
X146130931Y-74884658D01*
X146118376Y-74857168D01*
X146108433Y-74788011D01*
X146137458Y-74724456D01*
X146164132Y-74701342D01*
X146169561Y-74697853D01*
X146284589Y-74623930D01*
X146374130Y-74520593D01*
X146430931Y-74396217D01*
X146450390Y-74260875D01*
X146445951Y-74230001D01*
X155999612Y-74230001D01*
X156019070Y-74365338D01*
X156019072Y-74365346D01*
X156075869Y-74489715D01*
X156075874Y-74489722D01*
X156165411Y-74593054D01*
X156165415Y-74593058D01*
X156225981Y-74631980D01*
X156280441Y-74666979D01*
X156346038Y-74686240D01*
X156411634Y-74705501D01*
X156411635Y-74705501D01*
X156548369Y-74705501D01*
X156679563Y-74666979D01*
X156794591Y-74593056D01*
X156884132Y-74489719D01*
X156934240Y-74379998D01*
X166474390Y-74379998D01*
X166474390Y-74380001D01*
X166494804Y-74665433D01*
X166555628Y-74945037D01*
X166555630Y-74945043D01*
X166555631Y-74945046D01*
X166648834Y-75194932D01*
X166655635Y-75213166D01*
X166792770Y-75464309D01*
X166792775Y-75464317D01*
X166964254Y-75693387D01*
X166964270Y-75693405D01*
X167166594Y-75895729D01*
X167166612Y-75895745D01*
X167395682Y-76067224D01*
X167395690Y-76067229D01*
X167646833Y-76204364D01*
X167646832Y-76204364D01*
X167646836Y-76204365D01*
X167646839Y-76204367D01*
X167914954Y-76304369D01*
X167914960Y-76304370D01*
X167914962Y-76304371D01*
X168194566Y-76365195D01*
X168194568Y-76365195D01*
X168194572Y-76365196D01*
X168448220Y-76383337D01*
X168479999Y-76385610D01*
X168480000Y-76385610D01*
X168480001Y-76385610D01*
X168508595Y-76383564D01*
X168765428Y-76365196D01*
X168790597Y-76359721D01*
X169045037Y-76304371D01*
X169045037Y-76304370D01*
X169045046Y-76304369D01*
X169313161Y-76204367D01*
X169564315Y-76067226D01*
X169793395Y-75895739D01*
X169995739Y-75693395D01*
X170167226Y-75464315D01*
X170304367Y-75213161D01*
X170404369Y-74945046D01*
X170415628Y-74893291D01*
X170465195Y-74665433D01*
X170465195Y-74665432D01*
X170465196Y-74665428D01*
X170485610Y-74380000D01*
X170465196Y-74094572D01*
X170464140Y-74089719D01*
X170404371Y-73814962D01*
X170404370Y-73814960D01*
X170404369Y-73814954D01*
X170304367Y-73546839D01*
X170284405Y-73510282D01*
X170167229Y-73295690D01*
X170167224Y-73295682D01*
X169995745Y-73066612D01*
X169995729Y-73066594D01*
X169793405Y-72864270D01*
X169793387Y-72864254D01*
X169564317Y-72692775D01*
X169564309Y-72692770D01*
X169313166Y-72555635D01*
X169313167Y-72555635D01*
X169205915Y-72515632D01*
X169045046Y-72455631D01*
X169045043Y-72455630D01*
X169045037Y-72455628D01*
X168765433Y-72394804D01*
X168480001Y-72374390D01*
X168479999Y-72374390D01*
X168194566Y-72394804D01*
X167914962Y-72455628D01*
X167646833Y-72555635D01*
X167395690Y-72692770D01*
X167395682Y-72692775D01*
X167166612Y-72864254D01*
X167166594Y-72864270D01*
X166964270Y-73066594D01*
X166964254Y-73066612D01*
X166792775Y-73295682D01*
X166792770Y-73295690D01*
X166655635Y-73546833D01*
X166555628Y-73814962D01*
X166494804Y-74094566D01*
X166474390Y-74379998D01*
X156934240Y-74379998D01*
X156940933Y-74365343D01*
X156960392Y-74230001D01*
X156940933Y-74094659D01*
X156911275Y-74029718D01*
X156884134Y-73970286D01*
X156884129Y-73970279D01*
X156794592Y-73866947D01*
X156794588Y-73866943D01*
X156784094Y-73860199D01*
X160016637Y-73860199D01*
X160036095Y-73995536D01*
X160036097Y-73995544D01*
X160092894Y-74119913D01*
X160092899Y-74119920D01*
X160182436Y-74223252D01*
X160182440Y-74223256D01*
X160240978Y-74260875D01*
X160297466Y-74297177D01*
X160363063Y-74316438D01*
X160428659Y-74335699D01*
X160428660Y-74335699D01*
X160565394Y-74335699D01*
X160696588Y-74297177D01*
X160811616Y-74223254D01*
X160813069Y-74221576D01*
X160814935Y-74220377D01*
X160818316Y-74217448D01*
X160818737Y-74217933D01*
X160871842Y-74183801D01*
X160941711Y-74183797D01*
X160973819Y-74198458D01*
X161080441Y-74266979D01*
X161080443Y-74266979D01*
X161080444Y-74266980D01*
X161211634Y-74305501D01*
X161211635Y-74305501D01*
X161348369Y-74305501D01*
X161479563Y-74266979D01*
X161594591Y-74193056D01*
X161684132Y-74089719D01*
X161740933Y-73965343D01*
X161760392Y-73830001D01*
X161740933Y-73694659D01*
X161713531Y-73634658D01*
X161684134Y-73570286D01*
X161684129Y-73570279D01*
X161594592Y-73466947D01*
X161594588Y-73466943D01*
X161479561Y-73393022D01*
X161348370Y-73354501D01*
X161348369Y-73354501D01*
X161211635Y-73354501D01*
X161211634Y-73354501D01*
X161080442Y-73393022D01*
X160965415Y-73466943D01*
X160965412Y-73466946D01*
X160963952Y-73468632D01*
X160962077Y-73469836D01*
X160958713Y-73472752D01*
X160958293Y-73472267D01*
X160905171Y-73506402D01*
X160835301Y-73506398D01*
X160803206Y-73491739D01*
X160696588Y-73423221D01*
X160696586Y-73423220D01*
X160696584Y-73423219D01*
X160565395Y-73384699D01*
X160565394Y-73384699D01*
X160428660Y-73384699D01*
X160428659Y-73384699D01*
X160297467Y-73423220D01*
X160182440Y-73497141D01*
X160182436Y-73497145D01*
X160092899Y-73600477D01*
X160092894Y-73600484D01*
X160036097Y-73724853D01*
X160036095Y-73724861D01*
X160016637Y-73860199D01*
X156784094Y-73860199D01*
X156679561Y-73793022D01*
X156548370Y-73754501D01*
X156548369Y-73754501D01*
X156411635Y-73754501D01*
X156411634Y-73754501D01*
X156280442Y-73793022D01*
X156165415Y-73866943D01*
X156165411Y-73866947D01*
X156075874Y-73970279D01*
X156075869Y-73970286D01*
X156019072Y-74094655D01*
X156019070Y-74094663D01*
X155999612Y-74230001D01*
X146445951Y-74230001D01*
X146430931Y-74125533D01*
X146416829Y-74094655D01*
X146374132Y-74001160D01*
X146374127Y-74001153D01*
X146284590Y-73897821D01*
X146284586Y-73897817D01*
X146169559Y-73823896D01*
X146038368Y-73785375D01*
X146038367Y-73785375D01*
X145901633Y-73785375D01*
X145901632Y-73785375D01*
X145770440Y-73823896D01*
X145655413Y-73897817D01*
X145655409Y-73897821D01*
X145565872Y-74001153D01*
X145565867Y-74001160D01*
X145509070Y-74125529D01*
X145509068Y-74125537D01*
X145489610Y-74260875D01*
X145506737Y-74380001D01*
X145509069Y-74396217D01*
X145521623Y-74423706D01*
X145531567Y-74492864D01*
X145502542Y-74556419D01*
X145475868Y-74579533D01*
X145355411Y-74656945D01*
X145355409Y-74656946D01*
X145265872Y-74760278D01*
X145265867Y-74760285D01*
X145209070Y-74884654D01*
X145209068Y-74884662D01*
X145189610Y-75020000D01*
X128886556Y-75020000D01*
X128814590Y-74936946D01*
X128814586Y-74936942D01*
X128699559Y-74863021D01*
X128568368Y-74824500D01*
X128568367Y-74824500D01*
X128431633Y-74824500D01*
X128431632Y-74824500D01*
X128300440Y-74863021D01*
X128185413Y-74936942D01*
X128185409Y-74936946D01*
X128095872Y-75040278D01*
X128095867Y-75040285D01*
X128039070Y-75164654D01*
X128039068Y-75164662D01*
X128019610Y-75300000D01*
X93326949Y-75300000D01*
X93374367Y-75213161D01*
X93474369Y-74945046D01*
X93485628Y-74893291D01*
X93505922Y-74800000D01*
X125599610Y-74800000D01*
X125619068Y-74935337D01*
X125619070Y-74935345D01*
X125675867Y-75059714D01*
X125675872Y-75059721D01*
X125765409Y-75163053D01*
X125765413Y-75163057D01*
X125814478Y-75194588D01*
X125880439Y-75236978D01*
X125946036Y-75256239D01*
X126011632Y-75275500D01*
X126011633Y-75275500D01*
X126148367Y-75275500D01*
X126279561Y-75236978D01*
X126394589Y-75163055D01*
X126484130Y-75059718D01*
X126540931Y-74935342D01*
X126560390Y-74800000D01*
X126540931Y-74664658D01*
X126508232Y-74593058D01*
X126484132Y-74540285D01*
X126484127Y-74540278D01*
X126394590Y-74436946D01*
X126394586Y-74436942D01*
X126283177Y-74365346D01*
X126279561Y-74363022D01*
X126279560Y-74363021D01*
X126279559Y-74363021D01*
X126148368Y-74324500D01*
X126148367Y-74324500D01*
X126011633Y-74324500D01*
X126011632Y-74324500D01*
X125880440Y-74363021D01*
X125765413Y-74436942D01*
X125765409Y-74436946D01*
X125675872Y-74540278D01*
X125675867Y-74540285D01*
X125619070Y-74664654D01*
X125619068Y-74664662D01*
X125599610Y-74800000D01*
X93505922Y-74800000D01*
X93535195Y-74665433D01*
X93535195Y-74665432D01*
X93535196Y-74665428D01*
X93555610Y-74380000D01*
X93535196Y-74094572D01*
X93534140Y-74089719D01*
X93474371Y-73814962D01*
X93474370Y-73814960D01*
X93474369Y-73814954D01*
X93457602Y-73770000D01*
X106549610Y-73770000D01*
X106569068Y-73905337D01*
X106569070Y-73905345D01*
X106625867Y-74029714D01*
X106625872Y-74029721D01*
X106715409Y-74133053D01*
X106715413Y-74133057D01*
X106775979Y-74171979D01*
X106830439Y-74206978D01*
X106885863Y-74223252D01*
X106961632Y-74245500D01*
X106961633Y-74245500D01*
X107098367Y-74245500D01*
X107229561Y-74206978D01*
X107344589Y-74133055D01*
X107434130Y-74029718D01*
X107490931Y-73905342D01*
X107510390Y-73770000D01*
X107490931Y-73634658D01*
X107461530Y-73570279D01*
X107434132Y-73510285D01*
X107434127Y-73510278D01*
X107344590Y-73406946D01*
X107344586Y-73406942D01*
X107229559Y-73333021D01*
X107098368Y-73294500D01*
X107098367Y-73294500D01*
X106961633Y-73294500D01*
X106961632Y-73294500D01*
X106830440Y-73333021D01*
X106715413Y-73406942D01*
X106715409Y-73406946D01*
X106625872Y-73510278D01*
X106625867Y-73510285D01*
X106569070Y-73634654D01*
X106569068Y-73634662D01*
X106549610Y-73770000D01*
X93457602Y-73770000D01*
X93374367Y-73546839D01*
X93354405Y-73510282D01*
X93237229Y-73295690D01*
X93237224Y-73295682D01*
X93065745Y-73066612D01*
X93065729Y-73066594D01*
X92863405Y-72864270D01*
X92863387Y-72864254D01*
X92634317Y-72692775D01*
X92634309Y-72692770D01*
X92383166Y-72555635D01*
X92383167Y-72555635D01*
X92275915Y-72515632D01*
X92115046Y-72455631D01*
X92115043Y-72455630D01*
X92115037Y-72455628D01*
X91835433Y-72394804D01*
X91550001Y-72374390D01*
X91549999Y-72374390D01*
X91264566Y-72394804D01*
X90984962Y-72455628D01*
X90716833Y-72555635D01*
X90465690Y-72692770D01*
X90465682Y-72692775D01*
X90236612Y-72864254D01*
X90236594Y-72864270D01*
X90034270Y-73066594D01*
X90034254Y-73066612D01*
X89862775Y-73295682D01*
X89862770Y-73295690D01*
X89725635Y-73546833D01*
X89625628Y-73814962D01*
X89564804Y-74094566D01*
X89544390Y-74379998D01*
X80500500Y-74379998D01*
X80500500Y-71830000D01*
X131839610Y-71830000D01*
X131859068Y-71965337D01*
X131859070Y-71965345D01*
X131915867Y-72089714D01*
X131915872Y-72089721D01*
X132005409Y-72193053D01*
X132005413Y-72193057D01*
X132055897Y-72225500D01*
X132120439Y-72266978D01*
X132186036Y-72286239D01*
X132251632Y-72305500D01*
X132251633Y-72305500D01*
X132388367Y-72305500D01*
X132509269Y-72270000D01*
X136209610Y-72270000D01*
X136229068Y-72405337D01*
X136229070Y-72405345D01*
X136285867Y-72529714D01*
X136285872Y-72529721D01*
X136375409Y-72633053D01*
X136375413Y-72633057D01*
X136435979Y-72671979D01*
X136490439Y-72706978D01*
X136556036Y-72726239D01*
X136621632Y-72745500D01*
X136621633Y-72745500D01*
X136758367Y-72745500D01*
X136889561Y-72706978D01*
X137004589Y-72633055D01*
X137094130Y-72529718D01*
X137150931Y-72405342D01*
X137164315Y-72312251D01*
X137193338Y-72248698D01*
X137252116Y-72210923D01*
X137321985Y-72210922D01*
X137321987Y-72210923D01*
X137371632Y-72225500D01*
X137371633Y-72225500D01*
X137508367Y-72225500D01*
X137639561Y-72186978D01*
X137754589Y-72113055D01*
X137844130Y-72009718D01*
X137900931Y-71885342D01*
X137920390Y-71750000D01*
X137900931Y-71614658D01*
X137888677Y-71587827D01*
X137844132Y-71490285D01*
X137844127Y-71490278D01*
X137754590Y-71386946D01*
X137754586Y-71386942D01*
X137639559Y-71313021D01*
X137508368Y-71274500D01*
X137508367Y-71274500D01*
X137371633Y-71274500D01*
X137371632Y-71274500D01*
X137240440Y-71313021D01*
X137125413Y-71386942D01*
X137125409Y-71386946D01*
X137035872Y-71490278D01*
X137035867Y-71490285D01*
X136979070Y-71614654D01*
X136979068Y-71614662D01*
X136965685Y-71707746D01*
X136936660Y-71771302D01*
X136877882Y-71809076D01*
X136808014Y-71809077D01*
X136758367Y-71794500D01*
X136621633Y-71794500D01*
X136621632Y-71794500D01*
X136490440Y-71833021D01*
X136375413Y-71906942D01*
X136375409Y-71906946D01*
X136285872Y-72010278D01*
X136285867Y-72010285D01*
X136229070Y-72134654D01*
X136229068Y-72134662D01*
X136209610Y-72270000D01*
X132509269Y-72270000D01*
X132519561Y-72266978D01*
X132634589Y-72193055D01*
X132724130Y-72089718D01*
X132728797Y-72079500D01*
X132760409Y-72010278D01*
X132780931Y-71965342D01*
X132800390Y-71830000D01*
X132780931Y-71694658D01*
X132739529Y-71604000D01*
X133249027Y-71604000D01*
X133268485Y-71739337D01*
X133268487Y-71739345D01*
X133325284Y-71863714D01*
X133325289Y-71863721D01*
X133414826Y-71967053D01*
X133414830Y-71967057D01*
X133475396Y-72005979D01*
X133529856Y-72040978D01*
X133595453Y-72060239D01*
X133661049Y-72079500D01*
X133661050Y-72079500D01*
X133797784Y-72079500D01*
X133928978Y-72040978D01*
X134044006Y-71967055D01*
X134133547Y-71863718D01*
X134190348Y-71739342D01*
X134209807Y-71604000D01*
X134190348Y-71468658D01*
X134153031Y-71386945D01*
X134133549Y-71344285D01*
X134133544Y-71344278D01*
X134044007Y-71240946D01*
X134044003Y-71240942D01*
X133928976Y-71167021D01*
X133797785Y-71128500D01*
X133797784Y-71128500D01*
X133661050Y-71128500D01*
X133661049Y-71128500D01*
X133529857Y-71167021D01*
X133414830Y-71240942D01*
X133414826Y-71240946D01*
X133325289Y-71344278D01*
X133325284Y-71344285D01*
X133268487Y-71468654D01*
X133268485Y-71468662D01*
X133249027Y-71604000D01*
X132739529Y-71604000D01*
X132724132Y-71570285D01*
X132724127Y-71570278D01*
X132634590Y-71466946D01*
X132634586Y-71466942D01*
X132519559Y-71393021D01*
X132388368Y-71354500D01*
X132388367Y-71354500D01*
X132251633Y-71354500D01*
X132251632Y-71354500D01*
X132120440Y-71393021D01*
X132005413Y-71466942D01*
X132005409Y-71466946D01*
X131915872Y-71570278D01*
X131915867Y-71570285D01*
X131859070Y-71694654D01*
X131859068Y-71694662D01*
X131839610Y-71830000D01*
X80500500Y-71830000D01*
X80500500Y-67949993D01*
X82070288Y-67949993D01*
X82070288Y-67950006D01*
X82089103Y-68177085D01*
X82089105Y-68177093D01*
X82145045Y-68397993D01*
X82236579Y-68606669D01*
X82316874Y-68729570D01*
X82971119Y-68075326D01*
X82988734Y-68141063D01*
X83053902Y-68253937D01*
X83146063Y-68346098D01*
X83258937Y-68411266D01*
X83324672Y-68428880D01*
X82669015Y-69084536D01*
X82669015Y-69084538D01*
X82695360Y-69105043D01*
X82695371Y-69105050D01*
X82895769Y-69213499D01*
X82895780Y-69213504D01*
X83111298Y-69287492D01*
X83336065Y-69325000D01*
X83563935Y-69325000D01*
X83788701Y-69287492D01*
X84004219Y-69213504D01*
X84004230Y-69213499D01*
X84204627Y-69105050D01*
X84204633Y-69105046D01*
X84230983Y-69084537D01*
X84230984Y-69084536D01*
X83575327Y-68428880D01*
X83641063Y-68411266D01*
X83753937Y-68346098D01*
X83846098Y-68253937D01*
X83911266Y-68141063D01*
X83928880Y-68075327D01*
X84583123Y-68729571D01*
X84597625Y-68728067D01*
X84666337Y-68740730D01*
X84717295Y-68788532D01*
X84734321Y-68856296D01*
X84730192Y-68883498D01*
X84703793Y-68982020D01*
X84703793Y-68982024D01*
X84688198Y-69160285D01*
X84684723Y-69200000D01*
X84700878Y-69384662D01*
X84703793Y-69417975D01*
X84703793Y-69417979D01*
X84760422Y-69629322D01*
X84760424Y-69629326D01*
X84760425Y-69629330D01*
X84783923Y-69679721D01*
X84852897Y-69827638D01*
X84852898Y-69827639D01*
X84978402Y-70006877D01*
X85133123Y-70161598D01*
X85312361Y-70287102D01*
X85510670Y-70379575D01*
X85722023Y-70436207D01*
X85904926Y-70452208D01*
X85939998Y-70455277D01*
X85940000Y-70455277D01*
X85940002Y-70455277D01*
X85968254Y-70452805D01*
X86157977Y-70436207D01*
X86369330Y-70379575D01*
X86430180Y-70351200D01*
X117962753Y-70351200D01*
X117983234Y-70493656D01*
X118009750Y-70551717D01*
X118043023Y-70624573D01*
X118137272Y-70733343D01*
X118258347Y-70811153D01*
X118258350Y-70811154D01*
X118258349Y-70811154D01*
X118365507Y-70842617D01*
X118368784Y-70843580D01*
X118396436Y-70851699D01*
X118396438Y-70851700D01*
X118396439Y-70851700D01*
X118540362Y-70851700D01*
X118540362Y-70851699D01*
X118678453Y-70811153D01*
X118799528Y-70733343D01*
X118893777Y-70624573D01*
X118953565Y-70493657D01*
X118974047Y-70351200D01*
X118953565Y-70208743D01*
X118900142Y-70091764D01*
X146564353Y-70091764D01*
X146584834Y-70234220D01*
X146587014Y-70238993D01*
X146644623Y-70365137D01*
X146738872Y-70473907D01*
X146859947Y-70551717D01*
X146859950Y-70551718D01*
X146859949Y-70551718D01*
X146998036Y-70592263D01*
X146998038Y-70592264D01*
X146998039Y-70592264D01*
X147141962Y-70592264D01*
X147141962Y-70592263D01*
X147280053Y-70551717D01*
X147401128Y-70473907D01*
X147495377Y-70365137D01*
X147552985Y-70238995D01*
X171574499Y-70238995D01*
X171601418Y-70374322D01*
X171601421Y-70374332D01*
X171654221Y-70501804D01*
X171654228Y-70501817D01*
X171730885Y-70616541D01*
X171730888Y-70616545D01*
X171828454Y-70714111D01*
X171828458Y-70714114D01*
X171943182Y-70790771D01*
X171943195Y-70790778D01*
X171992388Y-70811154D01*
X172070672Y-70843580D01*
X172070676Y-70843580D01*
X172070677Y-70843581D01*
X172206004Y-70870500D01*
X172206007Y-70870500D01*
X173443995Y-70870500D01*
X173538511Y-70851699D01*
X173579328Y-70843580D01*
X173706811Y-70790775D01*
X173821542Y-70714114D01*
X173919114Y-70616542D01*
X173995775Y-70501811D01*
X173999153Y-70493657D01*
X174022949Y-70436206D01*
X174048580Y-70374328D01*
X174057389Y-70330041D01*
X174075500Y-70238995D01*
X175924499Y-70238995D01*
X175951418Y-70374322D01*
X175951421Y-70374332D01*
X176004221Y-70501804D01*
X176004228Y-70501817D01*
X176080885Y-70616541D01*
X176080888Y-70616545D01*
X176178454Y-70714111D01*
X176178458Y-70714114D01*
X176293182Y-70790771D01*
X176293195Y-70790778D01*
X176342388Y-70811154D01*
X176420672Y-70843580D01*
X176420676Y-70843580D01*
X176420677Y-70843581D01*
X176556004Y-70870500D01*
X176556007Y-70870500D01*
X177493995Y-70870500D01*
X177588511Y-70851699D01*
X177629328Y-70843580D01*
X177756811Y-70790775D01*
X177871542Y-70714114D01*
X177969114Y-70616542D01*
X178045775Y-70501811D01*
X178049153Y-70493657D01*
X178072949Y-70436206D01*
X178098580Y-70374328D01*
X178107389Y-70330041D01*
X178125500Y-70238995D01*
X178125500Y-70101004D01*
X178098581Y-69965677D01*
X178098580Y-69965676D01*
X178098580Y-69965672D01*
X178094979Y-69956978D01*
X178045778Y-69838195D01*
X178045771Y-69838182D01*
X177969114Y-69723458D01*
X177969111Y-69723454D01*
X177871545Y-69625888D01*
X177871541Y-69625885D01*
X177756817Y-69549228D01*
X177756804Y-69549221D01*
X177629332Y-69496421D01*
X177629322Y-69496418D01*
X177493995Y-69469500D01*
X177493993Y-69469500D01*
X176556007Y-69469500D01*
X176556005Y-69469500D01*
X176420677Y-69496418D01*
X176420667Y-69496421D01*
X176293195Y-69549221D01*
X176293182Y-69549228D01*
X176178458Y-69625885D01*
X176178454Y-69625888D01*
X176080888Y-69723454D01*
X176080885Y-69723458D01*
X176004228Y-69838182D01*
X176004221Y-69838195D01*
X175951421Y-69965667D01*
X175951418Y-69965677D01*
X175924500Y-70101004D01*
X175924500Y-70101007D01*
X175924500Y-70238993D01*
X175924500Y-70238995D01*
X175924499Y-70238995D01*
X174075500Y-70238995D01*
X174075500Y-70101004D01*
X174048581Y-69965677D01*
X174048580Y-69965676D01*
X174048580Y-69965672D01*
X174044979Y-69956978D01*
X173995778Y-69838195D01*
X173995771Y-69838182D01*
X173919114Y-69723458D01*
X173919111Y-69723454D01*
X173821545Y-69625888D01*
X173821541Y-69625885D01*
X173706817Y-69549228D01*
X173706808Y-69549223D01*
X173587180Y-69499672D01*
X173532777Y-69455831D01*
X173510712Y-69389537D01*
X173527991Y-69321837D01*
X173572631Y-69277725D01*
X173700821Y-69203715D01*
X173808715Y-69095821D01*
X173885008Y-68963678D01*
X173924500Y-68816293D01*
X173924500Y-68663707D01*
X173885008Y-68516322D01*
X173868045Y-68486942D01*
X173808717Y-68384182D01*
X173808712Y-68384176D01*
X173700823Y-68276287D01*
X173700817Y-68276282D01*
X173568681Y-68199993D01*
X173568682Y-68199993D01*
X173556595Y-68196754D01*
X173421293Y-68160500D01*
X173268707Y-68160500D01*
X173133404Y-68196754D01*
X173121318Y-68199993D01*
X172989182Y-68276282D01*
X172989176Y-68276287D01*
X172881287Y-68384176D01*
X172881282Y-68384182D01*
X172804993Y-68516318D01*
X172804992Y-68516322D01*
X172765500Y-68663707D01*
X172765500Y-68816293D01*
X172800365Y-68946409D01*
X172804993Y-68963681D01*
X172881282Y-69095817D01*
X172881284Y-69095819D01*
X172881285Y-69095821D01*
X172989179Y-69203715D01*
X173046184Y-69236627D01*
X173048758Y-69238113D01*
X173096973Y-69288681D01*
X173110195Y-69357288D01*
X173084227Y-69422152D01*
X173027313Y-69462680D01*
X172986757Y-69469500D01*
X172206005Y-69469500D01*
X172070677Y-69496418D01*
X172070667Y-69496421D01*
X171943195Y-69549221D01*
X171943182Y-69549228D01*
X171828458Y-69625885D01*
X171828454Y-69625888D01*
X171730888Y-69723454D01*
X171730885Y-69723458D01*
X171654228Y-69838182D01*
X171654221Y-69838195D01*
X171601421Y-69965667D01*
X171601418Y-69965677D01*
X171574500Y-70101004D01*
X171574500Y-70101007D01*
X171574500Y-70238993D01*
X171574500Y-70238995D01*
X171574499Y-70238995D01*
X147552985Y-70238995D01*
X147555165Y-70234221D01*
X147570602Y-70126852D01*
X147599627Y-70063297D01*
X147658405Y-70025523D01*
X147693340Y-70020500D01*
X147741962Y-70020500D01*
X147741962Y-70020499D01*
X147880053Y-69979953D01*
X148001128Y-69902143D01*
X148095377Y-69793373D01*
X148155165Y-69662457D01*
X148175647Y-69520000D01*
X148155165Y-69377543D01*
X148095377Y-69246627D01*
X148001128Y-69137857D01*
X147880053Y-69060047D01*
X147880051Y-69060046D01*
X147880049Y-69060045D01*
X147880050Y-69060045D01*
X147741963Y-69019500D01*
X147741961Y-69019500D01*
X147598039Y-69019500D01*
X147598036Y-69019500D01*
X147459949Y-69060045D01*
X147338873Y-69137856D01*
X147244623Y-69246626D01*
X147244622Y-69246628D01*
X147184834Y-69377543D01*
X147169398Y-69484911D01*
X147140373Y-69548467D01*
X147081595Y-69586241D01*
X147046660Y-69591264D01*
X146998036Y-69591264D01*
X146859949Y-69631809D01*
X146738873Y-69709620D01*
X146738872Y-69709620D01*
X146738872Y-69709621D01*
X146726886Y-69723454D01*
X146644623Y-69818390D01*
X146644622Y-69818392D01*
X146584834Y-69949307D01*
X146564353Y-70091764D01*
X118900142Y-70091764D01*
X118893777Y-70077827D01*
X118835433Y-70010494D01*
X118813291Y-69984940D01*
X118784267Y-69921384D01*
X118794211Y-69852226D01*
X118813292Y-69822535D01*
X118814495Y-69821145D01*
X118814500Y-69821143D01*
X118908749Y-69712373D01*
X118968537Y-69581457D01*
X118989019Y-69439000D01*
X118987131Y-69425872D01*
X143002058Y-69425872D01*
X143022539Y-69568328D01*
X143082327Y-69699243D01*
X143082328Y-69699245D01*
X143176577Y-69808015D01*
X143297652Y-69885825D01*
X143297655Y-69885826D01*
X143297654Y-69885826D01*
X143435741Y-69926371D01*
X143435743Y-69926372D01*
X143435744Y-69926372D01*
X143579667Y-69926372D01*
X143579667Y-69926371D01*
X143717758Y-69885825D01*
X143838833Y-69808015D01*
X143933082Y-69699245D01*
X143992870Y-69568329D01*
X144013352Y-69425872D01*
X143992870Y-69283415D01*
X143933082Y-69152499D01*
X143838833Y-69043729D01*
X143725904Y-68971154D01*
X143680150Y-68918351D01*
X143670206Y-68849192D01*
X143699231Y-68785636D01*
X143758007Y-68747862D01*
X143824453Y-68728353D01*
X143945528Y-68650543D01*
X144039777Y-68541773D01*
X144099565Y-68410857D01*
X144120047Y-68268400D01*
X144099565Y-68125943D01*
X144039777Y-67995027D01*
X143945528Y-67886257D01*
X143824453Y-67808447D01*
X143824451Y-67808446D01*
X143824449Y-67808445D01*
X143824450Y-67808445D01*
X143686363Y-67767900D01*
X143686361Y-67767900D01*
X143542439Y-67767900D01*
X143542436Y-67767900D01*
X143404349Y-67808445D01*
X143283273Y-67886256D01*
X143189023Y-67995026D01*
X143189022Y-67995028D01*
X143129234Y-68125943D01*
X143108753Y-68268400D01*
X143129234Y-68410856D01*
X143163984Y-68486946D01*
X143189023Y-68541773D01*
X143283272Y-68650543D01*
X143396200Y-68723117D01*
X143441954Y-68775920D01*
X143451898Y-68845079D01*
X143422873Y-68908634D01*
X143364095Y-68946409D01*
X143297654Y-68965917D01*
X143176578Y-69043728D01*
X143176577Y-69043728D01*
X143176577Y-69043729D01*
X143163995Y-69058249D01*
X143082328Y-69152498D01*
X143082327Y-69152500D01*
X143022539Y-69283415D01*
X143002058Y-69425872D01*
X118987131Y-69425872D01*
X118968537Y-69296543D01*
X118908749Y-69165627D01*
X118814500Y-69056857D01*
X118693425Y-68979047D01*
X118693423Y-68979046D01*
X118693421Y-68979045D01*
X118693422Y-68979045D01*
X118555335Y-68938500D01*
X118555333Y-68938500D01*
X118411411Y-68938500D01*
X118411408Y-68938500D01*
X118273321Y-68979045D01*
X118152245Y-69056856D01*
X118057995Y-69165626D01*
X118057994Y-69165628D01*
X117998206Y-69296543D01*
X117977725Y-69439000D01*
X117998206Y-69581456D01*
X118056738Y-69709620D01*
X118057995Y-69712373D01*
X118138481Y-69805259D01*
X118167505Y-69868813D01*
X118157561Y-69937971D01*
X118138480Y-69967662D01*
X118043025Y-70077822D01*
X118043022Y-70077828D01*
X117983234Y-70208743D01*
X117962753Y-70351200D01*
X86430180Y-70351200D01*
X86567639Y-70287102D01*
X86746877Y-70161598D01*
X86901598Y-70006877D01*
X87027102Y-69827639D01*
X87119575Y-69629330D01*
X87175665Y-69420000D01*
X94749610Y-69420000D01*
X94769068Y-69555337D01*
X94769070Y-69555345D01*
X94825867Y-69679714D01*
X94825872Y-69679721D01*
X94915409Y-69783053D01*
X94915413Y-69783057D01*
X94931466Y-69793373D01*
X95030439Y-69856978D01*
X95096036Y-69876239D01*
X95161632Y-69895500D01*
X95161633Y-69895500D01*
X95298367Y-69895500D01*
X95429561Y-69856978D01*
X95544589Y-69783055D01*
X95634130Y-69679718D01*
X95690931Y-69555342D01*
X95697450Y-69510000D01*
X96694353Y-69510000D01*
X96714834Y-69652456D01*
X96747260Y-69723458D01*
X96774623Y-69783373D01*
X96868872Y-69892143D01*
X96989947Y-69969953D01*
X96989950Y-69969954D01*
X96989949Y-69969954D01*
X97128036Y-70010499D01*
X97128038Y-70010500D01*
X97128039Y-70010500D01*
X97271962Y-70010500D01*
X97271962Y-70010499D01*
X97410053Y-69969953D01*
X97531128Y-69892143D01*
X97625377Y-69783373D01*
X97685165Y-69652457D01*
X97704209Y-69520000D01*
X104149610Y-69520000D01*
X104169068Y-69655337D01*
X104169070Y-69655345D01*
X104225867Y-69779714D01*
X104225872Y-69779721D01*
X104315409Y-69883053D01*
X104315413Y-69883057D01*
X104375053Y-69921384D01*
X104430439Y-69956978D01*
X104496036Y-69976239D01*
X104561632Y-69995500D01*
X104561633Y-69995500D01*
X104698367Y-69995500D01*
X104829561Y-69956978D01*
X104944589Y-69883055D01*
X105034130Y-69779718D01*
X105090931Y-69655342D01*
X105110390Y-69520000D01*
X105090931Y-69384658D01*
X105063686Y-69325000D01*
X105034132Y-69260285D01*
X105034127Y-69260278D01*
X104944590Y-69156946D01*
X104944586Y-69156942D01*
X104831918Y-69084537D01*
X104829561Y-69083022D01*
X104829560Y-69083021D01*
X104829559Y-69083021D01*
X104698368Y-69044500D01*
X104698367Y-69044500D01*
X104561633Y-69044500D01*
X104561632Y-69044500D01*
X104430440Y-69083021D01*
X104315413Y-69156942D01*
X104315409Y-69156946D01*
X104225872Y-69260278D01*
X104225867Y-69260285D01*
X104169070Y-69384654D01*
X104169068Y-69384662D01*
X104149610Y-69520000D01*
X97704209Y-69520000D01*
X97705647Y-69510000D01*
X97685165Y-69367543D01*
X97625377Y-69236627D01*
X97531128Y-69127857D01*
X97410053Y-69050047D01*
X97410051Y-69050046D01*
X97410049Y-69050045D01*
X97410050Y-69050045D01*
X97271963Y-69009500D01*
X97271961Y-69009500D01*
X97128039Y-69009500D01*
X97128036Y-69009500D01*
X96989949Y-69050045D01*
X96868873Y-69127856D01*
X96774623Y-69236626D01*
X96774622Y-69236628D01*
X96714834Y-69367543D01*
X96694353Y-69510000D01*
X95697450Y-69510000D01*
X95710390Y-69420000D01*
X95690931Y-69284658D01*
X95673562Y-69246626D01*
X95634132Y-69160285D01*
X95634127Y-69160278D01*
X95544590Y-69056946D01*
X95544586Y-69056942D01*
X95453736Y-68998558D01*
X95429561Y-68983022D01*
X95429560Y-68983021D01*
X95429559Y-68983021D01*
X95298368Y-68944500D01*
X95298367Y-68944500D01*
X95161633Y-68944500D01*
X95161632Y-68944500D01*
X95030440Y-68983021D01*
X94915413Y-69056942D01*
X94915409Y-69056946D01*
X94825872Y-69160278D01*
X94825867Y-69160285D01*
X94769070Y-69284654D01*
X94769068Y-69284662D01*
X94749610Y-69420000D01*
X87175665Y-69420000D01*
X87176207Y-69417977D01*
X87195277Y-69200000D01*
X87176207Y-68982023D01*
X87140831Y-68850000D01*
X101139610Y-68850000D01*
X101159068Y-68985337D01*
X101159070Y-68985345D01*
X101215867Y-69109714D01*
X101215872Y-69109721D01*
X101305409Y-69213053D01*
X101305413Y-69213057D01*
X101357649Y-69246626D01*
X101420439Y-69286978D01*
X101486036Y-69306239D01*
X101551632Y-69325500D01*
X101551633Y-69325500D01*
X101688367Y-69325500D01*
X101819561Y-69286978D01*
X101934589Y-69213055D01*
X102024130Y-69109718D01*
X102030479Y-69095817D01*
X102069898Y-69009500D01*
X102080931Y-68985342D01*
X102100390Y-68850000D01*
X102080931Y-68714658D01*
X102053914Y-68655500D01*
X102024132Y-68590285D01*
X102024127Y-68590278D01*
X101934590Y-68486946D01*
X101934586Y-68486942D01*
X101843736Y-68428558D01*
X101819561Y-68413022D01*
X101819560Y-68413021D01*
X101819559Y-68413021D01*
X101688368Y-68374500D01*
X101688367Y-68374500D01*
X101551633Y-68374500D01*
X101551632Y-68374500D01*
X101420440Y-68413021D01*
X101305413Y-68486942D01*
X101305409Y-68486946D01*
X101215872Y-68590278D01*
X101215867Y-68590285D01*
X101159070Y-68714654D01*
X101159068Y-68714662D01*
X101139610Y-68850000D01*
X87140831Y-68850000D01*
X87119575Y-68770670D01*
X87027102Y-68572362D01*
X87027100Y-68572359D01*
X87027099Y-68572357D01*
X86901599Y-68393124D01*
X86848752Y-68340277D01*
X86746877Y-68238402D01*
X86567639Y-68112898D01*
X86567640Y-68112898D01*
X86567638Y-68112897D01*
X86561425Y-68110000D01*
X116119610Y-68110000D01*
X116139068Y-68245337D01*
X116139070Y-68245345D01*
X116195867Y-68369714D01*
X116195872Y-68369721D01*
X116285409Y-68473053D01*
X116285413Y-68473057D01*
X116345979Y-68511979D01*
X116400439Y-68546978D01*
X116466036Y-68566239D01*
X116531632Y-68585500D01*
X116531633Y-68585500D01*
X116668367Y-68585500D01*
X116799561Y-68546978D01*
X116914589Y-68473055D01*
X116914596Y-68473046D01*
X116918794Y-68469410D01*
X116982349Y-68440384D01*
X117051508Y-68450325D01*
X117081206Y-68469410D01*
X117085406Y-68473050D01*
X117085411Y-68473055D01*
X117200439Y-68546978D01*
X117266036Y-68566239D01*
X117331632Y-68585500D01*
X117331633Y-68585500D01*
X117468367Y-68585500D01*
X117599561Y-68546978D01*
X117714589Y-68473055D01*
X117714596Y-68473046D01*
X117718794Y-68469410D01*
X117782349Y-68440384D01*
X117851508Y-68450325D01*
X117881206Y-68469410D01*
X117885406Y-68473050D01*
X117885411Y-68473055D01*
X118000439Y-68546978D01*
X118066036Y-68566239D01*
X118131632Y-68585500D01*
X118131633Y-68585500D01*
X118268367Y-68585500D01*
X118399561Y-68546978D01*
X118514589Y-68473055D01*
X118556289Y-68424930D01*
X118615064Y-68387157D01*
X118684934Y-68387157D01*
X118743709Y-68424928D01*
X118785411Y-68473055D01*
X118785414Y-68473057D01*
X118785413Y-68473057D01*
X118845979Y-68511979D01*
X118900439Y-68546978D01*
X118966036Y-68566239D01*
X119031632Y-68585500D01*
X119031633Y-68585500D01*
X119168367Y-68585500D01*
X119299561Y-68546978D01*
X119414589Y-68473055D01*
X119504130Y-68369718D01*
X119560931Y-68245342D01*
X119570326Y-68180000D01*
X131749610Y-68180000D01*
X131769068Y-68315337D01*
X131769070Y-68315345D01*
X131825867Y-68439714D01*
X131825872Y-68439721D01*
X131915409Y-68543053D01*
X131915413Y-68543057D01*
X131961014Y-68572362D01*
X132030439Y-68616978D01*
X132096036Y-68636239D01*
X132161632Y-68655500D01*
X132161633Y-68655500D01*
X132298367Y-68655500D01*
X132429561Y-68616978D01*
X132544589Y-68543055D01*
X132634130Y-68439718D01*
X132640884Y-68424930D01*
X132658134Y-68387157D01*
X132690931Y-68315342D01*
X132710390Y-68180000D01*
X132690931Y-68044658D01*
X132652140Y-67959718D01*
X132634132Y-67920285D01*
X132629335Y-67912821D01*
X132631593Y-67911369D01*
X132608351Y-67860462D01*
X132618302Y-67791304D01*
X132664062Y-67738505D01*
X132696156Y-67723850D01*
X132719561Y-67716978D01*
X132834589Y-67643055D01*
X132924130Y-67539718D01*
X132980931Y-67415342D01*
X132996077Y-67310000D01*
X136889610Y-67310000D01*
X136909068Y-67445337D01*
X136909070Y-67445345D01*
X136965867Y-67569714D01*
X136965872Y-67569721D01*
X137055409Y-67673053D01*
X137055413Y-67673057D01*
X137104341Y-67704500D01*
X137170439Y-67746978D01*
X137211168Y-67758937D01*
X137301632Y-67785500D01*
X137301633Y-67785500D01*
X137438367Y-67785500D01*
X137569561Y-67746978D01*
X137611540Y-67720000D01*
X146564353Y-67720000D01*
X146584834Y-67862456D01*
X146629253Y-67959718D01*
X146644623Y-67993373D01*
X146738872Y-68102143D01*
X146859947Y-68179953D01*
X146859950Y-68179954D01*
X146859949Y-68179954D01*
X146998036Y-68220499D01*
X146998038Y-68220500D01*
X146998039Y-68220500D01*
X147141962Y-68220500D01*
X147141962Y-68220499D01*
X147280053Y-68179953D01*
X147401128Y-68102143D01*
X147495377Y-67993373D01*
X147555165Y-67862457D01*
X147575647Y-67720000D01*
X147555165Y-67577543D01*
X147495377Y-67446627D01*
X147495376Y-67446626D01*
X147494194Y-67444037D01*
X147484250Y-67374879D01*
X147513275Y-67311323D01*
X147513275Y-67311322D01*
X147514261Y-67310182D01*
X147514265Y-67310181D01*
X147608514Y-67201411D01*
X147668302Y-67070495D01*
X147688784Y-66928038D01*
X147684753Y-66900000D01*
X156519610Y-66900000D01*
X156539068Y-67035337D01*
X156539070Y-67035345D01*
X156595867Y-67159714D01*
X156595870Y-67159718D01*
X156647062Y-67218798D01*
X156676086Y-67282354D01*
X156666142Y-67351513D01*
X156647062Y-67381202D01*
X156595870Y-67440281D01*
X156595867Y-67440285D01*
X156539070Y-67564654D01*
X156539068Y-67564662D01*
X156519610Y-67700000D01*
X156539068Y-67835337D01*
X156539070Y-67835345D01*
X156595867Y-67959714D01*
X156595872Y-67959722D01*
X156690387Y-68068798D01*
X156719412Y-68132353D01*
X156709468Y-68201512D01*
X156690387Y-68231202D01*
X156595872Y-68340277D01*
X156595867Y-68340285D01*
X156539070Y-68464654D01*
X156539068Y-68464662D01*
X156519610Y-68600000D01*
X156539068Y-68735337D01*
X156539070Y-68735345D01*
X156595867Y-68859714D01*
X156595872Y-68859721D01*
X156685409Y-68963053D01*
X156685413Y-68963057D01*
X156720095Y-68985345D01*
X156800439Y-69036978D01*
X156823431Y-69043729D01*
X156931632Y-69075500D01*
X156931633Y-69075500D01*
X157068367Y-69075500D01*
X157199561Y-69036978D01*
X157314589Y-68963055D01*
X157404130Y-68859718D01*
X157410816Y-68845079D01*
X157423963Y-68816290D01*
X157460931Y-68735342D01*
X157480390Y-68600000D01*
X157460931Y-68464658D01*
X157442788Y-68424930D01*
X157404132Y-68340285D01*
X157404130Y-68340283D01*
X157404130Y-68340282D01*
X157314589Y-68236945D01*
X157314585Y-68236942D01*
X157309612Y-68231203D01*
X157280587Y-68167647D01*
X157290531Y-68098489D01*
X157309612Y-68068797D01*
X157314585Y-68063057D01*
X157314589Y-68063055D01*
X157404130Y-67959718D01*
X157460931Y-67835342D01*
X157480390Y-67700000D01*
X157460931Y-67564658D01*
X157439898Y-67518603D01*
X157404132Y-67440285D01*
X157404130Y-67440283D01*
X157404130Y-67440282D01*
X157352935Y-67381199D01*
X157323912Y-67317648D01*
X157333855Y-67248489D01*
X157352933Y-67218802D01*
X157404130Y-67159718D01*
X157460931Y-67035342D01*
X157480390Y-66900000D01*
X157460931Y-66764658D01*
X157440764Y-66720499D01*
X157404132Y-66640285D01*
X157404127Y-66640278D01*
X157314590Y-66536946D01*
X157314586Y-66536942D01*
X157199559Y-66463021D01*
X157068368Y-66424500D01*
X157068367Y-66424500D01*
X156931633Y-66424500D01*
X156931632Y-66424500D01*
X156800440Y-66463021D01*
X156685413Y-66536942D01*
X156685409Y-66536946D01*
X156595872Y-66640278D01*
X156595867Y-66640285D01*
X156539070Y-66764654D01*
X156539068Y-66764662D01*
X156519610Y-66900000D01*
X147684753Y-66900000D01*
X147668302Y-66785581D01*
X147608514Y-66654665D01*
X147514265Y-66545895D01*
X147393190Y-66468085D01*
X147393188Y-66468084D01*
X147393186Y-66468083D01*
X147393187Y-66468083D01*
X147255100Y-66427538D01*
X147255098Y-66427538D01*
X147111176Y-66427538D01*
X147111173Y-66427538D01*
X146973086Y-66468083D01*
X146852010Y-66545894D01*
X146757760Y-66654664D01*
X146757759Y-66654666D01*
X146697971Y-66785581D01*
X146677490Y-66928038D01*
X146697971Y-67070494D01*
X146758942Y-67204000D01*
X146768886Y-67273159D01*
X146739862Y-67336714D01*
X146644623Y-67446627D01*
X146644622Y-67446628D01*
X146584834Y-67577543D01*
X146564353Y-67720000D01*
X137611540Y-67720000D01*
X137684589Y-67673055D01*
X137774130Y-67569718D01*
X137830931Y-67445342D01*
X137850390Y-67310000D01*
X137830931Y-67174658D01*
X137806096Y-67120278D01*
X137774132Y-67050285D01*
X137774127Y-67050278D01*
X137684590Y-66946946D01*
X137684586Y-66946942D01*
X137569559Y-66873021D01*
X137438368Y-66834500D01*
X137438367Y-66834500D01*
X137301633Y-66834500D01*
X137301632Y-66834500D01*
X137170440Y-66873021D01*
X137055413Y-66946942D01*
X137055409Y-66946946D01*
X136965872Y-67050278D01*
X136965867Y-67050285D01*
X136909070Y-67174654D01*
X136909068Y-67174662D01*
X136889610Y-67310000D01*
X132996077Y-67310000D01*
X133000390Y-67280000D01*
X132980931Y-67144658D01*
X132959551Y-67097842D01*
X132924132Y-67020285D01*
X132924127Y-67020278D01*
X132834590Y-66916946D01*
X132834586Y-66916942D01*
X132719559Y-66843021D01*
X132588368Y-66804500D01*
X132588367Y-66804500D01*
X132451633Y-66804500D01*
X132451632Y-66804500D01*
X132320440Y-66843021D01*
X132205413Y-66916942D01*
X132205409Y-66916946D01*
X132115872Y-67020278D01*
X132115867Y-67020285D01*
X132059070Y-67144654D01*
X132059068Y-67144662D01*
X132039610Y-67280000D01*
X132059068Y-67415337D01*
X132059070Y-67415345D01*
X132115867Y-67539714D01*
X132120665Y-67547179D01*
X132118405Y-67548630D01*
X132141648Y-67599541D01*
X132131696Y-67668698D01*
X132085934Y-67721496D01*
X132053845Y-67736149D01*
X132030439Y-67743021D01*
X131915413Y-67816942D01*
X131915409Y-67816946D01*
X131825872Y-67920278D01*
X131825867Y-67920285D01*
X131769070Y-68044654D01*
X131769068Y-68044662D01*
X131749610Y-68180000D01*
X119570326Y-68180000D01*
X119580390Y-68110000D01*
X119560931Y-67974658D01*
X119524781Y-67895500D01*
X119504132Y-67850285D01*
X119504127Y-67850278D01*
X119414590Y-67746946D01*
X119414586Y-67746942D01*
X119299558Y-67673020D01*
X119238958Y-67655227D01*
X119180179Y-67617453D01*
X119151154Y-67553898D01*
X119161097Y-67484739D01*
X119206852Y-67431935D01*
X119238958Y-67417273D01*
X119280114Y-67405187D01*
X119299558Y-67399479D01*
X119299559Y-67399479D01*
X119329870Y-67380000D01*
X119414589Y-67325555D01*
X119504130Y-67222218D01*
X119560931Y-67097842D01*
X119580390Y-66962500D01*
X119560931Y-66827158D01*
X119512222Y-66720500D01*
X119504132Y-66702785D01*
X119504127Y-66702778D01*
X119414590Y-66599446D01*
X119414586Y-66599442D01*
X119299559Y-66525521D01*
X119168368Y-66487000D01*
X119168367Y-66487000D01*
X119031633Y-66487000D01*
X119031632Y-66487000D01*
X118900440Y-66525521D01*
X118785413Y-66599442D01*
X118785409Y-66599446D01*
X118695872Y-66702778D01*
X118695867Y-66702785D01*
X118639070Y-66827154D01*
X118639068Y-66827162D01*
X118619610Y-66962500D01*
X118639068Y-67097837D01*
X118639070Y-67097845D01*
X118695867Y-67222214D01*
X118695872Y-67222221D01*
X118785409Y-67325553D01*
X118785413Y-67325557D01*
X118825803Y-67351513D01*
X118900439Y-67399478D01*
X118927277Y-67407358D01*
X118961042Y-67417273D01*
X119019820Y-67455047D01*
X119048845Y-67518603D01*
X119038901Y-67587761D01*
X118993147Y-67640565D01*
X118961042Y-67655227D01*
X118900440Y-67673021D01*
X118785413Y-67746942D01*
X118785413Y-67746943D01*
X118785411Y-67746944D01*
X118785411Y-67746945D01*
X118752004Y-67785500D01*
X118743713Y-67795068D01*
X118684935Y-67832842D01*
X118615065Y-67832842D01*
X118556287Y-67795068D01*
X118514589Y-67746945D01*
X118514586Y-67746943D01*
X118514586Y-67746942D01*
X118399559Y-67673021D01*
X118268368Y-67634500D01*
X118268367Y-67634500D01*
X118131633Y-67634500D01*
X118131632Y-67634500D01*
X118000440Y-67673021D01*
X117885413Y-67746942D01*
X117881201Y-67750593D01*
X117817644Y-67779616D01*
X117748486Y-67769671D01*
X117718799Y-67750593D01*
X117714586Y-67746942D01*
X117599559Y-67673021D01*
X117468368Y-67634500D01*
X117468367Y-67634500D01*
X117331633Y-67634500D01*
X117331632Y-67634500D01*
X117200440Y-67673021D01*
X117085413Y-67746942D01*
X117081201Y-67750593D01*
X117017644Y-67779616D01*
X116948486Y-67769671D01*
X116918799Y-67750593D01*
X116914586Y-67746942D01*
X116799559Y-67673021D01*
X116668368Y-67634500D01*
X116668367Y-67634500D01*
X116531633Y-67634500D01*
X116531632Y-67634500D01*
X116400440Y-67673021D01*
X116285413Y-67746942D01*
X116285409Y-67746946D01*
X116195872Y-67850278D01*
X116195867Y-67850285D01*
X116139070Y-67974654D01*
X116139068Y-67974662D01*
X116119610Y-68110000D01*
X86561425Y-68110000D01*
X86421306Y-68044662D01*
X86369330Y-68020425D01*
X86369326Y-68020424D01*
X86369322Y-68020422D01*
X86157977Y-67963793D01*
X85940002Y-67944723D01*
X85939998Y-67944723D01*
X85794682Y-67957436D01*
X85722023Y-67963793D01*
X85722020Y-67963793D01*
X85510677Y-68020422D01*
X85510668Y-68020426D01*
X85312361Y-68112898D01*
X85312357Y-68112900D01*
X85133124Y-68238400D01*
X84999273Y-68372251D01*
X84937950Y-68405735D01*
X84868258Y-68400751D01*
X84812325Y-68358879D01*
X84787908Y-68293415D01*
X84791387Y-68254127D01*
X84810893Y-68177101D01*
X84810896Y-68177085D01*
X84829712Y-67950006D01*
X84829712Y-67949993D01*
X84810896Y-67722914D01*
X84810894Y-67722906D01*
X84754954Y-67502006D01*
X84701437Y-67380000D01*
X102319610Y-67380000D01*
X102339068Y-67515337D01*
X102339070Y-67515345D01*
X102395867Y-67639714D01*
X102395872Y-67639721D01*
X102485409Y-67743053D01*
X102485413Y-67743057D01*
X102510124Y-67758937D01*
X102600439Y-67816978D01*
X102654467Y-67832842D01*
X102731632Y-67855500D01*
X102731633Y-67855500D01*
X102868367Y-67855500D01*
X102999561Y-67816978D01*
X103114589Y-67743055D01*
X103204130Y-67639718D01*
X103260931Y-67515342D01*
X103274639Y-67420000D01*
X104029610Y-67420000D01*
X104049068Y-67555337D01*
X104049070Y-67555345D01*
X104105867Y-67679714D01*
X104105872Y-67679721D01*
X104195409Y-67783053D01*
X104195413Y-67783057D01*
X104248147Y-67816946D01*
X104310439Y-67856978D01*
X104329099Y-67862457D01*
X104441632Y-67895500D01*
X104441633Y-67895500D01*
X104578367Y-67895500D01*
X104709561Y-67856978D01*
X104824589Y-67783055D01*
X104914130Y-67679718D01*
X104917189Y-67673021D01*
X104930873Y-67643057D01*
X104970931Y-67555342D01*
X104990390Y-67420000D01*
X104973137Y-67300000D01*
X108319610Y-67300000D01*
X108339068Y-67435337D01*
X108339070Y-67435345D01*
X108395867Y-67559714D01*
X108395872Y-67559721D01*
X108485409Y-67663053D01*
X108485413Y-67663057D01*
X108511333Y-67679714D01*
X108600439Y-67736978D01*
X108658629Y-67754064D01*
X108731632Y-67775500D01*
X108731633Y-67775500D01*
X108868367Y-67775500D01*
X108999561Y-67736978D01*
X109114589Y-67663055D01*
X109204130Y-67559718D01*
X109206129Y-67555342D01*
X109222907Y-67518603D01*
X109260931Y-67435342D01*
X109280390Y-67300000D01*
X109260931Y-67164658D01*
X109248677Y-67137827D01*
X109204132Y-67040285D01*
X109204127Y-67040278D01*
X109114590Y-66936946D01*
X109114586Y-66936942D01*
X109023736Y-66878558D01*
X108999561Y-66863022D01*
X108999560Y-66863021D01*
X108999559Y-66863021D01*
X108868368Y-66824500D01*
X108868367Y-66824500D01*
X108731633Y-66824500D01*
X108731632Y-66824500D01*
X108600440Y-66863021D01*
X108485413Y-66936942D01*
X108485409Y-66936946D01*
X108395872Y-67040278D01*
X108395867Y-67040285D01*
X108339070Y-67164654D01*
X108339068Y-67164662D01*
X108319610Y-67300000D01*
X104973137Y-67300000D01*
X104970931Y-67284658D01*
X104952665Y-67244662D01*
X104914132Y-67160285D01*
X104914127Y-67160278D01*
X104824590Y-67056946D01*
X104824586Y-67056942D01*
X104709559Y-66983021D01*
X104578368Y-66944500D01*
X104578367Y-66944500D01*
X104441633Y-66944500D01*
X104441632Y-66944500D01*
X104310440Y-66983021D01*
X104195413Y-67056942D01*
X104195409Y-67056946D01*
X104105872Y-67160278D01*
X104105867Y-67160285D01*
X104049070Y-67284654D01*
X104049068Y-67284662D01*
X104029610Y-67420000D01*
X103274639Y-67420000D01*
X103280390Y-67380000D01*
X103260931Y-67244658D01*
X103222140Y-67159718D01*
X103204132Y-67120285D01*
X103204127Y-67120278D01*
X103114590Y-67016946D01*
X103114586Y-67016942D01*
X103005665Y-66946945D01*
X102999561Y-66943022D01*
X102999560Y-66943021D01*
X102999559Y-66943021D01*
X102868368Y-66904500D01*
X102868367Y-66904500D01*
X102731633Y-66904500D01*
X102731632Y-66904500D01*
X102600440Y-66943021D01*
X102485413Y-67016942D01*
X102485409Y-67016946D01*
X102395872Y-67120278D01*
X102395867Y-67120285D01*
X102339070Y-67244654D01*
X102339068Y-67244662D01*
X102319610Y-67380000D01*
X84701437Y-67380000D01*
X84663421Y-67293333D01*
X84583123Y-67170427D01*
X83928879Y-67824671D01*
X83911266Y-67758937D01*
X83846098Y-67646063D01*
X83753937Y-67553902D01*
X83641063Y-67488734D01*
X83575327Y-67471119D01*
X84230983Y-66815462D01*
X84204626Y-66794948D01*
X84004230Y-66686500D01*
X84004219Y-66686495D01*
X83788701Y-66612507D01*
X83563935Y-66575000D01*
X83336065Y-66575000D01*
X83111298Y-66612507D01*
X82895780Y-66686495D01*
X82895769Y-66686500D01*
X82695366Y-66794952D01*
X82669015Y-66815461D01*
X82669015Y-66815463D01*
X83324672Y-67471119D01*
X83258937Y-67488734D01*
X83146063Y-67553902D01*
X83053902Y-67646063D01*
X82988734Y-67758937D01*
X82971120Y-67824672D01*
X82316874Y-67170427D01*
X82236579Y-67293330D01*
X82145045Y-67502006D01*
X82089105Y-67722906D01*
X82089103Y-67722914D01*
X82070288Y-67949993D01*
X80500500Y-67949993D01*
X80500500Y-65013474D01*
X90051974Y-65013474D01*
X90071432Y-65148811D01*
X90071434Y-65148819D01*
X90128231Y-65273188D01*
X90128234Y-65273192D01*
X90179426Y-65332272D01*
X90208450Y-65395828D01*
X90198506Y-65464987D01*
X90179426Y-65494676D01*
X90128234Y-65553755D01*
X90128231Y-65553759D01*
X90071434Y-65678128D01*
X90071432Y-65678136D01*
X90051974Y-65813474D01*
X90071432Y-65948811D01*
X90071434Y-65948819D01*
X90128231Y-66073188D01*
X90128236Y-66073195D01*
X90217773Y-66176527D01*
X90217777Y-66176531D01*
X90278343Y-66215453D01*
X90332803Y-66250452D01*
X90382421Y-66265021D01*
X90463996Y-66288974D01*
X90463997Y-66288974D01*
X90600731Y-66288974D01*
X90731925Y-66250452D01*
X90846953Y-66176529D01*
X90936494Y-66073192D01*
X90969920Y-66000000D01*
X127469610Y-66000000D01*
X127489068Y-66135337D01*
X127489070Y-66135345D01*
X127545867Y-66259714D01*
X127545872Y-66259721D01*
X127635409Y-66363053D01*
X127635413Y-66363057D01*
X127685897Y-66395500D01*
X127750439Y-66436978D01*
X127816036Y-66456239D01*
X127881632Y-66475500D01*
X127881633Y-66475500D01*
X128018367Y-66475500D01*
X128149561Y-66436978D01*
X128264589Y-66363055D01*
X128354130Y-66259718D01*
X128410931Y-66135342D01*
X128430390Y-66000000D01*
X128410931Y-65864658D01*
X128371865Y-65779116D01*
X128354132Y-65740285D01*
X128354127Y-65740278D01*
X128264590Y-65636946D01*
X128264586Y-65636942D01*
X128149559Y-65563021D01*
X128018368Y-65524500D01*
X128018367Y-65524500D01*
X127881633Y-65524500D01*
X127881632Y-65524500D01*
X127750440Y-65563021D01*
X127635413Y-65636942D01*
X127635409Y-65636946D01*
X127545872Y-65740278D01*
X127545867Y-65740285D01*
X127489070Y-65864654D01*
X127489068Y-65864662D01*
X127469610Y-66000000D01*
X90969920Y-66000000D01*
X90993295Y-65948816D01*
X91012754Y-65813474D01*
X90993295Y-65678132D01*
X90940726Y-65563022D01*
X90936496Y-65553759D01*
X90936494Y-65553757D01*
X90936494Y-65553756D01*
X90885299Y-65494673D01*
X90856276Y-65431122D01*
X90857875Y-65420000D01*
X162164353Y-65420000D01*
X162184834Y-65562456D01*
X162237664Y-65678136D01*
X162244623Y-65693373D01*
X162334701Y-65797329D01*
X162363725Y-65860883D01*
X162353781Y-65930041D01*
X162345303Y-65945568D01*
X162344624Y-65946624D01*
X162284834Y-66077543D01*
X162264353Y-66220000D01*
X162284834Y-66362456D01*
X162344622Y-66493371D01*
X162344623Y-66493373D01*
X162438872Y-66602143D01*
X162559947Y-66679953D01*
X162559950Y-66679954D01*
X162559949Y-66679954D01*
X162698036Y-66720499D01*
X162698038Y-66720500D01*
X162698039Y-66720500D01*
X162841962Y-66720500D01*
X162841962Y-66720499D01*
X162904966Y-66702000D01*
X170369610Y-66702000D01*
X170389068Y-66837337D01*
X170389070Y-66837345D01*
X170445867Y-66961714D01*
X170445872Y-66961721D01*
X170535409Y-67065053D01*
X170535413Y-67065057D01*
X170586421Y-67097837D01*
X170650439Y-67138978D01*
X170716036Y-67158239D01*
X170781632Y-67177500D01*
X170781633Y-67177500D01*
X170918367Y-67177500D01*
X171049561Y-67138978D01*
X171164589Y-67065055D01*
X171254130Y-66961718D01*
X171310931Y-66837342D01*
X171330390Y-66702000D01*
X171310931Y-66566658D01*
X171277462Y-66493371D01*
X171254132Y-66442285D01*
X171254127Y-66442278D01*
X171164590Y-66338946D01*
X171164586Y-66338942D01*
X171049559Y-66265021D01*
X170918368Y-66226500D01*
X170918367Y-66226500D01*
X170781633Y-66226500D01*
X170781632Y-66226500D01*
X170650440Y-66265021D01*
X170535413Y-66338942D01*
X170535409Y-66338946D01*
X170445872Y-66442278D01*
X170445867Y-66442285D01*
X170389070Y-66566654D01*
X170389068Y-66566662D01*
X170369610Y-66702000D01*
X162904966Y-66702000D01*
X162980053Y-66679953D01*
X163101128Y-66602143D01*
X163195377Y-66493373D01*
X163255165Y-66362457D01*
X163275647Y-66220000D01*
X163255165Y-66077543D01*
X163195377Y-65946627D01*
X163195375Y-65946625D01*
X163195374Y-65946622D01*
X163172306Y-65920000D01*
X167389610Y-65920000D01*
X167409068Y-66055337D01*
X167409070Y-66055345D01*
X167465867Y-66179714D01*
X167465872Y-66179721D01*
X167555409Y-66283053D01*
X167555413Y-66283057D01*
X167615979Y-66321979D01*
X167670439Y-66356978D01*
X167736036Y-66376239D01*
X167801632Y-66395500D01*
X167801633Y-66395500D01*
X167938367Y-66395500D01*
X168069561Y-66356978D01*
X168184589Y-66283055D01*
X168274130Y-66179718D01*
X168275586Y-66176531D01*
X168286383Y-66152887D01*
X168330931Y-66055342D01*
X168350390Y-65920000D01*
X168330931Y-65784658D01*
X168318626Y-65757714D01*
X168274132Y-65660285D01*
X168274127Y-65660278D01*
X168184590Y-65556946D01*
X168184586Y-65556942D01*
X168092868Y-65498000D01*
X170369610Y-65498000D01*
X170389068Y-65633337D01*
X170389070Y-65633345D01*
X170445867Y-65757714D01*
X170445872Y-65757721D01*
X170535409Y-65861053D01*
X170535413Y-65861057D01*
X170595979Y-65899979D01*
X170650439Y-65934978D01*
X170697550Y-65948811D01*
X170781632Y-65973500D01*
X170781633Y-65973500D01*
X170918367Y-65973500D01*
X171049561Y-65934978D01*
X171164589Y-65861055D01*
X171254130Y-65757718D01*
X171310931Y-65633342D01*
X171330390Y-65498000D01*
X171310931Y-65362658D01*
X171270073Y-65273191D01*
X171254132Y-65238285D01*
X171254127Y-65238278D01*
X171164590Y-65134946D01*
X171164586Y-65134942D01*
X171073736Y-65076558D01*
X171049561Y-65061022D01*
X171049560Y-65061021D01*
X171049559Y-65061021D01*
X170918368Y-65022500D01*
X170918367Y-65022500D01*
X170781633Y-65022500D01*
X170781632Y-65022500D01*
X170650440Y-65061021D01*
X170535413Y-65134942D01*
X170535409Y-65134946D01*
X170445872Y-65238278D01*
X170445867Y-65238285D01*
X170389070Y-65362654D01*
X170389068Y-65362662D01*
X170369610Y-65498000D01*
X168092868Y-65498000D01*
X168069559Y-65483021D01*
X167938368Y-65444500D01*
X167938367Y-65444500D01*
X167801633Y-65444500D01*
X167801632Y-65444500D01*
X167670440Y-65483021D01*
X167555413Y-65556942D01*
X167555409Y-65556946D01*
X167465872Y-65660278D01*
X167465867Y-65660285D01*
X167409070Y-65784654D01*
X167409068Y-65784662D01*
X167389610Y-65920000D01*
X163172306Y-65920000D01*
X163105300Y-65842671D01*
X163076275Y-65779116D01*
X163086219Y-65709957D01*
X163094700Y-65694426D01*
X163095372Y-65693378D01*
X163095377Y-65693373D01*
X163155165Y-65562457D01*
X163175647Y-65420000D01*
X163155165Y-65277543D01*
X163095377Y-65146627D01*
X163001128Y-65037857D01*
X162880053Y-64960047D01*
X162880051Y-64960046D01*
X162880049Y-64960045D01*
X162880050Y-64960045D01*
X162741963Y-64919500D01*
X162741961Y-64919500D01*
X162598039Y-64919500D01*
X162598036Y-64919500D01*
X162459949Y-64960045D01*
X162338873Y-65037856D01*
X162244623Y-65146626D01*
X162244622Y-65146628D01*
X162184834Y-65277543D01*
X162164353Y-65420000D01*
X90857875Y-65420000D01*
X90866219Y-65361963D01*
X90885297Y-65332276D01*
X90936494Y-65273192D01*
X90993295Y-65148816D01*
X91012754Y-65013474D01*
X90993295Y-64878132D01*
X90972708Y-64833053D01*
X90936496Y-64753759D01*
X90936491Y-64753752D01*
X90924575Y-64740000D01*
X96429610Y-64740000D01*
X96449068Y-64875337D01*
X96449070Y-64875345D01*
X96505867Y-64999714D01*
X96505872Y-64999721D01*
X96595409Y-65103053D01*
X96595413Y-65103057D01*
X96645029Y-65134942D01*
X96710439Y-65176978D01*
X96776036Y-65196239D01*
X96841632Y-65215500D01*
X96841633Y-65215500D01*
X96978367Y-65215500D01*
X97109561Y-65176978D01*
X97224589Y-65103055D01*
X97314130Y-64999718D01*
X97370931Y-64875342D01*
X97390390Y-64740000D01*
X97370931Y-64604658D01*
X97334780Y-64525499D01*
X97314132Y-64480285D01*
X97314127Y-64480278D01*
X97305221Y-64470000D01*
X100619610Y-64470000D01*
X100639068Y-64605337D01*
X100639070Y-64605345D01*
X100695867Y-64729714D01*
X100695872Y-64729721D01*
X100785409Y-64833053D01*
X100785413Y-64833057D01*
X100845979Y-64871979D01*
X100900439Y-64906978D01*
X100956275Y-64923373D01*
X101031632Y-64945500D01*
X101031633Y-64945500D01*
X101168367Y-64945500D01*
X101299561Y-64906978D01*
X101414589Y-64833055D01*
X101504130Y-64729718D01*
X101540536Y-64650000D01*
X120744353Y-64650000D01*
X120764834Y-64792456D01*
X120822854Y-64919500D01*
X120824623Y-64923373D01*
X120918872Y-65032143D01*
X121039947Y-65109953D01*
X121039950Y-65109954D01*
X121039949Y-65109954D01*
X121178036Y-65150499D01*
X121178038Y-65150500D01*
X121178039Y-65150500D01*
X121321962Y-65150500D01*
X121321962Y-65150499D01*
X121460053Y-65109953D01*
X121581128Y-65032143D01*
X121675377Y-64923373D01*
X121735165Y-64792457D01*
X121755647Y-64650000D01*
X121735165Y-64507543D01*
X121675377Y-64376627D01*
X121673967Y-64375000D01*
X144264353Y-64375000D01*
X144284834Y-64517456D01*
X144344622Y-64648371D01*
X144344623Y-64648373D01*
X144438872Y-64757143D01*
X144559947Y-64834953D01*
X144559950Y-64834954D01*
X144559949Y-64834954D01*
X144644276Y-64859714D01*
X144697511Y-64875345D01*
X144698036Y-64875499D01*
X144698038Y-64875500D01*
X144698039Y-64875500D01*
X144841962Y-64875500D01*
X144841962Y-64875499D01*
X144980053Y-64834953D01*
X145101128Y-64757143D01*
X145195377Y-64648373D01*
X145217468Y-64600000D01*
X156519610Y-64600000D01*
X156539068Y-64735337D01*
X156539070Y-64735345D01*
X156595867Y-64859714D01*
X156595872Y-64859721D01*
X156685409Y-64963053D01*
X156685413Y-64963057D01*
X156742465Y-64999721D01*
X156800439Y-65036978D01*
X156866036Y-65056239D01*
X156931632Y-65075500D01*
X156931633Y-65075500D01*
X157068367Y-65075500D01*
X157199561Y-65036978D01*
X157314589Y-64963055D01*
X157404130Y-64859718D01*
X157460931Y-64735342D01*
X157480390Y-64600000D01*
X157460931Y-64464658D01*
X157420874Y-64376945D01*
X157404132Y-64340285D01*
X157404130Y-64340283D01*
X157404130Y-64340282D01*
X157377936Y-64310052D01*
X157348912Y-64246498D01*
X157358856Y-64177340D01*
X157377934Y-64147652D01*
X157454128Y-64059721D01*
X157454128Y-64059720D01*
X157454130Y-64059718D01*
X157510931Y-63935342D01*
X157530390Y-63800000D01*
X157510931Y-63664658D01*
X157481533Y-63600285D01*
X157454132Y-63540285D01*
X157454127Y-63540278D01*
X157417493Y-63498000D01*
X170589610Y-63498000D01*
X170609068Y-63633337D01*
X170609070Y-63633345D01*
X170665867Y-63757714D01*
X170665872Y-63757721D01*
X170755409Y-63861053D01*
X170755413Y-63861057D01*
X170815979Y-63899979D01*
X170870439Y-63934978D01*
X170921439Y-63949953D01*
X171001632Y-63973500D01*
X171001633Y-63973500D01*
X171138367Y-63973500D01*
X171269561Y-63934978D01*
X171384589Y-63861055D01*
X171474130Y-63757718D01*
X171530931Y-63633342D01*
X171550390Y-63498000D01*
X171530931Y-63362658D01*
X171490183Y-63273433D01*
X171474132Y-63238285D01*
X171474127Y-63238278D01*
X171384590Y-63134946D01*
X171384586Y-63134942D01*
X171269559Y-63061021D01*
X171138368Y-63022500D01*
X171138367Y-63022500D01*
X171001633Y-63022500D01*
X171001632Y-63022500D01*
X170870440Y-63061021D01*
X170755413Y-63134942D01*
X170755409Y-63134946D01*
X170665872Y-63238278D01*
X170665867Y-63238285D01*
X170609070Y-63362654D01*
X170609068Y-63362662D01*
X170589610Y-63498000D01*
X157417493Y-63498000D01*
X157364590Y-63436946D01*
X157364586Y-63436942D01*
X157259758Y-63369575D01*
X157249561Y-63363022D01*
X157249560Y-63363021D01*
X157249559Y-63363021D01*
X157118368Y-63324500D01*
X157118367Y-63324500D01*
X156981633Y-63324500D01*
X156981632Y-63324500D01*
X156850440Y-63363021D01*
X156735413Y-63436942D01*
X156735409Y-63436946D01*
X156645872Y-63540278D01*
X156645867Y-63540285D01*
X156589070Y-63664654D01*
X156589068Y-63664662D01*
X156569610Y-63800000D01*
X156589068Y-63935337D01*
X156589070Y-63935345D01*
X156645867Y-64059714D01*
X156645872Y-64059721D01*
X156672061Y-64089945D01*
X156701086Y-64153500D01*
X156691142Y-64222659D01*
X156672062Y-64252348D01*
X156595872Y-64340277D01*
X156595867Y-64340285D01*
X156539070Y-64464654D01*
X156539068Y-64464662D01*
X156519610Y-64600000D01*
X145217468Y-64600000D01*
X145255165Y-64517457D01*
X145275647Y-64375000D01*
X145255165Y-64232543D01*
X145195377Y-64101627D01*
X145101128Y-63992857D01*
X144980053Y-63915047D01*
X144980051Y-63915046D01*
X144980049Y-63915045D01*
X144980050Y-63915045D01*
X144841963Y-63874500D01*
X144841961Y-63874500D01*
X144698039Y-63874500D01*
X144698036Y-63874500D01*
X144559949Y-63915045D01*
X144438873Y-63992856D01*
X144344623Y-64101626D01*
X144344622Y-64101628D01*
X144284834Y-64232543D01*
X144264353Y-64375000D01*
X121673967Y-64375000D01*
X121581128Y-64267857D01*
X121460053Y-64190047D01*
X121460051Y-64190046D01*
X121460049Y-64190045D01*
X121460050Y-64190045D01*
X121321963Y-64149500D01*
X121321961Y-64149500D01*
X121178039Y-64149500D01*
X121178036Y-64149500D01*
X121039949Y-64190045D01*
X120918873Y-64267856D01*
X120824623Y-64376626D01*
X120824622Y-64376628D01*
X120764834Y-64507543D01*
X120744353Y-64650000D01*
X101540536Y-64650000D01*
X101560931Y-64605342D01*
X101580390Y-64470000D01*
X101560931Y-64334658D01*
X101530424Y-64267857D01*
X101504132Y-64210285D01*
X101504127Y-64210278D01*
X101414590Y-64106946D01*
X101414586Y-64106942D01*
X101299559Y-64033021D01*
X101168368Y-63994500D01*
X101168367Y-63994500D01*
X101031633Y-63994500D01*
X101031632Y-63994500D01*
X100900440Y-64033021D01*
X100785413Y-64106942D01*
X100785409Y-64106946D01*
X100695872Y-64210278D01*
X100695867Y-64210285D01*
X100639070Y-64334654D01*
X100639068Y-64334662D01*
X100619610Y-64470000D01*
X97305221Y-64470000D01*
X97224590Y-64376946D01*
X97224586Y-64376942D01*
X97133736Y-64318558D01*
X97109561Y-64303022D01*
X97109560Y-64303021D01*
X97109559Y-64303021D01*
X96978368Y-64264500D01*
X96978367Y-64264500D01*
X96841633Y-64264500D01*
X96841632Y-64264500D01*
X96710440Y-64303021D01*
X96595413Y-64376942D01*
X96595409Y-64376946D01*
X96505872Y-64480278D01*
X96505867Y-64480285D01*
X96449070Y-64604654D01*
X96449068Y-64604662D01*
X96429610Y-64740000D01*
X90924575Y-64740000D01*
X90846954Y-64650420D01*
X90846950Y-64650416D01*
X90731923Y-64576495D01*
X90600732Y-64537974D01*
X90600731Y-64537974D01*
X90463997Y-64537974D01*
X90463996Y-64537974D01*
X90332804Y-64576495D01*
X90217777Y-64650416D01*
X90217773Y-64650420D01*
X90128236Y-64753752D01*
X90128231Y-64753759D01*
X90071434Y-64878128D01*
X90071432Y-64878136D01*
X90051974Y-65013474D01*
X80500500Y-65013474D01*
X80500500Y-63449999D01*
X82369892Y-63449999D01*
X82369892Y-63450000D01*
X82388282Y-63648464D01*
X82388282Y-63648466D01*
X82388283Y-63648469D01*
X82409962Y-63724662D01*
X82442830Y-63840183D01*
X82531670Y-64018598D01*
X82531675Y-64018606D01*
X82651792Y-64177666D01*
X82750728Y-64267857D01*
X82799090Y-64311945D01*
X82968554Y-64416873D01*
X83154414Y-64488876D01*
X83350340Y-64525500D01*
X83350342Y-64525500D01*
X83549658Y-64525500D01*
X83549660Y-64525500D01*
X83745586Y-64488876D01*
X83931446Y-64416873D01*
X84100910Y-64311945D01*
X84248209Y-64177664D01*
X84368326Y-64018604D01*
X84447302Y-63860000D01*
X90919610Y-63860000D01*
X90939068Y-63995337D01*
X90939070Y-63995345D01*
X90995867Y-64119714D01*
X90995872Y-64119721D01*
X91085409Y-64223053D01*
X91085413Y-64223057D01*
X91130992Y-64252348D01*
X91200439Y-64296978D01*
X91244972Y-64310054D01*
X91331632Y-64335500D01*
X91331633Y-64335500D01*
X91468367Y-64335500D01*
X91599561Y-64296978D01*
X91714589Y-64223055D01*
X91714596Y-64223046D01*
X91718794Y-64219410D01*
X91782349Y-64190384D01*
X91851508Y-64200325D01*
X91881206Y-64219410D01*
X91885406Y-64223050D01*
X91885411Y-64223055D01*
X92000439Y-64296978D01*
X92044972Y-64310054D01*
X92131632Y-64335500D01*
X92131633Y-64335500D01*
X92268367Y-64335500D01*
X92399561Y-64296978D01*
X92514589Y-64223055D01*
X92604130Y-64119718D01*
X92612392Y-64101628D01*
X92643723Y-64033021D01*
X92660931Y-63995342D01*
X92680390Y-63860000D01*
X92660931Y-63724658D01*
X92633528Y-63664654D01*
X92604132Y-63600285D01*
X92604127Y-63600278D01*
X92514590Y-63496946D01*
X92514586Y-63496942D01*
X92503784Y-63490000D01*
X152464353Y-63490000D01*
X152484834Y-63632456D01*
X152542040Y-63757718D01*
X152544623Y-63763373D01*
X152638872Y-63872143D01*
X152759947Y-63949953D01*
X152759950Y-63949954D01*
X152759949Y-63949954D01*
X152898036Y-63990499D01*
X152898038Y-63990500D01*
X152898039Y-63990500D01*
X153041962Y-63990500D01*
X153041962Y-63990499D01*
X153180053Y-63949953D01*
X153301128Y-63872143D01*
X153395377Y-63763373D01*
X153455165Y-63632457D01*
X153475647Y-63490000D01*
X153455165Y-63347543D01*
X153395377Y-63216627D01*
X153301128Y-63107857D01*
X153180053Y-63030047D01*
X153180051Y-63030046D01*
X153180049Y-63030045D01*
X153180050Y-63030045D01*
X153041963Y-62989500D01*
X153041961Y-62989500D01*
X152898039Y-62989500D01*
X152898036Y-62989500D01*
X152759949Y-63030045D01*
X152638873Y-63107856D01*
X152544623Y-63216626D01*
X152544622Y-63216628D01*
X152484834Y-63347543D01*
X152464353Y-63490000D01*
X92503784Y-63490000D01*
X92400639Y-63423715D01*
X92399561Y-63423022D01*
X92399560Y-63423021D01*
X92399559Y-63423021D01*
X92268368Y-63384500D01*
X92268367Y-63384500D01*
X92131633Y-63384500D01*
X92131632Y-63384500D01*
X92000440Y-63423021D01*
X91885413Y-63496942D01*
X91881201Y-63500593D01*
X91817644Y-63529616D01*
X91748486Y-63519671D01*
X91718799Y-63500593D01*
X91714586Y-63496942D01*
X91600639Y-63423715D01*
X91599561Y-63423022D01*
X91599560Y-63423021D01*
X91599559Y-63423021D01*
X91468368Y-63384500D01*
X91468367Y-63384500D01*
X91331633Y-63384500D01*
X91331632Y-63384500D01*
X91200440Y-63423021D01*
X91085413Y-63496942D01*
X91085409Y-63496946D01*
X90995872Y-63600278D01*
X90995867Y-63600285D01*
X90939070Y-63724654D01*
X90939068Y-63724662D01*
X90919610Y-63860000D01*
X84447302Y-63860000D01*
X84457171Y-63840180D01*
X84511717Y-63648469D01*
X84530108Y-63450000D01*
X84511717Y-63251531D01*
X84457171Y-63059820D01*
X84415050Y-62975230D01*
X84368329Y-62881401D01*
X84368324Y-62881393D01*
X84248207Y-62722333D01*
X84100911Y-62588056D01*
X84100910Y-62588055D01*
X83958697Y-62500000D01*
X83931447Y-62483127D01*
X83931445Y-62483126D01*
X83809031Y-62435703D01*
X83745586Y-62411124D01*
X83745582Y-62411123D01*
X83666639Y-62396366D01*
X83549660Y-62374500D01*
X83350340Y-62374500D01*
X83260254Y-62391339D01*
X83154417Y-62411123D01*
X83154415Y-62411123D01*
X83154414Y-62411124D01*
X83102517Y-62431229D01*
X82968554Y-62483126D01*
X82968552Y-62483127D01*
X82799088Y-62588056D01*
X82651792Y-62722333D01*
X82531675Y-62881393D01*
X82531670Y-62881401D01*
X82442830Y-63059816D01*
X82388282Y-63251535D01*
X82369892Y-63449999D01*
X80500500Y-63449999D01*
X80500500Y-62190000D01*
X84684723Y-62190000D01*
X84701612Y-62383053D01*
X84703793Y-62407975D01*
X84703793Y-62407979D01*
X84760422Y-62619322D01*
X84760424Y-62619326D01*
X84760425Y-62619330D01*
X84795613Y-62694790D01*
X84852897Y-62817638D01*
X84852898Y-62817639D01*
X84978402Y-62996877D01*
X85133123Y-63151598D01*
X85312361Y-63277102D01*
X85510670Y-63369575D01*
X85722023Y-63426207D01*
X85904926Y-63442208D01*
X85939998Y-63445277D01*
X85940000Y-63445277D01*
X85940002Y-63445277D01*
X85968254Y-63442805D01*
X86157977Y-63426207D01*
X86369330Y-63369575D01*
X86567639Y-63277102D01*
X86746877Y-63151598D01*
X86901598Y-62996877D01*
X87027102Y-62817639D01*
X87119575Y-62619330D01*
X87176207Y-62407977D01*
X87195277Y-62190000D01*
X87192244Y-62155337D01*
X87191569Y-62147618D01*
X87176207Y-61972023D01*
X87128524Y-61794067D01*
X87119577Y-61760677D01*
X87119576Y-61760676D01*
X87119575Y-61760670D01*
X87027102Y-61562362D01*
X87027100Y-61562359D01*
X87027099Y-61562357D01*
X86901599Y-61383124D01*
X86840895Y-61322420D01*
X86746877Y-61228402D01*
X86608978Y-61131844D01*
X86567638Y-61102897D01*
X86421306Y-61034662D01*
X86369330Y-61010425D01*
X86369326Y-61010424D01*
X86369322Y-61010422D01*
X86157977Y-60953793D01*
X85940002Y-60934723D01*
X85939998Y-60934723D01*
X85829194Y-60944417D01*
X85722023Y-60953793D01*
X85722020Y-60953793D01*
X85510677Y-61010422D01*
X85510668Y-61010426D01*
X85312361Y-61102898D01*
X85312357Y-61102900D01*
X85133121Y-61228402D01*
X84978402Y-61383121D01*
X84852900Y-61562357D01*
X84852898Y-61562361D01*
X84760426Y-61760668D01*
X84760422Y-61760677D01*
X84703793Y-61972020D01*
X84703793Y-61972024D01*
X84687756Y-62155337D01*
X84684723Y-62190000D01*
X80500500Y-62190000D01*
X80500500Y-62004427D01*
X80500816Y-61995581D01*
X80500816Y-61995580D01*
X80515130Y-61795436D01*
X80517646Y-61777938D01*
X80559356Y-61586199D01*
X80564333Y-61569248D01*
X80632911Y-61385385D01*
X80640259Y-61369298D01*
X80703440Y-61253590D01*
X80734291Y-61197089D01*
X80743845Y-61182221D01*
X80861448Y-61025123D01*
X80873020Y-61011769D01*
X81011769Y-60873020D01*
X81025123Y-60861448D01*
X81182221Y-60743845D01*
X81197089Y-60734291D01*
X81369298Y-60640258D01*
X81385385Y-60632911D01*
X81569248Y-60564333D01*
X81586199Y-60559356D01*
X81777938Y-60517646D01*
X81795436Y-60515130D01*
X81995582Y-60500816D01*
X82004428Y-60500500D01*
X82065892Y-60500500D01*
X113681987Y-60500500D01*
X113749026Y-60520185D01*
G37*
%TD.AperFunction*%
%TD*%
M02*
