%TF.GenerationSoftware,KiCad,Pcbnew,8.0.6-8.0.6-0~ubuntu22.04.1*%
%TF.CreationDate,2024-11-08T23:33:17+01:00*%
%TF.ProjectId,mini_module_template,6d696e69-5f6d-46f6-9475-6c655f74656d,rev?*%
%TF.SameCoordinates,Original*%
%TF.FileFunction,Soldermask,Bot*%
%TF.FilePolarity,Negative*%
%FSLAX46Y46*%
G04 Gerber Fmt 4.6, Leading zero omitted, Abs format (unit mm)*
G04 Created by KiCad (PCBNEW 8.0.6-8.0.6-0~ubuntu22.04.1) date 2024-11-08 23:33:17*
%MOMM*%
%LPD*%
G01*
G04 APERTURE LIST*
%ADD10C,2.100000*%
%ADD11C,1.750000*%
%ADD12C,3.600000*%
%ADD13C,5.000000*%
%ADD14C,1.400000*%
%ADD15C,0.650000*%
%ADD16O,2.100000X1.000000*%
%ADD17O,1.800000X1.000000*%
%ADD18R,1.700000X1.700000*%
%ADD19O,1.700000X1.700000*%
G04 APERTURE END LIST*
D10*
%TO.C,SW2*%
X85940000Y-69200000D03*
X85940000Y-62190000D03*
D11*
X83450000Y-67950000D03*
X83450000Y-63450000D03*
%TD*%
D12*
%TO.C,J3*%
X91550000Y-74380000D03*
X91550000Y-107700000D03*
D13*
X91550000Y-84180000D03*
D14*
X90000000Y-88300000D03*
X90000000Y-91040000D03*
X90000000Y-93780000D03*
X93100000Y-89380000D03*
X93100000Y-92410000D03*
D13*
X91550000Y-97900000D03*
%TD*%
D15*
%TO.C,J4*%
X173345000Y-68740000D03*
X173345000Y-62960000D03*
D16*
X172825000Y-70170000D03*
D17*
X177025000Y-70170000D03*
D16*
X172825000Y-61530000D03*
D17*
X177025000Y-61530000D03*
%TD*%
D12*
%TO.C,J2*%
X168450000Y-107700000D03*
X168450000Y-74380000D03*
D13*
X168450000Y-97900000D03*
D14*
X170000000Y-93780000D03*
X170000000Y-91040000D03*
X170000000Y-88300000D03*
X166900000Y-92700000D03*
X166900000Y-89670000D03*
D13*
X168450000Y-84180000D03*
%TD*%
D18*
%TO.C,J1*%
X124379999Y-62000000D03*
D19*
X121839999Y-62000000D03*
X119300000Y-62000000D03*
X116759999Y-62000000D03*
X114219999Y-62000000D03*
%TD*%
G36*
X95621489Y-81208265D02*
G01*
X96874802Y-81690308D01*
X96918888Y-81719290D01*
X101581232Y-86480832D01*
X101609167Y-86525209D01*
X101992670Y-87579844D01*
X102000134Y-87621440D01*
X102100000Y-103499999D01*
X102100001Y-103500000D01*
X158600000Y-103500000D01*
X158600000Y-103499999D01*
X166491317Y-95608683D01*
X166510215Y-95593190D01*
X167083255Y-95211162D01*
X167119412Y-95194705D01*
X168183981Y-94904369D01*
X168216607Y-94900000D01*
X168879877Y-94900000D01*
X168919089Y-94906363D01*
X169784247Y-95194749D01*
X169813818Y-95209212D01*
X170677782Y-95785188D01*
X170714151Y-95822642D01*
X171191170Y-96585872D01*
X171204788Y-96615961D01*
X171493364Y-97577880D01*
X171498229Y-97623021D01*
X171402485Y-98867690D01*
X171382024Y-98926963D01*
X170806810Y-99789785D01*
X170791317Y-99808683D01*
X162202582Y-108397418D01*
X162197282Y-108402416D01*
X161320489Y-109181787D01*
X161273739Y-109207878D01*
X160317433Y-109494770D01*
X160281802Y-109500000D01*
X100029272Y-109500000D01*
X99973818Y-109486909D01*
X99015300Y-109007650D01*
X98987343Y-108988494D01*
X97903764Y-108003422D01*
X97896524Y-107996276D01*
X96514786Y-106515842D01*
X96491463Y-106480081D01*
X96205085Y-105811866D01*
X96197467Y-105787338D01*
X96101190Y-105305950D01*
X96099397Y-105293970D01*
X96000615Y-104306150D01*
X96000000Y-104293812D01*
X96000000Y-89400000D01*
X93800000Y-87200000D01*
X91218647Y-87200000D01*
X91182180Y-87194517D01*
X89929434Y-86809056D01*
X89878220Y-86778220D01*
X89114229Y-86014229D01*
X89091001Y-85982002D01*
X88610680Y-85021360D01*
X88598017Y-84976204D01*
X88501951Y-83823417D01*
X88506753Y-83777488D01*
X88792121Y-82826260D01*
X88818212Y-82779510D01*
X89590737Y-81910420D01*
X89611342Y-81891898D01*
X90278343Y-81415469D01*
X90326099Y-81394780D01*
X91287960Y-81202408D01*
X91312278Y-81200000D01*
X95576976Y-81200000D01*
X95621489Y-81208265D01*
G37*
M02*
