%TF.GenerationSoftware,KiCad,Pcbnew,8.0.6-8.0.6-0~ubuntu22.04.1*%
%TF.CreationDate,2024-11-11T02:09:08+01:00*%
%TF.ProjectId,mini_module_template,6d696e69-5f6d-46f6-9475-6c655f74656d,rev?*%
%TF.SameCoordinates,Original*%
%TF.FileFunction,Soldermask,Bot*%
%TF.FilePolarity,Negative*%
%FSLAX46Y46*%
G04 Gerber Fmt 4.6, Leading zero omitted, Abs format (unit mm)*
G04 Created by KiCad (PCBNEW 8.0.6-8.0.6-0~ubuntu22.04.1) date 2024-11-11 02:09:08*
%MOMM*%
%LPD*%
G01*
G04 APERTURE LIST*
%ADD10C,2.100000*%
%ADD11C,1.750000*%
%ADD12R,1.700000X1.700000*%
%ADD13O,1.700000X1.700000*%
%ADD14C,3.600000*%
%ADD15C,5.000000*%
%ADD16C,1.400000*%
%ADD17C,0.650000*%
%ADD18O,2.100000X1.000000*%
%ADD19O,1.800000X1.000000*%
G04 APERTURE END LIST*
D10*
%TO.C,SW2*%
X85940000Y-69200000D03*
X85940000Y-62190000D03*
D11*
X83450000Y-67950000D03*
X83450000Y-63450000D03*
%TD*%
D12*
%TO.C,J6*%
X144970000Y-105420000D03*
D13*
X142430000Y-105420000D03*
X139890001Y-105420000D03*
X137350000Y-105420000D03*
X134810000Y-105420000D03*
X132270000Y-105420000D03*
X129730000Y-105420000D03*
X127189999Y-105420000D03*
%TD*%
D14*
%TO.C,J3*%
X91550000Y-74380000D03*
X91550000Y-107700000D03*
D15*
X91550000Y-84180000D03*
D16*
X90000000Y-88300000D03*
X90000000Y-91040000D03*
X90000000Y-93780000D03*
X93100000Y-89380000D03*
X93100000Y-92410000D03*
D15*
X91550000Y-97900000D03*
%TD*%
D12*
%TO.C,J5*%
X146870000Y-100320000D03*
D13*
X144330000Y-100320000D03*
X141790001Y-100320000D03*
X139250000Y-100320000D03*
X136710000Y-100320000D03*
X134170000Y-100320000D03*
X131630000Y-100320000D03*
X129089999Y-100320000D03*
%TD*%
D17*
%TO.C,J4*%
X173345000Y-68740000D03*
X173345000Y-62960000D03*
D18*
X172825000Y-70170000D03*
D19*
X177025000Y-70170000D03*
D18*
X172825000Y-61530000D03*
D19*
X177025000Y-61530000D03*
%TD*%
D14*
%TO.C,J2*%
X168480000Y-107700000D03*
X168480000Y-74380000D03*
D15*
X168480000Y-97900000D03*
D16*
X170030000Y-93780000D03*
X170030000Y-91040000D03*
X170030000Y-88300000D03*
X166930000Y-92700000D03*
X166930000Y-89670000D03*
D15*
X168480000Y-84180000D03*
%TD*%
D12*
%TO.C,J1*%
X124379999Y-62000000D03*
D13*
X121839999Y-62000000D03*
X119300000Y-62000000D03*
X116759999Y-62000000D03*
X114219999Y-62000000D03*
%TD*%
G36*
X95650649Y-81218368D02*
G01*
X95687920Y-81227467D01*
X96847357Y-81710565D01*
X96887346Y-81737346D01*
X100955771Y-85805771D01*
X100978999Y-85837998D01*
X101556909Y-86993818D01*
X101570000Y-87049272D01*
X101570000Y-111120000D01*
X103970000Y-113520000D01*
X158570000Y-113520000D01*
X158570000Y-113519999D01*
X160270000Y-111819999D01*
X160270000Y-103226872D01*
X160270758Y-103213179D01*
X160367877Y-102339103D01*
X160377806Y-102302435D01*
X160763505Y-101434613D01*
X160779990Y-101407512D01*
X161165578Y-100925527D01*
X161175027Y-100915007D01*
X164004278Y-98105133D01*
X164065715Y-98071859D01*
X164135390Y-98077083D01*
X164177335Y-98103476D01*
X168297876Y-102041947D01*
X168332738Y-102102498D01*
X168329329Y-102172284D01*
X168299463Y-102219682D01*
X166270000Y-104229999D01*
X166270000Y-113694902D01*
X166251606Y-113759890D01*
X165478046Y-115016924D01*
X165459004Y-115040720D01*
X161489375Y-118911108D01*
X161444517Y-118939100D01*
X160090206Y-119422783D01*
X160048543Y-119430007D01*
X102558602Y-119449993D01*
X102522214Y-119444547D01*
X101199509Y-119039046D01*
X101148173Y-119008173D01*
X99770020Y-117630019D01*
X96457907Y-114407693D01*
X96443574Y-114391031D01*
X95978027Y-113741205D01*
X95964628Y-113717304D01*
X95649800Y-112973163D01*
X95640000Y-112924848D01*
X95640000Y-97098499D01*
X95659685Y-97031460D01*
X95710954Y-96986418D01*
X96949999Y-96400000D01*
X96949999Y-96399999D01*
X96959999Y-90950000D01*
X96959999Y-90949999D01*
X95735515Y-90295042D01*
X95685685Y-90246065D01*
X95670000Y-90185701D01*
X95670000Y-89020000D01*
X94806836Y-88156836D01*
X94773351Y-88095513D01*
X94770523Y-88067910D01*
X94838658Y-81283539D01*
X94859015Y-81216700D01*
X94912276Y-81171478D01*
X94973073Y-81161223D01*
X95650649Y-81218368D01*
G37*
M02*
