%TF.GenerationSoftware,KiCad,Pcbnew,8.0.6-8.0.6-0~ubuntu22.04.1*%
%TF.CreationDate,2024-11-03T00:35:36+01:00*%
%TF.ProjectId,mini_module_template,6d696e69-5f6d-46f6-9475-6c655f74656d,rev?*%
%TF.SameCoordinates,Original*%
%TF.FileFunction,Copper,L2,Inr*%
%TF.FilePolarity,Positive*%
%FSLAX46Y46*%
G04 Gerber Fmt 4.6, Leading zero omitted, Abs format (unit mm)*
G04 Created by KiCad (PCBNEW 8.0.6-8.0.6-0~ubuntu22.04.1) date 2024-11-03 00:35:36*
%MOMM*%
%LPD*%
G01*
G04 APERTURE LIST*
%TA.AperFunction,ComponentPad*%
%ADD10C,2.100000*%
%TD*%
%TA.AperFunction,ComponentPad*%
%ADD11C,1.750000*%
%TD*%
%TA.AperFunction,ComponentPad*%
%ADD12C,3.600000*%
%TD*%
%TA.AperFunction,ComponentPad*%
%ADD13C,5.000000*%
%TD*%
%TA.AperFunction,ComponentPad*%
%ADD14C,1.400000*%
%TD*%
%TA.AperFunction,ComponentPad*%
%ADD15O,2.100000X1.000000*%
%TD*%
%TA.AperFunction,ComponentPad*%
%ADD16O,1.800000X1.000000*%
%TD*%
%TA.AperFunction,ComponentPad*%
%ADD17R,1.700000X1.700000*%
%TD*%
%TA.AperFunction,ComponentPad*%
%ADD18O,1.700000X1.700000*%
%TD*%
%TA.AperFunction,ViaPad*%
%ADD19C,0.550000*%
%TD*%
%TA.AperFunction,ViaPad*%
%ADD20C,0.600000*%
%TD*%
%TA.AperFunction,ViaPad*%
%ADD21C,0.650000*%
%TD*%
G04 APERTURE END LIST*
D10*
%TO.N,*%
%TO.C,SW2*%
X86100000Y-69220000D03*
X86100000Y-62210000D03*
D11*
%TO.N,GND*%
X83610000Y-67970000D03*
%TO.N,/MCU/NRST*%
X83610000Y-63470000D03*
%TD*%
D12*
%TO.N,*%
%TO.C,J3*%
X91550000Y-74380000D03*
X91550000Y-107700000D03*
D13*
%TO.N,VCC*%
X91550000Y-84180000D03*
D14*
%TO.N,+12V*%
X90000000Y-88300000D03*
%TO.N,/CAN/CANH*%
X90000000Y-91040000D03*
%TO.N,/CAN/CANL*%
X90000000Y-93780000D03*
%TO.N,GND*%
X93100000Y-89380000D03*
%TO.N,/POWER/NC*%
X93100000Y-92410000D03*
D13*
%TO.N,GND*%
X91550000Y-97900000D03*
%TD*%
D15*
%TO.N,Net-(J4-SHIELD)*%
%TO.C,J4*%
X172825000Y-70170000D03*
D16*
X177025000Y-70170000D03*
D15*
X172825000Y-61530000D03*
D16*
X177025000Y-61530000D03*
%TD*%
D12*
%TO.N,*%
%TO.C,J2*%
X168450000Y-107700000D03*
X168450000Y-74380000D03*
D13*
%TO.N,VCC*%
X168450000Y-97900000D03*
D14*
%TO.N,+12V*%
X170000000Y-93780000D03*
%TO.N,/CAN/CANH*%
X170000000Y-91040000D03*
%TO.N,/CAN/CANL*%
X170000000Y-88300000D03*
%TO.N,GND*%
X166900000Y-92700000D03*
%TO.N,/POWER/NC*%
X166900000Y-89670000D03*
D13*
%TO.N,GND*%
X168450000Y-84180000D03*
%TD*%
D17*
%TO.N,+3V3*%
%TO.C,J1*%
X124379999Y-62000000D03*
D18*
%TO.N,/MCU/NRST*%
X121839999Y-62000000D03*
%TO.N,/MCU/SWDIO*%
X119300000Y-62000000D03*
%TO.N,/MCU/SWCLK*%
X116759999Y-62000000D03*
%TO.N,GND*%
X114219999Y-62000000D03*
%TD*%
D19*
%TO.N,/MCU/BOOT0*%
X104630000Y-69520000D03*
X107030000Y-73770000D03*
%TO.N,GND*%
X104000000Y-99250000D03*
X115200000Y-66475000D03*
X100500000Y-84500000D03*
X108692499Y-86567501D03*
X129000000Y-61666500D03*
X109675000Y-87640000D03*
X101800000Y-69800000D03*
X107310000Y-86450000D03*
X103250000Y-99250000D03*
D20*
X162350000Y-63500000D03*
D19*
X136300000Y-64400000D03*
X102250000Y-83750000D03*
X109675000Y-88500000D03*
X126798000Y-72600000D03*
X123947000Y-72093000D03*
X169850000Y-63448000D03*
X133200000Y-67200000D03*
X109675000Y-91910000D03*
D21*
X166250000Y-65850000D03*
D19*
X141900000Y-61900000D03*
X123000000Y-64400000D03*
X106500000Y-101000000D03*
X105750000Y-101000000D03*
X145300000Y-72800000D03*
X98450000Y-71050000D03*
X124650001Y-64800000D03*
D21*
X164675000Y-68700000D03*
D19*
X131200000Y-74800000D03*
X99750000Y-73700000D03*
X167500000Y-68450000D03*
D20*
X164050000Y-61300000D03*
D19*
X106430000Y-74370000D03*
X113700000Y-66475000D03*
X117000000Y-66849999D03*
X104200000Y-100750002D03*
X151000000Y-65000000D03*
X99480000Y-80710000D03*
X104720000Y-83300000D03*
X105750000Y-101750000D03*
D21*
X171050000Y-69250000D03*
D19*
X107940000Y-86450000D03*
X126400000Y-66400000D03*
X136000000Y-75600000D03*
X151200000Y-61600000D03*
X127000000Y-68400000D03*
X107960000Y-84440000D03*
X109675000Y-90770000D03*
D21*
X170450000Y-60850000D03*
X164750001Y-70450000D03*
D19*
X102830000Y-74700000D03*
X148000000Y-61000000D03*
D21*
X158250000Y-67250000D03*
D19*
X124600000Y-65800000D03*
X101750000Y-84500000D03*
X112530000Y-75610000D03*
X102500000Y-99250000D03*
X105750000Y-100250000D03*
X104200000Y-102500000D03*
D20*
X143700000Y-66700000D03*
D19*
X109675000Y-89740000D03*
X101250000Y-83750000D03*
X96500000Y-62390001D03*
X104750000Y-99250000D03*
X106500000Y-101750000D03*
X111082499Y-62712499D03*
X100000000Y-83750000D03*
X106500000Y-100250000D03*
X101150000Y-78500000D03*
X112590000Y-62730000D03*
X111820000Y-62700000D03*
X125200000Y-66400000D03*
X109202499Y-87077501D03*
%TO.N,/MCU/NRST*%
X121904652Y-72295348D03*
X108100000Y-77000000D03*
D21*
%TO.N,+5V*%
X95000000Y-101000000D03*
D19*
X153300000Y-72900000D03*
X155600000Y-72900000D03*
X157050000Y-63800000D03*
X154900000Y-72900000D03*
X154100000Y-72900000D03*
X157000000Y-68600000D03*
X157000000Y-67700000D03*
D21*
X94000000Y-101000000D03*
X94000000Y-101750000D03*
D19*
X157000000Y-64600000D03*
X157000000Y-66900000D03*
X95500000Y-70500000D03*
D21*
X95000000Y-101750000D03*
D19*
X152600000Y-72900000D03*
%TO.N,+3V3*%
X119100000Y-66962500D03*
X101620000Y-68850000D03*
X128600000Y-60937500D03*
X103000000Y-89500000D03*
X106000000Y-88750000D03*
X105250000Y-90250000D03*
X103750000Y-88700000D03*
X104500000Y-90250000D03*
X103000000Y-90250000D03*
X130200000Y-60937500D03*
X131200000Y-61800000D03*
X105250000Y-88750000D03*
X128500000Y-75300000D03*
X103750000Y-89500000D03*
X105250000Y-89500000D03*
X102400000Y-82200000D03*
X103795997Y-90250000D03*
X126080000Y-74800000D03*
X106000000Y-89500000D03*
X101100000Y-64470000D03*
X146200000Y-64600000D03*
X106000000Y-90250000D03*
X116600000Y-68110000D03*
X118200000Y-68110000D03*
X104500000Y-89500000D03*
X103000000Y-88750000D03*
X146500000Y-73700000D03*
X108800000Y-67300000D03*
X129400000Y-60937500D03*
X117400000Y-68110000D03*
X104500000Y-88750000D03*
X119100000Y-68110000D03*
%TO.N,/CAN/CANH*%
X93925000Y-71325000D03*
X97750000Y-76650000D03*
%TO.N,/CAN/CANL*%
X97900000Y-77700000D03*
X96550000Y-76200000D03*
%TO.N,/USB/USB_CONN_D-*%
X170850000Y-65498000D03*
X170850000Y-66702000D03*
%TO.N,/MCU/USR_LED1*%
X103360000Y-77072000D03*
X104510000Y-67420000D03*
%TO.N,/MCU/USR_LED2*%
X103410000Y-77830000D03*
X102800000Y-67380000D03*
%TO.N,VCC*%
X106200000Y-84500000D03*
%TO.N,/MCU/USB_D+*%
X119174321Y-69425679D03*
X148800000Y-70025000D03*
%TO.N,/MCU/USB_D-*%
X150600000Y-70400000D03*
X119304208Y-70164348D03*
%TO.N,/STLINK/USB_D-*%
X147300000Y-69314500D03*
X147900000Y-68110500D03*
D21*
%TO.N,Net-(D1-A)*%
X170850000Y-68305447D03*
X170400000Y-62653000D03*
D20*
X163100000Y-70700000D03*
X163100000Y-70000000D03*
D19*
%TO.N,/STLINK/SWCLK*%
X137600000Y-72000000D03*
X134200000Y-72000000D03*
X134200000Y-72000000D03*
%TD*%
%TA.AperFunction,Conductor*%
%TO.N,GND*%
G36*
X113749026Y-60520185D02*
G01*
X113794781Y-60572989D01*
X113804725Y-60642147D01*
X113775700Y-60705703D01*
X113734392Y-60736882D01*
X113542421Y-60826399D01*
X113542419Y-60826400D01*
X113348925Y-60961886D01*
X113348919Y-60961891D01*
X113181890Y-61128920D01*
X113181885Y-61128926D01*
X113046399Y-61322420D01*
X113046398Y-61322422D01*
X112946569Y-61536507D01*
X112946566Y-61536513D01*
X112889363Y-61749999D01*
X112889363Y-61750000D01*
X113786987Y-61750000D01*
X113754074Y-61807007D01*
X113719999Y-61934174D01*
X113719999Y-62065826D01*
X113754074Y-62192993D01*
X113786987Y-62250000D01*
X112889363Y-62250000D01*
X112946566Y-62463486D01*
X112946569Y-62463492D01*
X113046398Y-62677578D01*
X113181893Y-62871082D01*
X113348916Y-63038105D01*
X113542420Y-63173600D01*
X113756506Y-63273429D01*
X113756515Y-63273433D01*
X113969999Y-63330634D01*
X113969999Y-62433012D01*
X114027006Y-62465925D01*
X114154173Y-62500000D01*
X114285825Y-62500000D01*
X114412992Y-62465925D01*
X114469999Y-62433012D01*
X114469999Y-63330633D01*
X114683482Y-63273433D01*
X114683491Y-63273429D01*
X114897577Y-63173600D01*
X115091081Y-63038105D01*
X115258104Y-62871082D01*
X115393599Y-62677578D01*
X115493428Y-62463492D01*
X115493432Y-62463483D01*
X115526157Y-62341350D01*
X115562521Y-62281690D01*
X115625368Y-62251160D01*
X115694744Y-62259454D01*
X115748622Y-62303939D01*
X115764592Y-62337447D01*
X115784767Y-62403954D01*
X115882314Y-62586450D01*
X115916968Y-62628677D01*
X116013588Y-62746410D01*
X116110208Y-62825702D01*
X116173549Y-62877685D01*
X116356045Y-62975232D01*
X116554065Y-63035300D01*
X116554064Y-63035300D01*
X116564147Y-63036293D01*
X116759999Y-63055583D01*
X116965933Y-63035300D01*
X117163953Y-62975232D01*
X117346449Y-62877685D01*
X117506409Y-62746410D01*
X117637684Y-62586450D01*
X117735231Y-62403954D01*
X117795299Y-62205934D01*
X117815582Y-62000000D01*
X118244417Y-62000000D01*
X118264699Y-62205932D01*
X118286624Y-62278209D01*
X118324768Y-62403954D01*
X118422315Y-62586450D01*
X118456969Y-62628677D01*
X118553589Y-62746410D01*
X118650209Y-62825702D01*
X118713550Y-62877685D01*
X118896046Y-62975232D01*
X119094066Y-63035300D01*
X119094065Y-63035300D01*
X119104148Y-63036293D01*
X119300000Y-63055583D01*
X119505934Y-63035300D01*
X119703954Y-62975232D01*
X119886450Y-62877685D01*
X120046410Y-62746410D01*
X120177685Y-62586450D01*
X120275232Y-62403954D01*
X120335300Y-62205934D01*
X120355583Y-62000000D01*
X120784416Y-62000000D01*
X120804698Y-62205932D01*
X120826623Y-62278209D01*
X120864767Y-62403954D01*
X120962314Y-62586450D01*
X120996968Y-62628677D01*
X121093588Y-62746410D01*
X121190208Y-62825702D01*
X121253549Y-62877685D01*
X121436045Y-62975232D01*
X121634065Y-63035300D01*
X121634064Y-63035300D01*
X121644147Y-63036293D01*
X121839999Y-63055583D01*
X122045933Y-63035300D01*
X122243953Y-62975232D01*
X122426449Y-62877685D01*
X122586409Y-62746410D01*
X122717684Y-62586450D01*
X122815231Y-62403954D01*
X122875299Y-62205934D01*
X122895582Y-62000000D01*
X122875299Y-61794066D01*
X122815231Y-61596046D01*
X122717684Y-61413550D01*
X122642896Y-61322420D01*
X122586409Y-61253589D01*
X122436120Y-61130252D01*
X122436114Y-61130247D01*
X123329499Y-61130247D01*
X123329499Y-62869752D01*
X123341130Y-62928229D01*
X123341131Y-62928230D01*
X123385446Y-62994552D01*
X123451768Y-63038867D01*
X123451769Y-63038868D01*
X123510246Y-63050499D01*
X123510249Y-63050500D01*
X123510251Y-63050500D01*
X125249749Y-63050500D01*
X125249750Y-63050499D01*
X125264567Y-63047552D01*
X125308228Y-63038868D01*
X125308228Y-63038867D01*
X125308230Y-63038867D01*
X125374551Y-62994552D01*
X125418866Y-62928231D01*
X125418866Y-62928229D01*
X125418867Y-62928229D01*
X125428921Y-62877682D01*
X125430499Y-62869748D01*
X125430499Y-62652999D01*
X169869965Y-62652999D01*
X169869965Y-62653000D01*
X169888026Y-62790181D01*
X169888027Y-62790186D01*
X169940974Y-62918015D01*
X169940975Y-62918017D01*
X169940976Y-62918018D01*
X170025209Y-63027791D01*
X170134982Y-63112024D01*
X170262817Y-63164974D01*
X170385702Y-63181152D01*
X170399999Y-63183035D01*
X170400000Y-63183035D01*
X170400001Y-63183035D01*
X170412947Y-63181330D01*
X170537183Y-63164974D01*
X170665018Y-63112024D01*
X170774791Y-63027791D01*
X170859024Y-62918018D01*
X170911974Y-62790183D01*
X170930035Y-62653000D01*
X170911974Y-62515817D01*
X170864043Y-62400099D01*
X170859025Y-62387985D01*
X170859024Y-62387984D01*
X170859024Y-62387983D01*
X170774791Y-62278209D01*
X170774789Y-62278208D01*
X170774789Y-62278207D01*
X170685903Y-62210002D01*
X170665018Y-62193976D01*
X170665017Y-62193975D01*
X170665015Y-62193974D01*
X170537186Y-62141027D01*
X170537184Y-62141026D01*
X170537183Y-62141026D01*
X170445727Y-62128985D01*
X170400001Y-62122965D01*
X170399999Y-62122965D01*
X170331408Y-62131995D01*
X170262817Y-62141026D01*
X170262816Y-62141026D01*
X170262813Y-62141027D01*
X170134985Y-62193974D01*
X170025209Y-62278209D01*
X169940974Y-62387985D01*
X169888027Y-62515813D01*
X169888026Y-62515818D01*
X169869965Y-62652999D01*
X125430499Y-62652999D01*
X125430499Y-61800000D01*
X130719610Y-61800000D01*
X130739068Y-61935337D01*
X130739070Y-61935345D01*
X130795867Y-62059714D01*
X130795872Y-62059721D01*
X130885409Y-62163053D01*
X130885413Y-62163057D01*
X130943408Y-62200327D01*
X131000439Y-62236978D01*
X131066036Y-62256239D01*
X131131632Y-62275500D01*
X131131633Y-62275500D01*
X131268367Y-62275500D01*
X131399561Y-62236978D01*
X131514589Y-62163055D01*
X131604130Y-62059718D01*
X131660931Y-61935342D01*
X131680390Y-61800000D01*
X131660931Y-61664658D01*
X131648677Y-61637827D01*
X131630943Y-61598995D01*
X171574499Y-61598995D01*
X171601418Y-61734322D01*
X171601421Y-61734332D01*
X171654221Y-61861804D01*
X171654228Y-61861817D01*
X171730885Y-61976541D01*
X171730888Y-61976545D01*
X171828454Y-62074111D01*
X171828458Y-62074114D01*
X171943182Y-62150771D01*
X171943195Y-62150778D01*
X172070667Y-62203578D01*
X172070672Y-62203580D01*
X172070676Y-62203580D01*
X172070677Y-62203581D01*
X172206004Y-62230500D01*
X172986757Y-62230500D01*
X173053796Y-62250185D01*
X173099551Y-62302989D01*
X173109495Y-62372147D01*
X173080470Y-62435703D01*
X173048758Y-62461887D01*
X172989179Y-62496285D01*
X172989176Y-62496287D01*
X172881287Y-62604176D01*
X172881282Y-62604182D01*
X172804993Y-62736318D01*
X172802289Y-62746410D01*
X172765500Y-62883707D01*
X172765500Y-63036293D01*
X172801754Y-63171593D01*
X172804993Y-63183681D01*
X172881282Y-63315817D01*
X172881284Y-63315819D01*
X172881285Y-63315821D01*
X172989179Y-63423715D01*
X172989180Y-63423716D01*
X172989182Y-63423717D01*
X173121318Y-63500006D01*
X173121319Y-63500006D01*
X173121322Y-63500008D01*
X173268707Y-63539500D01*
X173268710Y-63539500D01*
X173421290Y-63539500D01*
X173421293Y-63539500D01*
X173568678Y-63500008D01*
X173700821Y-63423715D01*
X173808715Y-63315821D01*
X173885008Y-63183678D01*
X173924500Y-63036293D01*
X173924500Y-62883707D01*
X173885008Y-62736322D01*
X173836901Y-62652999D01*
X173808717Y-62604182D01*
X173808712Y-62604176D01*
X173700823Y-62496287D01*
X173700821Y-62496285D01*
X173641242Y-62461887D01*
X173572633Y-62422275D01*
X173524417Y-62371708D01*
X173511195Y-62303101D01*
X173537163Y-62238236D01*
X173587181Y-62200327D01*
X173706804Y-62150778D01*
X173706804Y-62150777D01*
X173706811Y-62150775D01*
X173821542Y-62074114D01*
X173919114Y-61976542D01*
X173995775Y-61861811D01*
X174048580Y-61734328D01*
X174063634Y-61658649D01*
X174075500Y-61598995D01*
X175924499Y-61598995D01*
X175951418Y-61734322D01*
X175951421Y-61734332D01*
X176004221Y-61861804D01*
X176004228Y-61861817D01*
X176080885Y-61976541D01*
X176080888Y-61976545D01*
X176178454Y-62074111D01*
X176178458Y-62074114D01*
X176293182Y-62150771D01*
X176293195Y-62150778D01*
X176420667Y-62203578D01*
X176420672Y-62203580D01*
X176420676Y-62203580D01*
X176420677Y-62203581D01*
X176556004Y-62230500D01*
X176556007Y-62230500D01*
X177493995Y-62230500D01*
X177585041Y-62212389D01*
X177629328Y-62203580D01*
X177756811Y-62150775D01*
X177871542Y-62074114D01*
X177969114Y-61976542D01*
X178045775Y-61861811D01*
X178098580Y-61734328D01*
X178113634Y-61658649D01*
X178125500Y-61598995D01*
X178125500Y-61461004D01*
X178098581Y-61325677D01*
X178098580Y-61325676D01*
X178098580Y-61325672D01*
X178088176Y-61300555D01*
X178045778Y-61198195D01*
X178045771Y-61198182D01*
X177969114Y-61083458D01*
X177969111Y-61083454D01*
X177871545Y-60985888D01*
X177871541Y-60985885D01*
X177756817Y-60909228D01*
X177756804Y-60909221D01*
X177629332Y-60856421D01*
X177629322Y-60856418D01*
X177493995Y-60829500D01*
X177493993Y-60829500D01*
X176556007Y-60829500D01*
X176556005Y-60829500D01*
X176420677Y-60856418D01*
X176420667Y-60856421D01*
X176293195Y-60909221D01*
X176293182Y-60909228D01*
X176178458Y-60985885D01*
X176178454Y-60985888D01*
X176080888Y-61083454D01*
X176080885Y-61083458D01*
X176004228Y-61198182D01*
X176004221Y-61198195D01*
X175951421Y-61325667D01*
X175951418Y-61325677D01*
X175924500Y-61461004D01*
X175924500Y-61461007D01*
X175924500Y-61598993D01*
X175924500Y-61598995D01*
X175924499Y-61598995D01*
X174075500Y-61598995D01*
X174075500Y-61461004D01*
X174048581Y-61325677D01*
X174048580Y-61325676D01*
X174048580Y-61325672D01*
X174038176Y-61300555D01*
X173995778Y-61198195D01*
X173995771Y-61198182D01*
X173919114Y-61083458D01*
X173919111Y-61083454D01*
X173821545Y-60985888D01*
X173821541Y-60985885D01*
X173706817Y-60909228D01*
X173706804Y-60909221D01*
X173579332Y-60856421D01*
X173579322Y-60856418D01*
X173443995Y-60829500D01*
X173443993Y-60829500D01*
X172206007Y-60829500D01*
X172206005Y-60829500D01*
X172070677Y-60856418D01*
X172070667Y-60856421D01*
X171943195Y-60909221D01*
X171943182Y-60909228D01*
X171828458Y-60985885D01*
X171828454Y-60985888D01*
X171730888Y-61083454D01*
X171730885Y-61083458D01*
X171654228Y-61198182D01*
X171654221Y-61198195D01*
X171601421Y-61325667D01*
X171601418Y-61325677D01*
X171574500Y-61461004D01*
X171574500Y-61461007D01*
X171574500Y-61598993D01*
X171574500Y-61598995D01*
X171574499Y-61598995D01*
X131630943Y-61598995D01*
X131604132Y-61540285D01*
X131604127Y-61540278D01*
X131514590Y-61436946D01*
X131514586Y-61436942D01*
X131399559Y-61363021D01*
X131268368Y-61324500D01*
X131268367Y-61324500D01*
X131131633Y-61324500D01*
X131131632Y-61324500D01*
X131000440Y-61363021D01*
X130885413Y-61436942D01*
X130885409Y-61436946D01*
X130795872Y-61540278D01*
X130795867Y-61540285D01*
X130739070Y-61664654D01*
X130739068Y-61664662D01*
X130719610Y-61800000D01*
X125430499Y-61800000D01*
X125430499Y-61130252D01*
X125430499Y-61130249D01*
X125430498Y-61130247D01*
X125418867Y-61071770D01*
X125418866Y-61071769D01*
X125374551Y-61005447D01*
X125308229Y-60961132D01*
X125308228Y-60961131D01*
X125249751Y-60949500D01*
X125249747Y-60949500D01*
X123510251Y-60949500D01*
X123510246Y-60949500D01*
X123451769Y-60961131D01*
X123451768Y-60961132D01*
X123385446Y-61005447D01*
X123341131Y-61071769D01*
X123341130Y-61071770D01*
X123329499Y-61130247D01*
X122436114Y-61130247D01*
X122426449Y-61122315D01*
X122243953Y-61024768D01*
X122045933Y-60964700D01*
X122045931Y-60964699D01*
X122045933Y-60964699D01*
X121839999Y-60944417D01*
X121634066Y-60964699D01*
X121436042Y-61024769D01*
X121346100Y-61072845D01*
X121253549Y-61122315D01*
X121253547Y-61122316D01*
X121253546Y-61122317D01*
X121093588Y-61253589D01*
X120970871Y-61403123D01*
X120962314Y-61413550D01*
X120923642Y-61485898D01*
X120864768Y-61596043D01*
X120864767Y-61596045D01*
X120864767Y-61596046D01*
X120863598Y-61599901D01*
X120804698Y-61794067D01*
X120784416Y-62000000D01*
X120355583Y-62000000D01*
X120335300Y-61794066D01*
X120275232Y-61596046D01*
X120177685Y-61413550D01*
X120102897Y-61322420D01*
X120046410Y-61253589D01*
X119896121Y-61130252D01*
X119886450Y-61122315D01*
X119703954Y-61024768D01*
X119505934Y-60964700D01*
X119505932Y-60964699D01*
X119505934Y-60964699D01*
X119300000Y-60944417D01*
X119094067Y-60964699D01*
X118896043Y-61024769D01*
X118806101Y-61072845D01*
X118713550Y-61122315D01*
X118713548Y-61122316D01*
X118713547Y-61122317D01*
X118553589Y-61253589D01*
X118430872Y-61403123D01*
X118422315Y-61413550D01*
X118383643Y-61485898D01*
X118324769Y-61596043D01*
X118324768Y-61596045D01*
X118324768Y-61596046D01*
X118323599Y-61599901D01*
X118264699Y-61794067D01*
X118244417Y-62000000D01*
X117815582Y-62000000D01*
X117795299Y-61794066D01*
X117735231Y-61596046D01*
X117637684Y-61413550D01*
X117562896Y-61322420D01*
X117506409Y-61253589D01*
X117356120Y-61130252D01*
X117346449Y-61122315D01*
X117163953Y-61024768D01*
X116965933Y-60964700D01*
X116965931Y-60964699D01*
X116965933Y-60964699D01*
X116759999Y-60944417D01*
X116554066Y-60964699D01*
X116356042Y-61024769D01*
X116266100Y-61072845D01*
X116173549Y-61122315D01*
X116173547Y-61122316D01*
X116173546Y-61122317D01*
X116013588Y-61253589D01*
X115890871Y-61403123D01*
X115882314Y-61413550D01*
X115854621Y-61465358D01*
X115784766Y-61596046D01*
X115764592Y-61662552D01*
X115726295Y-61720990D01*
X115662482Y-61749447D01*
X115593415Y-61738886D01*
X115541022Y-61692661D01*
X115526157Y-61658649D01*
X115493432Y-61536516D01*
X115493428Y-61536507D01*
X115393599Y-61322422D01*
X115393598Y-61322420D01*
X115258112Y-61128926D01*
X115258107Y-61128920D01*
X115091081Y-60961894D01*
X114897577Y-60826399D01*
X114705606Y-60736882D01*
X114653167Y-60690710D01*
X114634015Y-60623516D01*
X114654231Y-60556635D01*
X114707396Y-60511300D01*
X114758011Y-60500500D01*
X128083884Y-60500500D01*
X128150923Y-60520185D01*
X128196678Y-60572989D01*
X128206622Y-60642147D01*
X128196679Y-60676011D01*
X128195870Y-60677781D01*
X128195870Y-60677782D01*
X128183119Y-60705703D01*
X128139068Y-60802160D01*
X128139068Y-60802162D01*
X128119610Y-60937500D01*
X128139068Y-61072837D01*
X128139070Y-61072845D01*
X128195867Y-61197214D01*
X128195872Y-61197221D01*
X128285409Y-61300553D01*
X128285413Y-61300557D01*
X128324494Y-61325672D01*
X128400439Y-61374478D01*
X128409318Y-61377085D01*
X128531632Y-61413000D01*
X128531633Y-61413000D01*
X128668367Y-61413000D01*
X128799561Y-61374478D01*
X128914589Y-61300555D01*
X128914596Y-61300546D01*
X128918794Y-61296910D01*
X128982349Y-61267884D01*
X129051508Y-61277825D01*
X129081206Y-61296910D01*
X129085406Y-61300550D01*
X129085411Y-61300555D01*
X129200439Y-61374478D01*
X129209318Y-61377085D01*
X129331632Y-61413000D01*
X129331633Y-61413000D01*
X129468367Y-61413000D01*
X129599561Y-61374478D01*
X129714589Y-61300555D01*
X129714596Y-61300546D01*
X129718794Y-61296910D01*
X129782349Y-61267884D01*
X129851508Y-61277825D01*
X129881206Y-61296910D01*
X129885406Y-61300550D01*
X129885411Y-61300555D01*
X130000439Y-61374478D01*
X130009318Y-61377085D01*
X130131632Y-61413000D01*
X130131633Y-61413000D01*
X130268367Y-61413000D01*
X130399561Y-61374478D01*
X130514589Y-61300555D01*
X130604130Y-61197218D01*
X130660931Y-61072842D01*
X130680390Y-60937500D01*
X130660931Y-60802158D01*
X130604130Y-60677782D01*
X130604129Y-60677781D01*
X130603321Y-60676011D01*
X130593378Y-60606853D01*
X130622403Y-60543297D01*
X130681182Y-60505523D01*
X130716116Y-60500500D01*
X177934108Y-60500500D01*
X177995572Y-60500500D01*
X178004418Y-60500816D01*
X178204561Y-60515130D01*
X178222063Y-60517647D01*
X178413797Y-60559355D01*
X178430755Y-60564334D01*
X178544751Y-60606853D01*
X178614609Y-60632909D01*
X178630701Y-60640259D01*
X178802904Y-60734288D01*
X178817784Y-60743849D01*
X178968161Y-60856421D01*
X178974867Y-60861441D01*
X178988237Y-60873027D01*
X179126972Y-61011762D01*
X179138558Y-61025132D01*
X179211744Y-61122897D01*
X179256146Y-61182210D01*
X179265711Y-61197095D01*
X179359740Y-61369298D01*
X179367090Y-61385390D01*
X179435662Y-61569236D01*
X179440646Y-61586212D01*
X179482351Y-61777931D01*
X179484869Y-61795442D01*
X179486804Y-61822489D01*
X179498929Y-61992023D01*
X179499184Y-61995580D01*
X179499500Y-62004427D01*
X179499500Y-107995572D01*
X179499184Y-108004419D01*
X179484869Y-108204557D01*
X179482351Y-108222068D01*
X179440646Y-108413787D01*
X179435662Y-108430763D01*
X179367090Y-108614609D01*
X179359740Y-108630701D01*
X179265711Y-108802904D01*
X179256146Y-108817789D01*
X179138558Y-108974867D01*
X179126972Y-108988237D01*
X178988237Y-109126972D01*
X178974867Y-109138558D01*
X178817789Y-109256146D01*
X178802904Y-109265711D01*
X178630701Y-109359740D01*
X178614609Y-109367090D01*
X178430763Y-109435662D01*
X178413787Y-109440646D01*
X178222068Y-109482351D01*
X178204557Y-109484869D01*
X178023779Y-109497799D01*
X178004417Y-109499184D01*
X177995572Y-109499500D01*
X169756895Y-109499500D01*
X169689856Y-109479815D01*
X169644101Y-109427011D01*
X169634157Y-109357853D01*
X169663182Y-109294297D01*
X169682585Y-109276233D01*
X169763387Y-109215745D01*
X169763387Y-109215744D01*
X169763395Y-109215739D01*
X169965739Y-109013395D01*
X170137226Y-108784315D01*
X170274367Y-108533161D01*
X170374369Y-108265046D01*
X170435196Y-107985428D01*
X170455610Y-107700000D01*
X170435196Y-107414572D01*
X170374369Y-107134954D01*
X170274367Y-106866839D01*
X170137226Y-106615685D01*
X170137224Y-106615682D01*
X169965745Y-106386612D01*
X169965729Y-106386594D01*
X169763405Y-106184270D01*
X169763387Y-106184254D01*
X169534317Y-106012775D01*
X169534309Y-106012770D01*
X169283166Y-105875635D01*
X169283167Y-105875635D01*
X169175915Y-105835632D01*
X169015046Y-105775631D01*
X169015043Y-105775630D01*
X169015037Y-105775628D01*
X168735433Y-105714804D01*
X168450001Y-105694390D01*
X168449999Y-105694390D01*
X168164566Y-105714804D01*
X167884962Y-105775628D01*
X167616833Y-105875635D01*
X167365690Y-106012770D01*
X167365682Y-106012775D01*
X167136612Y-106184254D01*
X167136594Y-106184270D01*
X166934270Y-106386594D01*
X166934254Y-106386612D01*
X166762775Y-106615682D01*
X166762770Y-106615690D01*
X166625635Y-106866833D01*
X166525628Y-107134962D01*
X166464804Y-107414566D01*
X166444390Y-107699998D01*
X166444390Y-107700001D01*
X166464804Y-107985433D01*
X166525628Y-108265037D01*
X166525630Y-108265043D01*
X166525631Y-108265046D01*
X166595194Y-108451551D01*
X166625635Y-108533166D01*
X166762770Y-108784309D01*
X166762775Y-108784317D01*
X166934254Y-109013387D01*
X166934270Y-109013405D01*
X167136594Y-109215729D01*
X167136612Y-109215745D01*
X167217415Y-109276233D01*
X167259287Y-109332166D01*
X167264271Y-109401858D01*
X167230786Y-109463181D01*
X167169463Y-109496666D01*
X167143105Y-109499500D01*
X92856895Y-109499500D01*
X92789856Y-109479815D01*
X92744101Y-109427011D01*
X92734157Y-109357853D01*
X92763182Y-109294297D01*
X92782585Y-109276233D01*
X92863387Y-109215745D01*
X92863387Y-109215744D01*
X92863395Y-109215739D01*
X93065739Y-109013395D01*
X93237226Y-108784315D01*
X93374367Y-108533161D01*
X93474369Y-108265046D01*
X93535196Y-107985428D01*
X93555610Y-107700000D01*
X93535196Y-107414572D01*
X93474369Y-107134954D01*
X93374367Y-106866839D01*
X93237226Y-106615685D01*
X93237224Y-106615682D01*
X93065745Y-106386612D01*
X93065729Y-106386594D01*
X92863405Y-106184270D01*
X92863387Y-106184254D01*
X92634317Y-106012775D01*
X92634309Y-106012770D01*
X92383166Y-105875635D01*
X92383167Y-105875635D01*
X92275915Y-105835632D01*
X92115046Y-105775631D01*
X92115043Y-105775630D01*
X92115037Y-105775628D01*
X91835433Y-105714804D01*
X91550001Y-105694390D01*
X91549999Y-105694390D01*
X91264566Y-105714804D01*
X90984962Y-105775628D01*
X90716833Y-105875635D01*
X90465690Y-106012770D01*
X90465682Y-106012775D01*
X90236612Y-106184254D01*
X90236594Y-106184270D01*
X90034270Y-106386594D01*
X90034254Y-106386612D01*
X89862775Y-106615682D01*
X89862770Y-106615690D01*
X89725635Y-106866833D01*
X89625628Y-107134962D01*
X89564804Y-107414566D01*
X89544390Y-107699998D01*
X89544390Y-107700001D01*
X89564804Y-107985433D01*
X89625628Y-108265037D01*
X89625630Y-108265043D01*
X89625631Y-108265046D01*
X89695194Y-108451551D01*
X89725635Y-108533166D01*
X89862770Y-108784309D01*
X89862775Y-108784317D01*
X90034254Y-109013387D01*
X90034270Y-109013405D01*
X90236594Y-109215729D01*
X90236612Y-109215745D01*
X90317415Y-109276233D01*
X90359287Y-109332166D01*
X90364271Y-109401858D01*
X90330786Y-109463181D01*
X90269463Y-109496666D01*
X90243105Y-109499500D01*
X82004428Y-109499500D01*
X81995582Y-109499184D01*
X81973622Y-109497613D01*
X81795442Y-109484869D01*
X81777931Y-109482351D01*
X81586212Y-109440646D01*
X81569236Y-109435662D01*
X81385390Y-109367090D01*
X81369298Y-109359740D01*
X81197095Y-109265711D01*
X81182210Y-109256146D01*
X81025132Y-109138558D01*
X81011762Y-109126972D01*
X80873027Y-108988237D01*
X80861441Y-108974867D01*
X80743849Y-108817784D01*
X80734288Y-108802904D01*
X80640259Y-108630701D01*
X80632909Y-108614609D01*
X80572091Y-108451551D01*
X80564334Y-108430755D01*
X80559355Y-108413797D01*
X80517647Y-108222063D01*
X80515130Y-108204556D01*
X80500816Y-108004418D01*
X80500500Y-107995572D01*
X80500500Y-100999999D01*
X93469965Y-100999999D01*
X93469965Y-101000000D01*
X93488026Y-101137181D01*
X93488027Y-101137186D01*
X93540975Y-101265016D01*
X93540976Y-101265019D01*
X93567445Y-101299513D01*
X93592640Y-101364682D01*
X93578602Y-101433127D01*
X93567446Y-101450486D01*
X93540976Y-101484982D01*
X93540974Y-101484984D01*
X93488027Y-101612813D01*
X93488026Y-101612818D01*
X93469965Y-101749999D01*
X93469965Y-101750000D01*
X93488026Y-101887181D01*
X93488027Y-101887186D01*
X93540974Y-102015015D01*
X93540975Y-102015017D01*
X93540976Y-102015018D01*
X93625209Y-102124791D01*
X93734982Y-102209024D01*
X93862817Y-102261974D01*
X93985702Y-102278152D01*
X93999999Y-102280035D01*
X94000000Y-102280035D01*
X94000001Y-102280035D01*
X94012947Y-102278330D01*
X94137183Y-102261974D01*
X94265018Y-102209024D01*
X94374791Y-102124791D01*
X94401624Y-102089821D01*
X94458052Y-102048619D01*
X94527798Y-102044464D01*
X94588718Y-102078676D01*
X94598375Y-102089821D01*
X94625209Y-102124791D01*
X94734982Y-102209024D01*
X94862817Y-102261974D01*
X94985702Y-102278152D01*
X94999999Y-102280035D01*
X95000000Y-102280035D01*
X95000001Y-102280035D01*
X95012947Y-102278330D01*
X95137183Y-102261974D01*
X95265018Y-102209024D01*
X95374791Y-102124791D01*
X95459024Y-102015018D01*
X95511974Y-101887183D01*
X95530035Y-101750000D01*
X95511974Y-101612817D01*
X95492412Y-101565591D01*
X95459025Y-101484984D01*
X95459023Y-101484982D01*
X95432554Y-101450487D01*
X95407359Y-101385318D01*
X95421397Y-101316873D01*
X95432552Y-101299515D01*
X95459024Y-101265018D01*
X95511974Y-101137183D01*
X95530035Y-101000000D01*
X95511974Y-100862817D01*
X95459024Y-100734983D01*
X95374791Y-100625209D01*
X95374789Y-100625208D01*
X95374789Y-100625207D01*
X95265015Y-100540974D01*
X95137186Y-100488027D01*
X95137184Y-100488026D01*
X95137183Y-100488026D01*
X95045727Y-100475985D01*
X95000001Y-100469965D01*
X94999999Y-100469965D01*
X94931408Y-100478995D01*
X94862817Y-100488026D01*
X94862816Y-100488026D01*
X94862813Y-100488027D01*
X94734985Y-100540974D01*
X94625206Y-100625211D01*
X94598375Y-100660179D01*
X94541947Y-100701382D01*
X94472201Y-100705536D01*
X94411281Y-100671323D01*
X94401625Y-100660179D01*
X94374791Y-100625209D01*
X94349021Y-100605435D01*
X94265018Y-100540976D01*
X94265017Y-100540975D01*
X94265015Y-100540974D01*
X94137186Y-100488027D01*
X94137184Y-100488026D01*
X94137183Y-100488026D01*
X94045727Y-100475985D01*
X94000001Y-100469965D01*
X93999999Y-100469965D01*
X93931408Y-100478995D01*
X93862817Y-100488026D01*
X93862816Y-100488026D01*
X93862813Y-100488027D01*
X93734985Y-100540974D01*
X93625209Y-100625209D01*
X93540974Y-100734985D01*
X93488027Y-100862813D01*
X93488026Y-100862818D01*
X93469965Y-100999999D01*
X80500500Y-100999999D01*
X80500500Y-97899996D01*
X88544916Y-97899996D01*
X88544916Y-97900003D01*
X88565235Y-98248869D01*
X88565236Y-98248880D01*
X88625914Y-98593002D01*
X88625916Y-98593011D01*
X88726145Y-98927800D01*
X88864555Y-99248670D01*
X88864561Y-99248683D01*
X89039289Y-99551322D01*
X89247967Y-99831625D01*
X89256148Y-99840296D01*
X90398932Y-98697513D01*
X90482140Y-98812039D01*
X90637961Y-98967860D01*
X90752485Y-99051066D01*
X89612818Y-100190733D01*
X89612819Y-100190734D01*
X89755484Y-100310445D01*
X90047461Y-100502480D01*
X90359739Y-100659314D01*
X90359745Y-100659316D01*
X90688130Y-100778838D01*
X90688133Y-100778839D01*
X91028171Y-100859429D01*
X91375276Y-100899999D01*
X91375277Y-100900000D01*
X91724723Y-100900000D01*
X91724723Y-100899999D01*
X92071827Y-100859429D01*
X92071829Y-100859429D01*
X92411866Y-100778839D01*
X92411869Y-100778838D01*
X92740254Y-100659316D01*
X92740260Y-100659314D01*
X93052538Y-100502480D01*
X93344509Y-100310449D01*
X93344510Y-100310448D01*
X93487179Y-100190734D01*
X93487180Y-100190733D01*
X92347514Y-99051066D01*
X92462039Y-98967860D01*
X92617860Y-98812039D01*
X92701066Y-98697514D01*
X93843849Y-99840297D01*
X93843851Y-99840296D01*
X93852022Y-99831636D01*
X93852033Y-99831623D01*
X94060710Y-99551322D01*
X94235438Y-99248683D01*
X94235444Y-99248670D01*
X94373854Y-98927800D01*
X94474083Y-98593011D01*
X94474085Y-98593002D01*
X94534763Y-98248880D01*
X94534764Y-98248869D01*
X94555084Y-97900003D01*
X94555084Y-97900000D01*
X165744564Y-97900000D01*
X165764289Y-98226099D01*
X165823178Y-98547452D01*
X165920366Y-98859342D01*
X165920370Y-98859354D01*
X165920373Y-98859361D01*
X166054455Y-99157279D01*
X166218901Y-99429306D01*
X166223473Y-99436868D01*
X166424954Y-99694039D01*
X166655960Y-99925045D01*
X166913131Y-100126526D01*
X166913134Y-100126528D01*
X166913137Y-100126530D01*
X167192721Y-100295545D01*
X167490639Y-100429627D01*
X167490652Y-100429631D01*
X167490657Y-100429633D01*
X167802547Y-100526821D01*
X168123896Y-100585710D01*
X168450000Y-100605436D01*
X168776104Y-100585710D01*
X169097453Y-100526821D01*
X169409361Y-100429627D01*
X169707279Y-100295545D01*
X169986863Y-100126530D01*
X170244036Y-99925048D01*
X170475048Y-99694036D01*
X170676530Y-99436863D01*
X170845545Y-99157279D01*
X170979627Y-98859361D01*
X171076821Y-98547453D01*
X171135710Y-98226104D01*
X171155436Y-97900000D01*
X171135710Y-97573896D01*
X171076821Y-97252547D01*
X170979627Y-96940639D01*
X170845545Y-96642721D01*
X170676530Y-96363137D01*
X170676528Y-96363134D01*
X170676526Y-96363131D01*
X170475045Y-96105960D01*
X170244039Y-95874954D01*
X169986868Y-95673473D01*
X169880655Y-95609265D01*
X169707279Y-95504455D01*
X169409361Y-95370373D01*
X169409354Y-95370370D01*
X169409342Y-95370366D01*
X169097452Y-95273178D01*
X168776099Y-95214289D01*
X168450000Y-95194564D01*
X168123900Y-95214289D01*
X167802547Y-95273178D01*
X167490657Y-95370366D01*
X167490641Y-95370372D01*
X167490639Y-95370373D01*
X167300933Y-95455752D01*
X167192725Y-95504453D01*
X167192723Y-95504454D01*
X166913131Y-95673473D01*
X166655960Y-95874954D01*
X166424954Y-96105960D01*
X166223473Y-96363131D01*
X166140733Y-96500000D01*
X166054455Y-96642721D01*
X165951176Y-96872199D01*
X165920372Y-96940642D01*
X165920366Y-96940657D01*
X165823178Y-97252547D01*
X165764289Y-97573900D01*
X165744564Y-97900000D01*
X94555084Y-97900000D01*
X94555084Y-97899996D01*
X94534764Y-97551130D01*
X94534763Y-97551119D01*
X94474085Y-97206997D01*
X94474083Y-97206988D01*
X94373854Y-96872199D01*
X94235444Y-96551329D01*
X94235438Y-96551316D01*
X94060710Y-96248677D01*
X93852032Y-95968374D01*
X93843850Y-95959702D01*
X92701066Y-97102485D01*
X92617860Y-96987961D01*
X92462039Y-96832140D01*
X92347513Y-96748932D01*
X93487180Y-95609265D01*
X93487179Y-95609264D01*
X93344519Y-95489557D01*
X93052538Y-95297519D01*
X92740260Y-95140685D01*
X92740254Y-95140683D01*
X92411869Y-95021161D01*
X92411866Y-95021160D01*
X92071828Y-94940570D01*
X91724723Y-94900000D01*
X91375277Y-94900000D01*
X91028172Y-94940570D01*
X91028170Y-94940570D01*
X90688133Y-95021160D01*
X90688130Y-95021161D01*
X90359745Y-95140683D01*
X90359739Y-95140685D01*
X90047461Y-95297519D01*
X89755480Y-95489557D01*
X89612819Y-95609264D01*
X89612818Y-95609265D01*
X90752486Y-96748932D01*
X90637961Y-96832140D01*
X90482140Y-96987961D01*
X90398932Y-97102485D01*
X89256148Y-95959701D01*
X89256147Y-95959702D01*
X89247976Y-95968363D01*
X89247972Y-95968368D01*
X89039289Y-96248677D01*
X88864561Y-96551316D01*
X88864555Y-96551329D01*
X88726145Y-96872199D01*
X88625916Y-97206988D01*
X88625914Y-97206997D01*
X88565236Y-97551119D01*
X88565235Y-97551130D01*
X88544916Y-97899996D01*
X80500500Y-97899996D01*
X80500500Y-93780000D01*
X89094540Y-93780000D01*
X89114326Y-93968256D01*
X89114327Y-93968259D01*
X89172818Y-94148277D01*
X89172821Y-94148284D01*
X89267467Y-94312216D01*
X89394129Y-94452888D01*
X89547265Y-94564148D01*
X89547270Y-94564151D01*
X89720192Y-94641142D01*
X89720197Y-94641144D01*
X89905354Y-94680500D01*
X89905355Y-94680500D01*
X90094644Y-94680500D01*
X90094646Y-94680500D01*
X90279803Y-94641144D01*
X90452730Y-94564151D01*
X90605871Y-94452888D01*
X90732533Y-94312216D01*
X90827179Y-94148284D01*
X90885674Y-93968256D01*
X90905460Y-93780000D01*
X90885674Y-93591744D01*
X90827179Y-93411716D01*
X90732533Y-93247784D01*
X90605871Y-93107112D01*
X90605870Y-93107111D01*
X90452734Y-92995851D01*
X90452729Y-92995848D01*
X90279807Y-92918857D01*
X90279802Y-92918855D01*
X90134001Y-92887865D01*
X90094646Y-92879500D01*
X89905354Y-92879500D01*
X89872897Y-92886398D01*
X89720197Y-92918855D01*
X89720192Y-92918857D01*
X89547270Y-92995848D01*
X89547265Y-92995851D01*
X89394129Y-93107111D01*
X89267466Y-93247785D01*
X89172821Y-93411715D01*
X89172818Y-93411722D01*
X89114327Y-93591740D01*
X89114326Y-93591744D01*
X89094540Y-93780000D01*
X80500500Y-93780000D01*
X80500500Y-92410000D01*
X92194540Y-92410000D01*
X92214326Y-92598256D01*
X92214327Y-92598259D01*
X92272818Y-92778277D01*
X92272821Y-92778284D01*
X92367467Y-92942216D01*
X92467716Y-93053553D01*
X92494129Y-93082888D01*
X92647265Y-93194148D01*
X92647270Y-93194151D01*
X92820192Y-93271142D01*
X92820197Y-93271144D01*
X93005354Y-93310500D01*
X93005355Y-93310500D01*
X93194644Y-93310500D01*
X93194646Y-93310500D01*
X93379803Y-93271144D01*
X93552730Y-93194151D01*
X93705871Y-93082888D01*
X93832533Y-92942216D01*
X93927179Y-92778284D01*
X93952615Y-92699999D01*
X165694859Y-92699999D01*
X165694859Y-92700000D01*
X165715378Y-92921439D01*
X165776240Y-93135350D01*
X165875369Y-93334428D01*
X165891137Y-93355308D01*
X165891138Y-93355308D01*
X166417037Y-92829409D01*
X166434075Y-92892993D01*
X166499901Y-93007007D01*
X166592993Y-93100099D01*
X166707007Y-93165925D01*
X166770590Y-93182962D01*
X166246672Y-93706879D01*
X166246672Y-93706880D01*
X166362821Y-93778797D01*
X166362822Y-93778798D01*
X166570195Y-93859134D01*
X166788807Y-93900000D01*
X167011193Y-93900000D01*
X167229809Y-93859133D01*
X167434073Y-93780000D01*
X169094540Y-93780000D01*
X169114326Y-93968256D01*
X169114327Y-93968259D01*
X169172818Y-94148277D01*
X169172821Y-94148284D01*
X169267467Y-94312216D01*
X169394129Y-94452888D01*
X169547265Y-94564148D01*
X169547270Y-94564151D01*
X169720192Y-94641142D01*
X169720197Y-94641144D01*
X169905354Y-94680500D01*
X169905355Y-94680500D01*
X170094644Y-94680500D01*
X170094646Y-94680500D01*
X170279803Y-94641144D01*
X170452730Y-94564151D01*
X170605871Y-94452888D01*
X170732533Y-94312216D01*
X170827179Y-94148284D01*
X170885674Y-93968256D01*
X170905460Y-93780000D01*
X170885674Y-93591744D01*
X170827179Y-93411716D01*
X170732533Y-93247784D01*
X170605871Y-93107112D01*
X170605870Y-93107111D01*
X170452734Y-92995851D01*
X170452729Y-92995848D01*
X170279807Y-92918857D01*
X170279802Y-92918855D01*
X170134001Y-92887865D01*
X170094646Y-92879500D01*
X169905354Y-92879500D01*
X169872897Y-92886398D01*
X169720197Y-92918855D01*
X169720192Y-92918857D01*
X169547270Y-92995848D01*
X169547265Y-92995851D01*
X169394129Y-93107111D01*
X169267466Y-93247785D01*
X169172821Y-93411715D01*
X169172818Y-93411722D01*
X169114327Y-93591740D01*
X169114326Y-93591744D01*
X169094540Y-93780000D01*
X167434073Y-93780000D01*
X167437168Y-93778801D01*
X167437181Y-93778795D01*
X167553326Y-93706879D01*
X167029410Y-93182962D01*
X167092993Y-93165925D01*
X167207007Y-93100099D01*
X167300099Y-93007007D01*
X167365925Y-92892993D01*
X167382962Y-92829409D01*
X167908861Y-93355308D01*
X167924631Y-93334425D01*
X167924633Y-93334422D01*
X168023759Y-93135350D01*
X168084621Y-92921439D01*
X168105141Y-92700000D01*
X168105141Y-92699999D01*
X168084621Y-92478560D01*
X168023759Y-92264649D01*
X167924635Y-92065580D01*
X167924630Y-92065572D01*
X167908860Y-92044690D01*
X167382962Y-92570589D01*
X167365925Y-92507007D01*
X167300099Y-92392993D01*
X167207007Y-92299901D01*
X167092993Y-92234075D01*
X167029409Y-92217037D01*
X167553327Y-91693119D01*
X167437178Y-91621202D01*
X167437177Y-91621201D01*
X167229804Y-91540865D01*
X167011193Y-91500000D01*
X166788807Y-91500000D01*
X166570195Y-91540865D01*
X166362824Y-91621200D01*
X166362823Y-91621201D01*
X166246671Y-91693119D01*
X166770590Y-92217037D01*
X166707007Y-92234075D01*
X166592993Y-92299901D01*
X166499901Y-92392993D01*
X166434075Y-92507007D01*
X166417037Y-92570590D01*
X165891138Y-92044691D01*
X165891137Y-92044691D01*
X165875368Y-92065574D01*
X165776240Y-92264649D01*
X165715378Y-92478560D01*
X165694859Y-92699999D01*
X93952615Y-92699999D01*
X93985674Y-92598256D01*
X94005460Y-92410000D01*
X93985674Y-92221744D01*
X93927179Y-92041716D01*
X93832533Y-91877784D01*
X93705871Y-91737112D01*
X93705870Y-91737111D01*
X93552734Y-91625851D01*
X93552729Y-91625848D01*
X93379807Y-91548857D01*
X93379802Y-91548855D01*
X93234001Y-91517865D01*
X93194646Y-91509500D01*
X93005354Y-91509500D01*
X92972897Y-91516398D01*
X92820197Y-91548855D01*
X92820192Y-91548857D01*
X92647270Y-91625848D01*
X92647265Y-91625851D01*
X92494129Y-91737111D01*
X92367466Y-91877785D01*
X92272821Y-92041715D01*
X92272818Y-92041722D01*
X92221391Y-92200000D01*
X92214326Y-92221744D01*
X92194540Y-92410000D01*
X80500500Y-92410000D01*
X80500500Y-91040000D01*
X89094540Y-91040000D01*
X89114326Y-91228256D01*
X89114327Y-91228259D01*
X89172818Y-91408277D01*
X89172821Y-91408284D01*
X89267467Y-91572216D01*
X89376329Y-91693119D01*
X89394129Y-91712888D01*
X89547265Y-91824148D01*
X89547270Y-91824151D01*
X89720192Y-91901142D01*
X89720197Y-91901144D01*
X89905354Y-91940500D01*
X89905355Y-91940500D01*
X90094644Y-91940500D01*
X90094646Y-91940500D01*
X90279803Y-91901144D01*
X90452730Y-91824151D01*
X90605871Y-91712888D01*
X90732533Y-91572216D01*
X90827179Y-91408284D01*
X90885674Y-91228256D01*
X90905460Y-91040000D01*
X169094540Y-91040000D01*
X169114326Y-91228256D01*
X169114327Y-91228259D01*
X169172818Y-91408277D01*
X169172821Y-91408284D01*
X169267467Y-91572216D01*
X169376329Y-91693119D01*
X169394129Y-91712888D01*
X169547265Y-91824148D01*
X169547270Y-91824151D01*
X169720192Y-91901142D01*
X169720197Y-91901144D01*
X169905354Y-91940500D01*
X169905355Y-91940500D01*
X170094644Y-91940500D01*
X170094646Y-91940500D01*
X170279803Y-91901144D01*
X170452730Y-91824151D01*
X170605871Y-91712888D01*
X170732533Y-91572216D01*
X170827179Y-91408284D01*
X170885674Y-91228256D01*
X170905460Y-91040000D01*
X170885674Y-90851744D01*
X170827179Y-90671716D01*
X170732533Y-90507784D01*
X170605871Y-90367112D01*
X170605870Y-90367111D01*
X170452734Y-90255851D01*
X170452729Y-90255848D01*
X170279807Y-90178857D01*
X170279802Y-90178855D01*
X170134001Y-90147865D01*
X170094646Y-90139500D01*
X169905354Y-90139500D01*
X169872897Y-90146398D01*
X169720197Y-90178855D01*
X169720192Y-90178857D01*
X169547270Y-90255848D01*
X169547265Y-90255851D01*
X169394129Y-90367111D01*
X169267466Y-90507785D01*
X169172821Y-90671715D01*
X169172818Y-90671722D01*
X169155345Y-90725500D01*
X169114326Y-90851744D01*
X169094540Y-91040000D01*
X90905460Y-91040000D01*
X90885674Y-90851744D01*
X90827179Y-90671716D01*
X90732533Y-90507784D01*
X90605871Y-90367112D01*
X90605870Y-90367111D01*
X90452734Y-90255851D01*
X90452729Y-90255848D01*
X90279807Y-90178857D01*
X90279802Y-90178855D01*
X90134001Y-90147865D01*
X90094646Y-90139500D01*
X89905354Y-90139500D01*
X89872897Y-90146398D01*
X89720197Y-90178855D01*
X89720192Y-90178857D01*
X89547270Y-90255848D01*
X89547265Y-90255851D01*
X89394129Y-90367111D01*
X89267466Y-90507785D01*
X89172821Y-90671715D01*
X89172818Y-90671722D01*
X89155345Y-90725500D01*
X89114326Y-90851744D01*
X89094540Y-91040000D01*
X80500500Y-91040000D01*
X80500500Y-89379999D01*
X91894859Y-89379999D01*
X91894859Y-89380000D01*
X91915378Y-89601439D01*
X91976240Y-89815350D01*
X92075369Y-90014428D01*
X92091137Y-90035308D01*
X92091138Y-90035308D01*
X92617037Y-89509409D01*
X92634075Y-89572993D01*
X92699901Y-89687007D01*
X92792993Y-89780099D01*
X92907007Y-89845925D01*
X92970590Y-89862962D01*
X92446672Y-90386879D01*
X92446672Y-90386880D01*
X92562821Y-90458797D01*
X92562822Y-90458798D01*
X92770195Y-90539134D01*
X92988807Y-90580000D01*
X93211193Y-90580000D01*
X93429809Y-90539133D01*
X93637168Y-90458801D01*
X93637181Y-90458795D01*
X93753326Y-90386879D01*
X93229410Y-89862962D01*
X93292993Y-89845925D01*
X93407007Y-89780099D01*
X93500099Y-89687007D01*
X93565925Y-89572993D01*
X93582962Y-89509409D01*
X94108861Y-90035308D01*
X94124631Y-90014425D01*
X94124633Y-90014422D01*
X94223759Y-89815350D01*
X94284621Y-89601439D01*
X94305141Y-89380000D01*
X94305141Y-89379999D01*
X94284621Y-89158560D01*
X94223759Y-88944649D01*
X94126836Y-88750000D01*
X102519610Y-88750000D01*
X102539068Y-88885337D01*
X102539070Y-88885345D01*
X102595867Y-89009714D01*
X102595869Y-89009716D01*
X102595870Y-89009718D01*
X102610366Y-89026447D01*
X102625400Y-89043798D01*
X102654424Y-89107354D01*
X102644480Y-89176513D01*
X102625400Y-89206202D01*
X102595870Y-89240282D01*
X102595867Y-89240285D01*
X102539070Y-89364654D01*
X102539068Y-89364662D01*
X102519610Y-89500000D01*
X102539068Y-89635337D01*
X102539070Y-89635345D01*
X102595867Y-89759714D01*
X102595869Y-89759716D01*
X102595870Y-89759718D01*
X102613530Y-89780099D01*
X102625400Y-89793798D01*
X102654424Y-89857354D01*
X102644480Y-89926513D01*
X102625400Y-89956202D01*
X102595870Y-89990282D01*
X102595867Y-89990285D01*
X102539070Y-90114654D01*
X102539068Y-90114662D01*
X102519610Y-90250000D01*
X102539068Y-90385337D01*
X102539070Y-90385345D01*
X102595867Y-90509714D01*
X102595872Y-90509721D01*
X102685409Y-90613053D01*
X102685413Y-90613057D01*
X102745979Y-90651979D01*
X102800439Y-90686978D01*
X102866036Y-90706239D01*
X102931632Y-90725500D01*
X102931633Y-90725500D01*
X103068367Y-90725500D01*
X103199561Y-90686978D01*
X103314589Y-90613055D01*
X103314596Y-90613046D01*
X103316787Y-90611149D01*
X103319444Y-90609935D01*
X103322051Y-90608260D01*
X103322291Y-90608634D01*
X103380341Y-90582119D01*
X103449500Y-90592056D01*
X103479203Y-90611144D01*
X103481405Y-90613052D01*
X103481408Y-90613055D01*
X103596436Y-90686978D01*
X103662033Y-90706239D01*
X103727629Y-90725500D01*
X103727630Y-90725500D01*
X103864364Y-90725500D01*
X103995558Y-90686978D01*
X104080961Y-90632093D01*
X104147999Y-90612410D01*
X104215036Y-90632094D01*
X104249170Y-90654030D01*
X104300439Y-90686978D01*
X104366036Y-90706239D01*
X104431632Y-90725500D01*
X104431633Y-90725500D01*
X104568367Y-90725500D01*
X104699561Y-90686978D01*
X104807962Y-90617313D01*
X104875001Y-90597630D01*
X104942037Y-90617313D01*
X105050439Y-90686978D01*
X105050441Y-90686978D01*
X105050442Y-90686979D01*
X105181632Y-90725500D01*
X105181633Y-90725500D01*
X105318367Y-90725500D01*
X105449561Y-90686978D01*
X105557962Y-90617313D01*
X105625001Y-90597630D01*
X105692037Y-90617313D01*
X105800439Y-90686978D01*
X105800441Y-90686978D01*
X105800442Y-90686979D01*
X105931632Y-90725500D01*
X105931633Y-90725500D01*
X106068367Y-90725500D01*
X106199561Y-90686978D01*
X106314589Y-90613055D01*
X106404130Y-90509718D01*
X106460931Y-90385342D01*
X106480390Y-90250000D01*
X106460931Y-90114658D01*
X106424693Y-90035308D01*
X106404132Y-89990285D01*
X106404130Y-89990283D01*
X106404130Y-89990282D01*
X106374599Y-89956201D01*
X106345575Y-89892647D01*
X106355518Y-89823489D01*
X106374597Y-89793800D01*
X106404130Y-89759718D01*
X106445103Y-89670000D01*
X165994540Y-89670000D01*
X166014326Y-89858256D01*
X166014327Y-89858259D01*
X166072818Y-90038277D01*
X166072821Y-90038284D01*
X166167467Y-90202216D01*
X166294129Y-90342888D01*
X166447265Y-90454148D01*
X166447270Y-90454151D01*
X166620192Y-90531142D01*
X166620197Y-90531144D01*
X166805354Y-90570500D01*
X166805355Y-90570500D01*
X166994644Y-90570500D01*
X166994646Y-90570500D01*
X167179803Y-90531144D01*
X167352730Y-90454151D01*
X167505871Y-90342888D01*
X167632533Y-90202216D01*
X167727179Y-90038284D01*
X167785674Y-89858256D01*
X167805460Y-89670000D01*
X167785674Y-89481744D01*
X167727179Y-89301716D01*
X167632533Y-89137784D01*
X167505871Y-88997112D01*
X167505870Y-88997111D01*
X167352734Y-88885851D01*
X167352729Y-88885848D01*
X167179807Y-88808857D01*
X167179802Y-88808855D01*
X167034001Y-88777865D01*
X166994646Y-88769500D01*
X166805354Y-88769500D01*
X166772897Y-88776398D01*
X166620197Y-88808855D01*
X166620192Y-88808857D01*
X166447270Y-88885848D01*
X166447265Y-88885851D01*
X166294129Y-88997111D01*
X166167466Y-89137785D01*
X166072821Y-89301715D01*
X166072818Y-89301722D01*
X166014327Y-89481740D01*
X166014326Y-89481744D01*
X165994540Y-89670000D01*
X106445103Y-89670000D01*
X106460931Y-89635342D01*
X106480390Y-89500000D01*
X106460931Y-89364658D01*
X106432186Y-89301715D01*
X106404132Y-89240285D01*
X106404130Y-89240283D01*
X106404130Y-89240282D01*
X106374599Y-89206201D01*
X106345575Y-89142647D01*
X106355518Y-89073489D01*
X106374597Y-89043800D01*
X106404130Y-89009718D01*
X106409888Y-88997111D01*
X106447809Y-88914075D01*
X106460931Y-88885342D01*
X106480390Y-88750000D01*
X106460931Y-88614658D01*
X106448677Y-88587827D01*
X106404132Y-88490285D01*
X106404127Y-88490278D01*
X106314590Y-88386946D01*
X106314586Y-88386942D01*
X106199559Y-88313021D01*
X106155213Y-88300000D01*
X169094540Y-88300000D01*
X169114326Y-88488256D01*
X169114327Y-88488259D01*
X169172818Y-88668277D01*
X169172821Y-88668284D01*
X169267467Y-88832216D01*
X169394129Y-88972888D01*
X169547265Y-89084148D01*
X169547270Y-89084151D01*
X169720192Y-89161142D01*
X169720197Y-89161144D01*
X169905354Y-89200500D01*
X169905355Y-89200500D01*
X170094644Y-89200500D01*
X170094646Y-89200500D01*
X170279803Y-89161144D01*
X170452730Y-89084151D01*
X170605871Y-88972888D01*
X170732533Y-88832216D01*
X170827179Y-88668284D01*
X170885674Y-88488256D01*
X170905460Y-88300000D01*
X170885674Y-88111744D01*
X170827179Y-87931716D01*
X170732533Y-87767784D01*
X170605871Y-87627112D01*
X170605870Y-87627111D01*
X170452734Y-87515851D01*
X170452729Y-87515848D01*
X170279807Y-87438857D01*
X170279802Y-87438855D01*
X170134001Y-87407865D01*
X170094646Y-87399500D01*
X169905354Y-87399500D01*
X169872897Y-87406398D01*
X169720197Y-87438855D01*
X169720192Y-87438857D01*
X169547270Y-87515848D01*
X169547265Y-87515851D01*
X169394129Y-87627111D01*
X169267466Y-87767785D01*
X169172821Y-87931715D01*
X169172818Y-87931722D01*
X169114327Y-88111740D01*
X169114326Y-88111744D01*
X169094540Y-88300000D01*
X106155213Y-88300000D01*
X106068368Y-88274500D01*
X106068367Y-88274500D01*
X105931633Y-88274500D01*
X105931632Y-88274500D01*
X105800440Y-88313021D01*
X105692038Y-88382685D01*
X105624998Y-88402369D01*
X105557962Y-88382685D01*
X105449559Y-88313021D01*
X105318368Y-88274500D01*
X105318367Y-88274500D01*
X105181633Y-88274500D01*
X105181632Y-88274500D01*
X105050440Y-88313021D01*
X104942038Y-88382685D01*
X104874998Y-88402369D01*
X104807962Y-88382685D01*
X104699559Y-88313021D01*
X104568368Y-88274500D01*
X104568367Y-88274500D01*
X104431633Y-88274500D01*
X104431632Y-88274500D01*
X104300443Y-88313020D01*
X104300440Y-88313021D01*
X104300439Y-88313022D01*
X104248728Y-88346253D01*
X104226022Y-88360846D01*
X104158982Y-88380529D01*
X104091943Y-88360843D01*
X104065276Y-88337737D01*
X104064592Y-88336947D01*
X104064586Y-88336942D01*
X103949559Y-88263021D01*
X103818368Y-88224500D01*
X103818367Y-88224500D01*
X103681633Y-88224500D01*
X103681632Y-88224500D01*
X103550440Y-88263021D01*
X103435413Y-88336942D01*
X103435407Y-88336948D01*
X103434723Y-88337738D01*
X103433844Y-88338302D01*
X103428707Y-88342754D01*
X103428066Y-88342015D01*
X103375942Y-88375508D01*
X103306072Y-88375504D01*
X103273977Y-88360845D01*
X103199559Y-88313021D01*
X103068368Y-88274500D01*
X103068367Y-88274500D01*
X102931633Y-88274500D01*
X102931632Y-88274500D01*
X102800440Y-88313021D01*
X102685413Y-88386942D01*
X102685409Y-88386946D01*
X102595872Y-88490278D01*
X102595867Y-88490285D01*
X102539070Y-88614654D01*
X102539068Y-88614662D01*
X102519610Y-88750000D01*
X94126836Y-88750000D01*
X94124635Y-88745580D01*
X94124630Y-88745572D01*
X94108860Y-88724690D01*
X93582962Y-89250589D01*
X93565925Y-89187007D01*
X93500099Y-89072993D01*
X93407007Y-88979901D01*
X93292993Y-88914075D01*
X93229409Y-88897037D01*
X93753327Y-88373119D01*
X93637178Y-88301202D01*
X93637177Y-88301201D01*
X93429804Y-88220865D01*
X93211193Y-88180000D01*
X92988807Y-88180000D01*
X92770195Y-88220865D01*
X92562824Y-88301200D01*
X92562823Y-88301201D01*
X92446671Y-88373119D01*
X92970590Y-88897037D01*
X92907007Y-88914075D01*
X92792993Y-88979901D01*
X92699901Y-89072993D01*
X92634075Y-89187007D01*
X92617037Y-89250590D01*
X92091138Y-88724691D01*
X92091137Y-88724691D01*
X92075368Y-88745574D01*
X91976240Y-88944649D01*
X91915378Y-89158560D01*
X91894859Y-89379999D01*
X80500500Y-89379999D01*
X80500500Y-88300000D01*
X89094540Y-88300000D01*
X89114326Y-88488256D01*
X89114327Y-88488259D01*
X89172818Y-88668277D01*
X89172821Y-88668284D01*
X89267467Y-88832216D01*
X89394129Y-88972888D01*
X89547265Y-89084148D01*
X89547270Y-89084151D01*
X89720192Y-89161142D01*
X89720197Y-89161144D01*
X89905354Y-89200500D01*
X89905355Y-89200500D01*
X90094644Y-89200500D01*
X90094646Y-89200500D01*
X90279803Y-89161144D01*
X90452730Y-89084151D01*
X90605871Y-88972888D01*
X90732533Y-88832216D01*
X90827179Y-88668284D01*
X90885674Y-88488256D01*
X90905460Y-88300000D01*
X90885674Y-88111744D01*
X90827179Y-87931716D01*
X90732533Y-87767784D01*
X90605871Y-87627112D01*
X90605870Y-87627111D01*
X90452734Y-87515851D01*
X90452729Y-87515848D01*
X90279807Y-87438857D01*
X90279802Y-87438855D01*
X90134001Y-87407865D01*
X90094646Y-87399500D01*
X89905354Y-87399500D01*
X89872897Y-87406398D01*
X89720197Y-87438855D01*
X89720192Y-87438857D01*
X89547270Y-87515848D01*
X89547265Y-87515851D01*
X89394129Y-87627111D01*
X89267466Y-87767785D01*
X89172821Y-87931715D01*
X89172818Y-87931722D01*
X89114327Y-88111740D01*
X89114326Y-88111744D01*
X89094540Y-88300000D01*
X80500500Y-88300000D01*
X80500500Y-84180000D01*
X88844564Y-84180000D01*
X88864289Y-84506099D01*
X88923178Y-84827452D01*
X89020366Y-85139342D01*
X89020370Y-85139354D01*
X89020373Y-85139361D01*
X89154455Y-85437279D01*
X89318901Y-85709306D01*
X89323473Y-85716868D01*
X89524954Y-85974039D01*
X89755960Y-86205045D01*
X90013131Y-86406526D01*
X90013134Y-86406528D01*
X90013137Y-86406530D01*
X90292721Y-86575545D01*
X90590639Y-86709627D01*
X90590652Y-86709631D01*
X90590657Y-86709633D01*
X90902547Y-86806821D01*
X91223896Y-86865710D01*
X91550000Y-86885436D01*
X91876104Y-86865710D01*
X92197453Y-86806821D01*
X92509361Y-86709627D01*
X92807279Y-86575545D01*
X93086863Y-86406530D01*
X93344036Y-86205048D01*
X93575048Y-85974036D01*
X93776530Y-85716863D01*
X93945545Y-85437279D01*
X94079627Y-85139361D01*
X94176821Y-84827453D01*
X94235710Y-84506104D01*
X94236079Y-84500000D01*
X105719610Y-84500000D01*
X105739068Y-84635337D01*
X105739070Y-84635345D01*
X105795867Y-84759714D01*
X105795872Y-84759721D01*
X105885409Y-84863053D01*
X105885413Y-84863057D01*
X105945979Y-84901979D01*
X106000439Y-84936978D01*
X106066036Y-84956239D01*
X106131632Y-84975500D01*
X106131633Y-84975500D01*
X106268367Y-84975500D01*
X106399561Y-84936978D01*
X106514589Y-84863055D01*
X106604130Y-84759718D01*
X106660931Y-84635342D01*
X106680390Y-84500000D01*
X106660931Y-84364658D01*
X106626919Y-84290182D01*
X106604132Y-84240285D01*
X106604127Y-84240278D01*
X106551893Y-84179996D01*
X165444916Y-84179996D01*
X165444916Y-84180003D01*
X165465235Y-84528869D01*
X165465236Y-84528880D01*
X165525914Y-84873002D01*
X165525916Y-84873011D01*
X165626145Y-85207800D01*
X165764555Y-85528670D01*
X165764561Y-85528683D01*
X165939289Y-85831322D01*
X166147967Y-86111625D01*
X166156148Y-86120296D01*
X167298932Y-84977513D01*
X167382140Y-85092039D01*
X167537961Y-85247860D01*
X167652485Y-85331066D01*
X166512818Y-86470733D01*
X166512819Y-86470734D01*
X166655484Y-86590445D01*
X166947461Y-86782480D01*
X167259739Y-86939314D01*
X167259745Y-86939316D01*
X167588130Y-87058838D01*
X167588133Y-87058839D01*
X167928171Y-87139429D01*
X168275276Y-87179999D01*
X168275277Y-87180000D01*
X168624723Y-87180000D01*
X168624723Y-87179999D01*
X168971827Y-87139429D01*
X168971829Y-87139429D01*
X169311866Y-87058839D01*
X169311869Y-87058838D01*
X169640254Y-86939316D01*
X169640260Y-86939314D01*
X169952538Y-86782480D01*
X170244509Y-86590449D01*
X170244510Y-86590448D01*
X170387179Y-86470734D01*
X170387180Y-86470733D01*
X169247514Y-85331066D01*
X169362039Y-85247860D01*
X169517860Y-85092039D01*
X169601066Y-84977514D01*
X170743849Y-86120297D01*
X170743851Y-86120296D01*
X170752022Y-86111636D01*
X170752033Y-86111623D01*
X170960710Y-85831322D01*
X171135438Y-85528683D01*
X171135444Y-85528670D01*
X171273854Y-85207800D01*
X171374083Y-84873011D01*
X171374085Y-84873002D01*
X171434763Y-84528880D01*
X171434764Y-84528869D01*
X171455084Y-84180003D01*
X171455084Y-84179996D01*
X171434764Y-83831130D01*
X171434763Y-83831119D01*
X171374085Y-83486997D01*
X171374083Y-83486988D01*
X171273854Y-83152199D01*
X171135444Y-82831329D01*
X171135438Y-82831316D01*
X170960710Y-82528677D01*
X170752032Y-82248374D01*
X170743850Y-82239702D01*
X169601066Y-83382485D01*
X169517860Y-83267961D01*
X169362039Y-83112140D01*
X169247513Y-83028932D01*
X170387180Y-81889265D01*
X170387179Y-81889264D01*
X170244519Y-81769557D01*
X169952538Y-81577519D01*
X169640260Y-81420685D01*
X169640254Y-81420683D01*
X169311869Y-81301161D01*
X169311866Y-81301160D01*
X168971828Y-81220570D01*
X168624723Y-81180000D01*
X168275277Y-81180000D01*
X167928172Y-81220570D01*
X167928170Y-81220570D01*
X167588133Y-81301160D01*
X167588130Y-81301161D01*
X167259745Y-81420683D01*
X167259739Y-81420685D01*
X166947461Y-81577519D01*
X166655480Y-81769557D01*
X166512819Y-81889264D01*
X166512818Y-81889265D01*
X167652486Y-83028932D01*
X167537961Y-83112140D01*
X167382140Y-83267961D01*
X167298932Y-83382485D01*
X166156148Y-82239701D01*
X166156147Y-82239702D01*
X166147976Y-82248363D01*
X166147972Y-82248368D01*
X165939289Y-82528677D01*
X165764561Y-82831316D01*
X165764555Y-82831329D01*
X165626145Y-83152199D01*
X165525916Y-83486988D01*
X165525914Y-83486997D01*
X165465236Y-83831119D01*
X165465235Y-83831130D01*
X165444916Y-84179996D01*
X106551893Y-84179996D01*
X106514590Y-84136946D01*
X106514586Y-84136942D01*
X106399559Y-84063021D01*
X106268368Y-84024500D01*
X106268367Y-84024500D01*
X106131633Y-84024500D01*
X106131632Y-84024500D01*
X106000440Y-84063021D01*
X105885413Y-84136942D01*
X105885409Y-84136946D01*
X105795872Y-84240278D01*
X105795867Y-84240285D01*
X105739070Y-84364654D01*
X105739068Y-84364662D01*
X105719610Y-84500000D01*
X94236079Y-84500000D01*
X94255436Y-84180000D01*
X94235710Y-83853896D01*
X94176821Y-83532547D01*
X94079627Y-83220639D01*
X93945545Y-82922721D01*
X93776530Y-82643137D01*
X93776528Y-82643134D01*
X93776526Y-82643131D01*
X93575045Y-82385960D01*
X93389085Y-82200000D01*
X101919610Y-82200000D01*
X101939068Y-82335337D01*
X101939070Y-82335345D01*
X101995867Y-82459714D01*
X101995872Y-82459721D01*
X102085409Y-82563053D01*
X102085413Y-82563057D01*
X102145979Y-82601979D01*
X102200439Y-82636978D01*
X102221415Y-82643137D01*
X102331632Y-82675500D01*
X102331633Y-82675500D01*
X102468367Y-82675500D01*
X102599561Y-82636978D01*
X102714589Y-82563055D01*
X102804130Y-82459718D01*
X102860931Y-82335342D01*
X102880390Y-82200000D01*
X102860931Y-82064658D01*
X102848677Y-82037827D01*
X102804132Y-81940285D01*
X102804127Y-81940278D01*
X102714590Y-81836946D01*
X102714586Y-81836942D01*
X102599559Y-81763021D01*
X102468368Y-81724500D01*
X102468367Y-81724500D01*
X102331633Y-81724500D01*
X102331632Y-81724500D01*
X102200440Y-81763021D01*
X102085413Y-81836942D01*
X102085409Y-81836946D01*
X101995872Y-81940278D01*
X101995867Y-81940285D01*
X101939070Y-82064654D01*
X101939068Y-82064662D01*
X101919610Y-82200000D01*
X93389085Y-82200000D01*
X93344039Y-82154954D01*
X93086868Y-81953473D01*
X92980655Y-81889265D01*
X92807279Y-81784455D01*
X92509361Y-81650373D01*
X92509354Y-81650370D01*
X92509342Y-81650366D01*
X92197452Y-81553178D01*
X91876099Y-81494289D01*
X91550000Y-81474564D01*
X91223900Y-81494289D01*
X90902547Y-81553178D01*
X90590657Y-81650366D01*
X90590641Y-81650372D01*
X90590639Y-81650373D01*
X90425936Y-81724500D01*
X90292725Y-81784453D01*
X90292723Y-81784454D01*
X90013131Y-81953473D01*
X89755960Y-82154954D01*
X89524954Y-82385960D01*
X89323473Y-82643131D01*
X89240733Y-82780000D01*
X89154455Y-82922721D01*
X89051176Y-83152199D01*
X89020372Y-83220642D01*
X89020366Y-83220657D01*
X88923178Y-83532547D01*
X88864289Y-83853900D01*
X88844564Y-84180000D01*
X80500500Y-84180000D01*
X80500500Y-74379998D01*
X89544390Y-74379998D01*
X89544390Y-74380001D01*
X89564804Y-74665433D01*
X89625628Y-74945037D01*
X89625630Y-74945043D01*
X89625631Y-74945046D01*
X89706945Y-75163057D01*
X89725635Y-75213166D01*
X89862770Y-75464309D01*
X89862775Y-75464317D01*
X90034254Y-75693387D01*
X90034270Y-75693405D01*
X90236594Y-75895729D01*
X90236612Y-75895745D01*
X90465682Y-76067224D01*
X90465690Y-76067229D01*
X90716833Y-76204364D01*
X90716832Y-76204364D01*
X90716836Y-76204365D01*
X90716839Y-76204367D01*
X90984954Y-76304369D01*
X90984960Y-76304370D01*
X90984962Y-76304371D01*
X91264566Y-76365195D01*
X91264568Y-76365195D01*
X91264572Y-76365196D01*
X91518220Y-76383337D01*
X91549999Y-76385610D01*
X91550000Y-76385610D01*
X91550001Y-76385610D01*
X91578595Y-76383564D01*
X91835428Y-76365196D01*
X91972652Y-76335345D01*
X92115037Y-76304371D01*
X92115037Y-76304370D01*
X92115046Y-76304369D01*
X92383161Y-76204367D01*
X92391159Y-76200000D01*
X96069610Y-76200000D01*
X96089068Y-76335337D01*
X96089070Y-76335345D01*
X96145867Y-76459714D01*
X96145872Y-76459721D01*
X96235409Y-76563053D01*
X96235413Y-76563057D01*
X96287453Y-76596500D01*
X96350439Y-76636978D01*
X96394788Y-76650000D01*
X96481632Y-76675500D01*
X96481633Y-76675500D01*
X96618367Y-76675500D01*
X96705212Y-76650000D01*
X97269610Y-76650000D01*
X97289068Y-76785337D01*
X97289070Y-76785345D01*
X97345867Y-76909714D01*
X97345872Y-76909721D01*
X97435409Y-77013053D01*
X97435413Y-77013057D01*
X97512096Y-77062337D01*
X97550439Y-77086978D01*
X97580896Y-77095921D01*
X97639673Y-77133694D01*
X97668699Y-77197250D01*
X97658756Y-77266408D01*
X97613002Y-77319212D01*
X97585415Y-77336941D01*
X97585409Y-77336946D01*
X97495872Y-77440278D01*
X97495867Y-77440285D01*
X97439070Y-77564654D01*
X97439068Y-77564662D01*
X97419610Y-77700000D01*
X97439068Y-77835337D01*
X97439070Y-77835345D01*
X97495867Y-77959714D01*
X97495872Y-77959721D01*
X97585409Y-78063053D01*
X97585413Y-78063057D01*
X97645979Y-78101979D01*
X97700439Y-78136978D01*
X97766036Y-78156239D01*
X97831632Y-78175500D01*
X97831633Y-78175500D01*
X97968367Y-78175500D01*
X98099561Y-78136978D01*
X98214589Y-78063055D01*
X98304130Y-77959718D01*
X98360931Y-77835342D01*
X98380390Y-77700000D01*
X98360931Y-77564658D01*
X98320214Y-77475500D01*
X98304132Y-77440285D01*
X98304127Y-77440278D01*
X98214590Y-77336946D01*
X98214586Y-77336942D01*
X98123736Y-77278558D01*
X98099561Y-77263022D01*
X98099560Y-77263021D01*
X98099559Y-77263021D01*
X98069102Y-77254078D01*
X98010325Y-77216303D01*
X97981300Y-77152747D01*
X97991244Y-77083589D01*
X98001286Y-77072000D01*
X102879610Y-77072000D01*
X102899068Y-77207337D01*
X102899070Y-77207345D01*
X102955867Y-77331714D01*
X102955872Y-77331721D01*
X103013865Y-77398649D01*
X103042890Y-77462204D01*
X103032946Y-77531363D01*
X103013871Y-77561046D01*
X103005875Y-77570274D01*
X103005869Y-77570284D01*
X102949069Y-77694657D01*
X102949068Y-77694662D01*
X102929610Y-77830000D01*
X102949068Y-77965337D01*
X102949070Y-77965345D01*
X103005867Y-78089714D01*
X103005872Y-78089721D01*
X103095409Y-78193053D01*
X103095413Y-78193057D01*
X103155979Y-78231979D01*
X103210439Y-78266978D01*
X103276036Y-78286239D01*
X103341632Y-78305500D01*
X103341633Y-78305500D01*
X103478367Y-78305500D01*
X103609561Y-78266978D01*
X103724589Y-78193055D01*
X103814130Y-78089718D01*
X103870931Y-77965342D01*
X103890390Y-77830000D01*
X103870931Y-77694658D01*
X103858677Y-77667827D01*
X103814132Y-77570285D01*
X103814130Y-77570283D01*
X103814130Y-77570282D01*
X103756133Y-77503349D01*
X103727109Y-77439793D01*
X103737053Y-77370635D01*
X103756132Y-77340948D01*
X103764130Y-77331718D01*
X103820931Y-77207342D01*
X103840390Y-77072000D01*
X103830038Y-77000000D01*
X107619610Y-77000000D01*
X107639068Y-77135337D01*
X107639070Y-77135345D01*
X107695867Y-77259714D01*
X107695872Y-77259721D01*
X107785409Y-77363053D01*
X107785413Y-77363057D01*
X107840797Y-77398649D01*
X107900439Y-77436978D01*
X107911702Y-77440285D01*
X108031632Y-77475500D01*
X108031633Y-77475500D01*
X108168367Y-77475500D01*
X108299561Y-77436978D01*
X108414589Y-77363055D01*
X108504130Y-77259718D01*
X108560931Y-77135342D01*
X108580390Y-77000000D01*
X108560931Y-76864658D01*
X108524710Y-76785345D01*
X108504132Y-76740285D01*
X108504127Y-76740278D01*
X108414590Y-76636946D01*
X108414586Y-76636942D01*
X108299559Y-76563021D01*
X108168368Y-76524500D01*
X108168367Y-76524500D01*
X108031633Y-76524500D01*
X108031632Y-76524500D01*
X107900440Y-76563021D01*
X107785413Y-76636942D01*
X107785409Y-76636946D01*
X107695872Y-76740278D01*
X107695867Y-76740285D01*
X107639070Y-76864654D01*
X107639068Y-76864662D01*
X107619610Y-77000000D01*
X103830038Y-77000000D01*
X103820931Y-76936658D01*
X103808626Y-76909714D01*
X103764132Y-76812285D01*
X103764127Y-76812278D01*
X103674590Y-76708946D01*
X103674586Y-76708942D01*
X103582868Y-76650000D01*
X103559561Y-76635022D01*
X103559560Y-76635021D01*
X103559559Y-76635021D01*
X103428368Y-76596500D01*
X103428367Y-76596500D01*
X103291633Y-76596500D01*
X103291632Y-76596500D01*
X103160440Y-76635021D01*
X103045413Y-76708942D01*
X103045409Y-76708946D01*
X102955872Y-76812278D01*
X102955867Y-76812285D01*
X102899070Y-76936654D01*
X102899068Y-76936662D01*
X102879610Y-77072000D01*
X98001286Y-77072000D01*
X98036997Y-77030786D01*
X98064589Y-77013055D01*
X98154130Y-76909718D01*
X98210931Y-76785342D01*
X98230390Y-76650000D01*
X98210931Y-76514658D01*
X98185839Y-76459714D01*
X98154132Y-76390285D01*
X98154127Y-76390278D01*
X98064590Y-76286946D01*
X98064586Y-76286942D01*
X97949559Y-76213021D01*
X97818368Y-76174500D01*
X97818367Y-76174500D01*
X97681633Y-76174500D01*
X97681632Y-76174500D01*
X97550440Y-76213021D01*
X97435413Y-76286942D01*
X97435409Y-76286946D01*
X97345872Y-76390278D01*
X97345867Y-76390285D01*
X97289070Y-76514654D01*
X97289068Y-76514662D01*
X97269610Y-76650000D01*
X96705212Y-76650000D01*
X96749561Y-76636978D01*
X96864589Y-76563055D01*
X96954130Y-76459718D01*
X97010931Y-76335342D01*
X97030390Y-76200000D01*
X97010931Y-76064658D01*
X96998677Y-76037827D01*
X96954132Y-75940285D01*
X96954127Y-75940278D01*
X96864590Y-75836946D01*
X96864586Y-75836942D01*
X96749559Y-75763021D01*
X96618368Y-75724500D01*
X96618367Y-75724500D01*
X96481633Y-75724500D01*
X96481632Y-75724500D01*
X96350440Y-75763021D01*
X96235413Y-75836942D01*
X96235409Y-75836946D01*
X96145872Y-75940278D01*
X96145867Y-75940285D01*
X96089070Y-76064654D01*
X96089068Y-76064662D01*
X96069610Y-76200000D01*
X92391159Y-76200000D01*
X92634315Y-76067226D01*
X92863395Y-75895739D01*
X93065739Y-75693395D01*
X93237226Y-75464315D01*
X93326949Y-75300000D01*
X128019610Y-75300000D01*
X128039068Y-75435337D01*
X128039070Y-75435345D01*
X128095867Y-75559714D01*
X128095872Y-75559721D01*
X128185409Y-75663053D01*
X128185413Y-75663057D01*
X128232637Y-75693405D01*
X128300439Y-75736978D01*
X128366036Y-75756239D01*
X128431632Y-75775500D01*
X128431633Y-75775500D01*
X128568367Y-75775500D01*
X128699561Y-75736978D01*
X128814589Y-75663055D01*
X128904130Y-75559718D01*
X128960931Y-75435342D01*
X128980390Y-75300000D01*
X128960931Y-75164658D01*
X128913008Y-75059721D01*
X128904132Y-75040285D01*
X128904127Y-75040278D01*
X128814590Y-74936946D01*
X128814586Y-74936942D01*
X128699559Y-74863021D01*
X128568368Y-74824500D01*
X128568367Y-74824500D01*
X128431633Y-74824500D01*
X128431632Y-74824500D01*
X128300440Y-74863021D01*
X128185413Y-74936942D01*
X128185409Y-74936946D01*
X128095872Y-75040278D01*
X128095867Y-75040285D01*
X128039070Y-75164654D01*
X128039068Y-75164662D01*
X128019610Y-75300000D01*
X93326949Y-75300000D01*
X93374367Y-75213161D01*
X93474369Y-74945046D01*
X93505922Y-74800000D01*
X125599610Y-74800000D01*
X125619068Y-74935337D01*
X125619070Y-74935345D01*
X125675867Y-75059714D01*
X125675872Y-75059721D01*
X125765409Y-75163053D01*
X125765413Y-75163057D01*
X125825979Y-75201979D01*
X125880439Y-75236978D01*
X125946036Y-75256239D01*
X126011632Y-75275500D01*
X126011633Y-75275500D01*
X126148367Y-75275500D01*
X126279561Y-75236978D01*
X126394589Y-75163055D01*
X126484130Y-75059718D01*
X126540931Y-74935342D01*
X126560390Y-74800000D01*
X126540931Y-74664658D01*
X126528677Y-74637827D01*
X126484132Y-74540285D01*
X126484127Y-74540278D01*
X126394590Y-74436946D01*
X126394586Y-74436942D01*
X126305977Y-74379998D01*
X166444390Y-74379998D01*
X166444390Y-74380001D01*
X166464804Y-74665433D01*
X166525628Y-74945037D01*
X166525630Y-74945043D01*
X166525631Y-74945046D01*
X166606945Y-75163057D01*
X166625635Y-75213166D01*
X166762770Y-75464309D01*
X166762775Y-75464317D01*
X166934254Y-75693387D01*
X166934270Y-75693405D01*
X167136594Y-75895729D01*
X167136612Y-75895745D01*
X167365682Y-76067224D01*
X167365690Y-76067229D01*
X167616833Y-76204364D01*
X167616832Y-76204364D01*
X167616836Y-76204365D01*
X167616839Y-76204367D01*
X167884954Y-76304369D01*
X167884960Y-76304370D01*
X167884962Y-76304371D01*
X168164566Y-76365195D01*
X168164568Y-76365195D01*
X168164572Y-76365196D01*
X168418220Y-76383337D01*
X168449999Y-76385610D01*
X168450000Y-76385610D01*
X168450001Y-76385610D01*
X168478595Y-76383564D01*
X168735428Y-76365196D01*
X168872652Y-76335345D01*
X169015037Y-76304371D01*
X169015037Y-76304370D01*
X169015046Y-76304369D01*
X169283161Y-76204367D01*
X169534315Y-76067226D01*
X169763395Y-75895739D01*
X169965739Y-75693395D01*
X170137226Y-75464315D01*
X170274367Y-75213161D01*
X170374369Y-74945046D01*
X170435196Y-74665428D01*
X170455610Y-74380000D01*
X170435196Y-74094572D01*
X170428340Y-74063057D01*
X170374371Y-73814962D01*
X170374370Y-73814960D01*
X170374369Y-73814954D01*
X170274367Y-73546839D01*
X170254405Y-73510282D01*
X170137229Y-73295690D01*
X170137224Y-73295682D01*
X169965745Y-73066612D01*
X169965729Y-73066594D01*
X169763405Y-72864270D01*
X169763387Y-72864254D01*
X169534317Y-72692775D01*
X169534309Y-72692770D01*
X169283166Y-72555635D01*
X169283167Y-72555635D01*
X169175915Y-72515632D01*
X169015046Y-72455631D01*
X169015043Y-72455630D01*
X169015037Y-72455628D01*
X168735433Y-72394804D01*
X168450001Y-72374390D01*
X168449999Y-72374390D01*
X168164566Y-72394804D01*
X167884962Y-72455628D01*
X167616833Y-72555635D01*
X167365690Y-72692770D01*
X167365682Y-72692775D01*
X167136612Y-72864254D01*
X167136594Y-72864270D01*
X166934270Y-73066594D01*
X166934254Y-73066612D01*
X166762775Y-73295682D01*
X166762770Y-73295690D01*
X166625635Y-73546833D01*
X166525628Y-73814962D01*
X166464804Y-74094566D01*
X166444390Y-74379998D01*
X126305977Y-74379998D01*
X126279559Y-74363021D01*
X126148368Y-74324500D01*
X126148367Y-74324500D01*
X126011633Y-74324500D01*
X126011632Y-74324500D01*
X125880440Y-74363021D01*
X125765413Y-74436942D01*
X125765409Y-74436946D01*
X125675872Y-74540278D01*
X125675867Y-74540285D01*
X125619070Y-74664654D01*
X125619068Y-74664662D01*
X125599610Y-74800000D01*
X93505922Y-74800000D01*
X93535196Y-74665428D01*
X93555610Y-74380000D01*
X93535196Y-74094572D01*
X93528340Y-74063057D01*
X93474371Y-73814962D01*
X93474370Y-73814960D01*
X93474369Y-73814954D01*
X93457602Y-73770000D01*
X106549610Y-73770000D01*
X106569068Y-73905337D01*
X106569070Y-73905345D01*
X106625867Y-74029714D01*
X106625872Y-74029721D01*
X106715409Y-74133053D01*
X106715413Y-74133057D01*
X106775979Y-74171979D01*
X106830439Y-74206978D01*
X106896036Y-74226239D01*
X106961632Y-74245500D01*
X106961633Y-74245500D01*
X107098367Y-74245500D01*
X107229561Y-74206978D01*
X107344589Y-74133055D01*
X107434130Y-74029718D01*
X107490931Y-73905342D01*
X107510390Y-73770000D01*
X107500326Y-73700000D01*
X146019610Y-73700000D01*
X146039068Y-73835337D01*
X146039070Y-73835345D01*
X146095867Y-73959714D01*
X146095872Y-73959721D01*
X146185409Y-74063053D01*
X146185413Y-74063057D01*
X146234444Y-74094566D01*
X146300439Y-74136978D01*
X146366036Y-74156239D01*
X146431632Y-74175500D01*
X146431633Y-74175500D01*
X146568367Y-74175500D01*
X146699561Y-74136978D01*
X146814589Y-74063055D01*
X146904130Y-73959718D01*
X146960931Y-73835342D01*
X146980390Y-73700000D01*
X146960931Y-73564658D01*
X146936096Y-73510278D01*
X146904132Y-73440285D01*
X146904127Y-73440278D01*
X146814590Y-73336946D01*
X146814586Y-73336942D01*
X146723736Y-73278558D01*
X146699561Y-73263022D01*
X146699560Y-73263021D01*
X146699559Y-73263021D01*
X146568368Y-73224500D01*
X146568367Y-73224500D01*
X146431633Y-73224500D01*
X146431632Y-73224500D01*
X146300440Y-73263021D01*
X146185413Y-73336942D01*
X146185409Y-73336946D01*
X146095872Y-73440278D01*
X146095867Y-73440285D01*
X146039070Y-73564654D01*
X146039068Y-73564662D01*
X146019610Y-73700000D01*
X107500326Y-73700000D01*
X107490931Y-73634658D01*
X107458961Y-73564654D01*
X107434132Y-73510285D01*
X107434127Y-73510278D01*
X107344590Y-73406946D01*
X107344586Y-73406942D01*
X107235718Y-73336979D01*
X107229561Y-73333022D01*
X107229560Y-73333021D01*
X107229559Y-73333021D01*
X107098368Y-73294500D01*
X107098367Y-73294500D01*
X106961633Y-73294500D01*
X106961632Y-73294500D01*
X106830440Y-73333021D01*
X106715413Y-73406942D01*
X106715409Y-73406946D01*
X106625872Y-73510278D01*
X106625867Y-73510285D01*
X106569070Y-73634654D01*
X106569068Y-73634662D01*
X106549610Y-73770000D01*
X93457602Y-73770000D01*
X93374367Y-73546839D01*
X93354405Y-73510282D01*
X93237229Y-73295690D01*
X93237224Y-73295682D01*
X93065745Y-73066612D01*
X93065729Y-73066594D01*
X92899135Y-72900000D01*
X152119610Y-72900000D01*
X152139068Y-73035337D01*
X152139070Y-73035345D01*
X152195867Y-73159714D01*
X152195872Y-73159721D01*
X152285409Y-73263053D01*
X152285413Y-73263057D01*
X152334341Y-73294500D01*
X152400439Y-73336978D01*
X152466036Y-73356239D01*
X152531632Y-73375500D01*
X152531633Y-73375500D01*
X152668367Y-73375500D01*
X152799561Y-73336978D01*
X152882963Y-73283379D01*
X152950001Y-73263696D01*
X153017036Y-73283379D01*
X153100439Y-73336978D01*
X153100441Y-73336978D01*
X153100442Y-73336979D01*
X153231632Y-73375500D01*
X153231633Y-73375500D01*
X153368367Y-73375500D01*
X153499561Y-73336978D01*
X153614589Y-73263055D01*
X153614596Y-73263046D01*
X153618794Y-73259410D01*
X153682349Y-73230384D01*
X153751508Y-73240325D01*
X153781206Y-73259410D01*
X153785406Y-73263050D01*
X153785411Y-73263055D01*
X153900439Y-73336978D01*
X153966036Y-73356239D01*
X154031632Y-73375500D01*
X154031633Y-73375500D01*
X154168367Y-73375500D01*
X154299561Y-73336978D01*
X154414589Y-73263055D01*
X154414596Y-73263046D01*
X154418794Y-73259410D01*
X154482349Y-73230384D01*
X154551508Y-73240325D01*
X154581206Y-73259410D01*
X154585406Y-73263050D01*
X154585411Y-73263055D01*
X154700439Y-73336978D01*
X154766036Y-73356239D01*
X154831632Y-73375500D01*
X154831633Y-73375500D01*
X154968367Y-73375500D01*
X155099561Y-73336978D01*
X155182963Y-73283379D01*
X155250001Y-73263696D01*
X155317036Y-73283379D01*
X155400439Y-73336978D01*
X155400441Y-73336978D01*
X155400442Y-73336979D01*
X155531632Y-73375500D01*
X155531633Y-73375500D01*
X155668367Y-73375500D01*
X155799561Y-73336978D01*
X155914589Y-73263055D01*
X156004130Y-73159718D01*
X156060931Y-73035342D01*
X156080390Y-72900000D01*
X156060931Y-72764658D01*
X156028103Y-72692775D01*
X156004132Y-72640285D01*
X156004127Y-72640278D01*
X155914590Y-72536946D01*
X155914586Y-72536942D01*
X155799559Y-72463021D01*
X155668368Y-72424500D01*
X155668367Y-72424500D01*
X155531633Y-72424500D01*
X155531632Y-72424500D01*
X155400440Y-72463021D01*
X155317038Y-72516619D01*
X155249998Y-72536303D01*
X155182962Y-72516619D01*
X155099559Y-72463021D01*
X154968368Y-72424500D01*
X154968367Y-72424500D01*
X154831633Y-72424500D01*
X154831632Y-72424500D01*
X154700440Y-72463021D01*
X154585413Y-72536942D01*
X154581201Y-72540593D01*
X154517644Y-72569616D01*
X154448486Y-72559671D01*
X154418799Y-72540593D01*
X154414586Y-72536942D01*
X154299559Y-72463021D01*
X154168368Y-72424500D01*
X154168367Y-72424500D01*
X154031633Y-72424500D01*
X154031632Y-72424500D01*
X153900440Y-72463021D01*
X153785413Y-72536942D01*
X153781201Y-72540593D01*
X153717644Y-72569616D01*
X153648486Y-72559671D01*
X153618799Y-72540593D01*
X153614586Y-72536942D01*
X153499559Y-72463021D01*
X153368368Y-72424500D01*
X153368367Y-72424500D01*
X153231633Y-72424500D01*
X153231632Y-72424500D01*
X153100440Y-72463021D01*
X153017038Y-72516619D01*
X152949998Y-72536303D01*
X152882962Y-72516619D01*
X152799559Y-72463021D01*
X152668368Y-72424500D01*
X152668367Y-72424500D01*
X152531633Y-72424500D01*
X152531632Y-72424500D01*
X152400440Y-72463021D01*
X152285413Y-72536942D01*
X152285409Y-72536946D01*
X152195872Y-72640278D01*
X152195867Y-72640285D01*
X152139070Y-72764654D01*
X152139068Y-72764662D01*
X152119610Y-72900000D01*
X92899135Y-72900000D01*
X92863405Y-72864270D01*
X92863387Y-72864254D01*
X92634317Y-72692775D01*
X92634309Y-72692770D01*
X92383166Y-72555635D01*
X92383167Y-72555635D01*
X92275915Y-72515632D01*
X92115046Y-72455631D01*
X92115043Y-72455630D01*
X92115037Y-72455628D01*
X91835433Y-72394804D01*
X91550001Y-72374390D01*
X91549999Y-72374390D01*
X91264566Y-72394804D01*
X90984962Y-72455628D01*
X90716833Y-72555635D01*
X90465690Y-72692770D01*
X90465682Y-72692775D01*
X90236612Y-72864254D01*
X90236594Y-72864270D01*
X90034270Y-73066594D01*
X90034254Y-73066612D01*
X89862775Y-73295682D01*
X89862770Y-73295690D01*
X89725635Y-73546833D01*
X89625628Y-73814962D01*
X89564804Y-74094566D01*
X89544390Y-74379998D01*
X80500500Y-74379998D01*
X80500500Y-72295348D01*
X121424262Y-72295348D01*
X121443720Y-72430685D01*
X121443722Y-72430693D01*
X121500519Y-72555062D01*
X121500524Y-72555069D01*
X121590061Y-72658401D01*
X121590065Y-72658405D01*
X121650631Y-72697327D01*
X121705091Y-72732326D01*
X121770688Y-72751587D01*
X121836284Y-72770848D01*
X121836285Y-72770848D01*
X121973019Y-72770848D01*
X122104213Y-72732326D01*
X122219241Y-72658403D01*
X122308782Y-72555066D01*
X122365583Y-72430690D01*
X122385042Y-72295348D01*
X122365583Y-72160006D01*
X122353329Y-72133175D01*
X122308784Y-72035633D01*
X122308779Y-72035626D01*
X122277909Y-72000000D01*
X133719610Y-72000000D01*
X133739068Y-72135337D01*
X133739070Y-72135345D01*
X133795867Y-72259714D01*
X133795872Y-72259721D01*
X133885409Y-72363053D01*
X133885413Y-72363057D01*
X133934814Y-72394804D01*
X134000439Y-72436978D01*
X134063955Y-72455628D01*
X134131632Y-72475500D01*
X134131633Y-72475500D01*
X134268367Y-72475500D01*
X134399561Y-72436978D01*
X134514589Y-72363055D01*
X134604130Y-72259718D01*
X134660931Y-72135342D01*
X134680390Y-72000000D01*
X137119610Y-72000000D01*
X137139068Y-72135337D01*
X137139070Y-72135345D01*
X137195867Y-72259714D01*
X137195872Y-72259721D01*
X137285409Y-72363053D01*
X137285413Y-72363057D01*
X137334814Y-72394804D01*
X137400439Y-72436978D01*
X137463955Y-72455628D01*
X137531632Y-72475500D01*
X137531633Y-72475500D01*
X137668367Y-72475500D01*
X137799561Y-72436978D01*
X137914589Y-72363055D01*
X138004130Y-72259718D01*
X138060931Y-72135342D01*
X138080390Y-72000000D01*
X138060931Y-71864658D01*
X138031631Y-71800500D01*
X138004132Y-71740285D01*
X138004127Y-71740278D01*
X137914590Y-71636946D01*
X137914586Y-71636942D01*
X137799559Y-71563021D01*
X137668368Y-71524500D01*
X137668367Y-71524500D01*
X137531633Y-71524500D01*
X137531632Y-71524500D01*
X137400440Y-71563021D01*
X137285413Y-71636942D01*
X137285409Y-71636946D01*
X137195872Y-71740278D01*
X137195867Y-71740285D01*
X137139070Y-71864654D01*
X137139068Y-71864662D01*
X137119610Y-72000000D01*
X134680390Y-72000000D01*
X134660931Y-71864658D01*
X134631631Y-71800500D01*
X134604132Y-71740285D01*
X134604127Y-71740278D01*
X134514590Y-71636946D01*
X134514586Y-71636942D01*
X134399559Y-71563021D01*
X134268368Y-71524500D01*
X134268367Y-71524500D01*
X134131633Y-71524500D01*
X134131632Y-71524500D01*
X134000440Y-71563021D01*
X133885413Y-71636942D01*
X133885409Y-71636946D01*
X133795872Y-71740278D01*
X133795867Y-71740285D01*
X133739070Y-71864654D01*
X133739068Y-71864662D01*
X133719610Y-72000000D01*
X122277909Y-72000000D01*
X122219242Y-71932294D01*
X122219238Y-71932290D01*
X122128388Y-71873906D01*
X122104213Y-71858370D01*
X122104212Y-71858369D01*
X122104211Y-71858369D01*
X121973020Y-71819848D01*
X121973019Y-71819848D01*
X121836285Y-71819848D01*
X121836284Y-71819848D01*
X121705092Y-71858369D01*
X121590065Y-71932290D01*
X121590061Y-71932294D01*
X121500524Y-72035626D01*
X121500519Y-72035633D01*
X121443722Y-72160002D01*
X121443720Y-72160010D01*
X121424262Y-72295348D01*
X80500500Y-72295348D01*
X80500500Y-71325000D01*
X93444610Y-71325000D01*
X93464068Y-71460337D01*
X93464070Y-71460345D01*
X93520867Y-71584714D01*
X93520872Y-71584721D01*
X93610409Y-71688053D01*
X93610413Y-71688057D01*
X93670979Y-71726979D01*
X93725439Y-71761978D01*
X93791036Y-71781239D01*
X93856632Y-71800500D01*
X93856633Y-71800500D01*
X93993367Y-71800500D01*
X94124561Y-71761978D01*
X94239589Y-71688055D01*
X94329130Y-71584718D01*
X94385931Y-71460342D01*
X94405390Y-71325000D01*
X94385931Y-71189658D01*
X94372365Y-71159953D01*
X94329132Y-71065285D01*
X94329127Y-71065278D01*
X94239590Y-70961946D01*
X94239586Y-70961942D01*
X94124559Y-70888021D01*
X93993368Y-70849500D01*
X93993367Y-70849500D01*
X93856633Y-70849500D01*
X93856632Y-70849500D01*
X93725440Y-70888021D01*
X93610413Y-70961942D01*
X93610409Y-70961946D01*
X93520872Y-71065278D01*
X93520867Y-71065285D01*
X93464070Y-71189654D01*
X93464068Y-71189662D01*
X93444610Y-71325000D01*
X80500500Y-71325000D01*
X80500500Y-70500000D01*
X95019610Y-70500000D01*
X95039068Y-70635337D01*
X95039070Y-70635345D01*
X95095867Y-70759714D01*
X95095872Y-70759721D01*
X95185409Y-70863053D01*
X95185413Y-70863057D01*
X95224259Y-70888021D01*
X95300439Y-70936978D01*
X95366036Y-70956239D01*
X95431632Y-70975500D01*
X95431633Y-70975500D01*
X95568367Y-70975500D01*
X95699561Y-70936978D01*
X95814589Y-70863055D01*
X95904130Y-70759718D01*
X95960931Y-70635342D01*
X95980390Y-70500000D01*
X95960931Y-70364658D01*
X95934646Y-70307102D01*
X95904132Y-70240285D01*
X95904127Y-70240278D01*
X95814590Y-70136946D01*
X95814586Y-70136942D01*
X95699559Y-70063021D01*
X95568368Y-70024500D01*
X95568367Y-70024500D01*
X95431633Y-70024500D01*
X95431632Y-70024500D01*
X95300440Y-70063021D01*
X95185413Y-70136942D01*
X95185409Y-70136946D01*
X95095872Y-70240278D01*
X95095867Y-70240285D01*
X95039070Y-70364654D01*
X95039068Y-70364662D01*
X95019610Y-70500000D01*
X80500500Y-70500000D01*
X80500500Y-67969993D01*
X82230288Y-67969993D01*
X82230288Y-67970006D01*
X82249103Y-68197085D01*
X82249105Y-68197093D01*
X82305045Y-68417993D01*
X82396579Y-68626669D01*
X82476874Y-68749570D01*
X83131119Y-68095326D01*
X83148734Y-68161063D01*
X83213902Y-68273937D01*
X83306063Y-68366098D01*
X83418937Y-68431266D01*
X83484672Y-68448880D01*
X82829015Y-69104536D01*
X82829015Y-69104538D01*
X82855360Y-69125043D01*
X82855371Y-69125050D01*
X83055769Y-69233499D01*
X83055780Y-69233504D01*
X83271298Y-69307492D01*
X83496065Y-69345000D01*
X83723935Y-69345000D01*
X83948701Y-69307492D01*
X84164219Y-69233504D01*
X84164230Y-69233499D01*
X84364627Y-69125050D01*
X84364633Y-69125046D01*
X84390983Y-69104537D01*
X84390984Y-69104536D01*
X83735327Y-68448880D01*
X83801063Y-68431266D01*
X83913937Y-68366098D01*
X84006098Y-68273937D01*
X84071266Y-68161063D01*
X84088880Y-68095327D01*
X84743123Y-68749571D01*
X84757625Y-68748067D01*
X84826337Y-68760730D01*
X84877295Y-68808532D01*
X84894321Y-68876296D01*
X84890192Y-68903498D01*
X84863793Y-69002020D01*
X84863793Y-69002024D01*
X84844723Y-69219997D01*
X84844723Y-69220002D01*
X84863793Y-69437975D01*
X84863793Y-69437979D01*
X84920422Y-69649322D01*
X84920424Y-69649326D01*
X84920425Y-69649330D01*
X84956469Y-69726626D01*
X85012897Y-69847638D01*
X85012898Y-69847639D01*
X85138402Y-70026877D01*
X85293123Y-70181598D01*
X85472361Y-70307102D01*
X85670670Y-70399575D01*
X85670676Y-70399576D01*
X85670677Y-70399577D01*
X85701364Y-70407799D01*
X85882023Y-70456207D01*
X86064926Y-70472208D01*
X86099998Y-70475277D01*
X86100000Y-70475277D01*
X86100002Y-70475277D01*
X86128254Y-70472805D01*
X86317977Y-70456207D01*
X86529330Y-70399575D01*
X86727639Y-70307102D01*
X86906877Y-70181598D01*
X87061598Y-70026877D01*
X87187102Y-69847639D01*
X87279575Y-69649330D01*
X87314229Y-69520000D01*
X104149610Y-69520000D01*
X104169068Y-69655337D01*
X104169070Y-69655345D01*
X104225867Y-69779714D01*
X104225872Y-69779721D01*
X104315409Y-69883053D01*
X104315413Y-69883057D01*
X104348987Y-69904633D01*
X104430439Y-69956978D01*
X104496036Y-69976239D01*
X104561632Y-69995500D01*
X104561633Y-69995500D01*
X104698367Y-69995500D01*
X104829561Y-69956978D01*
X104944589Y-69883055D01*
X105034130Y-69779718D01*
X105090931Y-69655342D01*
X105110390Y-69520000D01*
X105096829Y-69425679D01*
X118693931Y-69425679D01*
X118713389Y-69561016D01*
X118713391Y-69561024D01*
X118770188Y-69685393D01*
X118770193Y-69685400D01*
X118865540Y-69795437D01*
X118863630Y-69797091D01*
X118894182Y-69844630D01*
X118894182Y-69914500D01*
X118888000Y-69931077D01*
X118843276Y-70029008D01*
X118843276Y-70029010D01*
X118823818Y-70164348D01*
X118843276Y-70299685D01*
X118843278Y-70299693D01*
X118900075Y-70424062D01*
X118900080Y-70424069D01*
X118989617Y-70527401D01*
X118989621Y-70527405D01*
X119036518Y-70557543D01*
X119104647Y-70601326D01*
X119156465Y-70616541D01*
X119235840Y-70639848D01*
X119235841Y-70639848D01*
X119372575Y-70639848D01*
X119503769Y-70601326D01*
X119618797Y-70527403D01*
X119708338Y-70424066D01*
X119765139Y-70299690D01*
X119784598Y-70164348D01*
X119765139Y-70029006D01*
X119763309Y-70025000D01*
X148319610Y-70025000D01*
X148339068Y-70160337D01*
X148339070Y-70160345D01*
X148395867Y-70284714D01*
X148395872Y-70284721D01*
X148485409Y-70388053D01*
X148485413Y-70388057D01*
X148506352Y-70401513D01*
X148600439Y-70461978D01*
X148666036Y-70481239D01*
X148731632Y-70500500D01*
X148731633Y-70500500D01*
X148868367Y-70500500D01*
X148999561Y-70461978D01*
X149096002Y-70400000D01*
X150119610Y-70400000D01*
X150139068Y-70535337D01*
X150139070Y-70535345D01*
X150195867Y-70659714D01*
X150195872Y-70659721D01*
X150285409Y-70763053D01*
X150285413Y-70763057D01*
X150328549Y-70790778D01*
X150400439Y-70836978D01*
X150422927Y-70843581D01*
X150531632Y-70875500D01*
X150531633Y-70875500D01*
X150668367Y-70875500D01*
X150799561Y-70836978D01*
X150914589Y-70763055D01*
X151004130Y-70659718D01*
X151060931Y-70535342D01*
X151080390Y-70400000D01*
X151060931Y-70264658D01*
X151022999Y-70181598D01*
X151004132Y-70140285D01*
X151004127Y-70140278D01*
X150914590Y-70036946D01*
X150914586Y-70036942D01*
X150857101Y-70000000D01*
X162594353Y-70000000D01*
X162614834Y-70142456D01*
X162674622Y-70273371D01*
X162679418Y-70280834D01*
X162676895Y-70282455D01*
X162699683Y-70332355D01*
X162689739Y-70401513D01*
X162678693Y-70418700D01*
X162679418Y-70419166D01*
X162674622Y-70426628D01*
X162614834Y-70557543D01*
X162594353Y-70700000D01*
X162614834Y-70842456D01*
X162669404Y-70961945D01*
X162674623Y-70973373D01*
X162768872Y-71082143D01*
X162889947Y-71159953D01*
X162889950Y-71159954D01*
X162889949Y-71159954D01*
X163028036Y-71200499D01*
X163028038Y-71200500D01*
X163028039Y-71200500D01*
X163171962Y-71200500D01*
X163171962Y-71200499D01*
X163310053Y-71159953D01*
X163431128Y-71082143D01*
X163525377Y-70973373D01*
X163585165Y-70842457D01*
X163605647Y-70700000D01*
X163585165Y-70557543D01*
X163525377Y-70426627D01*
X163525370Y-70426619D01*
X163520582Y-70419167D01*
X163523108Y-70417543D01*
X163500320Y-70367674D01*
X163510248Y-70298513D01*
X163521310Y-70281300D01*
X163520582Y-70280833D01*
X163525368Y-70273382D01*
X163525377Y-70273373D01*
X163541077Y-70238995D01*
X171574499Y-70238995D01*
X171601418Y-70374322D01*
X171601421Y-70374332D01*
X171654221Y-70501804D01*
X171654228Y-70501817D01*
X171730885Y-70616541D01*
X171730888Y-70616545D01*
X171828454Y-70714111D01*
X171828458Y-70714114D01*
X171943182Y-70790771D01*
X171943195Y-70790778D01*
X172054733Y-70836978D01*
X172070672Y-70843580D01*
X172070676Y-70843580D01*
X172070677Y-70843581D01*
X172206004Y-70870500D01*
X172206007Y-70870500D01*
X173443995Y-70870500D01*
X173549566Y-70849500D01*
X173579328Y-70843580D01*
X173706811Y-70790775D01*
X173821542Y-70714114D01*
X173919114Y-70616542D01*
X173995775Y-70501811D01*
X174048580Y-70374328D01*
X174066405Y-70284718D01*
X174075500Y-70238995D01*
X175924499Y-70238995D01*
X175951418Y-70374322D01*
X175951421Y-70374332D01*
X176004221Y-70501804D01*
X176004228Y-70501817D01*
X176080885Y-70616541D01*
X176080888Y-70616545D01*
X176178454Y-70714111D01*
X176178458Y-70714114D01*
X176293182Y-70790771D01*
X176293195Y-70790778D01*
X176404733Y-70836978D01*
X176420672Y-70843580D01*
X176420676Y-70843580D01*
X176420677Y-70843581D01*
X176556004Y-70870500D01*
X176556007Y-70870500D01*
X177493995Y-70870500D01*
X177599566Y-70849500D01*
X177629328Y-70843580D01*
X177756811Y-70790775D01*
X177871542Y-70714114D01*
X177969114Y-70616542D01*
X178045775Y-70501811D01*
X178098580Y-70374328D01*
X178116405Y-70284718D01*
X178125500Y-70238995D01*
X178125500Y-70101004D01*
X178098581Y-69965677D01*
X178098580Y-69965676D01*
X178098580Y-69965672D01*
X178094979Y-69956978D01*
X178045778Y-69838195D01*
X178045771Y-69838182D01*
X177969114Y-69723458D01*
X177969111Y-69723454D01*
X177871545Y-69625888D01*
X177871541Y-69625885D01*
X177756817Y-69549228D01*
X177756804Y-69549221D01*
X177629332Y-69496421D01*
X177629322Y-69496418D01*
X177493995Y-69469500D01*
X177493993Y-69469500D01*
X176556007Y-69469500D01*
X176556005Y-69469500D01*
X176420677Y-69496418D01*
X176420667Y-69496421D01*
X176293195Y-69549221D01*
X176293182Y-69549228D01*
X176178458Y-69625885D01*
X176178454Y-69625888D01*
X176080888Y-69723454D01*
X176080885Y-69723458D01*
X176004228Y-69838182D01*
X176004221Y-69838195D01*
X175951421Y-69965667D01*
X175951418Y-69965677D01*
X175924500Y-70101004D01*
X175924500Y-70101007D01*
X175924500Y-70238993D01*
X175924500Y-70238995D01*
X175924499Y-70238995D01*
X174075500Y-70238995D01*
X174075500Y-70101004D01*
X174048581Y-69965677D01*
X174048580Y-69965676D01*
X174048580Y-69965672D01*
X174044979Y-69956978D01*
X173995778Y-69838195D01*
X173995771Y-69838182D01*
X173919114Y-69723458D01*
X173919111Y-69723454D01*
X173821545Y-69625888D01*
X173821541Y-69625885D01*
X173706817Y-69549228D01*
X173706808Y-69549223D01*
X173587180Y-69499672D01*
X173532777Y-69455831D01*
X173510712Y-69389537D01*
X173527991Y-69321837D01*
X173572631Y-69277725D01*
X173700821Y-69203715D01*
X173808715Y-69095821D01*
X173885008Y-68963678D01*
X173924500Y-68816293D01*
X173924500Y-68663707D01*
X173885008Y-68516322D01*
X173868045Y-68486942D01*
X173808717Y-68384182D01*
X173808712Y-68384176D01*
X173700823Y-68276287D01*
X173700817Y-68276282D01*
X173568681Y-68199993D01*
X173568682Y-68199993D01*
X173556595Y-68196754D01*
X173421293Y-68160500D01*
X173268707Y-68160500D01*
X173133404Y-68196754D01*
X173121318Y-68199993D01*
X172989182Y-68276282D01*
X172989176Y-68276287D01*
X172881287Y-68384176D01*
X172881282Y-68384182D01*
X172804993Y-68516318D01*
X172804992Y-68516322D01*
X172765500Y-68663707D01*
X172765500Y-68816293D01*
X172804825Y-68963053D01*
X172804993Y-68963681D01*
X172881282Y-69095817D01*
X172881284Y-69095819D01*
X172881285Y-69095821D01*
X172989179Y-69203715D01*
X173040775Y-69233504D01*
X173048758Y-69238113D01*
X173096973Y-69288681D01*
X173110195Y-69357288D01*
X173084227Y-69422152D01*
X173027313Y-69462680D01*
X172986757Y-69469500D01*
X172206005Y-69469500D01*
X172070677Y-69496418D01*
X172070667Y-69496421D01*
X171943195Y-69549221D01*
X171943182Y-69549228D01*
X171828458Y-69625885D01*
X171828454Y-69625888D01*
X171730888Y-69723454D01*
X171730885Y-69723458D01*
X171654228Y-69838182D01*
X171654221Y-69838195D01*
X171601421Y-69965667D01*
X171601418Y-69965677D01*
X171574500Y-70101004D01*
X171574500Y-70101007D01*
X171574500Y-70238993D01*
X171574500Y-70238995D01*
X171574499Y-70238995D01*
X163541077Y-70238995D01*
X163585165Y-70142457D01*
X163605647Y-70000000D01*
X163585165Y-69857543D01*
X163525377Y-69726627D01*
X163431128Y-69617857D01*
X163310053Y-69540047D01*
X163310051Y-69540046D01*
X163310049Y-69540045D01*
X163310050Y-69540045D01*
X163171963Y-69499500D01*
X163171961Y-69499500D01*
X163028039Y-69499500D01*
X163028036Y-69499500D01*
X162889949Y-69540045D01*
X162768873Y-69617856D01*
X162674623Y-69726626D01*
X162674622Y-69726628D01*
X162614834Y-69857543D01*
X162594353Y-70000000D01*
X150857101Y-70000000D01*
X150803692Y-69965677D01*
X150799561Y-69963022D01*
X150799560Y-69963021D01*
X150799559Y-69963021D01*
X150668368Y-69924500D01*
X150668367Y-69924500D01*
X150531633Y-69924500D01*
X150531632Y-69924500D01*
X150400440Y-69963021D01*
X150285413Y-70036942D01*
X150285409Y-70036946D01*
X150195872Y-70140278D01*
X150195867Y-70140285D01*
X150139070Y-70264654D01*
X150139068Y-70264662D01*
X150119610Y-70400000D01*
X149096002Y-70400000D01*
X149114589Y-70388055D01*
X149204130Y-70284718D01*
X149205164Y-70282455D01*
X149225012Y-70238993D01*
X149260931Y-70160342D01*
X149280390Y-70025000D01*
X149260931Y-69889658D01*
X149248677Y-69862827D01*
X149204132Y-69765285D01*
X149204127Y-69765278D01*
X149114590Y-69661946D01*
X149114586Y-69661942D01*
X148999559Y-69588021D01*
X148868368Y-69549500D01*
X148868367Y-69549500D01*
X148731633Y-69549500D01*
X148731632Y-69549500D01*
X148600440Y-69588021D01*
X148485413Y-69661942D01*
X148485409Y-69661946D01*
X148395872Y-69765278D01*
X148395867Y-69765285D01*
X148339070Y-69889654D01*
X148339068Y-69889662D01*
X148319610Y-70025000D01*
X119763309Y-70025000D01*
X119749837Y-69995500D01*
X119708340Y-69904633D01*
X119708335Y-69904626D01*
X119612989Y-69794590D01*
X119614898Y-69792935D01*
X119584345Y-69745393D01*
X119584346Y-69675524D01*
X119590524Y-69658959D01*
X119635252Y-69561021D01*
X119654711Y-69425679D01*
X119638726Y-69314500D01*
X146819610Y-69314500D01*
X146839068Y-69449837D01*
X146839070Y-69449845D01*
X146895867Y-69574214D01*
X146895872Y-69574221D01*
X146985409Y-69677553D01*
X146985413Y-69677557D01*
X147045979Y-69716479D01*
X147100439Y-69751478D01*
X147166036Y-69770739D01*
X147231632Y-69790000D01*
X147231633Y-69790000D01*
X147368367Y-69790000D01*
X147499561Y-69751478D01*
X147614589Y-69677555D01*
X147704130Y-69574218D01*
X147760931Y-69449842D01*
X147780390Y-69314500D01*
X147760931Y-69179158D01*
X147736219Y-69125046D01*
X147704132Y-69054785D01*
X147704127Y-69054778D01*
X147614590Y-68951446D01*
X147614586Y-68951442D01*
X147499559Y-68877521D01*
X147368368Y-68839000D01*
X147368367Y-68839000D01*
X147231633Y-68839000D01*
X147231632Y-68839000D01*
X147100440Y-68877521D01*
X146985413Y-68951442D01*
X146985409Y-68951446D01*
X146895872Y-69054778D01*
X146895867Y-69054785D01*
X146839070Y-69179154D01*
X146839068Y-69179162D01*
X146819610Y-69314500D01*
X119638726Y-69314500D01*
X119635252Y-69290337D01*
X119599959Y-69213057D01*
X119578453Y-69165964D01*
X119578448Y-69165957D01*
X119488911Y-69062625D01*
X119488907Y-69062621D01*
X119373880Y-68988700D01*
X119242689Y-68950179D01*
X119242688Y-68950179D01*
X119105954Y-68950179D01*
X119105953Y-68950179D01*
X118974761Y-68988700D01*
X118859734Y-69062621D01*
X118859730Y-69062625D01*
X118770193Y-69165957D01*
X118770188Y-69165964D01*
X118713391Y-69290333D01*
X118713389Y-69290341D01*
X118693931Y-69425679D01*
X105096829Y-69425679D01*
X105090931Y-69384658D01*
X105063914Y-69325500D01*
X105034132Y-69260285D01*
X105034127Y-69260278D01*
X104944590Y-69156946D01*
X104944586Y-69156942D01*
X104829559Y-69083021D01*
X104698368Y-69044500D01*
X104698367Y-69044500D01*
X104561633Y-69044500D01*
X104561632Y-69044500D01*
X104430440Y-69083021D01*
X104315413Y-69156942D01*
X104315409Y-69156946D01*
X104225872Y-69260278D01*
X104225867Y-69260285D01*
X104169070Y-69384654D01*
X104169068Y-69384662D01*
X104149610Y-69520000D01*
X87314229Y-69520000D01*
X87336207Y-69437977D01*
X87355277Y-69220000D01*
X87354669Y-69213055D01*
X87349761Y-69156946D01*
X87336207Y-69002023D01*
X87295472Y-68850000D01*
X101139610Y-68850000D01*
X101159068Y-68985337D01*
X101159070Y-68985345D01*
X101215867Y-69109714D01*
X101215872Y-69109721D01*
X101305409Y-69213053D01*
X101305413Y-69213057D01*
X101365979Y-69251979D01*
X101420439Y-69286978D01*
X101486036Y-69306239D01*
X101551632Y-69325500D01*
X101551633Y-69325500D01*
X101688367Y-69325500D01*
X101819561Y-69286978D01*
X101934589Y-69213055D01*
X102024130Y-69109718D01*
X102030479Y-69095817D01*
X102045637Y-69062624D01*
X102080931Y-68985342D01*
X102100390Y-68850000D01*
X102080931Y-68714658D01*
X102057662Y-68663707D01*
X102024132Y-68590285D01*
X102024127Y-68590278D01*
X101934590Y-68486946D01*
X101934586Y-68486942D01*
X101839343Y-68425735D01*
X101819561Y-68413022D01*
X101819560Y-68413021D01*
X101819559Y-68413021D01*
X101688368Y-68374500D01*
X101688367Y-68374500D01*
X101551633Y-68374500D01*
X101551632Y-68374500D01*
X101420440Y-68413021D01*
X101305413Y-68486942D01*
X101305409Y-68486946D01*
X101215872Y-68590278D01*
X101215867Y-68590285D01*
X101159070Y-68714654D01*
X101159068Y-68714662D01*
X101139610Y-68850000D01*
X87295472Y-68850000D01*
X87279575Y-68790670D01*
X87187102Y-68592362D01*
X87187100Y-68592359D01*
X87187099Y-68592357D01*
X87061599Y-68413124D01*
X86988752Y-68340277D01*
X86906877Y-68258402D01*
X86727639Y-68132898D01*
X86727640Y-68132898D01*
X86727638Y-68132897D01*
X86678535Y-68110000D01*
X116119610Y-68110000D01*
X116139068Y-68245337D01*
X116139070Y-68245345D01*
X116195867Y-68369714D01*
X116195872Y-68369721D01*
X116285409Y-68473053D01*
X116285413Y-68473057D01*
X116345979Y-68511979D01*
X116400439Y-68546978D01*
X116466036Y-68566239D01*
X116531632Y-68585500D01*
X116531633Y-68585500D01*
X116668367Y-68585500D01*
X116799561Y-68546978D01*
X116914589Y-68473055D01*
X116914596Y-68473046D01*
X116918794Y-68469410D01*
X116982349Y-68440384D01*
X117051508Y-68450325D01*
X117081206Y-68469410D01*
X117085406Y-68473050D01*
X117085411Y-68473055D01*
X117200439Y-68546978D01*
X117266036Y-68566239D01*
X117331632Y-68585500D01*
X117331633Y-68585500D01*
X117468367Y-68585500D01*
X117599561Y-68546978D01*
X117714589Y-68473055D01*
X117714596Y-68473046D01*
X117718794Y-68469410D01*
X117782349Y-68440384D01*
X117851508Y-68450325D01*
X117881206Y-68469410D01*
X117885406Y-68473050D01*
X117885411Y-68473055D01*
X118000439Y-68546978D01*
X118066036Y-68566239D01*
X118131632Y-68585500D01*
X118131633Y-68585500D01*
X118268367Y-68585500D01*
X118399561Y-68546978D01*
X118514589Y-68473055D01*
X118556289Y-68424930D01*
X118615064Y-68387157D01*
X118684934Y-68387157D01*
X118743709Y-68424928D01*
X118785411Y-68473055D01*
X118785414Y-68473057D01*
X118785413Y-68473057D01*
X118845979Y-68511979D01*
X118900439Y-68546978D01*
X118966036Y-68566239D01*
X119031632Y-68585500D01*
X119031633Y-68585500D01*
X119168367Y-68585500D01*
X119299561Y-68546978D01*
X119414589Y-68473055D01*
X119504130Y-68369718D01*
X119560931Y-68245342D01*
X119580318Y-68110500D01*
X147419610Y-68110500D01*
X147439068Y-68245837D01*
X147439070Y-68245845D01*
X147495867Y-68370214D01*
X147495872Y-68370221D01*
X147585409Y-68473553D01*
X147585413Y-68473557D01*
X147645979Y-68512479D01*
X147700439Y-68547478D01*
X147766036Y-68566739D01*
X147831632Y-68586000D01*
X147831633Y-68586000D01*
X147968367Y-68586000D01*
X148099561Y-68547478D01*
X148214589Y-68473555D01*
X148304130Y-68370218D01*
X148304359Y-68369718D01*
X148333710Y-68305447D01*
X148360931Y-68245842D01*
X148380390Y-68110500D01*
X148360931Y-67975158D01*
X148348677Y-67948327D01*
X148304132Y-67850785D01*
X148304127Y-67850778D01*
X148214590Y-67747446D01*
X148214586Y-67747442D01*
X148099559Y-67673521D01*
X147968368Y-67635000D01*
X147968367Y-67635000D01*
X147831633Y-67635000D01*
X147831632Y-67635000D01*
X147700440Y-67673521D01*
X147585413Y-67747442D01*
X147585409Y-67747446D01*
X147495872Y-67850778D01*
X147495867Y-67850785D01*
X147439070Y-67975154D01*
X147439068Y-67975162D01*
X147419610Y-68110500D01*
X119580318Y-68110500D01*
X119580390Y-68110000D01*
X119560931Y-67974658D01*
X119540835Y-67930654D01*
X119504132Y-67850285D01*
X119504127Y-67850278D01*
X119414590Y-67746946D01*
X119414586Y-67746942D01*
X119299558Y-67673020D01*
X119238958Y-67655227D01*
X119180179Y-67617453D01*
X119151154Y-67553898D01*
X119161097Y-67484739D01*
X119206852Y-67431935D01*
X119238958Y-67417273D01*
X119280114Y-67405187D01*
X119299558Y-67399479D01*
X119299559Y-67399479D01*
X119329870Y-67380000D01*
X119414589Y-67325555D01*
X119504130Y-67222218D01*
X119560931Y-67097842D01*
X119580390Y-66962500D01*
X119571404Y-66900000D01*
X156519610Y-66900000D01*
X156539068Y-67035337D01*
X156539070Y-67035345D01*
X156595867Y-67159714D01*
X156595870Y-67159718D01*
X156647062Y-67218798D01*
X156676086Y-67282354D01*
X156666142Y-67351513D01*
X156647062Y-67381202D01*
X156595870Y-67440281D01*
X156595867Y-67440285D01*
X156539070Y-67564654D01*
X156539068Y-67564662D01*
X156519610Y-67700000D01*
X156539068Y-67835337D01*
X156539070Y-67835345D01*
X156595867Y-67959714D01*
X156595872Y-67959722D01*
X156690387Y-68068798D01*
X156719412Y-68132353D01*
X156709468Y-68201512D01*
X156690387Y-68231202D01*
X156595872Y-68340277D01*
X156595867Y-68340285D01*
X156539070Y-68464654D01*
X156539068Y-68464662D01*
X156519610Y-68600000D01*
X156539068Y-68735337D01*
X156539070Y-68735345D01*
X156595867Y-68859714D01*
X156595872Y-68859721D01*
X156685409Y-68963053D01*
X156685413Y-68963057D01*
X156720095Y-68985345D01*
X156800439Y-69036978D01*
X156826057Y-69044500D01*
X156931632Y-69075500D01*
X156931633Y-69075500D01*
X157068367Y-69075500D01*
X157199561Y-69036978D01*
X157314589Y-68963055D01*
X157404130Y-68859718D01*
X157460931Y-68735342D01*
X157480390Y-68600000D01*
X157460931Y-68464658D01*
X157437396Y-68413123D01*
X157404132Y-68340285D01*
X157404130Y-68340283D01*
X157404130Y-68340282D01*
X157373946Y-68305447D01*
X170319965Y-68305447D01*
X170337730Y-68440384D01*
X170338026Y-68442628D01*
X170338027Y-68442633D01*
X170390974Y-68570462D01*
X170390975Y-68570464D01*
X170390976Y-68570465D01*
X170475209Y-68680238D01*
X170584982Y-68764471D01*
X170712817Y-68817421D01*
X170835702Y-68833599D01*
X170849999Y-68835482D01*
X170850000Y-68835482D01*
X170850001Y-68835482D01*
X170862947Y-68833777D01*
X170987183Y-68817421D01*
X171115018Y-68764471D01*
X171224791Y-68680238D01*
X171309024Y-68570465D01*
X171361974Y-68442630D01*
X171380035Y-68305447D01*
X171361974Y-68168264D01*
X171320774Y-68068797D01*
X171309025Y-68040432D01*
X171309024Y-68040431D01*
X171309024Y-68040430D01*
X171224791Y-67930656D01*
X171224789Y-67930655D01*
X171224789Y-67930654D01*
X171126847Y-67855500D01*
X171115018Y-67846423D01*
X171115017Y-67846422D01*
X171115015Y-67846421D01*
X170987186Y-67793474D01*
X170987184Y-67793473D01*
X170987183Y-67793473D01*
X170881932Y-67779616D01*
X170850001Y-67775412D01*
X170849999Y-67775412D01*
X170818068Y-67779616D01*
X170712817Y-67793473D01*
X170712816Y-67793473D01*
X170712813Y-67793474D01*
X170584985Y-67846421D01*
X170475209Y-67930656D01*
X170390974Y-68040432D01*
X170338027Y-68168260D01*
X170338026Y-68168263D01*
X170338026Y-68168264D01*
X170319965Y-68305447D01*
X157373946Y-68305447D01*
X157314589Y-68236945D01*
X157314585Y-68236942D01*
X157309612Y-68231203D01*
X157280587Y-68167647D01*
X157290531Y-68098489D01*
X157309612Y-68068797D01*
X157314585Y-68063057D01*
X157314589Y-68063055D01*
X157404130Y-67959718D01*
X157460931Y-67835342D01*
X157480390Y-67700000D01*
X157460931Y-67564658D01*
X157439898Y-67518603D01*
X157404132Y-67440285D01*
X157404130Y-67440283D01*
X157404130Y-67440282D01*
X157352935Y-67381199D01*
X157323912Y-67317648D01*
X157333855Y-67248489D01*
X157352933Y-67218802D01*
X157404130Y-67159718D01*
X157460931Y-67035342D01*
X157480390Y-66900000D01*
X157460931Y-66764658D01*
X157434369Y-66706495D01*
X157432316Y-66702000D01*
X170369610Y-66702000D01*
X170389068Y-66837337D01*
X170389070Y-66837345D01*
X170445867Y-66961714D01*
X170445872Y-66961721D01*
X170535409Y-67065053D01*
X170535413Y-67065057D01*
X170586421Y-67097837D01*
X170650439Y-67138978D01*
X170716036Y-67158239D01*
X170781632Y-67177500D01*
X170781633Y-67177500D01*
X170918367Y-67177500D01*
X171049561Y-67138978D01*
X171164589Y-67065055D01*
X171254130Y-66961718D01*
X171310931Y-66837342D01*
X171330390Y-66702000D01*
X171310931Y-66566658D01*
X171292144Y-66525521D01*
X171254132Y-66442285D01*
X171254127Y-66442278D01*
X171164590Y-66338946D01*
X171164586Y-66338942D01*
X171049559Y-66265021D01*
X170918368Y-66226500D01*
X170918367Y-66226500D01*
X170781633Y-66226500D01*
X170781632Y-66226500D01*
X170650440Y-66265021D01*
X170535413Y-66338942D01*
X170535409Y-66338946D01*
X170445872Y-66442278D01*
X170445867Y-66442285D01*
X170389070Y-66566654D01*
X170389068Y-66566662D01*
X170369610Y-66702000D01*
X157432316Y-66702000D01*
X157404132Y-66640285D01*
X157404127Y-66640278D01*
X157314590Y-66536946D01*
X157314586Y-66536942D01*
X157199559Y-66463021D01*
X157068368Y-66424500D01*
X157068367Y-66424500D01*
X156931633Y-66424500D01*
X156931632Y-66424500D01*
X156800440Y-66463021D01*
X156685413Y-66536942D01*
X156685409Y-66536946D01*
X156595872Y-66640278D01*
X156595867Y-66640285D01*
X156539070Y-66764654D01*
X156539068Y-66764662D01*
X156519610Y-66900000D01*
X119571404Y-66900000D01*
X119560931Y-66827158D01*
X119532386Y-66764654D01*
X119504132Y-66702785D01*
X119504127Y-66702778D01*
X119414590Y-66599446D01*
X119414586Y-66599442D01*
X119299559Y-66525521D01*
X119168368Y-66487000D01*
X119168367Y-66487000D01*
X119031633Y-66487000D01*
X119031632Y-66487000D01*
X118900440Y-66525521D01*
X118785413Y-66599442D01*
X118785409Y-66599446D01*
X118695872Y-66702778D01*
X118695867Y-66702785D01*
X118639070Y-66827154D01*
X118639068Y-66827162D01*
X118619610Y-66962500D01*
X118639068Y-67097837D01*
X118639070Y-67097845D01*
X118695867Y-67222214D01*
X118695872Y-67222221D01*
X118785409Y-67325553D01*
X118785413Y-67325557D01*
X118803134Y-67336945D01*
X118900439Y-67399478D01*
X118927277Y-67407358D01*
X118961042Y-67417273D01*
X119019820Y-67455047D01*
X119048845Y-67518603D01*
X119038901Y-67587761D01*
X118993147Y-67640565D01*
X118961042Y-67655227D01*
X118900440Y-67673021D01*
X118785413Y-67746942D01*
X118785413Y-67746943D01*
X118785411Y-67746944D01*
X118785411Y-67746945D01*
X118760669Y-67775500D01*
X118743713Y-67795068D01*
X118684935Y-67832842D01*
X118615065Y-67832842D01*
X118556287Y-67795068D01*
X118554905Y-67793473D01*
X118514589Y-67746945D01*
X118514586Y-67746943D01*
X118514586Y-67746942D01*
X118399559Y-67673021D01*
X118268368Y-67634500D01*
X118268367Y-67634500D01*
X118131633Y-67634500D01*
X118131632Y-67634500D01*
X118000440Y-67673021D01*
X117885413Y-67746942D01*
X117881201Y-67750593D01*
X117817644Y-67779616D01*
X117748486Y-67769671D01*
X117718799Y-67750593D01*
X117714586Y-67746942D01*
X117599559Y-67673021D01*
X117468368Y-67634500D01*
X117468367Y-67634500D01*
X117331633Y-67634500D01*
X117331632Y-67634500D01*
X117200440Y-67673021D01*
X117085413Y-67746942D01*
X117081201Y-67750593D01*
X117017644Y-67779616D01*
X116948486Y-67769671D01*
X116918799Y-67750593D01*
X116914586Y-67746942D01*
X116799559Y-67673021D01*
X116668368Y-67634500D01*
X116668367Y-67634500D01*
X116531633Y-67634500D01*
X116531632Y-67634500D01*
X116400440Y-67673021D01*
X116285413Y-67746942D01*
X116285409Y-67746946D01*
X116195872Y-67850278D01*
X116195867Y-67850285D01*
X116139070Y-67974654D01*
X116139068Y-67974662D01*
X116119610Y-68110000D01*
X86678535Y-68110000D01*
X86577860Y-68063055D01*
X86529330Y-68040425D01*
X86529326Y-68040424D01*
X86529322Y-68040422D01*
X86317977Y-67983793D01*
X86100002Y-67964723D01*
X86099998Y-67964723D01*
X85980770Y-67975154D01*
X85882023Y-67983793D01*
X85882020Y-67983793D01*
X85670677Y-68040422D01*
X85670668Y-68040426D01*
X85472361Y-68132898D01*
X85472357Y-68132900D01*
X85293124Y-68258400D01*
X85159273Y-68392251D01*
X85097950Y-68425735D01*
X85028258Y-68420751D01*
X84972325Y-68378879D01*
X84947908Y-68313415D01*
X84951387Y-68274127D01*
X84970893Y-68197101D01*
X84970896Y-68197085D01*
X84989712Y-67970006D01*
X84989712Y-67969993D01*
X84970896Y-67742914D01*
X84970894Y-67742906D01*
X84914954Y-67522006D01*
X84852664Y-67380000D01*
X102319610Y-67380000D01*
X102339068Y-67515337D01*
X102339070Y-67515345D01*
X102395867Y-67639714D01*
X102395872Y-67639721D01*
X102485409Y-67743053D01*
X102485413Y-67743057D01*
X102526827Y-67769671D01*
X102600439Y-67816978D01*
X102654467Y-67832842D01*
X102731632Y-67855500D01*
X102731633Y-67855500D01*
X102868367Y-67855500D01*
X102999561Y-67816978D01*
X103114589Y-67743055D01*
X103204130Y-67639718D01*
X103260931Y-67515342D01*
X103274639Y-67420000D01*
X104029610Y-67420000D01*
X104049068Y-67555337D01*
X104049070Y-67555345D01*
X104105867Y-67679714D01*
X104105872Y-67679721D01*
X104195409Y-67783053D01*
X104195413Y-67783057D01*
X104248197Y-67816978D01*
X104310439Y-67856978D01*
X104376036Y-67876239D01*
X104441632Y-67895500D01*
X104441633Y-67895500D01*
X104578367Y-67895500D01*
X104709561Y-67856978D01*
X104824589Y-67783055D01*
X104914130Y-67679718D01*
X104917189Y-67673021D01*
X104932396Y-67639721D01*
X104970931Y-67555342D01*
X104990390Y-67420000D01*
X104973137Y-67300000D01*
X108319610Y-67300000D01*
X108339068Y-67435337D01*
X108339070Y-67435345D01*
X108395867Y-67559714D01*
X108395872Y-67559721D01*
X108485409Y-67663053D01*
X108485413Y-67663057D01*
X108511333Y-67679714D01*
X108600439Y-67736978D01*
X108666036Y-67756239D01*
X108731632Y-67775500D01*
X108731633Y-67775500D01*
X108868367Y-67775500D01*
X108999561Y-67736978D01*
X109114589Y-67663055D01*
X109204130Y-67559718D01*
X109206129Y-67555342D01*
X109222907Y-67518603D01*
X109260931Y-67435342D01*
X109280390Y-67300000D01*
X109260931Y-67164658D01*
X109248677Y-67137827D01*
X109204132Y-67040285D01*
X109204127Y-67040278D01*
X109114590Y-66936946D01*
X109114586Y-66936942D01*
X108999559Y-66863021D01*
X108868368Y-66824500D01*
X108868367Y-66824500D01*
X108731633Y-66824500D01*
X108731632Y-66824500D01*
X108600440Y-66863021D01*
X108485413Y-66936942D01*
X108485409Y-66936946D01*
X108395872Y-67040278D01*
X108395867Y-67040285D01*
X108339070Y-67164654D01*
X108339068Y-67164662D01*
X108319610Y-67300000D01*
X104973137Y-67300000D01*
X104970931Y-67284658D01*
X104952665Y-67244662D01*
X104914132Y-67160285D01*
X104914127Y-67160278D01*
X104824590Y-67056946D01*
X104824586Y-67056942D01*
X104709559Y-66983021D01*
X104578368Y-66944500D01*
X104578367Y-66944500D01*
X104441633Y-66944500D01*
X104441632Y-66944500D01*
X104310440Y-66983021D01*
X104195413Y-67056942D01*
X104195409Y-67056946D01*
X104105872Y-67160278D01*
X104105867Y-67160285D01*
X104049070Y-67284654D01*
X104049068Y-67284662D01*
X104029610Y-67420000D01*
X103274639Y-67420000D01*
X103280390Y-67380000D01*
X103260931Y-67244658D01*
X103248677Y-67217827D01*
X103204132Y-67120285D01*
X103204127Y-67120278D01*
X103114590Y-67016946D01*
X103114586Y-67016942D01*
X103023736Y-66958558D01*
X102999561Y-66943022D01*
X102999560Y-66943021D01*
X102999559Y-66943021D01*
X102868368Y-66904500D01*
X102868367Y-66904500D01*
X102731633Y-66904500D01*
X102731632Y-66904500D01*
X102600440Y-66943021D01*
X102485413Y-67016942D01*
X102485409Y-67016946D01*
X102395872Y-67120278D01*
X102395867Y-67120285D01*
X102339070Y-67244654D01*
X102339068Y-67244662D01*
X102319610Y-67380000D01*
X84852664Y-67380000D01*
X84823421Y-67313333D01*
X84743123Y-67190427D01*
X84088879Y-67844671D01*
X84071266Y-67778937D01*
X84006098Y-67666063D01*
X83913937Y-67573902D01*
X83801063Y-67508734D01*
X83735327Y-67491119D01*
X84390983Y-66835462D01*
X84364626Y-66814948D01*
X84164230Y-66706500D01*
X84164219Y-66706495D01*
X83948701Y-66632507D01*
X83723935Y-66595000D01*
X83496065Y-66595000D01*
X83271298Y-66632507D01*
X83055780Y-66706495D01*
X83055769Y-66706500D01*
X82855366Y-66814952D01*
X82829015Y-66835461D01*
X82829015Y-66835463D01*
X83484672Y-67491119D01*
X83418937Y-67508734D01*
X83306063Y-67573902D01*
X83213902Y-67666063D01*
X83148734Y-67778937D01*
X83131119Y-67844672D01*
X82476874Y-67190427D01*
X82396579Y-67313330D01*
X82305045Y-67522006D01*
X82249105Y-67742906D01*
X82249103Y-67742914D01*
X82230288Y-67969993D01*
X80500500Y-67969993D01*
X80500500Y-65498000D01*
X170369610Y-65498000D01*
X170389068Y-65633337D01*
X170389070Y-65633345D01*
X170445867Y-65757714D01*
X170445872Y-65757721D01*
X170535409Y-65861053D01*
X170535413Y-65861057D01*
X170595979Y-65899979D01*
X170650439Y-65934978D01*
X170716036Y-65954239D01*
X170781632Y-65973500D01*
X170781633Y-65973500D01*
X170918367Y-65973500D01*
X171049561Y-65934978D01*
X171164589Y-65861055D01*
X171254130Y-65757718D01*
X171310931Y-65633342D01*
X171330390Y-65498000D01*
X171310931Y-65362658D01*
X171298677Y-65335827D01*
X171254132Y-65238285D01*
X171254127Y-65238278D01*
X171164590Y-65134946D01*
X171164586Y-65134942D01*
X171073736Y-65076558D01*
X171049561Y-65061022D01*
X171049560Y-65061021D01*
X171049559Y-65061021D01*
X170918368Y-65022500D01*
X170918367Y-65022500D01*
X170781633Y-65022500D01*
X170781632Y-65022500D01*
X170650440Y-65061021D01*
X170535413Y-65134942D01*
X170535409Y-65134946D01*
X170445872Y-65238278D01*
X170445867Y-65238285D01*
X170389070Y-65362654D01*
X170389068Y-65362662D01*
X170369610Y-65498000D01*
X80500500Y-65498000D01*
X80500500Y-63469999D01*
X82529892Y-63469999D01*
X82529892Y-63470000D01*
X82548282Y-63668464D01*
X82548282Y-63668466D01*
X82548283Y-63668469D01*
X82602829Y-63860180D01*
X82602830Y-63860183D01*
X82691670Y-64038598D01*
X82691675Y-64038606D01*
X82811792Y-64197666D01*
X82865359Y-64246498D01*
X82959090Y-64331945D01*
X83128554Y-64436873D01*
X83314414Y-64508876D01*
X83510340Y-64545500D01*
X83510342Y-64545500D01*
X83709658Y-64545500D01*
X83709660Y-64545500D01*
X83905586Y-64508876D01*
X84005936Y-64470000D01*
X100619610Y-64470000D01*
X100639068Y-64605337D01*
X100639070Y-64605345D01*
X100695867Y-64729714D01*
X100695872Y-64729721D01*
X100785409Y-64833053D01*
X100785413Y-64833057D01*
X100845979Y-64871979D01*
X100900439Y-64906978D01*
X100966036Y-64926239D01*
X101031632Y-64945500D01*
X101031633Y-64945500D01*
X101168367Y-64945500D01*
X101299561Y-64906978D01*
X101414589Y-64833055D01*
X101504130Y-64729718D01*
X101560931Y-64605342D01*
X101561699Y-64600000D01*
X145719610Y-64600000D01*
X145739068Y-64735337D01*
X145739070Y-64735345D01*
X145795867Y-64859714D01*
X145795872Y-64859721D01*
X145885409Y-64963053D01*
X145885413Y-64963057D01*
X145945979Y-65001979D01*
X146000439Y-65036978D01*
X146066036Y-65056239D01*
X146131632Y-65075500D01*
X146131633Y-65075500D01*
X146268367Y-65075500D01*
X146399561Y-65036978D01*
X146514589Y-64963055D01*
X146604130Y-64859718D01*
X146660931Y-64735342D01*
X146680390Y-64600000D01*
X156519610Y-64600000D01*
X156539068Y-64735337D01*
X156539070Y-64735345D01*
X156595867Y-64859714D01*
X156595872Y-64859721D01*
X156685409Y-64963053D01*
X156685413Y-64963057D01*
X156745979Y-65001979D01*
X156800439Y-65036978D01*
X156866036Y-65056239D01*
X156931632Y-65075500D01*
X156931633Y-65075500D01*
X157068367Y-65075500D01*
X157199561Y-65036978D01*
X157314589Y-64963055D01*
X157404130Y-64859718D01*
X157460931Y-64735342D01*
X157480390Y-64600000D01*
X157460931Y-64464658D01*
X157448241Y-64436872D01*
X157404132Y-64340285D01*
X157404130Y-64340283D01*
X157404130Y-64340282D01*
X157377936Y-64310052D01*
X157348912Y-64246498D01*
X157358856Y-64177340D01*
X157377934Y-64147652D01*
X157454128Y-64059721D01*
X157454128Y-64059720D01*
X157454130Y-64059718D01*
X157510931Y-63935342D01*
X157530390Y-63800000D01*
X157510931Y-63664658D01*
X157498677Y-63637827D01*
X157454132Y-63540285D01*
X157454127Y-63540278D01*
X157364590Y-63436946D01*
X157364586Y-63436942D01*
X157249559Y-63363021D01*
X157118368Y-63324500D01*
X157118367Y-63324500D01*
X156981633Y-63324500D01*
X156981632Y-63324500D01*
X156850440Y-63363021D01*
X156735413Y-63436942D01*
X156735409Y-63436946D01*
X156645872Y-63540278D01*
X156645867Y-63540285D01*
X156589070Y-63664654D01*
X156589068Y-63664662D01*
X156569610Y-63800000D01*
X156589068Y-63935337D01*
X156589070Y-63935345D01*
X156645867Y-64059714D01*
X156645872Y-64059721D01*
X156672061Y-64089945D01*
X156701086Y-64153500D01*
X156691142Y-64222659D01*
X156672062Y-64252348D01*
X156595872Y-64340277D01*
X156595867Y-64340285D01*
X156539070Y-64464654D01*
X156539068Y-64464662D01*
X156519610Y-64600000D01*
X146680390Y-64600000D01*
X146660931Y-64464658D01*
X146648241Y-64436872D01*
X146604132Y-64340285D01*
X146604127Y-64340278D01*
X146514590Y-64236946D01*
X146514586Y-64236942D01*
X146399559Y-64163021D01*
X146268368Y-64124500D01*
X146268367Y-64124500D01*
X146131633Y-64124500D01*
X146131632Y-64124500D01*
X146000440Y-64163021D01*
X145885413Y-64236942D01*
X145885409Y-64236946D01*
X145795872Y-64340278D01*
X145795867Y-64340285D01*
X145739070Y-64464654D01*
X145739068Y-64464662D01*
X145719610Y-64600000D01*
X101561699Y-64600000D01*
X101580390Y-64470000D01*
X101560931Y-64334658D01*
X101523341Y-64252348D01*
X101504132Y-64210285D01*
X101504127Y-64210278D01*
X101414590Y-64106946D01*
X101414586Y-64106942D01*
X101308247Y-64038604D01*
X101299561Y-64033022D01*
X101299560Y-64033021D01*
X101299559Y-64033021D01*
X101168368Y-63994500D01*
X101168367Y-63994500D01*
X101031633Y-63994500D01*
X101031632Y-63994500D01*
X100900440Y-64033021D01*
X100785413Y-64106942D01*
X100785409Y-64106946D01*
X100695872Y-64210278D01*
X100695867Y-64210285D01*
X100639070Y-64334654D01*
X100639068Y-64334662D01*
X100619610Y-64470000D01*
X84005936Y-64470000D01*
X84091446Y-64436873D01*
X84260910Y-64331945D01*
X84388023Y-64216066D01*
X84408207Y-64197666D01*
X84434345Y-64163055D01*
X84528326Y-64038604D01*
X84617171Y-63860180D01*
X84671717Y-63668469D01*
X84690108Y-63470000D01*
X84671717Y-63271531D01*
X84617171Y-63079820D01*
X84585829Y-63016877D01*
X84528329Y-62901401D01*
X84528324Y-62901393D01*
X84408207Y-62742333D01*
X84260911Y-62608056D01*
X84260910Y-62608055D01*
X84111943Y-62515818D01*
X84091447Y-62503127D01*
X84091445Y-62503126D01*
X83989121Y-62463486D01*
X83905586Y-62431124D01*
X83905582Y-62431123D01*
X83826639Y-62416366D01*
X83709660Y-62394500D01*
X83510340Y-62394500D01*
X83459754Y-62403956D01*
X83314417Y-62431123D01*
X83314415Y-62431123D01*
X83314414Y-62431124D01*
X83262517Y-62451229D01*
X83128554Y-62503126D01*
X83128552Y-62503127D01*
X82959088Y-62608056D01*
X82811792Y-62742333D01*
X82691675Y-62901393D01*
X82691670Y-62901401D01*
X82602830Y-63079816D01*
X82548282Y-63271535D01*
X82529892Y-63469999D01*
X80500500Y-63469999D01*
X80500500Y-62209997D01*
X84844723Y-62209997D01*
X84844723Y-62210002D01*
X84850453Y-62275500D01*
X84863094Y-62419992D01*
X84863793Y-62427975D01*
X84863793Y-62427979D01*
X84920422Y-62639322D01*
X84920424Y-62639326D01*
X84920425Y-62639330D01*
X84965651Y-62736318D01*
X85012897Y-62837638D01*
X85012898Y-62837639D01*
X85138402Y-63016877D01*
X85293123Y-63171598D01*
X85472361Y-63297102D01*
X85670670Y-63389575D01*
X85882023Y-63446207D01*
X86064926Y-63462208D01*
X86099998Y-63465277D01*
X86100000Y-63465277D01*
X86100002Y-63465277D01*
X86128254Y-63462805D01*
X86317977Y-63446207D01*
X86529330Y-63389575D01*
X86727639Y-63297102D01*
X86906877Y-63171598D01*
X87061598Y-63016877D01*
X87187102Y-62837639D01*
X87279575Y-62639330D01*
X87336207Y-62427977D01*
X87355277Y-62210000D01*
X87354921Y-62205934D01*
X87349243Y-62141026D01*
X87336207Y-61992023D01*
X87301315Y-61861804D01*
X87279577Y-61780677D01*
X87279576Y-61780676D01*
X87279575Y-61780670D01*
X87187102Y-61582362D01*
X87187100Y-61582359D01*
X87187099Y-61582357D01*
X87061599Y-61403124D01*
X87021496Y-61363021D01*
X86906877Y-61248402D01*
X86738142Y-61130252D01*
X86727638Y-61122897D01*
X86620300Y-61072845D01*
X86529330Y-61030425D01*
X86529326Y-61030424D01*
X86529322Y-61030422D01*
X86317977Y-60973793D01*
X86100002Y-60954723D01*
X86099998Y-60954723D01*
X85985959Y-60964700D01*
X85882023Y-60973793D01*
X85882020Y-60973793D01*
X85670677Y-61030422D01*
X85670668Y-61030426D01*
X85472361Y-61122898D01*
X85472357Y-61122900D01*
X85293121Y-61248402D01*
X85138402Y-61403121D01*
X85012900Y-61582357D01*
X85012898Y-61582361D01*
X84920426Y-61780668D01*
X84920422Y-61780677D01*
X84863793Y-61992020D01*
X84863793Y-61992024D01*
X84844723Y-62209997D01*
X80500500Y-62209997D01*
X80500500Y-62004427D01*
X80500816Y-61995581D01*
X80501070Y-61992024D01*
X80515130Y-61795436D01*
X80517646Y-61777938D01*
X80559356Y-61586199D01*
X80564333Y-61569248D01*
X80632911Y-61385385D01*
X80640259Y-61369298D01*
X80677796Y-61300553D01*
X80734291Y-61197089D01*
X80743845Y-61182221D01*
X80861448Y-61025123D01*
X80873020Y-61011769D01*
X81011769Y-60873020D01*
X81025123Y-60861448D01*
X81182221Y-60743845D01*
X81197089Y-60734291D01*
X81369298Y-60640258D01*
X81385385Y-60632911D01*
X81569248Y-60564333D01*
X81586199Y-60559356D01*
X81777938Y-60517646D01*
X81795436Y-60515130D01*
X81995582Y-60500816D01*
X82004428Y-60500500D01*
X82065892Y-60500500D01*
X113681987Y-60500500D01*
X113749026Y-60520185D01*
G37*
%TD.AperFunction*%
%TD*%
M02*
