%TF.GenerationSoftware,KiCad,Pcbnew,8.0.6-8.0.6-0~ubuntu22.04.1*%
%TF.CreationDate,2024-11-03T00:35:36+01:00*%
%TF.ProjectId,mini_module_template,6d696e69-5f6d-46f6-9475-6c655f74656d,rev?*%
%TF.SameCoordinates,Original*%
%TF.FileFunction,Copper,L4,Bot*%
%TF.FilePolarity,Positive*%
%FSLAX46Y46*%
G04 Gerber Fmt 4.6, Leading zero omitted, Abs format (unit mm)*
G04 Created by KiCad (PCBNEW 8.0.6-8.0.6-0~ubuntu22.04.1) date 2024-11-03 00:35:36*
%MOMM*%
%LPD*%
G01*
G04 APERTURE LIST*
%TA.AperFunction,ComponentPad*%
%ADD10C,2.100000*%
%TD*%
%TA.AperFunction,ComponentPad*%
%ADD11C,1.750000*%
%TD*%
%TA.AperFunction,ComponentPad*%
%ADD12C,3.600000*%
%TD*%
%TA.AperFunction,ComponentPad*%
%ADD13C,5.000000*%
%TD*%
%TA.AperFunction,ComponentPad*%
%ADD14C,1.400000*%
%TD*%
%TA.AperFunction,ComponentPad*%
%ADD15O,2.100000X1.000000*%
%TD*%
%TA.AperFunction,ComponentPad*%
%ADD16O,1.800000X1.000000*%
%TD*%
%TA.AperFunction,ComponentPad*%
%ADD17R,1.700000X1.700000*%
%TD*%
%TA.AperFunction,ComponentPad*%
%ADD18O,1.700000X1.700000*%
%TD*%
%TA.AperFunction,ViaPad*%
%ADD19C,0.550000*%
%TD*%
%TA.AperFunction,ViaPad*%
%ADD20C,0.600000*%
%TD*%
%TA.AperFunction,ViaPad*%
%ADD21C,0.650000*%
%TD*%
%TA.AperFunction,Conductor*%
%ADD22C,0.254000*%
%TD*%
%TA.AperFunction,Conductor*%
%ADD23C,0.750000*%
%TD*%
%TA.AperFunction,Conductor*%
%ADD24C,6.000000*%
%TD*%
%TA.AperFunction,Conductor*%
%ADD25C,0.200000*%
%TD*%
%TA.AperFunction,Conductor*%
%ADD26C,0.508000*%
%TD*%
G04 APERTURE END LIST*
D10*
%TO.P,SW2,*%
%TO.N,*%
X86100000Y-69220000D03*
X86100000Y-62210000D03*
D11*
%TO.P,SW2,1,1*%
%TO.N,GND*%
X83610000Y-67970000D03*
%TO.P,SW2,2,2*%
%TO.N,/MCU/NRST*%
X83610000Y-63470000D03*
%TD*%
D12*
%TO.P,J3,*%
%TO.N,*%
X91550000Y-74380000D03*
X91550000Y-107700000D03*
D13*
%TO.P,J3,1,H1*%
%TO.N,VCC*%
X91550000Y-84180000D03*
D14*
%TO.P,J3,2,D11*%
%TO.N,+12V*%
X90000000Y-88300000D03*
%TO.P,J3,3,D12*%
%TO.N,/CAN/CANH*%
X90000000Y-91040000D03*
%TO.P,J3,4,D13*%
%TO.N,/CAN/CANL*%
X90000000Y-93780000D03*
%TO.P,J3,5,D21*%
%TO.N,GND*%
X93100000Y-89380000D03*
%TO.P,J3,6,D22*%
%TO.N,/POWER/NC*%
X93100000Y-92410000D03*
D13*
%TO.P,J3,7,H2*%
%TO.N,GND*%
X91550000Y-97900000D03*
%TD*%
D15*
%TO.P,J4,S1,SHIELD*%
%TO.N,Net-(J4-SHIELD)*%
X172825000Y-70170000D03*
D16*
X177025000Y-70170000D03*
D15*
X172825000Y-61530000D03*
D16*
X177025000Y-61530000D03*
%TD*%
D12*
%TO.P,J2,*%
%TO.N,*%
X168450000Y-107700000D03*
X168450000Y-74380000D03*
D13*
%TO.P,J2,1,H1*%
%TO.N,VCC*%
X168450000Y-97900000D03*
D14*
%TO.P,J2,2,D11*%
%TO.N,+12V*%
X170000000Y-93780000D03*
%TO.P,J2,3,D12*%
%TO.N,/CAN/CANH*%
X170000000Y-91040000D03*
%TO.P,J2,4,D13*%
%TO.N,/CAN/CANL*%
X170000000Y-88300000D03*
%TO.P,J2,5,D21*%
%TO.N,GND*%
X166900000Y-92700000D03*
%TO.P,J2,6,D22*%
%TO.N,/POWER/NC*%
X166900000Y-89670000D03*
D13*
%TO.P,J2,7,H2*%
%TO.N,GND*%
X168450000Y-84180000D03*
%TD*%
D17*
%TO.P,J1,1,Pin_1*%
%TO.N,+3V3*%
X124379999Y-62000000D03*
D18*
%TO.P,J1,2,Pin_2*%
%TO.N,/MCU/NRST*%
X121839999Y-62000000D03*
%TO.P,J1,3,Pin_3*%
%TO.N,/MCU/SWDIO*%
X119300000Y-62000000D03*
%TO.P,J1,4,Pin_4*%
%TO.N,/MCU/SWCLK*%
X116759999Y-62000000D03*
%TO.P,J1,5,Pin_5*%
%TO.N,GND*%
X114219999Y-62000000D03*
%TD*%
D19*
%TO.N,/MCU/BOOT0*%
X104630000Y-69520000D03*
X107030000Y-73770000D03*
%TO.N,GND*%
X104000000Y-99250000D03*
X115200000Y-66475000D03*
X100500000Y-84500000D03*
X108692499Y-86567501D03*
X129000000Y-61666500D03*
X109675000Y-87640000D03*
X101800000Y-69800000D03*
X107310000Y-86450000D03*
X103250000Y-99250000D03*
D20*
X162350000Y-63500000D03*
D19*
X136300000Y-64400000D03*
X102250000Y-83750000D03*
X109675000Y-88500000D03*
X126798000Y-72600000D03*
X123947000Y-72093000D03*
X169850000Y-63448000D03*
X133200000Y-67200000D03*
X109675000Y-91910000D03*
D21*
X166250000Y-65850000D03*
D19*
X141900000Y-61900000D03*
X123000000Y-64400000D03*
X106500000Y-101000000D03*
X105750000Y-101000000D03*
X145300000Y-72800000D03*
X98450000Y-71050000D03*
X124650001Y-64800000D03*
D21*
X164675000Y-68700000D03*
D19*
X131200000Y-74800000D03*
X99750000Y-73700000D03*
X167500000Y-68450000D03*
D20*
X164050000Y-61300000D03*
D19*
X106430000Y-74370000D03*
X113700000Y-66475000D03*
X117000000Y-66849999D03*
X104200000Y-100750002D03*
X151000000Y-65000000D03*
X99480000Y-80710000D03*
X104720000Y-83300000D03*
X105750000Y-101750000D03*
D21*
X171050000Y-69250000D03*
D19*
X107940000Y-86450000D03*
X126400000Y-66400000D03*
X136000000Y-75600000D03*
X151200000Y-61600000D03*
X127000000Y-68400000D03*
X107960000Y-84440000D03*
X109675000Y-90770000D03*
D21*
X170450000Y-60850000D03*
X164750001Y-70450000D03*
D19*
X102830000Y-74700000D03*
X148000000Y-61000000D03*
D21*
X158250000Y-67250000D03*
D19*
X124600000Y-65800000D03*
X101750000Y-84500000D03*
X112530000Y-75610000D03*
X102500000Y-99250000D03*
X105750000Y-100250000D03*
X104200000Y-102500000D03*
D20*
X143700000Y-66700000D03*
D19*
X109675000Y-89740000D03*
X101250000Y-83750000D03*
X96500000Y-62390001D03*
X104750000Y-99250000D03*
X106500000Y-101750000D03*
X111082499Y-62712499D03*
X100000000Y-83750000D03*
X106500000Y-100250000D03*
X101150000Y-78500000D03*
X112590000Y-62730000D03*
X111820000Y-62700000D03*
X125200000Y-66400000D03*
X109202499Y-87077501D03*
%TO.N,/MCU/NRST*%
X121904652Y-72295348D03*
X108100000Y-77000000D03*
D21*
%TO.N,+5V*%
X95000000Y-101000000D03*
D19*
X153300000Y-72900000D03*
X155600000Y-72900000D03*
X157050000Y-63800000D03*
X154900000Y-72900000D03*
X154100000Y-72900000D03*
X157000000Y-68600000D03*
X157000000Y-67700000D03*
D21*
X94000000Y-101000000D03*
X94000000Y-101750000D03*
D19*
X157000000Y-64600000D03*
X157000000Y-66900000D03*
X95500000Y-70500000D03*
D21*
X95000000Y-101750000D03*
D19*
X152600000Y-72900000D03*
%TO.N,+3V3*%
X119100000Y-66962500D03*
X101620000Y-68850000D03*
X128600000Y-60937500D03*
X103000000Y-89500000D03*
X106000000Y-88750000D03*
X105250000Y-90250000D03*
X103750000Y-88700000D03*
X104500000Y-90250000D03*
X103000000Y-90250000D03*
X130200000Y-60937500D03*
X131200000Y-61800000D03*
X105250000Y-88750000D03*
X128500000Y-75300000D03*
X103750000Y-89500000D03*
X105250000Y-89500000D03*
X102400000Y-82200000D03*
X103795997Y-90250000D03*
X126080000Y-74800000D03*
X106000000Y-89500000D03*
X101100000Y-64470000D03*
X146200000Y-64600000D03*
X106000000Y-90250000D03*
X116600000Y-68110000D03*
X118200000Y-68110000D03*
X104500000Y-89500000D03*
X103000000Y-88750000D03*
X146500000Y-73700000D03*
X108800000Y-67300000D03*
X129400000Y-60937500D03*
X117400000Y-68110000D03*
X104500000Y-88750000D03*
X119100000Y-68110000D03*
%TO.N,/CAN/CANH*%
X93925000Y-71325000D03*
X97750000Y-76650000D03*
%TO.N,/CAN/CANL*%
X97900000Y-77700000D03*
X96550000Y-76200000D03*
%TO.N,/USB/USB_CONN_D-*%
X170850000Y-65498000D03*
X170850000Y-66702000D03*
%TO.N,/MCU/USR_LED1*%
X103360000Y-77072000D03*
X104510000Y-67420000D03*
%TO.N,/MCU/USR_LED2*%
X103410000Y-77830000D03*
X102800000Y-67380000D03*
%TO.N,VCC*%
X106200000Y-84500000D03*
%TO.N,/MCU/USB_D+*%
X119174321Y-69425679D03*
X148800000Y-70025000D03*
%TO.N,/MCU/USB_D-*%
X150600000Y-70400000D03*
X119304208Y-70164348D03*
%TO.N,/STLINK/USB_D-*%
X147300000Y-69314500D03*
X147900000Y-68110500D03*
D21*
%TO.N,Net-(D1-A)*%
X170850000Y-68305447D03*
X170400000Y-62653000D03*
D20*
X163100000Y-70700000D03*
X163100000Y-70000000D03*
D19*
%TO.N,/STLINK/SWCLK*%
X137600000Y-72000000D03*
X134200000Y-72000000D03*
X134200000Y-72000000D03*
%TD*%
D22*
%TO.N,/MCU/BOOT0*%
X104630000Y-71370000D02*
X107030000Y-73770000D01*
X104630000Y-69520000D02*
X104630000Y-71370000D01*
%TO.N,/MCU/NRST*%
X83610000Y-62232564D02*
X83610000Y-63470000D01*
X121804652Y-72195348D02*
X121904652Y-72295348D01*
X121839999Y-62000000D02*
X120662999Y-60823000D01*
X85019564Y-60823000D02*
X83610000Y-62232564D01*
X112904652Y-72195348D02*
X121804652Y-72195348D01*
X108100000Y-77000000D02*
X112904652Y-72195348D01*
X120662999Y-60823000D02*
X85019564Y-60823000D01*
D23*
%TO.N,+5V*%
X156800000Y-63500000D02*
X113022082Y-63500000D01*
X157000000Y-63700000D02*
X156800000Y-63500000D01*
X94000000Y-101000000D02*
X95000000Y-101000000D01*
D22*
X95500000Y-70000000D02*
X92850000Y-67350000D01*
X92850000Y-67350000D02*
X92850000Y-66950000D01*
D23*
X157000000Y-66900000D02*
X157000000Y-67700000D01*
X110747918Y-63580000D02*
X110717918Y-63550000D01*
X157000000Y-67700000D02*
X157000000Y-68600000D01*
X87250000Y-101750000D02*
X95000000Y-101750000D01*
X112942082Y-63580000D02*
X110747918Y-63580000D01*
X83000000Y-97500000D02*
X87250000Y-101750000D01*
X83000000Y-76800000D02*
X83000000Y-97500000D01*
X113022082Y-63500000D02*
X112942082Y-63580000D01*
D22*
X95500000Y-70500000D02*
X95500000Y-70000000D01*
D23*
X96250000Y-63550000D02*
X92850000Y-66950000D01*
X92850000Y-66950000D02*
X83000000Y-76800000D01*
X95000000Y-101000000D02*
X95000000Y-101750000D01*
X157000000Y-64600000D02*
X157000000Y-63700000D01*
X110717918Y-63550000D02*
X96250000Y-63550000D01*
X95000000Y-101750000D02*
X94000000Y-101750000D01*
X94000000Y-101750000D02*
X94000000Y-101000000D01*
X157000000Y-64600000D02*
X157000000Y-66900000D01*
D22*
%TO.N,/CAN/CANH*%
X100500000Y-79400000D02*
X104000000Y-79400000D01*
X97750000Y-75150000D02*
X97750000Y-76650000D01*
X97750000Y-76650000D02*
X100500000Y-79400000D01*
X175000000Y-88200000D02*
X173400000Y-89800000D01*
X104000000Y-79400000D02*
X112500000Y-70900000D01*
X97750000Y-76650000D02*
X97598000Y-76802000D01*
X175000000Y-74000000D02*
X175000000Y-88200000D01*
X170920000Y-89800000D02*
X170000000Y-90720000D01*
X172700000Y-71700000D02*
X175000000Y-74000000D01*
X85300000Y-91300000D02*
X86146000Y-92146000D01*
X170000000Y-90720000D02*
X170000000Y-91040000D01*
X90000000Y-91200000D02*
X90000000Y-91040000D01*
X89054000Y-92146000D02*
X90000000Y-91200000D01*
X173400000Y-89800000D02*
X170920000Y-89800000D01*
X93925000Y-71325000D02*
X97750000Y-75150000D01*
X85300000Y-84750000D02*
X85300000Y-91300000D01*
X141500000Y-70900000D02*
X142300000Y-71700000D01*
X86146000Y-92146000D02*
X89054000Y-92146000D01*
X142300000Y-71700000D02*
X172700000Y-71700000D01*
X97598000Y-76802000D02*
X93248000Y-76802000D01*
X93248000Y-76802000D02*
X85300000Y-84750000D01*
X112500000Y-70900000D02*
X141500000Y-70900000D01*
%TO.N,/CAN/CANL*%
X112746000Y-71354000D02*
X141254000Y-71354000D01*
X90000000Y-93600000D02*
X90000000Y-93780000D01*
X173200000Y-89300000D02*
X171000000Y-89300000D01*
X141254000Y-71354000D02*
X142054000Y-72154000D01*
X89000000Y-92600000D02*
X90000000Y-93600000D01*
X171000000Y-89300000D02*
X170000000Y-88300000D01*
X100054000Y-79854000D02*
X104246000Y-79854000D01*
X174500000Y-88000000D02*
X173200000Y-89300000D01*
X174500000Y-74142052D02*
X174500000Y-88000000D01*
X85800000Y-92600000D02*
X89000000Y-92600000D01*
X84800000Y-84578974D02*
X84800000Y-91600000D01*
X96550000Y-76200000D02*
X93178974Y-76200000D01*
X93178974Y-76200000D02*
X84800000Y-84578974D01*
X172511948Y-72154000D02*
X174500000Y-74142052D01*
X97900000Y-77700000D02*
X100054000Y-79854000D01*
X142054000Y-72154000D02*
X172511948Y-72154000D01*
X84800000Y-91600000D02*
X85800000Y-92600000D01*
X104246000Y-79854000D02*
X112746000Y-71354000D01*
%TO.N,/USB/USB_CONN_D-*%
X170450000Y-66302000D02*
X170450000Y-65898000D01*
X170450000Y-65898000D02*
X170850000Y-65498000D01*
X170850000Y-66702000D02*
X170450000Y-66302000D01*
%TO.N,/MCU/USR_LED1*%
X101100000Y-72642052D02*
X101100000Y-74812000D01*
X103254000Y-68676000D02*
X103254000Y-70488052D01*
X103254000Y-70488052D02*
X101100000Y-72642052D01*
X101100000Y-74812000D02*
X103360000Y-77072000D01*
X104510000Y-67420000D02*
X103254000Y-68676000D01*
%TO.N,/MCU/USR_LED2*%
X103410000Y-77830000D02*
X102570000Y-77830000D01*
X102570000Y-77830000D02*
X100620000Y-75880000D01*
X102770000Y-70330000D02*
X102770000Y-67410000D01*
X102770000Y-67410000D02*
X102800000Y-67380000D01*
X100620000Y-72480000D02*
X102770000Y-70330000D01*
X100620000Y-75880000D02*
X100620000Y-72480000D01*
D24*
%TO.N,VCC*%
X95085533Y-84180000D02*
X91550000Y-84180000D01*
D22*
X102948000Y-83148000D02*
X92582000Y-83148000D01*
D24*
X99025000Y-104825000D02*
X99025000Y-88119467D01*
X159850000Y-106500000D02*
X100700000Y-106500000D01*
X168450000Y-97900000D02*
X159850000Y-106500000D01*
D22*
X106200000Y-84500000D02*
X104300000Y-84500000D01*
D24*
X100700000Y-106500000D02*
X99025000Y-104825000D01*
X99025000Y-88119467D02*
X95085533Y-84180000D01*
D22*
X92582000Y-83148000D02*
X91550000Y-84180000D01*
X104300000Y-84500000D02*
X102948000Y-83148000D01*
%TO.N,/MCU/SWDIO*%
X119600000Y-62300000D02*
X119300000Y-62000000D01*
X119600000Y-62000000D02*
X119300000Y-62000000D01*
D25*
%TO.N,/MCU/USB_D+*%
X119248642Y-69500000D02*
X142184973Y-69500000D01*
X142709973Y-70025000D02*
X148800000Y-70025000D01*
X142184973Y-69500000D02*
X142709973Y-70025000D01*
X119174321Y-69425679D02*
X119248642Y-69500000D01*
%TO.N,/MCU/USB_D-*%
X142600000Y-70600000D02*
X141900000Y-69900000D01*
X141900000Y-69900000D02*
X119568556Y-69900000D01*
X119568556Y-69900000D02*
X119304208Y-70164348D01*
X150600000Y-70400000D02*
X150400000Y-70600000D01*
X150400000Y-70600000D02*
X142600000Y-70600000D01*
D22*
%TO.N,/MCU/SWCLK*%
X116759999Y-62580001D02*
X116720000Y-62620000D01*
X116759999Y-62000000D02*
X116759999Y-62580001D01*
%TO.N,/STLINK/USB_D-*%
X147300000Y-69314500D02*
X147300000Y-68957250D01*
X147300000Y-68957250D02*
X147900000Y-68357250D01*
X147900000Y-68357250D02*
X147900000Y-68110500D01*
D23*
%TO.N,Net-(J4-SHIELD)*%
X172825000Y-61530000D02*
X177025000Y-61530000D01*
X177025000Y-70170000D02*
X172825000Y-70170000D01*
X177025000Y-61530000D02*
X177025000Y-70170000D01*
%TO.N,Net-(D1-A)*%
X164502207Y-67600000D02*
X170144553Y-67600000D01*
D26*
X170400000Y-62700000D02*
X172000000Y-64300000D01*
X172000000Y-64300000D02*
X172000000Y-67155447D01*
D23*
X163100000Y-70700000D02*
X163100000Y-70000000D01*
X163100000Y-70000000D02*
X163100000Y-69002207D01*
D26*
X170400000Y-62653000D02*
X170400000Y-62700000D01*
X172000000Y-67155447D02*
X170850000Y-68305447D01*
D23*
X170144553Y-67600000D02*
X170850000Y-68305447D01*
X163100000Y-69002207D02*
X164502207Y-67600000D01*
D22*
%TO.N,/STLINK/SWCLK*%
X134200000Y-72000000D02*
X137600000Y-72000000D01*
%TD*%
M02*
