%TF.GenerationSoftware,KiCad,Pcbnew,8.0.6-8.0.6-0~ubuntu22.04.1*%
%TF.CreationDate,2024-11-03T00:35:36+01:00*%
%TF.ProjectId,mini_module_template,6d696e69-5f6d-46f6-9475-6c655f74656d,rev?*%
%TF.SameCoordinates,Original*%
%TF.FileFunction,Copper,L1,Top*%
%TF.FilePolarity,Positive*%
%FSLAX46Y46*%
G04 Gerber Fmt 4.6, Leading zero omitted, Abs format (unit mm)*
G04 Created by KiCad (PCBNEW 8.0.6-8.0.6-0~ubuntu22.04.1) date 2024-11-03 00:35:36*
%MOMM*%
%LPD*%
G01*
G04 APERTURE LIST*
G04 Aperture macros list*
%AMRoundRect*
0 Rectangle with rounded corners*
0 $1 Rounding radius*
0 $2 $3 $4 $5 $6 $7 $8 $9 X,Y pos of 4 corners*
0 Add a 4 corners polygon primitive as box body*
4,1,4,$2,$3,$4,$5,$6,$7,$8,$9,$2,$3,0*
0 Add four circle primitives for the rounded corners*
1,1,$1+$1,$2,$3*
1,1,$1+$1,$4,$5*
1,1,$1+$1,$6,$7*
1,1,$1+$1,$8,$9*
0 Add four rect primitives between the rounded corners*
20,1,$1+$1,$2,$3,$4,$5,0*
20,1,$1+$1,$4,$5,$6,$7,0*
20,1,$1+$1,$6,$7,$8,$9,0*
20,1,$1+$1,$8,$9,$2,$3,0*%
%AMFreePoly0*
4,1,19,0.500000,-0.750000,0.000000,-0.750000,0.000000,-0.744911,-0.071157,-0.744911,-0.207708,-0.704816,-0.327430,-0.627875,-0.420627,-0.520320,-0.479746,-0.390866,-0.500000,-0.250000,-0.500000,0.250000,-0.479746,0.390866,-0.420627,0.520320,-0.327430,0.627875,-0.207708,0.704816,-0.071157,0.744911,0.000000,0.744911,0.000000,0.750000,0.500000,0.750000,0.500000,-0.750000,0.500000,-0.750000,
$1*%
%AMFreePoly1*
4,1,19,0.000000,0.744911,0.071157,0.744911,0.207708,0.704816,0.327430,0.627875,0.420627,0.520320,0.479746,0.390866,0.500000,0.250000,0.500000,-0.250000,0.479746,-0.390866,0.420627,-0.520320,0.327430,-0.627875,0.207708,-0.704816,0.071157,-0.744911,0.000000,-0.744911,0.000000,-0.750000,-0.500000,-0.750000,-0.500000,0.750000,0.000000,0.750000,0.000000,0.744911,0.000000,0.744911,
$1*%
G04 Aperture macros list end*
%TA.AperFunction,SMDPad,CuDef*%
%ADD10RoundRect,0.135000X0.185000X-0.135000X0.185000X0.135000X-0.185000X0.135000X-0.185000X-0.135000X0*%
%TD*%
%TA.AperFunction,SMDPad,CuDef*%
%ADD11R,1.000000X1.000000*%
%TD*%
%TA.AperFunction,SMDPad,CuDef*%
%ADD12RoundRect,0.150000X-0.150000X0.587500X-0.150000X-0.587500X0.150000X-0.587500X0.150000X0.587500X0*%
%TD*%
%TA.AperFunction,SMDPad,CuDef*%
%ADD13RoundRect,0.140000X0.140000X0.170000X-0.140000X0.170000X-0.140000X-0.170000X0.140000X-0.170000X0*%
%TD*%
%TA.AperFunction,SMDPad,CuDef*%
%ADD14RoundRect,0.135000X-0.185000X0.135000X-0.185000X-0.135000X0.185000X-0.135000X0.185000X0.135000X0*%
%TD*%
%TA.AperFunction,SMDPad,CuDef*%
%ADD15RoundRect,0.250000X-1.000000X-0.650000X1.000000X-0.650000X1.000000X0.650000X-1.000000X0.650000X0*%
%TD*%
%TA.AperFunction,SMDPad,CuDef*%
%ADD16R,1.200000X1.400000*%
%TD*%
%TA.AperFunction,SMDPad,CuDef*%
%ADD17RoundRect,0.218750X-0.256250X0.218750X-0.256250X-0.218750X0.256250X-0.218750X0.256250X0.218750X0*%
%TD*%
%TA.AperFunction,SMDPad,CuDef*%
%ADD18RoundRect,0.225000X0.225000X0.250000X-0.225000X0.250000X-0.225000X-0.250000X0.225000X-0.250000X0*%
%TD*%
%TA.AperFunction,SMDPad,CuDef*%
%ADD19RoundRect,0.135000X0.135000X0.185000X-0.135000X0.185000X-0.135000X-0.185000X0.135000X-0.185000X0*%
%TD*%
%TA.AperFunction,SMDPad,CuDef*%
%ADD20RoundRect,0.140000X-0.140000X-0.170000X0.140000X-0.170000X0.140000X0.170000X-0.140000X0.170000X0*%
%TD*%
%TA.AperFunction,SMDPad,CuDef*%
%ADD21RoundRect,0.250000X-0.650000X0.325000X-0.650000X-0.325000X0.650000X-0.325000X0.650000X0.325000X0*%
%TD*%
%TA.AperFunction,SMDPad,CuDef*%
%ADD22RoundRect,0.218750X-0.218750X-0.256250X0.218750X-0.256250X0.218750X0.256250X-0.218750X0.256250X0*%
%TD*%
%TA.AperFunction,SMDPad,CuDef*%
%ADD23RoundRect,0.135000X-0.135000X-0.185000X0.135000X-0.185000X0.135000X0.185000X-0.135000X0.185000X0*%
%TD*%
%TA.AperFunction,SMDPad,CuDef*%
%ADD24RoundRect,0.140000X0.219203X0.021213X0.021213X0.219203X-0.219203X-0.021213X-0.021213X-0.219203X0*%
%TD*%
%TA.AperFunction,SMDPad,CuDef*%
%ADD25RoundRect,0.225000X-0.225000X-0.250000X0.225000X-0.250000X0.225000X0.250000X-0.225000X0.250000X0*%
%TD*%
%TA.AperFunction,SMDPad,CuDef*%
%ADD26RoundRect,0.140000X0.170000X-0.140000X0.170000X0.140000X-0.170000X0.140000X-0.170000X-0.140000X0*%
%TD*%
%TA.AperFunction,SMDPad,CuDef*%
%ADD27RoundRect,0.200000X0.200000X0.275000X-0.200000X0.275000X-0.200000X-0.275000X0.200000X-0.275000X0*%
%TD*%
%TA.AperFunction,SMDPad,CuDef*%
%ADD28RoundRect,0.200000X-0.200000X-0.275000X0.200000X-0.275000X0.200000X0.275000X-0.200000X0.275000X0*%
%TD*%
%TA.AperFunction,SMDPad,CuDef*%
%ADD29RoundRect,0.150000X-0.150000X0.825000X-0.150000X-0.825000X0.150000X-0.825000X0.150000X0.825000X0*%
%TD*%
%TA.AperFunction,SMDPad,CuDef*%
%ADD30RoundRect,0.075000X-0.415425X-0.521491X0.521491X0.415425X0.415425X0.521491X-0.521491X-0.415425X0*%
%TD*%
%TA.AperFunction,SMDPad,CuDef*%
%ADD31RoundRect,0.075000X0.415425X-0.521491X0.521491X-0.415425X-0.415425X0.521491X-0.521491X0.415425X0*%
%TD*%
%TA.AperFunction,SMDPad,CuDef*%
%ADD32RoundRect,0.250000X-0.475000X0.250000X-0.475000X-0.250000X0.475000X-0.250000X0.475000X0.250000X0*%
%TD*%
%TA.AperFunction,SMDPad,CuDef*%
%ADD33RoundRect,0.218750X-0.381250X0.218750X-0.381250X-0.218750X0.381250X-0.218750X0.381250X0.218750X0*%
%TD*%
%TA.AperFunction,SMDPad,CuDef*%
%ADD34RoundRect,0.140000X-0.170000X0.140000X-0.170000X-0.140000X0.170000X-0.140000X0.170000X0.140000X0*%
%TD*%
%TA.AperFunction,SMDPad,CuDef*%
%ADD35FreePoly0,90.000000*%
%TD*%
%TA.AperFunction,SMDPad,CuDef*%
%ADD36FreePoly1,90.000000*%
%TD*%
%TA.AperFunction,ComponentPad*%
%ADD37C,2.100000*%
%TD*%
%TA.AperFunction,ComponentPad*%
%ADD38C,1.750000*%
%TD*%
%TA.AperFunction,ComponentPad*%
%ADD39C,3.600000*%
%TD*%
%TA.AperFunction,ComponentPad*%
%ADD40C,5.000000*%
%TD*%
%TA.AperFunction,ComponentPad*%
%ADD41C,1.400000*%
%TD*%
%TA.AperFunction,SMDPad,CuDef*%
%ADD42RoundRect,0.250000X-0.250000X-0.475000X0.250000X-0.475000X0.250000X0.475000X-0.250000X0.475000X0*%
%TD*%
%TA.AperFunction,SMDPad,CuDef*%
%ADD43RoundRect,0.075000X-0.662500X-0.075000X0.662500X-0.075000X0.662500X0.075000X-0.662500X0.075000X0*%
%TD*%
%TA.AperFunction,SMDPad,CuDef*%
%ADD44RoundRect,0.075000X-0.075000X-0.662500X0.075000X-0.662500X0.075000X0.662500X-0.075000X0.662500X0*%
%TD*%
%TA.AperFunction,SMDPad,CuDef*%
%ADD45RoundRect,0.150000X-0.512500X-0.150000X0.512500X-0.150000X0.512500X0.150000X-0.512500X0.150000X0*%
%TD*%
%TA.AperFunction,SMDPad,CuDef*%
%ADD46RoundRect,0.200000X-0.275000X0.200000X-0.275000X-0.200000X0.275000X-0.200000X0.275000X0.200000X0*%
%TD*%
%TA.AperFunction,SMDPad,CuDef*%
%ADD47R,1.120000X2.160000*%
%TD*%
%TA.AperFunction,SMDPad,CuDef*%
%ADD48RoundRect,0.375000X-0.375000X0.625000X-0.375000X-0.625000X0.375000X-0.625000X0.375000X0.625000X0*%
%TD*%
%TA.AperFunction,SMDPad,CuDef*%
%ADD49RoundRect,0.500000X-1.400000X0.500000X-1.400000X-0.500000X1.400000X-0.500000X1.400000X0.500000X0*%
%TD*%
%TA.AperFunction,SMDPad,CuDef*%
%ADD50RoundRect,0.150000X-0.850000X-0.150000X0.850000X-0.150000X0.850000X0.150000X-0.850000X0.150000X0*%
%TD*%
%TA.AperFunction,SMDPad,CuDef*%
%ADD51RoundRect,0.140000X-0.219203X-0.021213X-0.021213X-0.219203X0.219203X0.021213X0.021213X0.219203X0*%
%TD*%
%TA.AperFunction,SMDPad,CuDef*%
%ADD52R,3.700000X1.100000*%
%TD*%
%TA.AperFunction,SMDPad,CuDef*%
%ADD53R,0.350000X0.850000*%
%TD*%
%TA.AperFunction,SMDPad,CuDef*%
%ADD54R,2.450000X1.650000*%
%TD*%
%TA.AperFunction,SMDPad,CuDef*%
%ADD55R,1.240000X0.600000*%
%TD*%
%TA.AperFunction,SMDPad,CuDef*%
%ADD56R,1.240000X0.300000*%
%TD*%
%TA.AperFunction,ComponentPad*%
%ADD57O,2.100000X1.000000*%
%TD*%
%TA.AperFunction,ComponentPad*%
%ADD58O,1.800000X1.000000*%
%TD*%
%TA.AperFunction,SMDPad,CuDef*%
%ADD59RoundRect,0.140000X0.021213X-0.219203X0.219203X-0.021213X-0.021213X0.219203X-0.219203X0.021213X0*%
%TD*%
%TA.AperFunction,SMDPad,CuDef*%
%ADD60RoundRect,0.250000X0.250000X0.475000X-0.250000X0.475000X-0.250000X-0.475000X0.250000X-0.475000X0*%
%TD*%
%TA.AperFunction,SMDPad,CuDef*%
%ADD61RoundRect,0.225000X-0.250000X0.225000X-0.250000X-0.225000X0.250000X-0.225000X0.250000X0.225000X0*%
%TD*%
%TA.AperFunction,SMDPad,CuDef*%
%ADD62RoundRect,0.140000X-0.021213X0.219203X-0.219203X0.021213X0.021213X-0.219203X0.219203X-0.021213X0*%
%TD*%
%TA.AperFunction,SMDPad,CuDef*%
%ADD63RoundRect,0.200000X0.275000X-0.200000X0.275000X0.200000X-0.275000X0.200000X-0.275000X-0.200000X0*%
%TD*%
%TA.AperFunction,SMDPad,CuDef*%
%ADD64RoundRect,0.250000X0.650000X-0.325000X0.650000X0.325000X-0.650000X0.325000X-0.650000X-0.325000X0*%
%TD*%
%TA.AperFunction,ComponentPad*%
%ADD65R,1.700000X1.700000*%
%TD*%
%TA.AperFunction,ComponentPad*%
%ADD66O,1.700000X1.700000*%
%TD*%
%TA.AperFunction,ViaPad*%
%ADD67C,0.550000*%
%TD*%
%TA.AperFunction,ViaPad*%
%ADD68C,0.600000*%
%TD*%
%TA.AperFunction,ViaPad*%
%ADD69C,0.650000*%
%TD*%
%TA.AperFunction,Conductor*%
%ADD70C,0.254000*%
%TD*%
%TA.AperFunction,Conductor*%
%ADD71C,0.508000*%
%TD*%
%TA.AperFunction,Conductor*%
%ADD72C,1.270000*%
%TD*%
%TA.AperFunction,Conductor*%
%ADD73C,0.750000*%
%TD*%
%TA.AperFunction,Conductor*%
%ADD74C,0.200000*%
%TD*%
%TA.AperFunction,Conductor*%
%ADD75C,1.750000*%
%TD*%
G04 APERTURE END LIST*
D10*
%TO.P,R29,1*%
%TO.N,+3V3*%
X109600000Y-66509998D03*
%TO.P,R29,2*%
%TO.N,Net-(D7-A)*%
X109600000Y-65490000D03*
%TD*%
D11*
%TO.P,TP19,1,1*%
%TO.N,PA5*%
X115300000Y-92200000D03*
%TD*%
D12*
%TO.P,Q1,1,B*%
%TO.N,Net-(Q1-B)*%
X147150000Y-62662500D03*
%TO.P,Q1,2,E*%
%TO.N,Net-(Q1-E)*%
X145250000Y-62662500D03*
%TO.P,Q1,3,C*%
%TO.N,+3V3*%
X146200000Y-64537501D03*
%TD*%
D10*
%TO.P,R2,1*%
%TO.N,+3V3*%
X103606449Y-82569949D03*
%TO.P,R2,2*%
%TO.N,/MCU/NRST*%
X103606449Y-81549951D03*
%TD*%
D11*
%TO.P,TP23,1,1*%
%TO.N,PA9*%
X136000000Y-83000000D03*
%TD*%
D13*
%TO.P,C17,1*%
%TO.N,Net-(U3-NRST)*%
X127760000Y-73600000D03*
%TO.P,C17,2*%
%TO.N,GND*%
X126800000Y-73600000D03*
%TD*%
%TO.P,C35,1*%
%TO.N,+5V*%
X152080000Y-62600000D03*
%TO.P,C35,2*%
%TO.N,GND*%
X151120000Y-62600000D03*
%TD*%
D14*
%TO.P,R38,1*%
%TO.N,GND*%
X99850000Y-74540001D03*
%TO.P,R38,2*%
%TO.N,Net-(IC1-STB)*%
X99850000Y-75559999D03*
%TD*%
D15*
%TO.P,D1,1,K*%
%TO.N,+5V*%
X159400000Y-74000000D03*
%TO.P,D1,2,A*%
%TO.N,Net-(D1-A)*%
X163400000Y-74000000D03*
%TD*%
D10*
%TO.P,R22,1*%
%TO.N,/STLINK/USB_D+*%
X143800000Y-64709999D03*
%TO.P,R22,2*%
%TO.N,Net-(Q1-E)*%
X143800000Y-63690001D03*
%TD*%
D16*
%TO.P,Y4,1,1*%
%TO.N,Net-(U7-XOUT)*%
X164050000Y-63500000D03*
%TO.P,Y4,2,2*%
%TO.N,GND*%
X164050000Y-61300000D03*
%TO.P,Y4,3,3*%
%TO.N,Net-(U7-XIN)*%
X162350000Y-61300000D03*
%TO.P,Y4,4,4*%
%TO.N,GND*%
X162350000Y-63500000D03*
%TD*%
D11*
%TO.P,TP6,1,1*%
%TO.N,PB0*%
X115300000Y-85900000D03*
%TD*%
D17*
%TO.P,D3,1,K*%
%TO.N,GND*%
X102800000Y-62724998D03*
%TO.P,D3,2,A*%
%TO.N,Net-(D3-A)*%
X102800000Y-64300000D03*
%TD*%
D18*
%TO.P,C21,1*%
%TO.N,+5V*%
X98425000Y-89950000D03*
%TO.P,C21,2*%
%TO.N,GND*%
X96875000Y-89950000D03*
%TD*%
D19*
%TO.P,R34,1*%
%TO.N,Net-(R34-Pad1)*%
X164559999Y-66450000D03*
%TO.P,R34,2*%
%TO.N,/USB/USB_PROT_D+*%
X163540001Y-66450000D03*
%TD*%
D14*
%TO.P,R31,1*%
%TO.N,GND*%
X168850000Y-62540001D03*
%TO.P,R31,2*%
%TO.N,Net-(J4-CC2)*%
X168850000Y-63559999D03*
%TD*%
D20*
%TO.P,C36,1*%
%TO.N,+5V*%
X96720000Y-70950000D03*
%TO.P,C36,2*%
%TO.N,GND*%
X97680000Y-70950000D03*
%TD*%
D17*
%TO.P,D8,1,K*%
%TO.N,GND*%
X106200000Y-62724998D03*
%TO.P,D8,2,A*%
%TO.N,Net-(D8-A)*%
X106200000Y-64300000D03*
%TD*%
D21*
%TO.P,C28,1*%
%TO.N,+5V*%
X104200000Y-97800000D03*
%TO.P,C28,2*%
%TO.N,GND*%
X104200000Y-100750002D03*
%TD*%
D22*
%TO.P,D5,1,K*%
%TO.N,Net-(D5-K)*%
X143212499Y-71300000D03*
%TO.P,D5,2,A*%
%TO.N,/STLINK/LED*%
X144787501Y-71300000D03*
%TD*%
D19*
%TO.P,R21,1*%
%TO.N,GND*%
X147359999Y-61062500D03*
%TO.P,R21,2*%
%TO.N,Net-(Q1-B)*%
X146340001Y-61062500D03*
%TD*%
D23*
%TO.P,R32,1*%
%TO.N,GND*%
X168390001Y-68400000D03*
%TO.P,R32,2*%
%TO.N,Net-(J4-CC1)*%
X169409999Y-68400000D03*
%TD*%
D24*
%TO.P,C3,1*%
%TO.N,/MCU/3V3_MCU*%
X106139411Y-80939411D03*
%TO.P,C3,2*%
%TO.N,GND*%
X105460589Y-80260589D03*
%TD*%
D25*
%TO.P,C22,1*%
%TO.N,+3V3*%
X108125000Y-92950000D03*
%TO.P,C22,2*%
%TO.N,GND*%
X109675000Y-92950000D03*
%TD*%
D19*
%TO.P,R12,1*%
%TO.N,GND*%
X134909999Y-63600000D03*
%TO.P,R12,2*%
%TO.N,/STLINK/BOOT*%
X133890001Y-63600000D03*
%TD*%
D26*
%TO.P,C5,1*%
%TO.N,/MCU/3V3_MCU*%
X101430000Y-74100000D03*
%TO.P,C5,2*%
%TO.N,GND*%
X101430000Y-73140000D03*
%TD*%
D10*
%TO.P,R9,1*%
%TO.N,/MCU/USR_LED1*%
X104500000Y-66609999D03*
%TO.P,R9,2*%
%TO.N,Net-(D2-A)*%
X104500000Y-65590001D03*
%TD*%
D11*
%TO.P,TP13,1,1*%
%TO.N,PB14*%
X129700000Y-83000000D03*
%TD*%
D26*
%TO.P,C16,1*%
%TO.N,Net-(U3-VBAT)*%
X128400000Y-72680000D03*
%TO.P,C16,2*%
%TO.N,GND*%
X128400000Y-71720000D03*
%TD*%
D27*
%TO.P,R35,1*%
%TO.N,Net-(J4-SHIELD)*%
X166325000Y-68700000D03*
%TO.P,R35,2*%
%TO.N,GND*%
X164675000Y-68700000D03*
%TD*%
D28*
%TO.P,R17,1*%
%TO.N,Net-(U3-PB12)*%
X140550000Y-74400000D03*
%TO.P,R17,2*%
%TO.N,/STLINK/SWDIO*%
X142200000Y-74400000D03*
%TD*%
D19*
%TO.P,R11,1*%
%TO.N,Net-(U3-NRST)*%
X127779998Y-74700000D03*
%TO.P,R11,2*%
%TO.N,+3V3*%
X126760000Y-74700000D03*
%TD*%
D14*
%TO.P,R25,1*%
%TO.N,+5V*%
X108600000Y-97365002D03*
%TO.P,R25,2*%
%TO.N,Net-(U5-VFB)*%
X108600000Y-98385000D03*
%TD*%
D29*
%TO.P,U2,1,NC*%
%TO.N,unconnected-(U2-NC-Pad1)*%
X101105000Y-61925000D03*
%TO.P,U2,2,NC*%
%TO.N,unconnected-(U2-NC-Pad2)*%
X99835000Y-61925000D03*
%TO.P,U2,3,NC*%
%TO.N,unconnected-(U2-NC-Pad3)*%
X98565000Y-61925000D03*
%TO.P,U2,4,VSS*%
%TO.N,GND*%
X97295000Y-61925000D03*
%TO.P,U2,5,SDA*%
%TO.N,/MCU/SDA*%
X97295000Y-66875000D03*
%TO.P,U2,6,SCL*%
%TO.N,/MCU/SCL*%
X98565000Y-66875000D03*
%TO.P,U2,7,WP*%
%TO.N,Net-(U2-WP)*%
X99835000Y-66875000D03*
%TO.P,U2,8,VDD*%
%TO.N,+3V3*%
X101105000Y-66875000D03*
%TD*%
D30*
%TO.P,U1,1,VBAT*%
%TO.N,/MCU/3V3_MCU*%
X104412124Y-75998788D03*
%TO.P,U1,2,PC13*%
%TO.N,/MCU/USR_LED1*%
X104765678Y-76352342D03*
%TO.P,U1,3,PC14*%
%TO.N,/MCU/USR_LED2*%
X105119231Y-76705895D03*
%TO.P,U1,4,PC15*%
%TO.N,/MCU/USR_BTN*%
X105472785Y-77059449D03*
%TO.P,U1,5,PF0*%
%TO.N,Net-(U1-PF0)*%
X105826338Y-77413002D03*
%TO.P,U1,6,PF1*%
%TO.N,Net-(U1-PF1)*%
X106179891Y-77766555D03*
%TO.P,U1,7,NRST*%
%TO.N,/MCU/NRST*%
X106533445Y-78120109D03*
%TO.P,U1,8,VSSA*%
%TO.N,GND*%
X106886998Y-78473662D03*
%TO.P,U1,9,VDDA*%
%TO.N,/MCU/3V3_MCU*%
X107240551Y-78827215D03*
%TO.P,U1,10,PA0*%
%TO.N,/MCU/V_SENSE*%
X107594105Y-79180769D03*
%TO.P,U1,11,PA1*%
%TO.N,PA1*%
X107947658Y-79534322D03*
%TO.P,U1,12,PA2*%
%TO.N,PA2*%
X108301212Y-79887876D03*
D31*
%TO.P,U1,13,PA3*%
%TO.N,PA3*%
X110298788Y-79887876D03*
%TO.P,U1,14,PA4*%
%TO.N,PA4*%
X110652342Y-79534322D03*
%TO.P,U1,15,PA5*%
%TO.N,PA5*%
X111005895Y-79180769D03*
%TO.P,U1,16,PA6*%
%TO.N,PA6*%
X111359449Y-78827215D03*
%TO.P,U1,17,PA7*%
%TO.N,PA7*%
X111713002Y-78473662D03*
%TO.P,U1,18,PB0*%
%TO.N,PB0*%
X112066555Y-78120109D03*
%TO.P,U1,19,PB1*%
%TO.N,PB1*%
X112420109Y-77766555D03*
%TO.P,U1,20,PB2*%
%TO.N,PB2*%
X112773662Y-77413002D03*
%TO.P,U1,21,PB10*%
%TO.N,PB10*%
X113127215Y-77059449D03*
%TO.P,U1,22,PB11*%
%TO.N,PB11*%
X113480769Y-76705895D03*
%TO.P,U1,23,VSS*%
%TO.N,GND*%
X113834322Y-76352342D03*
%TO.P,U1,24,VDD*%
%TO.N,/MCU/3V3_MCU*%
X114187876Y-75998788D03*
D30*
%TO.P,U1,25,PB12*%
%TO.N,PB12*%
X114187876Y-74001212D03*
%TO.P,U1,26,PB13*%
%TO.N,PB13*%
X113834322Y-73647658D03*
%TO.P,U1,27,PB14*%
%TO.N,PB14*%
X113480769Y-73294105D03*
%TO.P,U1,28,PB15*%
%TO.N,PB15*%
X113127215Y-72940551D03*
%TO.P,U1,29,PA8*%
%TO.N,PA8*%
X112773662Y-72586998D03*
%TO.P,U1,30,PA9*%
%TO.N,PA9*%
X112420109Y-72233445D03*
%TO.P,U1,31,PA10*%
%TO.N,PA10*%
X112066555Y-71879891D03*
%TO.P,U1,32,PA11*%
%TO.N,/MCU/USB_D-*%
X111713002Y-71526338D03*
%TO.P,U1,33,PA12*%
%TO.N,/MCU/USB_D+*%
X111359449Y-71172785D03*
%TO.P,U1,34,PA13*%
%TO.N,/MCU/SWDIO*%
X111005895Y-70819231D03*
%TO.P,U1,35,VSS*%
%TO.N,GND*%
X110652342Y-70465678D03*
%TO.P,U1,36,VDD*%
%TO.N,/MCU/3V3_MCU*%
X110298788Y-70112124D03*
D31*
%TO.P,U1,37,PA14*%
%TO.N,/MCU/SWCLK*%
X108301212Y-70112124D03*
%TO.P,U1,38,PA15*%
%TO.N,unconnected-(U1-PA15-Pad38)*%
X107947658Y-70465678D03*
%TO.P,U1,39,PB3*%
%TO.N,/CAN/TXD_LED*%
X107594105Y-70819231D03*
%TO.P,U1,40,PB4*%
%TO.N,/CAN/RXD_LED*%
X107240551Y-71172785D03*
%TO.P,U1,41,PB5*%
%TO.N,/MCU/BOOT_EN*%
X106886998Y-71526338D03*
%TO.P,U1,42,PB6*%
%TO.N,/MCU/SCL*%
X106533445Y-71879891D03*
%TO.P,U1,43,PB7*%
%TO.N,/MCU/SDA*%
X106179891Y-72233445D03*
%TO.P,U1,44,BOOT0*%
%TO.N,/MCU/BOOT0*%
X105826338Y-72586998D03*
%TO.P,U1,45,PB8*%
%TO.N,/CAN/CAN_RXD*%
X105472785Y-72940551D03*
%TO.P,U1,46,PB9*%
%TO.N,/CAN/CAN_TXD*%
X105119231Y-73294105D03*
%TO.P,U1,47,VSS*%
%TO.N,GND*%
X104765678Y-73647658D03*
%TO.P,U1,48,VDD*%
%TO.N,/MCU/3V3_MCU*%
X104412124Y-74001212D03*
%TD*%
D23*
%TO.P,R20,1*%
%TO.N,/STLINK/USB_RENUM*%
X144340000Y-61062500D03*
%TO.P,R20,2*%
%TO.N,Net-(Q1-B)*%
X145359998Y-61062500D03*
%TD*%
D32*
%TO.P,C8,1*%
%TO.N,/MCU/3V3_MCU*%
X117000000Y-64950001D03*
%TO.P,C8,2*%
%TO.N,GND*%
X117000000Y-66849999D03*
%TD*%
D11*
%TO.P,TP7,1,1*%
%TO.N,PB1*%
X117200000Y-83000000D03*
%TD*%
D33*
%TO.P,FB1,1*%
%TO.N,/MCU/3V3_MCU*%
X119100000Y-64837500D03*
%TO.P,FB1,2*%
%TO.N,+3V3*%
X119100000Y-66962500D03*
%TD*%
D20*
%TO.P,C18,1*%
%TO.N,Net-(U3-PD0)*%
X124317000Y-68393000D03*
%TO.P,C18,2*%
%TO.N,GND*%
X125277000Y-68393000D03*
%TD*%
D11*
%TO.P,TP16,1,1*%
%TO.N,PA2*%
X115300000Y-98500000D03*
%TD*%
D17*
%TO.P,D2,1,K*%
%TO.N,GND*%
X104500000Y-62724998D03*
%TO.P,D2,2,A*%
%TO.N,Net-(D2-A)*%
X104500000Y-64300000D03*
%TD*%
D10*
%TO.P,R10,1*%
%TO.N,/MCU/USR_LED2*%
X102800000Y-66609999D03*
%TO.P,R10,2*%
%TO.N,Net-(D3-A)*%
X102800000Y-65590001D03*
%TD*%
D11*
%TO.P,TP22,1,1*%
%TO.N,PA8*%
X133900000Y-83000000D03*
%TD*%
D34*
%TO.P,C32,1*%
%TO.N,+5V*%
X107500000Y-97395001D03*
%TO.P,C32,2*%
%TO.N,Net-(U5-VBST)*%
X107500000Y-98355001D03*
%TD*%
D11*
%TO.P,TP18,1,1*%
%TO.N,PA4*%
X115300000Y-94300000D03*
%TD*%
D20*
%TO.P,C13,1*%
%TO.N,Net-(U3-VBAT)*%
X131320000Y-63800000D03*
%TO.P,C13,2*%
%TO.N,GND*%
X132280000Y-63800000D03*
%TD*%
D35*
%TO.P,JP3,1,A*%
%TO.N,/MCU/NRST*%
X140000000Y-77800000D03*
D36*
%TO.P,JP3,2,B*%
%TO.N,/STLINK/NRST*%
X140000000Y-76500002D03*
%TD*%
D37*
%TO.P,SW2,*%
%TO.N,*%
X86100000Y-69220000D03*
X86100000Y-62210000D03*
D38*
%TO.P,SW2,1,1*%
%TO.N,GND*%
X83610000Y-67970000D03*
%TO.P,SW2,2,2*%
%TO.N,/MCU/NRST*%
X83610000Y-63470000D03*
%TD*%
D34*
%TO.P,C9,1*%
%TO.N,/MCU/NRST*%
X104700000Y-81540000D03*
%TO.P,C9,2*%
%TO.N,GND*%
X104700000Y-82500000D03*
%TD*%
D14*
%TO.P,R15,1*%
%TO.N,GND*%
X122000000Y-65200000D03*
%TO.P,R15,2*%
%TO.N,Net-(U3-PC14)*%
X122000000Y-66219998D03*
%TD*%
D33*
%TO.P,FB2,1*%
%TO.N,+3V3*%
X127400000Y-60937500D03*
%TO.P,FB2,2*%
%TO.N,Net-(U3-VBAT)*%
X127400000Y-63062500D03*
%TD*%
D14*
%TO.P,R7,1*%
%TO.N,GND*%
X95300000Y-62390001D03*
%TO.P,R7,2*%
%TO.N,Net-(U2-WP)*%
X95300000Y-63409999D03*
%TD*%
%TO.P,R14,1*%
%TO.N,GND*%
X123000000Y-65200000D03*
%TO.P,R14,2*%
%TO.N,Net-(U3-PC13)*%
X123000000Y-66219998D03*
%TD*%
D11*
%TO.P,TP12,1,1*%
%TO.N,PB13*%
X127600000Y-83000000D03*
%TD*%
D19*
%TO.P,R33,1*%
%TO.N,Net-(R33-Pad1)*%
X164559999Y-65250000D03*
%TO.P,R33,2*%
%TO.N,/USB/USB_PROT_D-*%
X163540001Y-65250000D03*
%TD*%
D35*
%TO.P,JP1,1,A*%
%TO.N,/MCU/SWCLK*%
X142600000Y-77699998D03*
D36*
%TO.P,JP1,2,B*%
%TO.N,/STLINK/SWCLK*%
X142600000Y-76400000D03*
%TD*%
D11*
%TO.P,TP2,1,1*%
%TO.N,/STLINK/BOOT*%
X133900000Y-61800000D03*
%TD*%
D26*
%TO.P,C14,1*%
%TO.N,Net-(U3-VBAT)*%
X129000000Y-63280000D03*
%TO.P,C14,2*%
%TO.N,GND*%
X129000000Y-62320000D03*
%TD*%
D39*
%TO.P,J3,*%
%TO.N,*%
X91550000Y-74380000D03*
X91550000Y-107700000D03*
D40*
%TO.P,J3,1,H1*%
%TO.N,VCC*%
X91550000Y-84180000D03*
D41*
%TO.P,J3,2,D11*%
%TO.N,+12V*%
X90000000Y-88300000D03*
%TO.P,J3,3,D12*%
%TO.N,/CAN/CANH*%
X90000000Y-91040000D03*
%TO.P,J3,4,D13*%
%TO.N,/CAN/CANL*%
X90000000Y-93780000D03*
%TO.P,J3,5,D21*%
%TO.N,GND*%
X93100000Y-89380000D03*
%TO.P,J3,6,D22*%
%TO.N,/POWER/NC*%
X93100000Y-92410000D03*
D40*
%TO.P,J3,7,H2*%
%TO.N,GND*%
X91550000Y-97900000D03*
%TD*%
D10*
%TO.P,R16,1*%
%TO.N,GND*%
X130300000Y-74900000D03*
%TO.P,R16,2*%
%TO.N,Net-(U3-PA0)*%
X130300000Y-73880002D03*
%TD*%
D42*
%TO.P,C39,1*%
%TO.N,GND*%
X145050001Y-66700000D03*
%TO.P,C39,2*%
%TO.N,Net-(U7-VDD33)*%
X146949999Y-66700000D03*
%TD*%
D43*
%TO.P,U3,1,VBAT*%
%TO.N,Net-(U3-VBAT)*%
X130787500Y-67212500D03*
%TO.P,U3,2,PC13*%
%TO.N,Net-(U3-PC13)*%
X130787500Y-67712500D03*
%TO.P,U3,3,PC14*%
%TO.N,Net-(U3-PC14)*%
X130787500Y-68212500D03*
%TO.P,U3,4,PC15*%
%TO.N,unconnected-(U3-PC15-Pad4)*%
X130787500Y-68712500D03*
%TO.P,U3,5,PD0*%
%TO.N,Net-(U3-PD0)*%
X130787500Y-69212500D03*
%TO.P,U3,6,PD1*%
%TO.N,Net-(U3-PD1)*%
X130787500Y-69712500D03*
%TO.P,U3,7,NRST*%
%TO.N,Net-(U3-NRST)*%
X130787500Y-70212500D03*
%TO.P,U3,8,VSSA*%
%TO.N,GND*%
X130787500Y-70712500D03*
%TO.P,U3,9,VDDA*%
%TO.N,Net-(U3-VBAT)*%
X130787500Y-71212500D03*
%TO.P,U3,10,PA0*%
%TO.N,Net-(U3-PA0)*%
X130787500Y-71712500D03*
%TO.P,U3,11,PA1*%
%TO.N,unconnected-(U3-PA1-Pad11)*%
X130787500Y-72212500D03*
%TO.P,U3,12,PA2*%
%TO.N,/STLINK/TARGET_TX*%
X130787500Y-72712500D03*
D44*
%TO.P,U3,13,PA3*%
%TO.N,/STLINK/TARGET_RX*%
X132200000Y-74125000D03*
%TO.P,U3,14,PA4*%
%TO.N,unconnected-(U3-PA4-Pad14)*%
X132700000Y-74125000D03*
%TO.P,U3,15,PA5*%
%TO.N,/STLINK/SWCLK*%
X133200000Y-74125000D03*
%TO.P,U3,16,PA6*%
%TO.N,unconnected-(U3-PA6-Pad16)*%
X133700000Y-74125000D03*
%TO.P,U3,17,PA7*%
%TO.N,unconnected-(U3-PA7-Pad17)*%
X134200000Y-74125000D03*
%TO.P,U3,18,PB0*%
%TO.N,/STLINK/NRST*%
X134700000Y-74125000D03*
%TO.P,U3,19,PB1*%
%TO.N,unconnected-(U3-PB1-Pad19)*%
X135200000Y-74125000D03*
%TO.P,U3,20,PB2*%
%TO.N,unconnected-(U3-PB2-Pad20)*%
X135700000Y-74125000D03*
%TO.P,U3,21,PB10*%
%TO.N,unconnected-(U3-PB10-Pad21)*%
X136200000Y-74125000D03*
%TO.P,U3,22,PB11*%
%TO.N,unconnected-(U3-PB11-Pad22)*%
X136700000Y-74125000D03*
%TO.P,U3,23,VSS*%
%TO.N,GND*%
X137200000Y-74125000D03*
%TO.P,U3,24,VDD*%
%TO.N,Net-(U3-VBAT)*%
X137700000Y-74125000D03*
D43*
%TO.P,U3,25,PB12*%
%TO.N,Net-(U3-PB12)*%
X139112500Y-72712500D03*
%TO.P,U3,26,PB13*%
%TO.N,/STLINK/SWCLK*%
X139112500Y-72212500D03*
%TO.P,U3,27,PB14*%
%TO.N,/STLINK/SWDIO*%
X139112500Y-71712500D03*
%TO.P,U3,28,PB15*%
%TO.N,unconnected-(U3-PB15-Pad28)*%
X139112500Y-71212500D03*
%TO.P,U3,29,PA8*%
%TO.N,unconnected-(U3-PA8-Pad29)*%
X139112500Y-70712500D03*
%TO.P,U3,30,PA9*%
%TO.N,/STLINK/LED*%
X139112500Y-70212500D03*
%TO.P,U3,31,PA10*%
%TO.N,/STLINK/SWO*%
X139112500Y-69712500D03*
%TO.P,U3,32,PA11*%
%TO.N,/STLINK/USB_D-*%
X139112500Y-69212500D03*
%TO.P,U3,33,PA12*%
%TO.N,/STLINK/USB_D+*%
X139112500Y-68712500D03*
%TO.P,U3,34,PA13*%
%TO.N,/STLINK/DIO*%
X139112500Y-68212500D03*
%TO.P,U3,35,VSS*%
%TO.N,GND*%
X139112500Y-67712500D03*
%TO.P,U3,36,VDD*%
%TO.N,Net-(U3-VBAT)*%
X139112500Y-67212500D03*
D44*
%TO.P,U3,37,PA14*%
%TO.N,/STLINK/CLK*%
X137700000Y-65800000D03*
%TO.P,U3,38,PA15*%
%TO.N,/STLINK/USB_RENUM*%
X137200000Y-65800000D03*
%TO.P,U3,39,PB3*%
%TO.N,unconnected-(U3-PB3-Pad39)*%
X136700000Y-65800000D03*
%TO.P,U3,40,PB4*%
%TO.N,unconnected-(U3-PB4-Pad40)*%
X136200000Y-65800000D03*
%TO.P,U3,41,PB5*%
%TO.N,unconnected-(U3-PB5-Pad41)*%
X135700000Y-65800000D03*
%TO.P,U3,42,PB6*%
%TO.N,unconnected-(U3-PB6-Pad42)*%
X135200000Y-65800000D03*
%TO.P,U3,43,PB7*%
%TO.N,unconnected-(U3-PB7-Pad43)*%
X134700000Y-65800000D03*
%TO.P,U3,44,BOOT0*%
%TO.N,/STLINK/BOOT*%
X134200000Y-65800000D03*
%TO.P,U3,45,PB8*%
%TO.N,unconnected-(U3-PB8-Pad45)*%
X133700000Y-65800000D03*
%TO.P,U3,46,PB9*%
%TO.N,unconnected-(U3-PB9-Pad46)*%
X133200000Y-65800000D03*
%TO.P,U3,47,VSS*%
%TO.N,GND*%
X132700000Y-65800000D03*
%TO.P,U3,48,VDD*%
%TO.N,Net-(U3-VBAT)*%
X132200000Y-65800000D03*
%TD*%
D11*
%TO.P,TP8,1,1*%
%TO.N,PB2*%
X119200000Y-83000000D03*
%TD*%
D22*
%TO.P,D4,1,K*%
%TO.N,/STLINK/LED*%
X146312499Y-71300000D03*
%TO.P,D4,2,A*%
%TO.N,Net-(D4-A)*%
X147887501Y-71300000D03*
%TD*%
D45*
%TO.P,U6,1,I/O1*%
%TO.N,Net-(R33-Pad1)*%
X166062500Y-64900000D03*
%TO.P,U6,2,GND*%
%TO.N,GND*%
X166062500Y-65850000D03*
%TO.P,U6,3,I/O2*%
%TO.N,Net-(R34-Pad1)*%
X166062500Y-66800000D03*
%TO.P,U6,4,I/O2*%
%TO.N,/USB/USB_CONN_D+*%
X168337500Y-66800000D03*
%TO.P,U6,5,VBUS*%
%TO.N,/USB/V_BUS*%
X168337500Y-65850000D03*
%TO.P,U6,6,I/O1*%
%TO.N,/USB/USB_CONN_D-*%
X168337500Y-64900000D03*
%TD*%
D13*
%TO.P,C34,1*%
%TO.N,+5V*%
X152080000Y-63849999D03*
%TO.P,C34,2*%
%TO.N,GND*%
X151120000Y-63849999D03*
%TD*%
D11*
%TO.P,TP14,1,1*%
%TO.N,PB15*%
X131800000Y-83000000D03*
%TD*%
%TO.P,TP21,1,1*%
%TO.N,PA7*%
X115300000Y-88000000D03*
%TD*%
D34*
%TO.P,C37,1*%
%TO.N,Net-(U3-VBAT)*%
X140900000Y-66320000D03*
%TO.P,C37,2*%
%TO.N,GND*%
X140900000Y-67280000D03*
%TD*%
D14*
%TO.P,R13,1*%
%TO.N,Net-(U3-PA0)*%
X129200000Y-73890001D03*
%TO.P,R13,2*%
%TO.N,+3V3*%
X129200000Y-74909999D03*
%TD*%
D46*
%TO.P,R30,1*%
%TO.N,/MCU/V_SENSE*%
X107950000Y-82775000D03*
%TO.P,R30,2*%
%TO.N,GND*%
X107950000Y-84425000D03*
%TD*%
D42*
%TO.P,C23,1*%
%TO.N,+3V3*%
X108100000Y-90800000D03*
%TO.P,C23,2*%
%TO.N,GND*%
X109999998Y-90800000D03*
%TD*%
D14*
%TO.P,R26,1*%
%TO.N,Net-(U5-VFB)*%
X108600000Y-99365002D03*
%TO.P,R26,2*%
%TO.N,GND*%
X108600000Y-100385000D03*
%TD*%
D11*
%TO.P,TP11,1,1*%
%TO.N,PB12*%
X125500000Y-83000000D03*
%TD*%
D18*
%TO.P,C30,1*%
%TO.N,+5V*%
X98475000Y-88200000D03*
%TO.P,C30,2*%
%TO.N,GND*%
X96925000Y-88200000D03*
%TD*%
D47*
%TO.P,SW4,1*%
%TO.N,Net-(R39-Pad2)*%
X92400000Y-62635000D03*
%TO.P,SW4,2*%
%TO.N,/CAN/CANH*%
X92400000Y-69365000D03*
%TD*%
D11*
%TO.P,TP10,1,1*%
%TO.N,PB11*%
X123400000Y-83000000D03*
%TD*%
D19*
%TO.P,R19,1*%
%TO.N,Net-(D4-A)*%
X147497500Y-72800000D03*
%TO.P,R19,2*%
%TO.N,+3V3*%
X146477502Y-72800000D03*
%TD*%
D48*
%TO.P,U4,1,GND*%
%TO.N,GND*%
X105700000Y-86450000D03*
%TO.P,U4,2,VO*%
%TO.N,+3V3*%
X103400000Y-86450001D03*
D49*
X103400000Y-92749999D03*
D48*
%TO.P,U4,3,VI*%
%TO.N,+5V*%
X101100000Y-86450000D03*
%TD*%
D11*
%TO.P,TP9,1,1*%
%TO.N,PB10*%
X121300000Y-83000000D03*
%TD*%
D23*
%TO.P,R43,1*%
%TO.N,/MCU/USB_D+*%
X151380000Y-71550000D03*
%TO.P,R43,2*%
%TO.N,Net-(U7-DP1)*%
X152400000Y-71550000D03*
%TD*%
%TO.P,R5,1*%
%TO.N,+3V3*%
X97190001Y-68850000D03*
%TO.P,R5,2*%
%TO.N,/MCU/SDA*%
X98209999Y-68850000D03*
%TD*%
D50*
%TO.P,U7,1,DM4*%
%TO.N,unconnected-(U7-DM4-Pad1)*%
X154700000Y-62210000D03*
%TO.P,U7,2,DP4*%
%TO.N,unconnected-(U7-DP4-Pad2)*%
X154700000Y-63480000D03*
%TO.P,U7,3,DM3*%
%TO.N,unconnected-(U7-DM3-Pad3)*%
X154700000Y-64750000D03*
%TO.P,U7,4,DP3*%
%TO.N,unconnected-(U7-DP3-Pad4)*%
X154700000Y-66020000D03*
%TO.P,U7,5,DM2*%
%TO.N,Net-(U7-DM2)*%
X154700000Y-67290000D03*
%TO.P,U7,6,DP2*%
%TO.N,Net-(U7-DP2)*%
X154700000Y-68560000D03*
%TO.P,U7,7,DM1*%
%TO.N,Net-(U7-DM1)*%
X154700000Y-69830000D03*
%TO.P,U7,8,DP1*%
%TO.N,Net-(U7-DP1)*%
X154700000Y-71100000D03*
%TO.P,U7,9,DM*%
%TO.N,/USB/USB_PROT_D-*%
X159700000Y-71100000D03*
%TO.P,U7,10,DP*%
%TO.N,/USB/USB_PROT_D+*%
X159700000Y-69830000D03*
%TO.P,U7,11,VDD5*%
%TO.N,+5V*%
X159700000Y-68560000D03*
%TO.P,U7,12,GND*%
%TO.N,GND*%
X159700000Y-67290000D03*
%TO.P,U7,13,VDD33*%
%TO.N,Net-(U7-VDD33)*%
X159700000Y-66020000D03*
%TO.P,U7,14,VDD18*%
%TO.N,Net-(U7-VDD18)*%
X159700000Y-64750000D03*
%TO.P,U7,15,XOUT*%
%TO.N,Net-(U7-XOUT)*%
X159700000Y-63480000D03*
%TO.P,U7,16,XIN*%
%TO.N,Net-(U7-XIN)*%
X159700000Y-62210000D03*
%TD*%
D16*
%TO.P,Y2,1,1*%
%TO.N,Net-(U3-PD0)*%
X123947000Y-69893000D03*
%TO.P,Y2,2,2*%
%TO.N,GND*%
X123947000Y-72093000D03*
%TO.P,Y2,3,3*%
%TO.N,Net-(U3-PD1)*%
X125647000Y-72093000D03*
%TO.P,Y2,4,4*%
%TO.N,GND*%
X125647000Y-69893000D03*
%TD*%
D19*
%TO.P,R40,1*%
%TO.N,Net-(U7-DM2)*%
X152399999Y-67800000D03*
%TO.P,R40,2*%
%TO.N,/STLINK/USB_D-*%
X151380001Y-67800000D03*
%TD*%
D51*
%TO.P,C2,1*%
%TO.N,/MCU/3V3_MCU*%
X111070589Y-68450589D03*
%TO.P,C2,2*%
%TO.N,GND*%
X111749411Y-69129411D03*
%TD*%
D13*
%TO.P,C15,1*%
%TO.N,Net-(U3-VBAT)*%
X137880000Y-75800000D03*
%TO.P,C15,2*%
%TO.N,GND*%
X136920000Y-75800000D03*
%TD*%
D52*
%TO.P,L1,1,1*%
%TO.N,Net-(U5-SW)*%
X98200000Y-100800000D03*
%TO.P,L1,2,2*%
%TO.N,+5V*%
X98200000Y-97800000D03*
%TD*%
D53*
%TO.P,IC1,1,TXD*%
%TO.N,/CAN/CAN_TXD*%
X98400000Y-72200000D03*
%TO.P,IC1,2,GND*%
%TO.N,GND*%
X97750000Y-72200000D03*
%TO.P,IC1,3,VCC*%
%TO.N,+5V*%
X97100000Y-72200000D03*
%TO.P,IC1,4,RXD*%
%TO.N,/CAN/CAN_RXD*%
X96450000Y-72200000D03*
%TO.P,IC1,5,VIO*%
%TO.N,+3V3*%
X96450000Y-75100000D03*
%TO.P,IC1,6,CANL*%
%TO.N,/CAN/CANL*%
X97100000Y-75100000D03*
%TO.P,IC1,7,CANH*%
%TO.N,/CAN/CANH*%
X97750000Y-75100000D03*
%TO.P,IC1,8,STB*%
%TO.N,Net-(IC1-STB)*%
X98400000Y-75100000D03*
D54*
%TO.P,IC1,9,EP*%
%TO.N,unconnected-(IC1-EP-Pad9)*%
X97425000Y-73650000D03*
%TD*%
D42*
%TO.P,C24,1*%
%TO.N,+3V3*%
X108100000Y-88600000D03*
%TO.P,C24,2*%
%TO.N,GND*%
X109999998Y-88600000D03*
%TD*%
D21*
%TO.P,C29,1*%
%TO.N,+5V*%
X101800000Y-97800000D03*
%TO.P,C29,2*%
%TO.N,GND*%
X101800000Y-100750002D03*
%TD*%
D17*
%TO.P,D9,1,K*%
%TO.N,GND*%
X107900000Y-62724998D03*
%TO.P,D9,2,A*%
%TO.N,Net-(D9-A)*%
X107900000Y-64300000D03*
%TD*%
D32*
%TO.P,C38,1*%
%TO.N,GND*%
X149000000Y-63650001D03*
%TO.P,C38,2*%
%TO.N,Net-(U7-VDD18)*%
X149000000Y-65549999D03*
%TD*%
D23*
%TO.P,R42,1*%
%TO.N,/MCU/USB_D-*%
X151380000Y-70300000D03*
%TO.P,R42,2*%
%TO.N,Net-(U7-DM1)*%
X152400000Y-70300000D03*
%TD*%
D55*
%TO.P,J4,A1,GND*%
%TO.N,GND*%
X172225000Y-69050000D03*
%TO.P,J4,A4,VBUS*%
%TO.N,Net-(D1-A)*%
X172225000Y-68250000D03*
D56*
%TO.P,J4,A5,CC1*%
%TO.N,Net-(J4-CC1)*%
X172225000Y-67100000D03*
%TO.P,J4,A6,D+*%
%TO.N,/USB/USB_CONN_D+*%
X172225000Y-66100000D03*
%TO.P,J4,A7,D-*%
%TO.N,/USB/USB_CONN_D-*%
X172225000Y-65600000D03*
%TO.P,J4,A8,SBU1*%
%TO.N,unconnected-(J4-SBU1-PadA8)*%
X172225000Y-64600000D03*
D55*
%TO.P,J4,A9,VBUS*%
%TO.N,Net-(D1-A)*%
X172225000Y-63450000D03*
%TO.P,J4,A12,GND*%
%TO.N,GND*%
X172225000Y-62650000D03*
%TO.P,J4,B1,GND*%
X172225000Y-62650000D03*
%TO.P,J4,B4,VBUS*%
%TO.N,Net-(D1-A)*%
X172225000Y-63450000D03*
D56*
%TO.P,J4,B5,CC2*%
%TO.N,Net-(J4-CC2)*%
X172225000Y-64100000D03*
%TO.P,J4,B6,D+*%
%TO.N,/USB/USB_CONN_D+*%
X172225000Y-65100000D03*
%TO.P,J4,B7,D-*%
%TO.N,/USB/USB_CONN_D-*%
X172225000Y-66600000D03*
%TO.P,J4,B8,SBU2*%
%TO.N,unconnected-(J4-SBU2-PadB8)*%
X172225000Y-67600000D03*
D55*
%TO.P,J4,B9,VBUS*%
%TO.N,Net-(D1-A)*%
X172225000Y-68250000D03*
%TO.P,J4,B12,GND*%
%TO.N,GND*%
X172225000Y-69050000D03*
D57*
%TO.P,J4,S1,SHIELD*%
%TO.N,Net-(J4-SHIELD)*%
X172825000Y-70170000D03*
D58*
X177025000Y-70170000D03*
D57*
X172825000Y-61530000D03*
D58*
X177025000Y-61530000D03*
%TD*%
D23*
%TO.P,R41,1*%
%TO.N,/STLINK/USB_D+*%
X151380000Y-69050000D03*
%TO.P,R41,2*%
%TO.N,Net-(U7-DP2)*%
X152400000Y-69050000D03*
%TD*%
D11*
%TO.P,TP3,1,1*%
%TO.N,/STLINK/DIO*%
X139200000Y-61900000D03*
%TD*%
D59*
%TO.P,C4,1*%
%TO.N,/MCU/3V3_MCU*%
X102720589Y-75909411D03*
%TO.P,C4,2*%
%TO.N,GND*%
X103399411Y-75230589D03*
%TD*%
D13*
%TO.P,C19,1*%
%TO.N,Net-(U3-PD1)*%
X125257000Y-73643000D03*
%TO.P,C19,2*%
%TO.N,GND*%
X124297000Y-73643000D03*
%TD*%
D60*
%TO.P,C33,1*%
%TO.N,Net-(J4-SHIELD)*%
X166649999Y-70450000D03*
%TO.P,C33,2*%
%TO.N,GND*%
X164750001Y-70450000D03*
%TD*%
D61*
%TO.P,C31,1*%
%TO.N,+5V*%
X106200000Y-97700001D03*
%TO.P,C31,2*%
%TO.N,GND*%
X106200000Y-99250001D03*
%TD*%
%TO.P,C7,1*%
%TO.N,/MCU/3V3_MCU*%
X115200000Y-64925000D03*
%TO.P,C7,2*%
%TO.N,GND*%
X115200000Y-66475000D03*
%TD*%
D62*
%TO.P,C1,1*%
%TO.N,/MCU/3V3_MCU*%
X116339411Y-76660589D03*
%TO.P,C1,2*%
%TO.N,GND*%
X115660589Y-77339411D03*
%TD*%
D19*
%TO.P,R23,1*%
%TO.N,GND*%
X144397500Y-72700000D03*
%TO.P,R23,2*%
%TO.N,Net-(D5-K)*%
X143377502Y-72700000D03*
%TD*%
D39*
%TO.P,J2,*%
%TO.N,*%
X168450000Y-107700000D03*
X168450000Y-74380000D03*
D40*
%TO.P,J2,1,H1*%
%TO.N,VCC*%
X168450000Y-97900000D03*
D41*
%TO.P,J2,2,D11*%
%TO.N,+12V*%
X170000000Y-93780000D03*
%TO.P,J2,3,D12*%
%TO.N,/CAN/CANH*%
X170000000Y-91040000D03*
%TO.P,J2,4,D13*%
%TO.N,/CAN/CANL*%
X170000000Y-88300000D03*
%TO.P,J2,5,D21*%
%TO.N,GND*%
X166900000Y-92700000D03*
%TO.P,J2,6,D22*%
%TO.N,/POWER/NC*%
X166900000Y-89670000D03*
D40*
%TO.P,J2,7,H2*%
%TO.N,GND*%
X168450000Y-84180000D03*
%TD*%
D63*
%TO.P,R39,1*%
%TO.N,/CAN/CANL*%
X89200000Y-66825000D03*
%TO.P,R39,2*%
%TO.N,Net-(R39-Pad2)*%
X89200000Y-65175000D03*
%TD*%
D10*
%TO.P,R36,1*%
%TO.N,/CAN/RXD_LED*%
X106200000Y-66609999D03*
%TO.P,R36,2*%
%TO.N,Net-(D8-A)*%
X106200000Y-65590001D03*
%TD*%
D19*
%TO.P,R24,1*%
%TO.N,Net-(U5-EN)*%
X109759999Y-101500000D03*
%TO.P,R24,2*%
%TO.N,GND*%
X108740001Y-101500000D03*
%TD*%
D45*
%TO.P,U5,1,GND*%
%TO.N,GND*%
X106362500Y-102925001D03*
%TO.P,U5,2,SW*%
%TO.N,Net-(U5-SW)*%
X106362500Y-103875001D03*
%TO.P,U5,3,VIN*%
%TO.N,+12V*%
X106362500Y-104825001D03*
%TO.P,U5,4,VFB*%
%TO.N,Net-(U5-VFB)*%
X108637500Y-104825001D03*
%TO.P,U5,5,EN*%
%TO.N,Net-(U5-EN)*%
X108637500Y-103875001D03*
%TO.P,U5,6,VBST*%
%TO.N,Net-(U5-VBST)*%
X108637500Y-102925001D03*
%TD*%
D19*
%TO.P,R4,1*%
%TO.N,/MCU/BOOT0*%
X103699999Y-69540000D03*
%TO.P,R4,2*%
%TO.N,GND*%
X102680001Y-69540000D03*
%TD*%
D11*
%TO.P,TP20,1,1*%
%TO.N,PA6*%
X115300000Y-90100000D03*
%TD*%
D60*
%TO.P,C20,1*%
%TO.N,+5V*%
X98849999Y-86200000D03*
%TO.P,C20,2*%
%TO.N,GND*%
X96950001Y-86200000D03*
%TD*%
D11*
%TO.P,TP17,1,1*%
%TO.N,PA3*%
X115300000Y-96400000D03*
%TD*%
%TO.P,TP5,1,1*%
%TO.N,GND*%
X141900000Y-61900000D03*
%TD*%
%TO.P,TP24,1,1*%
%TO.N,PA10*%
X138100000Y-83000000D03*
%TD*%
D13*
%TO.P,C11,1*%
%TO.N,GND*%
X100780000Y-76900000D03*
%TO.P,C11,2*%
%TO.N,Net-(U1-PF0)*%
X99820000Y-76900000D03*
%TD*%
D10*
%TO.P,R18,1*%
%TO.N,Net-(Q1-B)*%
X150100000Y-62309999D03*
%TO.P,R18,2*%
%TO.N,+5V*%
X150100000Y-61290001D03*
%TD*%
D35*
%TO.P,JP2,1,A*%
%TO.N,/MCU/SWDIO*%
X145200000Y-77699998D03*
D36*
%TO.P,JP2,2,B*%
%TO.N,/STLINK/SWDIO*%
X145200000Y-76400000D03*
%TD*%
D11*
%TO.P,TP15,1,1*%
%TO.N,PA1*%
X115300000Y-100600000D03*
%TD*%
D16*
%TO.P,Y1,1,1*%
%TO.N,Net-(U1-PF1)*%
X101150000Y-80700000D03*
%TO.P,Y1,2,2*%
%TO.N,GND*%
X101150000Y-78500000D03*
%TO.P,Y1,3,3*%
%TO.N,Net-(U1-PF0)*%
X99450000Y-78500000D03*
%TO.P,Y1,4,4*%
%TO.N,GND*%
X99450000Y-80700000D03*
%TD*%
D64*
%TO.P,C26,1*%
%TO.N,+12V*%
X104200000Y-105450002D03*
%TO.P,C26,2*%
%TO.N,GND*%
X104200000Y-102500000D03*
%TD*%
D17*
%TO.P,D7,1,K*%
%TO.N,GND*%
X109599999Y-62712499D03*
%TO.P,D7,2,A*%
%TO.N,Net-(D7-A)*%
X109599999Y-64287501D03*
%TD*%
D20*
%TO.P,C12,1*%
%TO.N,GND*%
X99820000Y-82300000D03*
%TO.P,C12,2*%
%TO.N,Net-(U1-PF1)*%
X100780000Y-82300000D03*
%TD*%
D60*
%TO.P,C27,1*%
%TO.N,Net-(U3-VBAT)*%
X126549999Y-64800000D03*
%TO.P,C27,2*%
%TO.N,GND*%
X124650001Y-64800000D03*
%TD*%
D64*
%TO.P,C25,1*%
%TO.N,+12V*%
X101800000Y-105450002D03*
%TO.P,C25,2*%
%TO.N,GND*%
X101800000Y-102500000D03*
%TD*%
D11*
%TO.P,TP1,1,1*%
%TO.N,+3V3*%
X131200000Y-61800000D03*
%TD*%
D13*
%TO.P,C10,1*%
%TO.N,/MCU/BOOT0*%
X103670000Y-68440000D03*
%TO.P,C10,2*%
%TO.N,GND*%
X102710000Y-68440000D03*
%TD*%
D10*
%TO.P,R37,1*%
%TO.N,/CAN/TXD_LED*%
X107900000Y-66609999D03*
%TO.P,R37,2*%
%TO.N,Net-(D9-A)*%
X107900000Y-65590001D03*
%TD*%
D19*
%TO.P,R3,1*%
%TO.N,/MCU/BOOT_EN*%
X105670000Y-68430000D03*
%TO.P,R3,2*%
%TO.N,/MCU/BOOT0*%
X104650002Y-68430000D03*
%TD*%
D11*
%TO.P,TP4,1,1*%
%TO.N,/STLINK/CLK*%
X136500000Y-61800000D03*
%TD*%
D65*
%TO.P,J1,1,Pin_1*%
%TO.N,+3V3*%
X124379999Y-62000000D03*
D66*
%TO.P,J1,2,Pin_2*%
%TO.N,/MCU/NRST*%
X121839999Y-62000000D03*
%TO.P,J1,3,Pin_3*%
%TO.N,/MCU/SWDIO*%
X119300000Y-62000000D03*
%TO.P,J1,4,Pin_4*%
%TO.N,/MCU/SWCLK*%
X116759999Y-62000000D03*
%TO.P,J1,5,Pin_5*%
%TO.N,GND*%
X114219999Y-62000000D03*
%TD*%
D61*
%TO.P,C6,1*%
%TO.N,/MCU/3V3_MCU*%
X113700000Y-64925000D03*
%TO.P,C6,2*%
%TO.N,GND*%
X113700000Y-66475000D03*
%TD*%
D19*
%TO.P,R6,1*%
%TO.N,+3V3*%
X100459999Y-68850000D03*
%TO.P,R6,2*%
%TO.N,/MCU/SCL*%
X99440001Y-68850000D03*
%TD*%
D63*
%TO.P,R27,1*%
%TO.N,VCC*%
X106200000Y-84425000D03*
%TO.P,R27,2*%
%TO.N,/MCU/V_SENSE*%
X106200000Y-82775000D03*
%TD*%
D67*
%TO.N,/MCU/BOOT0*%
X104630000Y-69520000D03*
X107030000Y-73770000D03*
%TO.N,GND*%
X104000000Y-99250000D03*
X115200000Y-66475000D03*
X100500000Y-84500000D03*
X108692499Y-86567501D03*
X129000000Y-61666500D03*
X109675000Y-87640000D03*
X101800000Y-69800000D03*
X107310000Y-86450000D03*
X103250000Y-99250000D03*
D68*
X162350000Y-63500000D03*
D67*
X136300000Y-64400000D03*
X102250000Y-83750000D03*
X109675000Y-88500000D03*
X126798000Y-72600000D03*
X123947000Y-72093000D03*
X169850000Y-63448000D03*
X133200000Y-67200000D03*
X109675000Y-91910000D03*
D69*
X166250000Y-65850000D03*
D67*
X141900000Y-61900000D03*
X123000000Y-64400000D03*
X106500000Y-101000000D03*
X105750000Y-101000000D03*
X145300000Y-72800000D03*
X98450000Y-71050000D03*
X124650001Y-64800000D03*
D69*
X164675000Y-68700000D03*
D67*
X131200000Y-74800000D03*
X99750000Y-73700000D03*
X167500000Y-68450000D03*
D68*
X164050000Y-61300000D03*
D67*
X106430000Y-74370000D03*
X113700000Y-66475000D03*
X117000000Y-66849999D03*
X104200000Y-100750002D03*
X151000000Y-65000000D03*
X99480000Y-80710000D03*
X104720000Y-83300000D03*
X105750000Y-101750000D03*
D69*
X171050000Y-69250000D03*
D67*
X107940000Y-86450000D03*
X126400000Y-66400000D03*
X136000000Y-75600000D03*
X151200000Y-61600000D03*
X127000000Y-68400000D03*
X107960000Y-84440000D03*
X109675000Y-90770000D03*
D69*
X170450000Y-60850000D03*
X164750001Y-70450000D03*
D67*
X102830000Y-74700000D03*
X148000000Y-61000000D03*
D69*
X158250000Y-67250000D03*
D67*
X124600000Y-65800000D03*
X101750000Y-84500000D03*
X112530000Y-75610000D03*
X102500000Y-99250000D03*
X105750000Y-100250000D03*
X104200000Y-102500000D03*
D68*
X143700000Y-66700000D03*
D67*
X109675000Y-89740000D03*
X101250000Y-83750000D03*
X96500000Y-62390001D03*
X104750000Y-99250000D03*
X106500000Y-101750000D03*
X111082499Y-62712499D03*
X100000000Y-83750000D03*
X106500000Y-100250000D03*
X101150000Y-78500000D03*
X112590000Y-62730000D03*
X111820000Y-62700000D03*
X125200000Y-66400000D03*
X109202499Y-87077501D03*
%TO.N,/MCU/NRST*%
X121904652Y-72295348D03*
X108100000Y-77000000D03*
D69*
%TO.N,+5V*%
X95000000Y-101000000D03*
D67*
X153300000Y-72900000D03*
X155600000Y-72900000D03*
X157050000Y-63800000D03*
X154900000Y-72900000D03*
X154100000Y-72900000D03*
X157000000Y-68600000D03*
X157000000Y-67700000D03*
D69*
X94000000Y-101000000D03*
X94000000Y-101750000D03*
D67*
X157000000Y-64600000D03*
X157000000Y-66900000D03*
X95500000Y-70500000D03*
D69*
X95000000Y-101750000D03*
D67*
X152600000Y-72900000D03*
%TO.N,+3V3*%
X119100000Y-66962500D03*
X101620000Y-68850000D03*
X128600000Y-60937500D03*
X103000000Y-89500000D03*
X106000000Y-88750000D03*
X105250000Y-90250000D03*
X103750000Y-88700000D03*
X104500000Y-90250000D03*
X103000000Y-90250000D03*
X130200000Y-60937500D03*
X131200000Y-61800000D03*
X105250000Y-88750000D03*
X128500000Y-75300000D03*
X103750000Y-89500000D03*
X105250000Y-89500000D03*
X102400000Y-82200000D03*
X103795997Y-90250000D03*
X126080000Y-74800000D03*
X106000000Y-89500000D03*
X101100000Y-64470000D03*
X146200000Y-64600000D03*
X106000000Y-90250000D03*
X116600000Y-68110000D03*
X118200000Y-68110000D03*
X104500000Y-89500000D03*
X103000000Y-88750000D03*
X146500000Y-73700000D03*
X108800000Y-67300000D03*
X129400000Y-60937500D03*
X117400000Y-68110000D03*
X104500000Y-88750000D03*
X119100000Y-68110000D03*
%TO.N,/CAN/CANH*%
X93925000Y-71325000D03*
X97750000Y-76650000D03*
%TO.N,/CAN/CANL*%
X97900000Y-77700000D03*
X96550000Y-76200000D03*
%TO.N,/USB/USB_CONN_D-*%
X170850000Y-65498000D03*
X170850000Y-66702000D03*
%TO.N,/MCU/USR_LED1*%
X103360000Y-77072000D03*
X104510000Y-67420000D03*
%TO.N,/MCU/USR_LED2*%
X103410000Y-77830000D03*
X102800000Y-67380000D03*
%TO.N,VCC*%
X106200000Y-84500000D03*
%TO.N,/MCU/USB_D+*%
X119174321Y-69425679D03*
X148800000Y-70025000D03*
%TO.N,/MCU/USB_D-*%
X150600000Y-70400000D03*
X119304208Y-70164348D03*
%TO.N,/STLINK/USB_D-*%
X147300000Y-69314500D03*
X147900000Y-68110500D03*
D69*
%TO.N,Net-(D1-A)*%
X170850000Y-68305447D03*
X170400000Y-62653000D03*
D68*
X163100000Y-70700000D03*
X163100000Y-70000000D03*
D67*
%TO.N,/STLINK/SWCLK*%
X137600000Y-72000000D03*
X134200000Y-72000000D03*
X134200000Y-72000000D03*
%TD*%
D70*
%TO.N,/MCU/BOOT0*%
X103699999Y-69540000D02*
X103699999Y-68469999D01*
X103670000Y-68440000D02*
X104640002Y-68440000D01*
X107030000Y-73770000D02*
X107009340Y-73770000D01*
X103699999Y-68469999D02*
X103670000Y-68440000D01*
X104640002Y-68440000D02*
X104650002Y-68430000D01*
X104650002Y-68430000D02*
X104650002Y-69499998D01*
X104650002Y-69499998D02*
X104630000Y-69520000D01*
X107009340Y-73770000D02*
X105826338Y-72586998D01*
D71*
%TO.N,GND*%
X151120000Y-61680000D02*
X151120000Y-62600000D01*
D70*
X145200000Y-72700000D02*
X145300000Y-72800000D01*
X115660589Y-77349411D02*
X115660589Y-77339411D01*
X108600000Y-101359999D02*
X108600000Y-100385000D01*
X106430000Y-74370000D02*
X105488020Y-74370000D01*
D71*
X164675000Y-68700000D02*
X164675000Y-69350000D01*
D70*
X128929552Y-70712500D02*
X130787500Y-70712500D01*
X123000000Y-65200000D02*
X122000000Y-65200000D01*
X107950000Y-84425000D02*
X107950000Y-84430000D01*
X127000000Y-68400000D02*
X125284000Y-68400000D01*
D72*
X109202499Y-87077501D02*
X109675000Y-87550002D01*
D73*
X112380000Y-62670000D02*
X112337501Y-62712499D01*
D70*
X100780000Y-78130000D02*
X101150000Y-78500000D01*
D71*
X124650001Y-65749999D02*
X124650001Y-64800000D01*
D70*
X124297000Y-72443000D02*
X123947000Y-72093000D01*
D71*
X151120000Y-63849999D02*
X151120000Y-64880000D01*
D70*
X104765678Y-73647658D02*
X104194271Y-73076251D01*
X137200000Y-74125000D02*
X137200000Y-75520000D01*
X131100000Y-74900000D02*
X131200000Y-74800000D01*
X128400000Y-71720000D02*
X128400000Y-71242052D01*
X129000000Y-62320000D02*
X129000000Y-61666500D01*
X99450000Y-80700000D02*
X99470000Y-80700000D01*
X111749411Y-69129411D02*
X111749411Y-69368609D01*
X126798000Y-72600000D02*
X126798000Y-73598000D01*
X108740001Y-101500000D02*
X108600000Y-101359999D01*
D72*
X109675000Y-87640000D02*
X109675000Y-88500000D01*
D70*
X130300000Y-74900000D02*
X131100000Y-74900000D01*
X107950000Y-84430000D02*
X107960000Y-84440000D01*
X95300000Y-62390001D02*
X96829999Y-62390001D01*
X137200000Y-75520000D02*
X136920000Y-75800000D01*
X140900000Y-67280000D02*
X140467500Y-67712500D01*
X99750000Y-73700000D02*
X99750000Y-74440001D01*
D71*
X164750001Y-69425001D02*
X164750001Y-70450000D01*
D70*
X99820000Y-81050000D02*
X99480000Y-80710000D01*
D73*
X112590000Y-62730000D02*
X112530000Y-62670000D01*
D72*
X109675000Y-87550002D02*
X109675000Y-87640000D01*
D70*
X132700000Y-65800000D02*
X132700000Y-66700000D01*
X147937500Y-61062500D02*
X148000000Y-61000000D01*
X102680001Y-69540000D02*
X102060000Y-69540000D01*
X102060000Y-69540000D02*
X101800000Y-69800000D01*
D72*
X109675000Y-88500000D02*
X109675000Y-89740000D01*
D73*
X116740001Y-66590000D02*
X113815000Y-66590000D01*
D70*
X115660589Y-77339411D02*
X114821391Y-77339411D01*
X166062500Y-65850000D02*
X166250000Y-65850000D01*
X103360589Y-75230589D02*
X102830000Y-74700000D01*
D71*
X151120000Y-62600000D02*
X151120000Y-63849999D01*
D70*
X125647000Y-68763000D02*
X125277000Y-68393000D01*
D71*
X151200000Y-61600000D02*
X151120000Y-61680000D01*
D70*
X147359999Y-61062500D02*
X147937500Y-61062500D01*
X113834322Y-76352342D02*
X113091980Y-75610000D01*
D73*
X102800000Y-62712499D02*
X109599999Y-62712499D01*
D71*
X145050001Y-66700000D02*
X143700000Y-66700000D01*
D72*
X109675000Y-91910000D02*
X109675000Y-92950000D01*
D70*
X99750000Y-74440001D02*
X99850000Y-74540001D01*
X114821391Y-77339411D02*
X113834322Y-76352342D01*
X135500000Y-63600000D02*
X134909999Y-63600000D01*
X132700000Y-66700000D02*
X133200000Y-67200000D01*
X104700000Y-83280000D02*
X104720000Y-83300000D01*
D71*
X158290000Y-67290000D02*
X158250000Y-67250000D01*
X170450000Y-61054160D02*
X172045840Y-62650000D01*
D72*
X109675000Y-90770000D02*
X109675000Y-91910000D01*
D70*
X136300000Y-64400000D02*
X135500000Y-63600000D01*
X99820000Y-82300000D02*
X99820000Y-81050000D01*
D71*
X125200000Y-66400000D02*
X126400000Y-66400000D01*
D70*
X168942001Y-62540001D02*
X169850000Y-63448000D01*
X97680000Y-70950000D02*
X97680000Y-72130000D01*
X102680001Y-69540000D02*
X102680001Y-68469999D01*
X123000000Y-65200000D02*
X123000000Y-64400000D01*
D72*
X107940000Y-86450000D02*
X108574998Y-86450000D01*
D71*
X149650001Y-63650001D02*
X151000000Y-65000000D01*
D73*
X112530000Y-62670000D02*
X112380000Y-62670000D01*
D71*
X170450000Y-60850000D02*
X170450000Y-61054160D01*
X151120000Y-64880000D02*
X151000000Y-65000000D01*
D70*
X136720000Y-75600000D02*
X136920000Y-75800000D01*
X105488020Y-74370000D02*
X104765678Y-73647658D01*
X105560589Y-79760589D02*
X105460589Y-79860589D01*
D73*
X117000000Y-66849999D02*
X116740001Y-66590000D01*
D70*
X99470000Y-80700000D02*
X99480000Y-80710000D01*
D72*
X108574998Y-86450000D02*
X108692499Y-86567501D01*
D70*
X103399411Y-75230589D02*
X103360589Y-75230589D01*
X111749411Y-69368609D02*
X110652342Y-70465678D01*
X104700000Y-82500000D02*
X104700000Y-83280000D01*
X168340001Y-68450000D02*
X167500000Y-68450000D01*
D71*
X172225000Y-69050000D02*
X171250000Y-69050000D01*
D70*
X136000000Y-75600000D02*
X136720000Y-75600000D01*
D72*
X109675000Y-89740000D02*
X109675000Y-90770000D01*
D70*
X105650589Y-79710071D02*
X106886998Y-78473662D01*
X126798000Y-73598000D02*
X126800000Y-73600000D01*
X101493749Y-73076251D02*
X101430000Y-73140000D01*
X144397500Y-72700000D02*
X145200000Y-72700000D01*
D71*
X149000000Y-63650001D02*
X149650001Y-63650001D01*
X124600000Y-65800000D02*
X124650001Y-65749999D01*
D70*
X100780000Y-76900000D02*
X100780000Y-78130000D01*
X105460589Y-79860589D02*
X105460589Y-80260589D01*
D71*
X164675000Y-69350000D02*
X164750001Y-69425001D01*
D70*
X168850000Y-62540001D02*
X168942001Y-62540001D01*
X113091980Y-75610000D02*
X112530000Y-75610000D01*
D73*
X111082499Y-62712499D02*
X109599999Y-62712499D01*
D70*
X128400000Y-71242052D02*
X128929552Y-70712500D01*
X124297000Y-73643000D02*
X124297000Y-72443000D01*
X104194271Y-73076251D02*
X101493749Y-73076251D01*
X96829999Y-62390001D02*
X97295000Y-61925000D01*
X102680001Y-68469999D02*
X102710000Y-68440000D01*
D72*
X108692499Y-86567501D02*
X109202499Y-87077501D01*
X105700000Y-86450000D02*
X107310000Y-86450000D01*
D70*
X132280000Y-63800000D02*
X132700000Y-64220000D01*
D73*
X112337501Y-62712499D02*
X109599999Y-62712499D01*
D71*
X171250000Y-69050000D02*
X171050000Y-69250000D01*
X125200000Y-66400000D02*
X124600000Y-65800000D01*
D70*
X140467500Y-67712500D02*
X139112500Y-67712500D01*
D73*
X113815000Y-66590000D02*
X113700000Y-66475000D01*
D70*
X132700000Y-64220000D02*
X132700000Y-65800000D01*
X97680000Y-72130000D02*
X97750000Y-72200000D01*
X125647000Y-69893000D02*
X125647000Y-68763000D01*
X96500000Y-62390001D02*
X96829999Y-62390001D01*
D71*
X159700000Y-67290000D02*
X158290000Y-67290000D01*
D72*
X107310000Y-86450000D02*
X107940000Y-86450000D01*
D70*
X168390001Y-68400000D02*
X168340001Y-68450000D01*
D71*
X172045840Y-62650000D02*
X172225000Y-62650000D01*
D70*
X125284000Y-68400000D02*
X125277000Y-68393000D01*
%TO.N,/MCU/NRST*%
X121250000Y-62589999D02*
X121839999Y-62000000D01*
X108100000Y-77000000D02*
X107653554Y-77000000D01*
X107653554Y-77000000D02*
X106533445Y-78120109D01*
X104690049Y-81549951D02*
X104700000Y-81540000D01*
D74*
X136744773Y-77800000D02*
X134927773Y-75983000D01*
X140000000Y-77800000D02*
X136744773Y-77800000D01*
D70*
X104700000Y-81540000D02*
X104700000Y-79953554D01*
X121250000Y-71850000D02*
X121250000Y-62589999D01*
X125383000Y-75983000D02*
X121250000Y-71850000D01*
D74*
X134927773Y-75983000D02*
X125383000Y-75983000D01*
D70*
X103606449Y-81549951D02*
X104690049Y-81549951D01*
X104700000Y-79953554D02*
X106533445Y-78120109D01*
%TO.N,Net-(U1-PF0)*%
X99820000Y-78130000D02*
X99450000Y-78500000D01*
X100410000Y-79560000D02*
X103711866Y-79560000D01*
X103711866Y-79560000D02*
X105826338Y-77445528D01*
X99450000Y-78600000D02*
X100410000Y-79560000D01*
X99450000Y-78500000D02*
X99450000Y-78600000D01*
X99820000Y-76900000D02*
X99820000Y-78130000D01*
X105826338Y-77445528D02*
X105826338Y-77413002D01*
%TO.N,Net-(U1-PF1)*%
X100780000Y-82300000D02*
X100780000Y-81070000D01*
X100780000Y-81070000D02*
X101150000Y-80700000D01*
X101150000Y-80700000D02*
X103246446Y-80700000D01*
X103246446Y-80700000D02*
X106179891Y-77766555D01*
%TO.N,/MCU/3V3_MCU*%
X109489088Y-71300000D02*
X109479381Y-71300000D01*
X104412124Y-75998788D02*
X103940912Y-76470000D01*
X116339411Y-76660589D02*
X116178822Y-76500000D01*
X106580000Y-75230000D02*
X105180912Y-75230000D01*
X106442000Y-75092000D02*
X105492000Y-75092000D01*
X104412124Y-74012124D02*
X104412124Y-74001212D01*
X107240551Y-78827215D02*
X109000000Y-77067766D01*
X103190000Y-76470000D02*
X102700000Y-75980000D01*
D73*
X113565000Y-64925000D02*
X109479381Y-69010619D01*
D70*
X109000000Y-77067766D02*
X109000000Y-75500000D01*
D73*
X119100000Y-64837500D02*
X113787500Y-64837500D01*
D70*
X110298788Y-70112124D02*
X110950000Y-69460912D01*
X106149536Y-79918230D02*
X107240551Y-78827215D01*
X116178822Y-76500000D02*
X114656560Y-76500000D01*
X114187876Y-75998788D02*
X109489088Y-71300000D01*
X103940912Y-76470000D02*
X103190000Y-76470000D01*
D73*
X113787500Y-64837500D02*
X113700000Y-64925000D01*
X113700000Y-64925000D02*
X113565000Y-64925000D01*
D70*
X105180912Y-75230000D02*
X104412124Y-75998788D01*
X114656560Y-76500000D02*
X114428280Y-76271720D01*
X101430000Y-74100000D02*
X101528788Y-74001212D01*
X106149536Y-80929286D02*
X106149536Y-79918230D01*
X110950000Y-68571178D02*
X111070589Y-68450589D01*
D73*
X109479381Y-69010619D02*
X109479381Y-73870619D01*
D70*
X106580000Y-75230000D02*
X106442000Y-75092000D01*
D73*
X109479381Y-73870619D02*
X108425000Y-74925000D01*
X108120000Y-75230000D02*
X105800000Y-75230000D01*
D70*
X105492000Y-75092000D02*
X104412124Y-74012124D01*
X101528788Y-74001212D02*
X104412124Y-74001212D01*
X110950000Y-69460912D02*
X110950000Y-68571178D01*
D73*
X108425000Y-74925000D02*
X108120000Y-75230000D01*
D70*
X109000000Y-75500000D02*
X108425000Y-74925000D01*
X106139411Y-80939411D02*
X106149536Y-80929286D01*
D73*
%TO.N,+12V*%
X104200000Y-105450002D02*
X104200000Y-106200000D01*
D75*
X106125001Y-105325001D02*
X106093750Y-105325001D01*
X162883000Y-107917000D02*
X106600000Y-107917000D01*
D72*
X104300000Y-105550002D02*
X103525001Y-106325001D01*
D73*
X104200000Y-106200000D02*
X103800000Y-106600000D01*
D72*
X97600000Y-106600000D02*
X96850000Y-105850000D01*
D75*
X106317000Y-107917000D02*
X105000000Y-106600000D01*
D73*
X104200000Y-105450002D02*
X105000000Y-106250002D01*
D75*
X172480000Y-93780000D02*
X173800000Y-95100000D01*
X85500000Y-99800000D02*
X85500000Y-91500000D01*
D73*
X101800000Y-105450002D02*
X101149998Y-105450002D01*
X104200000Y-106800000D02*
X103800000Y-107200000D01*
X104825001Y-104825001D02*
X104200000Y-105450002D01*
X104200000Y-105650002D02*
X103525001Y-106325001D01*
X102800000Y-105600000D02*
X103525001Y-106325001D01*
X105400000Y-105787501D02*
X106362500Y-104825001D01*
X101149998Y-105450002D02*
X100200000Y-106400000D01*
D72*
X103525001Y-106325001D02*
X103250002Y-106600000D01*
D75*
X85500000Y-91500000D02*
X88700000Y-88300000D01*
X173800000Y-95100000D02*
X173800000Y-101300000D01*
X94500000Y-103500000D02*
X89200000Y-103500000D01*
D73*
X105400000Y-104825001D02*
X104825001Y-104825001D01*
X105000000Y-106800000D02*
X104200000Y-106800000D01*
X105400000Y-105850002D02*
X105400000Y-104825001D01*
D75*
X103800000Y-107200000D02*
X103800000Y-106600000D01*
X106600000Y-107917000D02*
X106600000Y-105800000D01*
D73*
X105000000Y-106250002D02*
X105000000Y-106600000D01*
X104200000Y-105450002D02*
X102800000Y-105450002D01*
X102800000Y-105450002D02*
X102800000Y-105600000D01*
X105400000Y-105850002D02*
X105400000Y-105787501D01*
X105000000Y-106600000D02*
X105000000Y-106800000D01*
X106362500Y-104825001D02*
X105400000Y-104825001D01*
D75*
X89200000Y-103500000D02*
X85500000Y-99800000D01*
D72*
X103250002Y-106600000D02*
X100200000Y-106600000D01*
D73*
X100200000Y-106400000D02*
X100200000Y-106600000D01*
D72*
X100200000Y-106600000D02*
X97600000Y-106600000D01*
D75*
X103800000Y-107917000D02*
X98917000Y-107917000D01*
X88700000Y-88300000D02*
X90000000Y-88300000D01*
X170000000Y-93780000D02*
X172480000Y-93780000D01*
X106600000Y-107917000D02*
X103800000Y-107917000D01*
X96850000Y-105850000D02*
X94500000Y-103500000D01*
X173800000Y-101300000D02*
X172100000Y-103000000D01*
X167800000Y-103000000D02*
X162883000Y-107917000D01*
X98917000Y-107917000D02*
X96850000Y-105850000D01*
X106600000Y-105800000D02*
X106125001Y-105325001D01*
X106600000Y-107917000D02*
X106317000Y-107917000D01*
X103800000Y-106600000D02*
X103525001Y-106325001D01*
X103800000Y-107917000D02*
X103800000Y-107200000D01*
D73*
X104200000Y-105450002D02*
X104200000Y-105650002D01*
X102800000Y-105450002D02*
X101800000Y-105450002D01*
D75*
X172100000Y-103000000D02*
X167800000Y-103000000D01*
D73*
X105000000Y-106250002D02*
X105400000Y-105850002D01*
%TO.N,+5V*%
X157000000Y-68485000D02*
X159700000Y-68485000D01*
D70*
X96270000Y-70500000D02*
X96720000Y-70950000D01*
X97100000Y-71330000D02*
X96720000Y-70950000D01*
D73*
X157000000Y-63850000D02*
X157050000Y-63800000D01*
X157050000Y-63800000D02*
X157050000Y-61450000D01*
X158500000Y-74000000D02*
X159400000Y-74000000D01*
D71*
X152080000Y-60870000D02*
X152080000Y-62600000D01*
D70*
X97100000Y-72200000D02*
X97100000Y-71330000D01*
D71*
X151671000Y-60871000D02*
X151692000Y-60850000D01*
D73*
X154900000Y-72900000D02*
X154100000Y-72900000D01*
D71*
X152080000Y-63849999D02*
X152080000Y-62600000D01*
X153450000Y-60850000D02*
X156450000Y-60850000D01*
X152100000Y-60850000D02*
X152080000Y-60870000D01*
D73*
X157050000Y-61450000D02*
X156650000Y-61050000D01*
D70*
X95500000Y-70500000D02*
X96270000Y-70500000D01*
D73*
X152600000Y-72900000D02*
X152500000Y-72900000D01*
X157000000Y-64600000D02*
X157000000Y-63850000D01*
D71*
X156450000Y-60850000D02*
X157050000Y-61450000D01*
D73*
X157000000Y-68600000D02*
X157000000Y-72500000D01*
X157000000Y-72500000D02*
X158500000Y-74000000D01*
X157000000Y-72500000D02*
X156600000Y-72900000D01*
X157000000Y-68600000D02*
X157000000Y-66900000D01*
D71*
X150100000Y-61290001D02*
X150519001Y-60871000D01*
X151692000Y-60850000D02*
X153450000Y-60850000D01*
D73*
X156600000Y-72900000D02*
X155600000Y-72900000D01*
X153300000Y-72900000D02*
X152600000Y-72900000D01*
X154100000Y-72900000D02*
X153300000Y-72900000D01*
D71*
X150519001Y-60871000D02*
X151671000Y-60871000D01*
X153450000Y-60850000D02*
X152100000Y-60850000D01*
X157050000Y-61450000D02*
X157050000Y-64250000D01*
D73*
X155600000Y-72900000D02*
X154900000Y-72900000D01*
X157050000Y-63800000D02*
X157050000Y-64250000D01*
%TO.N,+3V3*%
X119100000Y-66962500D02*
X119100000Y-68110000D01*
D70*
X102800000Y-82600000D02*
X103576398Y-82600000D01*
X146477502Y-72800000D02*
X146477502Y-73677502D01*
D73*
X118200000Y-68110000D02*
X117400000Y-68110000D01*
D71*
X129400000Y-60937500D02*
X130200000Y-60937500D01*
D70*
X128890001Y-74909999D02*
X129200000Y-74909999D01*
X101105000Y-66575000D02*
X101105000Y-64475000D01*
D73*
X119100000Y-68110000D02*
X118200000Y-68110000D01*
X116400000Y-68110000D02*
X116600000Y-68110000D01*
X116400000Y-68110000D02*
X117400000Y-68110000D01*
D70*
X126180000Y-74700000D02*
X126080000Y-74800000D01*
X100459999Y-68850000D02*
X101620000Y-68850000D01*
X108800000Y-67300000D02*
X108809998Y-67300000D01*
X146200000Y-64537501D02*
X146200000Y-64600000D01*
X146477502Y-73677502D02*
X146500000Y-73700000D01*
X101105000Y-64475000D02*
X101100000Y-64470000D01*
D71*
X131200000Y-61800000D02*
X130337500Y-60937500D01*
X130337500Y-60937500D02*
X130200000Y-60937500D01*
D70*
X126760000Y-74700000D02*
X126180000Y-74700000D01*
X128500000Y-75300000D02*
X128890001Y-74909999D01*
X108809998Y-67300000D02*
X109600000Y-66509998D01*
X102400000Y-82200000D02*
X102800000Y-82600000D01*
D71*
X127400000Y-60937500D02*
X129400000Y-60937500D01*
D70*
X103576398Y-82600000D02*
X103606449Y-82569949D01*
%TO.N,Net-(D2-A)*%
X104500000Y-64287501D02*
X104500000Y-65590001D01*
%TO.N,Net-(D3-A)*%
X102800000Y-64287501D02*
X102800000Y-65590001D01*
%TO.N,Net-(D4-A)*%
X147887501Y-71300000D02*
X147887501Y-72409999D01*
X147887501Y-72409999D02*
X147497500Y-72800000D01*
%TO.N,Net-(D7-A)*%
X109599999Y-64287501D02*
X109599999Y-65489999D01*
X109599999Y-65489999D02*
X109600000Y-65490000D01*
%TO.N,Net-(D9-A)*%
X107900000Y-64325001D02*
X107900000Y-65590001D01*
%TO.N,/STLINK/LED*%
X143700001Y-70212500D02*
X139112500Y-70212500D01*
X144787501Y-71300000D02*
X143700001Y-70212500D01*
X144787501Y-71300000D02*
X146312499Y-71300000D01*
%TO.N,/CAN/CANH*%
X97750000Y-75100000D02*
X97750000Y-76650000D01*
X92400000Y-69800000D02*
X92400000Y-69130000D01*
X93925000Y-71325000D02*
X92400000Y-69800000D01*
%TO.N,/CAN/CANL*%
X96296000Y-76200000D02*
X95000000Y-74904000D01*
X96550000Y-76200000D02*
X96296000Y-76200000D01*
X89200000Y-68700000D02*
X89200000Y-66800000D01*
X95000000Y-74500000D02*
X89200000Y-68700000D01*
X97100000Y-75650000D02*
X97100000Y-75100000D01*
X96550000Y-76200000D02*
X97100000Y-75650000D01*
X97900000Y-77700000D02*
X97850000Y-77700000D01*
X95000000Y-74904000D02*
X95000000Y-74500000D01*
X97850000Y-77700000D02*
X96350000Y-76200000D01*
%TO.N,Net-(IC1-STB)*%
X98400000Y-75100000D02*
X99390001Y-75100000D01*
X99390001Y-75100000D02*
X99850000Y-75559999D01*
%TO.N,/CAN/CAN_RXD*%
X94750000Y-71250000D02*
X95700000Y-72200000D01*
X94750000Y-70250000D02*
X94750000Y-71250000D01*
X104332234Y-71800000D02*
X100250000Y-71800000D01*
X95700000Y-72200000D02*
X96450000Y-72200000D01*
X95500000Y-69500000D02*
X94750000Y-70250000D01*
X100250000Y-71800000D02*
X97950000Y-69500000D01*
X97950000Y-69500000D02*
X95500000Y-69500000D01*
X105472785Y-72940551D02*
X104332234Y-71800000D01*
%TO.N,/CAN/CAN_TXD*%
X98454000Y-72254000D02*
X104079126Y-72254000D01*
X98400000Y-72200000D02*
X98454000Y-72254000D01*
X105119231Y-73294105D02*
X104079126Y-72254000D01*
%TO.N,/USB/USB_CONN_D+*%
X173450000Y-65401000D02*
X173450000Y-65850000D01*
X168728736Y-66800000D02*
X168337500Y-66800000D01*
X173200000Y-66100000D02*
X172225000Y-66100000D01*
X169428736Y-66100000D02*
X168728736Y-66800000D01*
X173149000Y-65100000D02*
X173450000Y-65401000D01*
X172225000Y-65100000D02*
X173149000Y-65100000D01*
X172225000Y-66100000D02*
X169428736Y-66100000D01*
X173450000Y-65850000D02*
X173200000Y-66100000D01*
%TO.N,/USB/USB_CONN_D-*%
X170952000Y-66600000D02*
X172225000Y-66600000D01*
X169600000Y-65600000D02*
X170850000Y-65600000D01*
X170850000Y-66702000D02*
X170952000Y-66600000D01*
X170850000Y-65600000D02*
X172225000Y-65600000D01*
X168900000Y-64900000D02*
X169600000Y-65600000D01*
X170850000Y-65498000D02*
X170850000Y-65600000D01*
X168337500Y-64900000D02*
X168900000Y-64900000D01*
%TO.N,Net-(Q1-B)*%
X147150000Y-62662500D02*
X147150000Y-62350000D01*
X146340001Y-61852501D02*
X147150000Y-62662500D01*
X146340001Y-61062500D02*
X146340001Y-61852501D01*
X145359999Y-61062500D02*
X146340001Y-61062500D01*
X149690001Y-61900000D02*
X150100000Y-62309999D01*
X147600000Y-61900000D02*
X149690001Y-61900000D01*
X147150000Y-62350000D02*
X147600000Y-61900000D01*
%TO.N,Net-(Q1-E)*%
X144827501Y-62662500D02*
X143800000Y-63690001D01*
X145250000Y-62662500D02*
X144827501Y-62662500D01*
%TO.N,/MCU/USR_LED1*%
X104500000Y-67410000D02*
X104510000Y-67420000D01*
X103360000Y-77072000D02*
X104046020Y-77072000D01*
X104046020Y-77072000D02*
X104765678Y-76352342D01*
X104500000Y-66609999D02*
X104500000Y-67410000D01*
%TO.N,/MCU/USR_LED2*%
X103410000Y-77830000D02*
X103995126Y-77830000D01*
X103995126Y-77830000D02*
X105119231Y-76705895D01*
X102800000Y-66609999D02*
X102800000Y-67380000D01*
%TO.N,/USB/USB_PROT_D-*%
X163540001Y-65359999D02*
X163540001Y-65250000D01*
X158700001Y-71100000D02*
X158250000Y-70649999D01*
X158664264Y-69187000D02*
X161111342Y-69187000D01*
X158250000Y-70649999D02*
X158250000Y-69601264D01*
X162304000Y-65796000D02*
X163104000Y-65796000D01*
X159700000Y-71100000D02*
X158700001Y-71100000D01*
X158250000Y-69601264D02*
X158664264Y-69187000D01*
X161850000Y-66250000D02*
X162304000Y-65796000D01*
X161111342Y-69187000D02*
X161850000Y-68448342D01*
X161850000Y-68448342D02*
X161850000Y-66250000D01*
X163104000Y-65796000D02*
X163540001Y-65359999D01*
%TO.N,/USB/USB_PROT_D+*%
X162304000Y-68636394D02*
X161110394Y-69830000D01*
X162550000Y-66250000D02*
X162304000Y-66496000D01*
X163540001Y-66450000D02*
X163340001Y-66250000D01*
X161110394Y-69830000D02*
X159700000Y-69830000D01*
X163340001Y-66250000D02*
X162550000Y-66250000D01*
X162304000Y-66496000D02*
X162304000Y-68636394D01*
%TO.N,/CAN/RXD_LED*%
X106280000Y-70212234D02*
X106280000Y-66689999D01*
X107240551Y-71172785D02*
X106280000Y-70212234D01*
X106280000Y-66689999D02*
X106200000Y-66609999D01*
%TO.N,/MCU/SDA*%
X100389999Y-71030000D02*
X105008974Y-71030000D01*
X98209999Y-68850000D02*
X100389999Y-71030000D01*
X105008974Y-71030000D02*
X105949487Y-71970513D01*
X97295000Y-67935001D02*
X97295000Y-66575000D01*
X98209999Y-68850000D02*
X97295000Y-67935001D01*
%TO.N,/MCU/BOOT_EN*%
X105670000Y-70309340D02*
X105670000Y-68430000D01*
X105670000Y-68530000D02*
X105750000Y-68610000D01*
X106886998Y-71526338D02*
X105670000Y-70309340D01*
X105670000Y-68430000D02*
X105670000Y-68530000D01*
%TO.N,/MCU/SCL*%
X105223554Y-70570000D02*
X106533445Y-71879891D01*
X98565000Y-67565000D02*
X99440001Y-68440001D01*
X98565000Y-66575001D02*
X98565000Y-67565000D01*
X99440001Y-68850000D02*
X101160001Y-70570000D01*
X99440001Y-68440001D02*
X99440001Y-68849999D01*
X98564999Y-66575000D02*
X98565000Y-66575001D01*
X101160001Y-70570000D02*
X105223554Y-70570000D01*
%TO.N,Net-(U2-WP)*%
X99010000Y-64200000D02*
X96090001Y-64200000D01*
X96090001Y-64200000D02*
X95300000Y-63409999D01*
X99835000Y-66575000D02*
X99835000Y-65025000D01*
X99835000Y-65025000D02*
X99010000Y-64200000D01*
%TO.N,/CAN/TXD_LED*%
X106810000Y-70035126D02*
X106810000Y-67340000D01*
X107540001Y-66609999D02*
X107900000Y-66609999D01*
X107594105Y-70819231D02*
X106810000Y-70035126D01*
X106810000Y-67340000D02*
X107540001Y-66609999D01*
%TO.N,VCC*%
X106200000Y-84425000D02*
X106200000Y-84500000D01*
X92676000Y-83054000D02*
X91550000Y-84180000D01*
%TO.N,/MCU/V_SENSE*%
X107594105Y-79180769D02*
X106900000Y-79874874D01*
X106900000Y-79874874D02*
X106900000Y-82075000D01*
X106900000Y-82075000D02*
X106200000Y-82775000D01*
X107950000Y-82775000D02*
X106200000Y-82775000D01*
%TO.N,/STLINK/BOOT*%
X134200000Y-63909999D02*
X134200000Y-65800000D01*
X133890001Y-63600000D02*
X133890001Y-61809999D01*
X133890001Y-63600000D02*
X134200000Y-63909999D01*
X133890001Y-61809999D02*
X133900000Y-61800000D01*
%TO.N,/STLINK/USB_D+*%
X143654285Y-68712500D02*
X142000000Y-68712500D01*
X142498000Y-68214500D02*
X142000000Y-68712500D01*
X143654285Y-68712500D02*
X151042500Y-68712500D01*
X142000000Y-68712500D02*
X139112500Y-68712500D01*
X142498000Y-65802000D02*
X142498000Y-68214500D01*
X143800000Y-64709999D02*
X143590001Y-64709999D01*
X143590001Y-64709999D02*
X142498000Y-65802000D01*
X151042500Y-68712500D02*
X151380000Y-69050000D01*
%TO.N,/STLINK/USB_RENUM*%
X137200000Y-64300000D02*
X135100000Y-62200000D01*
X143904500Y-60627000D02*
X144340000Y-61062500D01*
X135373000Y-60627000D02*
X143904500Y-60627000D01*
X135100000Y-60900000D02*
X135373000Y-60627000D01*
X137200000Y-65800000D02*
X137200000Y-64300000D01*
X135100000Y-62200000D02*
X135100000Y-60900000D01*
D74*
%TO.N,/MCU/SWDIO*%
X134634314Y-76900000D02*
X124907948Y-76900000D01*
X145200000Y-77699998D02*
X145200000Y-78700000D01*
D70*
X119612000Y-68812000D02*
X119250000Y-68812000D01*
X119588000Y-68812000D02*
X120027000Y-68373000D01*
X120092000Y-72084052D02*
X120092000Y-69292000D01*
X120092000Y-69292000D02*
X119612000Y-68812000D01*
D74*
X145200000Y-78700000D02*
X144700000Y-79200000D01*
X136934314Y-79200000D02*
X134634314Y-76900000D01*
D70*
X113013126Y-68812000D02*
X111005895Y-70819231D01*
X119250000Y-68812000D02*
X119588000Y-68812000D01*
D74*
X144700000Y-79200000D02*
X136934314Y-79200000D01*
D70*
X124907948Y-76900000D02*
X120092000Y-72084052D01*
X120027000Y-68373000D02*
X120027000Y-62727000D01*
X120027000Y-62727000D02*
X119300000Y-62000000D01*
X119250000Y-68812000D02*
X113013126Y-68812000D01*
%TO.N,/STLINK/DIO*%
X140946000Y-68212500D02*
X139112500Y-68212500D01*
X141600000Y-65500000D02*
X141600000Y-67558500D01*
X139200000Y-61900000D02*
X139200000Y-63100000D01*
X141600000Y-67558500D02*
X140946000Y-68212500D01*
X139200000Y-63100000D02*
X141600000Y-65500000D01*
%TO.N,/STLINK/CLK*%
X136500000Y-61800000D02*
X137700000Y-63000000D01*
X137700000Y-63000000D02*
X137700000Y-65800000D01*
%TO.N,PA2*%
X111554000Y-96854000D02*
X111554000Y-83140664D01*
X111554000Y-83140664D02*
X108301212Y-79887876D01*
X115300000Y-98500000D02*
X113200000Y-98500000D01*
X113200000Y-98500000D02*
X111554000Y-96854000D01*
%TO.N,PA4*%
X113500000Y-94300000D02*
X112462000Y-93262000D01*
X112462000Y-81343980D02*
X110652342Y-79534322D01*
X115300000Y-94300000D02*
X113500000Y-94300000D01*
X112462000Y-93262000D02*
X112462000Y-81343980D01*
%TO.N,PA3*%
X115300000Y-96400000D02*
X113300000Y-96400000D01*
X113300000Y-96400000D02*
X112008000Y-95108000D01*
X112008000Y-95108000D02*
X112008000Y-81597088D01*
X112008000Y-81597088D02*
X110298788Y-79887876D01*
%TO.N,PB14*%
X113480769Y-73294105D02*
X114466874Y-72308000D01*
X116350054Y-72308000D02*
X123734054Y-79692000D01*
X114466874Y-72308000D02*
X116350054Y-72308000D01*
X123734054Y-79692000D02*
X126392000Y-79692000D01*
X126392000Y-79692000D02*
X129700000Y-83000000D01*
%TO.N,PA1*%
X108448000Y-82048000D02*
X107376251Y-80976251D01*
X113100000Y-100600000D02*
X111100000Y-98600000D01*
X111100000Y-84699168D02*
X108448832Y-82048000D01*
X111100000Y-98600000D02*
X111100000Y-84699168D01*
X115300000Y-100600000D02*
X113100000Y-100600000D01*
X107376251Y-80976251D02*
X107376251Y-80105729D01*
X108448832Y-82048000D02*
X108448000Y-82048000D01*
X107376251Y-80105729D02*
X107947658Y-79534322D01*
%TO.N,PB1*%
X116000000Y-83000000D02*
X114954000Y-81954000D01*
X117200000Y-83000000D02*
X116000000Y-83000000D01*
X114954000Y-80300446D02*
X112420109Y-77766555D01*
X114954000Y-81954000D02*
X114954000Y-80300446D01*
X117100000Y-82900000D02*
X117200000Y-83000000D01*
%TO.N,PA8*%
X116726160Y-71400000D02*
X124110160Y-78784000D01*
X113960660Y-71400000D02*
X116726160Y-71400000D01*
X129684000Y-78784000D02*
X133900000Y-83000000D01*
X124110160Y-78784000D02*
X129684000Y-78784000D01*
X112773662Y-72586998D02*
X113960660Y-71400000D01*
%TO.N,PB13*%
X116162001Y-72762000D02*
X123546001Y-80146000D01*
X124746000Y-80146000D02*
X127600000Y-83000000D01*
X114719980Y-72762000D02*
X116162001Y-72762000D01*
X123546001Y-80146000D02*
X124746000Y-80146000D01*
X113834322Y-73647658D02*
X114719980Y-72762000D01*
%TO.N,PB10*%
X121000000Y-81500000D02*
X121300000Y-81800000D01*
X117567766Y-81500000D02*
X121000000Y-81500000D01*
X121300000Y-81800000D02*
X121300000Y-83000000D01*
X113127215Y-77059449D02*
X117567766Y-81500000D01*
%TO.N,/MCU/USB_D+*%
X148800000Y-70025000D02*
X148925000Y-70025000D01*
D74*
X113132234Y-69400000D02*
X111359449Y-71172785D01*
X119174321Y-69425679D02*
X119148642Y-69400000D01*
D70*
X150450000Y-71550000D02*
X151380000Y-71550000D01*
X148925000Y-70025000D02*
X150450000Y-71550000D01*
D74*
X119148642Y-69400000D02*
X113132234Y-69400000D01*
D70*
%TO.N,/MCU/USB_D-*%
X150700000Y-70300000D02*
X151380000Y-70300000D01*
D74*
X113439340Y-69800000D02*
X111713002Y-71526338D01*
X119304208Y-70164348D02*
X118964348Y-70164348D01*
X118964348Y-70164348D02*
X118600000Y-69800000D01*
D70*
X150600000Y-70400000D02*
X150700000Y-70300000D01*
D74*
X118600000Y-69800000D02*
X113439340Y-69800000D01*
D70*
%TO.N,PB0*%
X112066555Y-78120109D02*
X114500000Y-80553554D01*
X114500000Y-85100000D02*
X115300000Y-85900000D01*
X114500000Y-80553554D02*
X114500000Y-85100000D01*
%TO.N,PA6*%
X113500000Y-80967766D02*
X113500000Y-89400000D01*
X113500000Y-89400000D02*
X114200000Y-90100000D01*
X111359449Y-78827215D02*
X113500000Y-80967766D01*
X114200000Y-90100000D02*
X115300000Y-90100000D01*
%TO.N,PB11*%
X121946000Y-81046000D02*
X123400000Y-82500000D01*
X117820874Y-81046000D02*
X121946000Y-81046000D01*
X123400000Y-82500000D02*
X123400000Y-83000000D01*
X113480769Y-76705895D02*
X117820874Y-81046000D01*
%TO.N,PA5*%
X112916000Y-91316000D02*
X112916000Y-81090874D01*
X115300000Y-92200000D02*
X113800000Y-92200000D01*
X113800000Y-92200000D02*
X112916000Y-91316000D01*
X112916000Y-81090874D02*
X111005895Y-79180769D01*
%TO.N,/MCU/SWCLK*%
X120075998Y-60750000D02*
X118009999Y-60750000D01*
X107800000Y-69610912D02*
X107800000Y-69287222D01*
X113487222Y-63600000D02*
X115159999Y-63600000D01*
D74*
X142600000Y-77699998D02*
X142600000Y-78400000D01*
X142600000Y-78400000D02*
X142389909Y-78610091D01*
D70*
X108301212Y-70112124D02*
X107800000Y-69610912D01*
X115159999Y-63600000D02*
X116759999Y-62000000D01*
D74*
X134737000Y-76437000D02*
X125194947Y-76437000D01*
D70*
X120600000Y-61274002D02*
X120075998Y-60750000D01*
X125194947Y-76437000D02*
X120600000Y-71842053D01*
X120600000Y-71842053D02*
X120600000Y-61274002D01*
D74*
X142389909Y-78610091D02*
X136910091Y-78610091D01*
X136910091Y-78610091D02*
X134737000Y-76437000D01*
D70*
X118009999Y-60750000D02*
X116759999Y-62000000D01*
X107800000Y-69287222D02*
X113487222Y-63600000D01*
%TO.N,PB2*%
X112773662Y-77413002D02*
X117360660Y-82000000D01*
X117360660Y-82000000D02*
X118200000Y-82000000D01*
X118200000Y-82000000D02*
X119200000Y-83000000D01*
%TO.N,PA10*%
X112066555Y-71879891D02*
X113546446Y-70400000D01*
X113546446Y-70400000D02*
X117010266Y-70400000D01*
X132976000Y-77876000D02*
X138100000Y-83000000D01*
X117010266Y-70400000D02*
X124486266Y-77876000D01*
X124486266Y-77876000D02*
X132976000Y-77876000D01*
%TO.N,PA7*%
X114500000Y-88000000D02*
X113954000Y-87454000D01*
X113954000Y-87454000D02*
X113954000Y-80714660D01*
X113954000Y-80714660D02*
X111713002Y-78473662D01*
X115300000Y-88000000D02*
X114500000Y-88000000D01*
%TO.N,PB12*%
X114973088Y-73216000D02*
X115973948Y-73216000D01*
X115973948Y-73216000D02*
X125500000Y-82742052D01*
X125500000Y-82742052D02*
X125500000Y-83000000D01*
X114187876Y-74001212D02*
X114973088Y-73216000D01*
%TO.N,PA9*%
X113799554Y-70854000D02*
X116822213Y-70854000D01*
X112420109Y-72233445D02*
X113799554Y-70854000D01*
X124290213Y-78322000D02*
X124400000Y-78322000D01*
X124408000Y-78330000D02*
X131330000Y-78330000D01*
X131330000Y-78330000D02*
X136000000Y-83000000D01*
X116822213Y-70854000D02*
X124290213Y-78322000D01*
X124400000Y-78322000D02*
X124408000Y-78330000D01*
%TO.N,PB15*%
X128038000Y-79238000D02*
X131800000Y-83000000D01*
X113127215Y-72940551D02*
X114213766Y-71854000D01*
X116538107Y-71854000D02*
X123922107Y-79238000D01*
X114213766Y-71854000D02*
X116538107Y-71854000D01*
X123922107Y-79238000D02*
X128038000Y-79238000D01*
%TO.N,/STLINK/USB_D-*%
X147198000Y-69212500D02*
X139112500Y-69212500D01*
X150980001Y-68200000D02*
X151380001Y-67800000D01*
X147300000Y-69314500D02*
X147198000Y-69212500D01*
X147989500Y-68200000D02*
X150980001Y-68200000D01*
X147900000Y-68110500D02*
X147989500Y-68200000D01*
%TO.N,Net-(U3-NRST)*%
X127400000Y-73225682D02*
X127400000Y-71600000D01*
X128787500Y-70212500D02*
X130787500Y-70212500D01*
X127779998Y-74700000D02*
X127779998Y-73605680D01*
X127779998Y-73605680D02*
X127400000Y-73225682D01*
X127400000Y-71600000D02*
X128787500Y-70212500D01*
%TO.N,Net-(U3-PD0)*%
X128237500Y-69212500D02*
X130787500Y-69212500D01*
X123947000Y-69893000D02*
X123947000Y-70147000D01*
X123947000Y-69893000D02*
X123947000Y-68763000D01*
X123947000Y-70147000D02*
X124853000Y-71053000D01*
X124853000Y-71053000D02*
X126397000Y-71053000D01*
X126397000Y-71053000D02*
X128237500Y-69212500D01*
X123947000Y-68763000D02*
X124317000Y-68393000D01*
%TO.N,Net-(U3-PD1)*%
X125647000Y-72093000D02*
X126107000Y-72093000D01*
X126107000Y-72093000D02*
X128487500Y-69712500D01*
X125647000Y-72093000D02*
X125647000Y-73253000D01*
X128487500Y-69712500D02*
X130787500Y-69712500D01*
X125647000Y-73253000D02*
X125257000Y-73643000D01*
%TO.N,Net-(U5-VBST)*%
X107500000Y-101787501D02*
X107500000Y-98355001D01*
X108637500Y-102925001D02*
X107500000Y-101787501D01*
D73*
%TO.N,Net-(J4-SHIELD)*%
X166325000Y-70125001D02*
X166649999Y-70450000D01*
X172545000Y-70450000D02*
X172825000Y-70170000D01*
X166649999Y-70450000D02*
X172545000Y-70450000D01*
X166325000Y-68700000D02*
X166325000Y-70125001D01*
D70*
%TO.N,Net-(D5-K)*%
X143212499Y-71300000D02*
X143212499Y-72534997D01*
X143212499Y-72534997D02*
X143377502Y-72700000D01*
%TO.N,Net-(D8-A)*%
X106200000Y-64287501D02*
X106200000Y-65590001D01*
%TO.N,Net-(J4-CC2)*%
X169390001Y-64100000D02*
X168850000Y-63559999D01*
X172225000Y-64100000D02*
X169390001Y-64100000D01*
%TO.N,Net-(J4-CC1)*%
X171303357Y-67100000D02*
X172225000Y-67100000D01*
X170359999Y-67450000D02*
X170953357Y-67450000D01*
X170953357Y-67450000D02*
X171303357Y-67100000D01*
X169409999Y-68400000D02*
X170359999Y-67450000D01*
D72*
%TO.N,Net-(U5-SW)*%
X98200000Y-100800000D02*
X98200000Y-102800000D01*
X99380002Y-103980002D02*
X103094999Y-103980002D01*
X98200000Y-102800000D02*
X99380002Y-103980002D01*
D73*
X106362500Y-103875001D02*
X102855001Y-103875001D01*
D70*
%TO.N,Net-(U3-PA0)*%
X129209999Y-73880002D02*
X129200000Y-73890001D01*
X129691000Y-71909000D02*
X129887500Y-71712500D01*
X129400000Y-72336371D02*
X129691000Y-72045371D01*
X130300000Y-73880002D02*
X129209999Y-73880002D01*
X129691000Y-72045371D02*
X129691000Y-71909000D01*
X129400000Y-73690001D02*
X129400000Y-72336371D01*
X129887500Y-71712500D02*
X130787500Y-71712500D01*
X129200000Y-73890001D02*
X129400000Y-73690001D01*
%TO.N,Net-(U3-PC13)*%
X129490842Y-67712500D02*
X128978342Y-67200000D01*
X123980002Y-67200000D02*
X123000000Y-66219998D01*
X130787500Y-67712500D02*
X129490842Y-67712500D01*
X128978342Y-67200000D02*
X123980002Y-67200000D01*
%TO.N,Net-(U3-PC14)*%
X122744001Y-67654000D02*
X128790290Y-67654000D01*
X128790290Y-67654000D02*
X129348790Y-68212500D01*
X122000000Y-66909999D02*
X122744001Y-67654000D01*
X129348790Y-68212500D02*
X130787500Y-68212500D01*
X122000000Y-66219998D02*
X122000000Y-66909999D01*
%TO.N,Net-(U3-PB12)*%
X140550000Y-73550000D02*
X140550000Y-74400000D01*
X139712500Y-72712500D02*
X140550000Y-73550000D01*
X139112500Y-72712500D02*
X139712500Y-72712500D01*
%TO.N,Net-(U5-EN)*%
X109759999Y-101500000D02*
X109759999Y-103415001D01*
X109759999Y-103415001D02*
X109299999Y-103875001D01*
X109299999Y-103875001D02*
X108637500Y-103875001D01*
X108752502Y-103759999D02*
X108637500Y-103875001D01*
%TO.N,Net-(U5-VFB)*%
X108637500Y-104825001D02*
X109424999Y-104825001D01*
X109424999Y-104825001D02*
X110500000Y-103750000D01*
X109115002Y-99365002D02*
X108600000Y-99365002D01*
X108600000Y-98385000D02*
X108600000Y-99365002D01*
X110500000Y-103750000D02*
X110500000Y-100750000D01*
X110500000Y-100750000D02*
X109115002Y-99365002D01*
%TO.N,Net-(R33-Pad1)*%
X164909999Y-64900000D02*
X166062500Y-64900000D01*
X164559999Y-65250000D02*
X164909999Y-64900000D01*
%TO.N,Net-(R34-Pad1)*%
X166062500Y-66800000D02*
X164909999Y-66800000D01*
X164909999Y-66800000D02*
X164559999Y-66450000D01*
%TO.N,Net-(R39-Pad2)*%
X89200000Y-63787500D02*
X89200000Y-65175000D01*
X90352500Y-62635000D02*
X89200000Y-63787500D01*
X92400000Y-62635000D02*
X90352500Y-62635000D01*
D73*
%TO.N,Net-(D1-A)*%
X163400000Y-74000000D02*
X163100000Y-73700000D01*
X163100000Y-73700000D02*
X163100000Y-70000000D01*
D71*
X170905447Y-68250000D02*
X172225000Y-68250000D01*
X170400000Y-62653000D02*
X171197000Y-63450000D01*
X171197000Y-63450000D02*
X172225000Y-63450000D01*
X170850000Y-68305447D02*
X170905447Y-68250000D01*
D70*
X172836565Y-63450000D02*
X172225000Y-63450000D01*
%TO.N,Net-(U7-DM2)*%
X153300000Y-67850000D02*
X152449999Y-67850000D01*
X154700000Y-67290000D02*
X153860000Y-67290000D01*
X152449999Y-67850000D02*
X152399999Y-67800000D01*
X153860000Y-67290000D02*
X153300000Y-67850000D01*
%TO.N,Net-(U7-DP2)*%
X153050000Y-68400000D02*
X154540000Y-68400000D01*
X154540000Y-68400000D02*
X154700000Y-68560000D01*
X154700000Y-68560000D02*
X154700000Y-68660000D01*
X152400000Y-69050000D02*
X153050000Y-68400000D01*
%TO.N,Net-(U7-DM1)*%
X153300000Y-70300000D02*
X153770000Y-69830000D01*
X152400000Y-70300000D02*
X153300000Y-70300000D01*
X153770000Y-69830000D02*
X154700000Y-69830000D01*
X154700000Y-69830000D02*
X154700000Y-69930000D01*
%TO.N,Net-(U7-DP1)*%
X153050000Y-70900000D02*
X152400000Y-71550000D01*
X154500000Y-70900000D02*
X153050000Y-70900000D01*
X154700000Y-71100000D02*
X154500000Y-70900000D01*
%TO.N,Net-(U3-VBAT)*%
X129237000Y-71857318D02*
X129237000Y-71563000D01*
X137880000Y-75800000D02*
X137880000Y-74305000D01*
D71*
X128782500Y-63062500D02*
X129000000Y-63280000D01*
X126549999Y-64800000D02*
X126549999Y-63912501D01*
D70*
X129587500Y-71212500D02*
X130787500Y-71212500D01*
X137700000Y-73100000D02*
X135600000Y-71000000D01*
D71*
X127400000Y-63062500D02*
X128782500Y-63062500D01*
D70*
X137880000Y-74305000D02*
X137700000Y-74125000D01*
X132200000Y-65800000D02*
X132200000Y-64800000D01*
X137850142Y-74054266D02*
X137850142Y-74055999D01*
D71*
X133200000Y-70000000D02*
X134200000Y-71000000D01*
D70*
X137700000Y-74125000D02*
X137700000Y-73100000D01*
X131320000Y-63800000D02*
X131320000Y-63920000D01*
X140280000Y-66320000D02*
X140900000Y-66320000D01*
X131987500Y-71212500D02*
X133200000Y-70000000D01*
D71*
X126549999Y-63912501D02*
X127400000Y-63062500D01*
D70*
X136787500Y-67212500D02*
X135600000Y-68400000D01*
D71*
X126549999Y-64800000D02*
X127400000Y-64800000D01*
D70*
X132200000Y-64800000D02*
X132000000Y-64600000D01*
X135600000Y-68400000D02*
X133200000Y-68400000D01*
X129237000Y-71563000D02*
X129587500Y-71212500D01*
X139112500Y-67212500D02*
X139387500Y-67212500D01*
X132200000Y-66600000D02*
X131800000Y-67000000D01*
X128614318Y-72480000D02*
X129237000Y-71857318D01*
D71*
X129600000Y-67000000D02*
X131800000Y-67000000D01*
D70*
X130787500Y-71212500D02*
X131987500Y-71212500D01*
X139112500Y-67212500D02*
X136787500Y-67212500D01*
X135600000Y-71000000D02*
X135400000Y-71000000D01*
X132200000Y-65800000D02*
X132200000Y-66600000D01*
D71*
X127400000Y-64800000D02*
X129600000Y-67000000D01*
D70*
X131320000Y-63920000D02*
X132000000Y-64600000D01*
D71*
X131800000Y-67000000D02*
X133200000Y-68400000D01*
D70*
X139387500Y-67212500D02*
X140280000Y-66320000D01*
D71*
X133200000Y-68400000D02*
X133200000Y-70000000D01*
X135400000Y-71000000D02*
X134200000Y-71000000D01*
D70*
X128600000Y-72480000D02*
X128614318Y-72480000D01*
D71*
%TO.N,/POWER/NC*%
X166900000Y-90100000D02*
X166900000Y-89670000D01*
X163754000Y-109208362D02*
X168462362Y-104500000D01*
X84000000Y-90500000D02*
X84000000Y-100589745D01*
X97806255Y-109246000D02*
X163754000Y-109246000D01*
X88410255Y-105000000D02*
X93560255Y-105000000D01*
X175500000Y-102000000D02*
X175500000Y-94600000D01*
X173100000Y-92200000D02*
X169000000Y-92200000D01*
X168462362Y-104500000D02*
X173000000Y-104500000D01*
X169000000Y-92200000D02*
X166900000Y-90100000D01*
X93560255Y-105000000D02*
X97806255Y-109246000D01*
X91600000Y-88020510D02*
X90550490Y-86971000D01*
X173000000Y-104500000D02*
X175500000Y-102000000D01*
X87529000Y-86971000D02*
X84000000Y-90500000D01*
X84000000Y-100589745D02*
X88410255Y-105000000D01*
X93100000Y-92410000D02*
X91600000Y-90910000D01*
X91600000Y-90910000D02*
X91600000Y-88020510D01*
X90550490Y-86971000D02*
X87529000Y-86971000D01*
X163754000Y-109246000D02*
X163754000Y-109208362D01*
X175500000Y-94600000D02*
X173100000Y-92200000D01*
D70*
%TO.N,/STLINK/SWDIO*%
X142200000Y-74400000D02*
X143800000Y-74400000D01*
X145200000Y-75800000D02*
X145200000Y-76400000D01*
X140912500Y-71712500D02*
X142200000Y-73000000D01*
X139112500Y-71712500D02*
X140912500Y-71712500D01*
X143800000Y-74400000D02*
X145200000Y-75800000D01*
X142200000Y-73000000D02*
X142200000Y-74400000D01*
%TO.N,/STLINK/NRST*%
X136048645Y-76500002D02*
X140000000Y-76500002D01*
X134700000Y-75151357D02*
X136048645Y-76500002D01*
X134700000Y-74125000D02*
X134700000Y-75151357D01*
%TO.N,/STLINK/SWCLK*%
X133200000Y-74125000D02*
X133200000Y-73000000D01*
X141400000Y-75200000D02*
X142600000Y-76400000D01*
X139112500Y-72212500D02*
X140612500Y-72212500D01*
X137600000Y-72000000D02*
X137812500Y-72212500D01*
X137812500Y-72212500D02*
X139112500Y-72212500D01*
X140612500Y-72212500D02*
X141400000Y-73000000D01*
X133200000Y-73000000D02*
X134200000Y-72000000D01*
X141400000Y-73000000D02*
X141400000Y-75200000D01*
D74*
%TO.N,Net-(U7-VDD18)*%
X149000000Y-65549999D02*
X149025001Y-65575000D01*
X152550000Y-65350000D02*
X159100000Y-65350000D01*
X149025001Y-65575000D02*
X152325000Y-65575000D01*
X159100000Y-65350000D02*
X159700000Y-64750000D01*
X152325000Y-65575000D02*
X152550000Y-65350000D01*
%TO.N,Net-(U7-VDD33)*%
X147029999Y-66620000D02*
X156152703Y-66620000D01*
X156752703Y-66020000D02*
X159700000Y-66020000D01*
X146949999Y-66700000D02*
X147029999Y-66620000D01*
X156152703Y-66620000D02*
X156752703Y-66020000D01*
D70*
%TO.N,Net-(U7-XIN)*%
X159700000Y-62210000D02*
X160490000Y-62210000D01*
X160490000Y-62210000D02*
X161400000Y-61300000D01*
X161400000Y-61300000D02*
X162350000Y-61300000D01*
%TO.N,Net-(U7-XOUT)*%
X161456000Y-62400000D02*
X163204000Y-62400000D01*
X163204000Y-62400000D02*
X164050000Y-63246000D01*
X164050000Y-63246000D02*
X164050000Y-63500000D01*
X160376000Y-63480000D02*
X161456000Y-62400000D01*
X159700000Y-63480000D02*
X160376000Y-63480000D01*
%TD*%
%TA.AperFunction,Conductor*%
%TO.N,+5V*%
G36*
X101848521Y-85399777D02*
G01*
X101915498Y-85419670D01*
X101955630Y-85461966D01*
X102133107Y-85770622D01*
X102149603Y-85833882D01*
X102130555Y-87462474D01*
X102110087Y-87529279D01*
X102097819Y-87544979D01*
X101936840Y-87719955D01*
X101876966Y-87755964D01*
X101845586Y-87760000D01*
X100799998Y-87760000D01*
X100460000Y-88279997D01*
X100469999Y-94199999D01*
X101000000Y-94800000D01*
X108761600Y-94750246D01*
X108828764Y-94769500D01*
X108831818Y-94771498D01*
X109115423Y-94963124D01*
X109159950Y-95016965D01*
X109170000Y-95065867D01*
X109170000Y-97461834D01*
X109150315Y-97528873D01*
X109148539Y-97531560D01*
X109036906Y-97695726D01*
X108982931Y-97740094D01*
X108934367Y-97750000D01*
X106000000Y-97750000D01*
X105782711Y-98228035D01*
X105737050Y-98280920D01*
X105670953Y-98300718D01*
X100500887Y-98347719D01*
X100259939Y-98735467D01*
X100250000Y-98747994D01*
X100250000Y-99191921D01*
X100230315Y-99258960D01*
X100205383Y-99287180D01*
X99684489Y-99721259D01*
X99620386Y-99749055D01*
X99605106Y-99750000D01*
X96249999Y-99750000D01*
X95750001Y-99999998D01*
X95750000Y-100000000D01*
X95750000Y-101948638D01*
X95730315Y-102015677D01*
X95713681Y-102036319D01*
X95286319Y-102463681D01*
X95224996Y-102497166D01*
X95198638Y-102500000D01*
X94922348Y-102500000D01*
X94884030Y-102493931D01*
X94858825Y-102485741D01*
X94751847Y-102450981D01*
X94584649Y-102424500D01*
X94584644Y-102424500D01*
X93530934Y-102424500D01*
X93463895Y-102404815D01*
X93422566Y-102360769D01*
X93265632Y-102078591D01*
X93250000Y-102018322D01*
X93250000Y-100884926D01*
X93268229Y-100820207D01*
X95000000Y-97990000D01*
X95000000Y-91800510D01*
X95019685Y-91733471D01*
X95035290Y-91713869D01*
X95383513Y-91357356D01*
X95444439Y-91323152D01*
X95472220Y-91320000D01*
X97539999Y-91320000D01*
X97540000Y-91320000D01*
X97980000Y-90990000D01*
X97980000Y-87349844D01*
X97999685Y-87282805D01*
X98052487Y-87237050D01*
X98310000Y-87120000D01*
X98310000Y-85850467D01*
X98329685Y-85783428D01*
X98345239Y-85763880D01*
X98673347Y-85427568D01*
X98734250Y-85393330D01*
X98762483Y-85390163D01*
X101848521Y-85399777D01*
G37*
%TD.AperFunction*%
%TD*%
%TA.AperFunction,Conductor*%
%TO.N,GND*%
G36*
X102515677Y-83519685D02*
G01*
X102536319Y-83536319D01*
X102713681Y-83713681D01*
X102747166Y-83775004D01*
X102750000Y-83801362D01*
X102750000Y-84446024D01*
X102730315Y-84513063D01*
X102710496Y-84536779D01*
X102535467Y-84699737D01*
X102472988Y-84731012D01*
X102451541Y-84732981D01*
X98749999Y-84750000D01*
X98749998Y-84750000D01*
X97600000Y-85749999D01*
X97600000Y-90441921D01*
X97580315Y-90508960D01*
X97555383Y-90537180D01*
X97334489Y-90721259D01*
X97270386Y-90749055D01*
X97255106Y-90750000D01*
X96607032Y-90750000D01*
X96539993Y-90730315D01*
X96512884Y-90706698D01*
X96279852Y-90434827D01*
X96251169Y-90371116D01*
X96250000Y-90354129D01*
X96250000Y-84793497D01*
X96269685Y-84726458D01*
X96277172Y-84716035D01*
X97212770Y-83546538D01*
X97270021Y-83506486D01*
X97309598Y-83500000D01*
X102448638Y-83500000D01*
X102515677Y-83519685D01*
G37*
%TD.AperFunction*%
%TD*%
%TA.AperFunction,Conductor*%
%TO.N,GND*%
G36*
X106740403Y-98769685D02*
G01*
X106784273Y-98818546D01*
X106981841Y-99213681D01*
X106986909Y-99223818D01*
X107000000Y-99279272D01*
X107000000Y-102876000D01*
X106980315Y-102943039D01*
X106927511Y-102988794D01*
X106876000Y-103000000D01*
X100826636Y-103000000D01*
X100759597Y-102980315D01*
X100715727Y-102931454D01*
X100513091Y-102526182D01*
X100500000Y-102470728D01*
X100500000Y-99301362D01*
X100519685Y-99234323D01*
X100536319Y-99213681D01*
X100963681Y-98786319D01*
X101025004Y-98752834D01*
X101051362Y-98750000D01*
X106673364Y-98750000D01*
X106740403Y-98769685D01*
G37*
%TD.AperFunction*%
%TD*%
%TA.AperFunction,Conductor*%
%TO.N,+3V3*%
G36*
X104002675Y-85489685D02*
G01*
X104048430Y-85542489D01*
X104050975Y-85548471D01*
X104160971Y-85827128D01*
X104169617Y-85874584D01*
X104139999Y-87779999D01*
X104140000Y-87779999D01*
X104140000Y-87780000D01*
X104400000Y-88010000D01*
X108475172Y-87971003D01*
X108542397Y-87990045D01*
X108588655Y-88042409D01*
X108598428Y-88073199D01*
X108628089Y-88239299D01*
X108630020Y-88260867D01*
X108639875Y-93582508D01*
X108620314Y-93649584D01*
X108583389Y-93686747D01*
X108100707Y-94000066D01*
X108033758Y-94020056D01*
X108033389Y-94020057D01*
X101803739Y-94029914D01*
X101736669Y-94010335D01*
X101713193Y-93990843D01*
X101382065Y-93638580D01*
X101313555Y-93565697D01*
X101281983Y-93503369D01*
X101279906Y-93481006D01*
X101270148Y-88367848D01*
X101289705Y-88300773D01*
X101340049Y-88256036D01*
X101574378Y-88142423D01*
X101628476Y-88130000D01*
X102180000Y-88130000D01*
X102570000Y-87910000D01*
X102570000Y-85929252D01*
X102575837Y-85891655D01*
X102682508Y-85556403D01*
X102721593Y-85498488D01*
X102785784Y-85470897D01*
X102800671Y-85470000D01*
X103935636Y-85470000D01*
X104002675Y-85489685D01*
G37*
%TD.AperFunction*%
%TD*%
M02*
